<?xml version="1.0" encoding="utf-8"?>
<!-- Generator: Adobe Illustrator 15.0.0, SVG Export Plug-In . SVG Version: 6.00 Build 0)  -->
<!DOCTYPE svg PUBLIC "-//W3C//DTD SVG 1.1//EN" "http://www.w3.org/Graphics/SVG/1.1/DTD/svg11.dtd">
<svg version="1.1" id="Layer_1" xmlns="http://www.w3.org/2000/svg" xmlns:xlink="http://www.w3.org/1999/xlink" x="0px" y="0px"
	 width="17.575px" height="17.575px" viewBox="0 0 17.575 17.575" enable-background="new 0 0 17.575 17.575" xml:space="preserve">
<g>
	<g>
		<path fill="#FFFFFF" d="M1.891,16.826h13.792c0.801,0,1.457-0.655,1.457-1.457V2.202c0-0.801-0.656-1.457-1.457-1.457H1.891
			c-0.801,0-1.457,0.656-1.457,1.457v13.167C0.434,16.171,1.09,16.826,1.891,16.826"/>
		<path fill="none" stroke="#9B9B9B" stroke-width="0.303" stroke-miterlimit="10" d="M1.891,16.826h13.792
			c0.801,0,1.457-0.655,1.457-1.457V2.202c0-0.801-0.656-1.457-1.457-1.457H1.891c-0.801,0-1.457,0.656-1.457,1.457v13.167
			C0.434,16.171,1.09,16.826,1.891,16.826z"/>
	</g>
	<polygon fill="#696D6E" points="10.362,7.028 15.519,7.028 13.97,8.153 10.728,8.153 	"/>
	<polygon fill="#696D6E" points="7.183,7.028 2.03,7.028 3.577,8.153 6.815,8.153 	"/>
	<polygon fill="#808486" points="13.97,8.153 15.519,7.028 10.728,8.153 	"/>
	<polygon fill="#808486" points="3.577,8.153 7.183,7.028 2.03,7.028 	"/>
	<polygon fill="#969A9C" points="6.817,8.153 2.03,7.028 3.577,8.153 	"/>
	<polygon fill="#B1B4B6" points="15.519,7.028 10.364,7.028 13.97,8.153 	"/>
	<polygon fill="#696D6E" points="11.37,13.815 8.772,11.929 6.175,13.815 6.788,11.929 8.772,10.487 10.757,11.929 	"/>
	<polygon fill="#9D0F12" points="11.349,10.058 12.94,14.956 11.37,13.816 9.86,9.173 12.565,9.173 	"/>
	<polygon fill="#9D0F12" points="8.772,2.13 10.728,8.153 9.53,8.153 8.772,5.821 8.015,8.153 6.815,8.153 	"/>
	<polygon fill="#9D0F12" points="6.196,10.058 4.978,9.173 7.683,9.173 6.175,13.816 4.604,14.956 	"/>
	<polygon fill="#808486" points="11.37,13.815 8.772,11.929 8.772,10.487 	"/>
	<polygon fill="#E30613" points="7.683,9.173 6.196,10.058 6.175,13.815 	"/>
	<polygon fill="#B70D18" points="9.862,9.173 11.792,11.423 11.37,13.815 	"/>
	<polygon fill="#E4032B" points="12.565,9.173 10.899,10.383 9.86,9.173 	"/>
	<polygon fill="#E30613" points="11.792,11.423 11.37,13.815 12.94,14.956 	"/>
	<polygon fill="#E30613" points="8.772,2.13 8.772,5.821 10.728,8.153 	"/>
	<polygon fill="#CA0A23" points="6.815,8.153 8.772,5.821 8.015,8.153 	"/>
	<polygon fill="#969A9C" points="8.772,11.929 6.788,11.929 8.772,10.487 	"/>
	<g>
		<path fill="#FFFFFF" d="M1.889,16.829h13.795c0.803,0,1.457-0.656,1.457-1.458V2.2c0-0.801-0.654-1.457-1.457-1.457H1.889
			C1.086,0.743,0.43,1.399,0.43,2.2v13.171C0.43,16.173,1.086,16.829,1.889,16.829"/>
		<path fill="none" stroke="#9B9B9B" stroke-width="0.076" stroke-miterlimit="10" d="M1.889,16.829h13.795
			c0.803,0,1.457-0.656,1.457-1.458V2.2c0-0.801-0.654-1.457-1.457-1.457H1.889C1.086,0.743,0.43,1.399,0.43,2.2v13.171
			C0.43,16.173,1.086,16.829,1.889,16.829z"/>
	</g>
	<polygon fill="#696D6E" points="10.362,7.028 15.519,7.028 13.97,8.153 10.728,8.153 	"/>
	<polygon fill="#696D6E" points="7.183,7.028 2.03,7.028 3.577,8.153 6.815,8.153 	"/>
	<polygon fill="#808486" points="13.97,8.153 15.519,7.028 10.728,8.153 	"/>
	<polygon fill="#808486" points="3.577,8.153 7.183,7.028 2.03,7.028 	"/>
	<polygon fill="#969A9C" points="6.817,8.153 2.03,7.028 3.577,8.153 	"/>
	<polygon fill="#B1B4B6" points="15.519,7.028 10.364,7.028 13.97,8.153 	"/>
	<polygon fill="#696D6E" points="11.37,13.815 8.772,11.929 6.175,13.815 6.788,11.929 8.772,10.487 10.757,11.929 	"/>
	<polygon fill="#9D0F12" points="11.349,10.058 12.94,14.956 11.37,13.816 9.86,9.173 12.565,9.173 	"/>
	<polygon fill="#9D0F12" points="8.772,2.13 10.728,8.153 9.53,8.153 8.772,5.821 8.015,8.153 6.815,8.153 	"/>
	<polygon fill="#9D0F12" points="6.196,10.058 4.978,9.173 7.683,9.173 6.175,13.816 4.604,14.956 	"/>
	<polygon fill="#808486" points="11.37,13.815 8.772,11.929 8.772,10.487 	"/>
	<polygon fill="#E30613" points="7.683,9.173 6.196,10.058 6.175,13.815 	"/>
	<polygon fill="#B70D18" points="9.862,9.173 11.792,11.423 11.37,13.815 	"/>
	<polygon fill="#E4032B" points="12.565,9.173 10.899,10.383 9.86,9.173 	"/>
	<polygon fill="#E30613" points="11.792,11.423 11.37,13.815 12.94,14.956 	"/>
	<polygon fill="#E30613" points="8.772,2.13 8.772,5.821 10.728,8.153 	"/>
	<polygon fill="#CA0A23" points="6.815,8.153 8.772,5.821 8.015,8.153 	"/>
	<polygon fill="#969A9C" points="8.772,11.929 6.788,11.929 8.772,10.487 	"/>
</g>
</svg>
