<?xml version="1.0" encoding="utf-8"?>
<!-- Generator: Adobe Illustrator 15.0.0, SVG Export Plug-In . SVG Version: 6.00 Build 0)  -->
<!DOCTYPE svg PUBLIC "-//W3C//DTD SVG 1.1//EN" "http://www.w3.org/Graphics/SVG/1.1/DTD/svg11.dtd">
<svg version="1.1" id="Layer_1" xmlns="http://www.w3.org/2000/svg" xmlns:xlink="http://www.w3.org/1999/xlink" x="0px" y="0px"
	 width="17.575px" height="17.575px" viewBox="0 0 17.575 17.575" enable-background="new 0 0 17.575 17.575" xml:space="preserve">
<rect x="0.284" y="0.284" fill="#418C4A" width="17.008" height="17.008"/>
<g>
	<path fill="#FFFFFF" d="M9.021,13.572c-0.72,0-1.361-0.123-1.924-0.37c-0.564-0.247-1.041-0.588-1.43-1.021
		c-0.39-0.434-0.689-0.943-0.897-1.528S4.458,9.438,4.458,8.762c0-0.685,0.104-1.326,0.312-1.925C4.979,6.24,5.277,5.72,5.667,5.278
		c0.39-0.442,0.866-0.789,1.43-1.04C7.66,3.987,8.302,3.861,9.021,3.861c0.502,0,0.983,0.073,1.444,0.221
		c0.459,0.147,0.867,0.362,1.229,0.644c0.359,0.282,0.656,0.631,0.891,1.047c0.232,0.416,0.381,0.893,0.441,1.43h-1.977
		c-0.035-0.234-0.113-0.448-0.234-0.644s-0.271-0.366-0.455-0.514c-0.182-0.146-0.387-0.262-0.617-0.344
		c-0.229-0.083-0.47-0.124-0.721-0.124c-0.459,0-0.85,0.089-1.17,0.267c-0.32,0.178-0.581,0.416-0.78,0.715s-0.345,0.64-0.436,1.021
		C6.545,7.96,6.5,8.355,6.5,8.762c0,0.39,0.045,0.769,0.136,1.137c0.091,0.369,0.236,0.7,0.436,0.995s0.46,0.53,0.78,0.708
		c0.32,0.178,0.711,0.267,1.17,0.267c0.624,0,1.112-0.19,1.463-0.572c0.35-0.381,0.564-0.884,0.643-1.508h1.977
		c-0.053,0.59-0.188,1.116-0.404,1.58c-0.217,0.463-0.502,0.859-0.857,1.189c-0.355,0.329-0.771,0.58-1.248,0.754
		C10.118,13.485,9.594,13.572,9.021,13.572z"/>
</g>
</svg>
