<?xml version="1.0" encoding="utf-8"?>
<!-- Generator: Adobe Illustrator 15.0.0, SVG Export Plug-In . SVG Version: 6.00 Build 0)  -->
<!DOCTYPE svg PUBLIC "-//W3C//DTD SVG 1.1//EN" "http://www.w3.org/Graphics/SVG/1.1/DTD/svg11.dtd">
<svg version="1.1" id="Layer_1" xmlns="http://www.w3.org/2000/svg" xmlns:xlink="http://www.w3.org/1999/xlink" x="0px" y="0px"
	 width="17.575px" height="17.575px" viewBox="0 0 17.575 17.575" enable-background="new 0 0 17.575 17.575" xml:space="preserve">
<path fill="#FFFFFF" d="M9.946,3.745l3.77,10.083h-2.301l-0.762-2.244H6.881L6.09,13.829H3.859L7.672,3.745H9.946z M10.073,9.931
	L8.803,6.23h-0.03L7.461,9.931H10.073z"/>
<rect x="0.284" y="0.284" fill="#418C4A" width="17.007" height="17.008"/>
<g>
	<path fill="#FFFFFF" d="M5.109,4.081h4.368c0.441,0,0.845,0.039,1.209,0.117c0.363,0.078,0.676,0.206,0.936,0.384
		s0.462,0.414,0.605,0.708c0.143,0.295,0.214,0.659,0.214,1.092c0,0.469-0.106,0.858-0.318,1.171
		c-0.212,0.312-0.526,0.567-0.942,0.767c0.572,0.165,0.998,0.453,1.28,0.864c0.282,0.412,0.423,0.908,0.423,1.488
		c0,0.469-0.092,0.874-0.273,1.216c-0.182,0.343-0.427,0.622-0.734,0.839s-0.658,0.377-1.053,0.48
		c-0.395,0.104-0.8,0.156-1.216,0.156H5.109V4.081z M9.217,7.837c0.363,0,0.662-0.086,0.896-0.26
		c0.234-0.173,0.352-0.455,0.352-0.845c0-0.217-0.039-0.395-0.117-0.533s-0.182-0.247-0.313-0.325
		c-0.13-0.078-0.279-0.132-0.448-0.162S9.243,5.667,9.061,5.667H7.15v2.171H9.217z M9.334,11.777c0.199,0,0.39-0.02,0.571-0.059
		c0.183-0.039,0.343-0.104,0.481-0.195c0.139-0.091,0.248-0.214,0.331-0.37s0.124-0.355,0.124-0.598
		c0-0.477-0.135-0.817-0.403-1.021C10.17,9.331,9.815,9.229,9.374,9.229H7.15v2.548H9.334z"/>
</g>
</svg>
