<?xml version="1.0" encoding="utf-8"?>
<!-- Generator: Adobe Illustrator 15.0.0, SVG Export Plug-In . SVG Version: 6.00 Build 0)  -->
<!DOCTYPE svg PUBLIC "-//W3C//DTD SVG 1.1//EN" "http://www.w3.org/Graphics/SVG/1.1/DTD/svg11.dtd">
<svg version="1.1" id="Layer_1" xmlns="http://www.w3.org/2000/svg" xmlns:xlink="http://www.w3.org/1999/xlink" x="0px" y="0px"
	 width="17.575px" height="17.575px" viewBox="0 0 17.575 17.575" enable-background="new 0 0 17.575 17.575" xml:space="preserve">
<g>
	<path fill="#CD1719" d="M16.79,8.786c0,4.42-3.582,8.004-8.004,8.004c-4.42,0-8.003-3.584-8.003-8.004s3.583-8.004,8.003-8.004
		C13.208,0.782,16.79,4.366,16.79,8.786"/>
	<path fill="none" stroke="#CD1719" stroke-width="0.167" stroke-miterlimit="10" d="M17.208,8.786c0,4.643-3.777,8.42-8.42,8.42
		c-4.645,0-8.422-3.777-8.422-8.42c0-4.644,3.778-8.42,8.422-8.42C13.431,0.366,17.208,4.143,17.208,8.786z"/>
	<path fill="none" stroke="#CD1719" stroke-width="0.167" stroke-miterlimit="10" d="M16.374,8.786c0,4.184-3.404,7.587-7.586,7.587
		c-4.186,0-7.588-3.403-7.588-7.587c0-4.185,3.403-7.587,7.588-7.587C12.97,1.199,16.374,4.602,16.374,8.786z"/>
</g>
<rect x="7.327" y="4.913" fill="#FFFFFF" width="2.92" height="7.745"/>
<rect x="4.915" y="7.325" fill="#FFFFFF" width="7.747" height="2.922"/>
</svg>
