<?xml version="1.0" encoding="utf-8"?>
<!-- Generator: Adobe Illustrator 15.0.0, SVG Export Plug-In . SVG Version: 6.00 Build 0)  -->
<!DOCTYPE svg PUBLIC "-//W3C//DTD SVG 1.1//EN" "http://www.w3.org/Graphics/SVG/1.1/DTD/svg11.dtd">
<svg version="1.1" id="Layer_1" xmlns="http://www.w3.org/2000/svg" xmlns:xlink="http://www.w3.org/1999/xlink" x="0px" y="0px"
	 width="17.575px" height="17.575px" viewBox="0 0 17.575 17.575" enable-background="new 0 0 17.575 17.575" xml:space="preserve">
<g>
	<defs>
		<rect id="SVGID_1_" x="0.283" y="1.113" width="17.008" height="15.35"/>
	</defs>
	<clipPath id="SVGID_2_">
		<use xlink:href="#SVGID_1_"  overflow="visible"/>
	</clipPath>
	<path clip-path="url(#SVGID_2_)" fill="#00A651" d="M15.442-6.164H2.139c-1.133,0-2.06-0.86-2.06-1.912v-11.703
		c0-1.052,0.927-1.912,2.06-1.912h13.303c1.132,0,2.06,0.86,2.06,1.912v11.703C17.501-7.024,16.574-6.164,15.442-6.164"/>
	<path clip-path="url(#SVGID_2_)" fill="none" stroke="#FFFFFF" stroke-width="0.3227" stroke-miterlimit="10" d="M15.442-6.164
		H2.139c-1.133,0-2.06-0.86-2.06-1.912v-11.703c0-1.052,0.927-1.912,2.06-1.912h13.303c1.132,0,2.06,0.86,2.06,1.912v11.703
		C17.501-7.024,16.574-6.164,15.442-6.164z"/>
	<path clip-path="url(#SVGID_2_)" d="M7.139-13.063c0.869,0,1.711,0.001,2.553-0.001c0.579-0.002,0.61,0.019,0.566,0.556
		c-0.07,0.837-0.554,1.481-1.135,2.086C8.711-9.995,8.266-9.775,7.601-9.796C5.951-9.849,4.297-9.81,2.645-9.812
		c-0.518,0-0.697-0.174-0.697-0.662c0-0.437,0.163-0.793,0.563-1.05c1.308-0.839,2.609-1.688,3.921-2.521
		c0.137-0.087,0.372-0.166,0.492-0.112c0.117,0.052,0.18,0.271,0.206,0.427C7.165-13.531,7.139-13.325,7.139-13.063 M5.097-11.472
		c0.027,0.012,0.054,0.022,0.082,0.034c0.022,0.146,0.014,0.304,0.076,0.433c0.073,0.151,0.183,0.347,0.325,0.393
		c0.098,0.03,0.329-0.132,0.413-0.258c0.379-0.568,0.53-1.191,0.362-1.852c-0.037-0.141-0.18-0.321-0.314-0.359
		c-0.101-0.029-0.338,0.114-0.392,0.229C5.438-12.403,5.276-11.933,5.097-11.472 M4.798-11.479c-0.015-0.005-0.03-0.011-0.045-0.017
		c-0.009-0.102,0.004-0.212-0.035-0.303c-0.036-0.084-0.114-0.182-0.198-0.21c-0.055-0.018-0.183,0.062-0.228,0.127
		c-0.23,0.338-0.333,0.708-0.225,1.104c0.023,0.086,0.116,0.209,0.187,0.215c0.08,0.007,0.213-0.082,0.25-0.158
		C4.621-10.966,4.703-11.224,4.798-11.479 M3.204-10.39c0.28-0.207,0.429-0.635,0.323-0.882c-0.07-0.163-0.164-0.183-0.291-0.048
		C3.03-11.102,3.007-10.673,3.204-10.39 M2.265-10.313C2.324-10.3,2.382-10.29,2.44-10.277c0.213-0.207,0.242-0.443,0.14-0.701
		c-0.053-0.01-0.105-0.02-0.158-0.028L2.265-10.313z"/>
	<path clip-path="url(#SVGID_2_)" d="M4.129-12.821c-0.1-0.32-0.007-0.499,0.256-0.667c0.951-0.602,1.879-1.234,2.826-1.842
		c0.148-0.095,0.354-0.157,0.535-0.158c1.63-0.009,3.259-0.002,4.889,0.004c0.157,0,0.352-0.063,0.401,0.184
		c0.008,0.045,0.179,0.078,0.277,0.086c0.293,0.021,0.587,0.015,0.879,0.041c0.33,0.029,0.505,0.223,0.518,0.522
		c0.015,0.341,0.005,0.682,0,1.022c-0.004,0.221-0.118,0.314-0.371,0.313c-2.219-0.01-4.436-0.013-6.653-0.009
		c-0.275,0-0.383-0.1-0.357-0.345c0.006-0.057,0-0.113,0-0.171c-0.004-0.617-0.287-0.786-0.863-0.458
		c-0.667,0.381-1.3,0.813-1.948,1.222C4.398-13.001,4.281-12.921,4.129-12.821"/>
	<path clip-path="url(#SVGID_2_)" d="M11.761-13.058c0.74,0,1.534-0.002,2.328,0.002c0.223,0,0.31,0.137,0.273,0.318
		c-0.072,0.366-0.118,0.745-0.266,1.086c-0.143,0.331-0.381,0.632-0.607,0.926c-0.496,0.64-1.097,1.066-2.032,0.924
		c-0.447-0.068-0.918-0.012-1.454-0.012C11.038-10.728,12-11.602,11.761-13.058"/>
	<path clip-path="url(#SVGID_2_)" d="M11.596-16.77v1.108H7.536c0-0.486-0.016-0.959,0.013-1.43c0.005-0.089,0.181-0.238,0.28-0.24
		c1.096-0.017,2.191-0.011,3.303,0.047c-0.364,0.143-0.731,0.283-1.097,0.428c-0.211,0.083-0.429,0.186-0.324,0.446
		c0.11,0.274,0.347,0.236,0.582,0.145C10.708-16.428,11.126-16.588,11.596-16.77"/>
	<path clip-path="url(#SVGID_2_)" d="M5.569-14.488c0-0.393-0.01-0.721,0.006-1.047c0.004-0.089,0.063-0.199,0.136-0.258
		c0.505-0.408,1.02-0.807,1.61-1.268c0,0.504,0.004,0.936-0.004,1.367c-0.002,0.045-0.055,0.1-0.101,0.13
		C6.682-15.21,6.145-14.863,5.569-14.488"/>
	<path clip-path="url(#SVGID_2_)" d="M12.696-17.778c0.064,0.151,0.112,0.264,0.172,0.402c-0.914,0.355-1.802,0.705-2.696,1.037
		c-0.09,0.033-0.231-0.052-0.35-0.082c0.063-0.105,0.098-0.268,0.191-0.307C10.886-17.083,11.767-17.418,12.696-17.778"/>
	<path clip-path="url(#SVGID_2_)" d="M14.377-17.697c-0.238,0.09-0.5,0.229-0.78,0.285c-0.242,0.048-0.538,0.101-0.664-0.233
		c-0.122-0.319,0.111-0.467,0.332-0.59c0.235-0.132,0.511-0.207,0.736-0.294C14.125-18.254,14.243-17.996,14.377-17.697"/>
	<path clip-path="url(#SVGID_2_)" d="M14.894-18.03c-0.173,0.1-0.261,0.151-0.349,0.201c-0.086-0.22-0.187-0.437-0.245-0.663
		c-0.011-0.044,0.147-0.126,0.228-0.191C14.642-18.479,14.756-18.275,14.894-18.03"/>
	<path clip-path="url(#SVGID_2_)" fill="#A70C1B" d="M15.442,16.499H2.139c-1.133,0-2.06-0.859-2.06-1.91V2.884
		c0-1.051,0.927-1.911,2.06-1.911h13.303c1.132,0,2.06,0.86,2.06,1.911v11.704C17.501,15.639,16.574,16.499,15.442,16.499"/>
	<path clip-path="url(#SVGID_2_)" fill="none" stroke="#FFFFFF" stroke-width="0.3227" stroke-miterlimit="10" d="M15.442,16.499
		H2.139c-1.133,0-2.06-0.859-2.06-1.91V2.884c0-1.051,0.927-1.911,2.06-1.911h13.303c1.132,0,2.06,0.86,2.06,1.911v11.704
		C17.501,15.639,16.574,16.499,15.442,16.499z"/>
	<path clip-path="url(#SVGID_2_)" fill="#FFFFFF" d="M7.139,9.6c0.869,0,1.711,0.001,2.553-0.001
		c0.579-0.001,0.61,0.019,0.566,0.556c-0.07,0.836-0.554,1.481-1.135,2.086c-0.412,0.428-0.857,0.646-1.522,0.626
		c-1.65-0.053-3.304-0.015-4.957-0.016c-0.518,0-0.697-0.174-0.697-0.663c0-0.435,0.163-0.792,0.563-1.049
		C3.819,10.3,5.12,9.451,6.432,8.618c0.137-0.086,0.372-0.165,0.492-0.111c0.117,0.052,0.18,0.272,0.206,0.427
		C7.165,9.131,7.139,9.338,7.139,9.6 M5.097,11.192c0.027,0.011,0.054,0.021,0.082,0.033c0.022,0.146,0.014,0.303,0.076,0.432
		c0.073,0.152,0.183,0.347,0.325,0.393c0.098,0.032,0.329-0.131,0.413-0.258c0.379-0.567,0.53-1.19,0.362-1.85
		C6.317,9.799,6.174,9.62,6.04,9.582c-0.101-0.028-0.338,0.114-0.392,0.23C5.438,10.26,5.276,10.73,5.097,11.192 M4.798,11.184
		c-0.015-0.005-0.03-0.011-0.045-0.017c-0.009-0.103,0.004-0.212-0.035-0.303c-0.036-0.084-0.114-0.183-0.198-0.209
		c-0.055-0.019-0.183,0.061-0.228,0.126c-0.23,0.338-0.333,0.709-0.225,1.104c0.023,0.087,0.116,0.209,0.187,0.216
		c0.08,0.007,0.213-0.082,0.25-0.158C4.621,11.697,4.703,11.438,4.798,11.184 M3.204,12.273c0.28-0.206,0.429-0.636,0.323-0.882
		c-0.07-0.164-0.164-0.183-0.291-0.049C3.03,11.561,3.007,11.99,3.204,12.273 M2.265,12.35c0.059,0.012,0.117,0.024,0.175,0.035
		c0.213-0.207,0.242-0.443,0.14-0.7c-0.053-0.009-0.105-0.019-0.158-0.028L2.265,12.35z"/>
	<path clip-path="url(#SVGID_2_)" fill="#FFFFFF" d="M4.129,9.842c-0.1-0.321-0.007-0.5,0.256-0.668
		C5.336,8.573,6.264,7.94,7.211,7.333C7.36,7.238,7.566,7.176,7.747,7.175c1.63-0.009,3.259-0.003,4.889,0.003
		c0.157,0,0.352-0.062,0.401,0.186c0.008,0.043,0.179,0.077,0.277,0.085c0.293,0.021,0.587,0.015,0.879,0.04
		c0.33,0.03,0.505,0.224,0.518,0.522c0.015,0.341,0.005,0.682,0,1.023c-0.004,0.222-0.118,0.313-0.371,0.313
		c-2.219-0.01-4.436-0.012-6.653-0.01c-0.275,0.001-0.383-0.1-0.357-0.344c0.006-0.058,0-0.114,0-0.17
		C7.325,8.206,7.042,8.037,6.465,8.365c-0.667,0.381-1.3,0.812-1.948,1.221C4.398,9.663,4.281,9.743,4.129,9.842"/>
	<path clip-path="url(#SVGID_2_)" fill="#FFFFFF" d="M11.761,9.605c0.74,0,1.534-0.002,2.328,0.001
		c0.223,0.002,0.31,0.137,0.273,0.318c-0.072,0.366-0.118,0.747-0.266,1.087c-0.143,0.331-0.381,0.631-0.607,0.926
		c-0.496,0.641-1.097,1.067-2.032,0.925c-0.447-0.068-0.918-0.013-1.454-0.013C11.038,11.934,12,11.061,11.761,9.605"/>
	<path clip-path="url(#SVGID_2_)" fill="#FFFFFF" d="M11.596,5.894v1.108H7.536c0-0.486-0.016-0.96,0.013-1.432
		c0.005-0.088,0.181-0.237,0.28-0.238c1.096-0.018,2.191-0.013,3.303,0.046c-0.364,0.143-0.731,0.282-1.097,0.428
		C9.824,5.889,9.606,5.992,9.71,6.252c0.11,0.273,0.347,0.237,0.582,0.145C10.708,6.235,11.126,6.075,11.596,5.894"/>
	<path clip-path="url(#SVGID_2_)" fill="#FFFFFF" d="M5.569,8.175c0-0.393-0.01-0.721,0.006-1.048
		C5.58,7.039,5.638,6.929,5.711,6.87c0.505-0.407,1.02-0.806,1.61-1.267c0,0.504,0.004,0.935-0.004,1.366
		C7.315,7.014,7.262,7.071,7.216,7.101C6.682,7.453,6.145,7.801,5.569,8.175"/>
	<path clip-path="url(#SVGID_2_)" fill="#FFFFFF" d="M12.696,4.884c0.064,0.151,0.112,0.265,0.172,0.403
		c-0.914,0.354-1.802,0.704-2.696,1.036c-0.09,0.033-0.231-0.052-0.35-0.082c0.063-0.104,0.098-0.268,0.191-0.307
		C10.886,5.581,11.767,5.245,12.696,4.884"/>
	<path clip-path="url(#SVGID_2_)" fill="#FFFFFF" d="M14.377,4.966c-0.238,0.091-0.5,0.229-0.78,0.284
		c-0.242,0.048-0.538,0.101-0.664-0.232c-0.122-0.319,0.111-0.468,0.332-0.591c0.235-0.131,0.511-0.206,0.736-0.294
		C14.125,4.409,14.243,4.667,14.377,4.966"/>
	<path clip-path="url(#SVGID_2_)" fill="#FFFFFF" d="M14.894,4.633c-0.173,0.1-0.261,0.15-0.349,0.2
		c-0.086-0.219-0.187-0.435-0.245-0.662c-0.011-0.045,0.147-0.125,0.228-0.191C14.642,4.184,14.756,4.389,14.894,4.633"/>
</g>
</svg>
