<?xml version="1.0" encoding="utf-8"?>
<!-- Generator: Adobe Illustrator 15.0.0, SVG Export Plug-In . SVG Version: 6.00 Build 0)  -->
<!DOCTYPE svg PUBLIC "-//W3C//DTD SVG 1.1//EN" "http://www.w3.org/Graphics/SVG/1.1/DTD/svg11.dtd">
<svg version="1.1" id="Layer_1" xmlns="http://www.w3.org/2000/svg" xmlns:xlink="http://www.w3.org/1999/xlink" x="0px" y="0px"
	 width="481.891px" height="321.029px" viewBox="0 0 481.891 321.029" enable-background="new 0 0 481.891 321.029"
	 xml:space="preserve">
<g id="Улица">
	<path fill="#9D9D9C" stroke="#12100B" stroke-miterlimit="10" d="M434.989,36.411"/>
	<path fill="none" stroke="#000000" stroke-width="0.5" stroke-miterlimit="10" d="M460.884,44.778l-58.305,200.697
		c0,0-101.178-22.882-201.908-41.73C106.644,186.151,14.873,173.64,14.873,173.64V36.411h428.882
		C460.884,44.778,460.884,44.778,460.884,44.778z"/>
</g>
<g id="Экспозиция">
	
		<rect x="17.752" y="39.214" fill="#6B6E6F" stroke="#000000" stroke-width="0.2" stroke-miterlimit="10" width="68.031" height="28.348"/>
	
		<rect x="94.265" y="39.273" fill="#6B6E6F" stroke="#000000" stroke-width="0.2" stroke-miterlimit="10" width="59.527" height="28.347"/>
	
		<rect x="17.973" y="118.11" fill="#6B6E6F" stroke="#000000" stroke-width="0.2" stroke-miterlimit="10" width="22.677" height="51.022"/>
	
		<rect x="256.169" y="39.273" fill="#6B6E6F" stroke="#000000" stroke-width="0.2" stroke-miterlimit="10" width="42.521" height="36.851"/>
	
		<rect x="57.437" y="92.758" fill="#6B6E6F" stroke="#000000" stroke-width="0.2" stroke-miterlimit="10" width="17.008" height="48.188"/>
	
		<polygon opacity="0.5" fill="#939698" stroke="#000000" stroke-width="0.2" stroke-miterlimit="10" enable-background="new    " points="
		82.859,79.357 82.859,166.794 382.919,217.867 382.919,79.357 	"/>
	
		<rect x="17.83" y="76.065" fill="#6B6E6F" stroke="#000000" stroke-width="0.2" stroke-miterlimit="10" width="17.008" height="22.677"/>
	
		<rect x="162.362" y="38.913" fill="#6B6E6F" stroke="#000000" stroke-width="0.2" stroke-miterlimit="10" width="85.039" height="28.348"/>
	<text transform="matrix(1 0 0 1 99.5801 52.5388)" fill="#FFFFFF" font-family="'DINPro-Regular'" font-size="3">Комбинат автомобильных фургонов</text>
	<text transform="matrix(1 0 0 1 121.2671 56.1384)" fill="#DADADA" font-family="'DINPro-Regular'" font-size="3">KAF</text>
	<text transform="matrix(1 0 0 1 197.2529 52.5388)" fill="#FFFFFF" font-family="'DINPro-Regular'" font-size="3">Оборонлес</text>
	<text transform="matrix(1 0 0 1 197.7847 56.1384)" fill="#DADADA" font-family="'DINPro-Regular'" font-size="3">Oboronles</text>
	<text transform="matrix(1 0 0 1 198.1602 140.2087)" fill="#FFFFFF" font-family="'DINPro-Regular'" font-size="10">ЗОНА ФУДКОРТА</text>
	<text transform="matrix(1 0 0 1 26.3467 140.8298)" fill="#FFFFFF" font-family="'DINPro-Regular'" font-size="1.5">Военно-</text>
	<text transform="matrix(1 0 0 1 24.2715 142.6306)" fill="#FFFFFF" font-family="'DINPro-Regular'" font-size="1.5">Строительный</text>
	<text transform="matrix(1 0 0 1 25.9707 144.4304)" fill="#FFFFFF" font-family="'DINPro-Regular'" font-size="1.5">комплекс</text>
	<text transform="matrix(1 0 0 1 63.085 115.3162)" fill="#FFFFFF" font-family="'DINPro-Regular'" font-size="1.5">Военно-</text>
	<text transform="matrix(1 0 0 1 61.0107 117.116)" fill="#FFFFFF" font-family="'DINPro-Regular'" font-size="1.5">Строительный</text>
	<text transform="matrix(1 0 0 1 62.709 118.9158)" fill="#FFFFFF" font-family="'DINPro-Regular'" font-size="1.5">комплекс</text>
	<text transform="matrix(1 0 0 1 268.8604 53.0857)" fill="#FFFFFF" font-family="'DINPro-Regular'" font-size="3">Управление </text>
	<text transform="matrix(1 0 0 1 268.8438 56.6863)" fill="#FFFFFF" font-family="'DINPro-Regular'" font-size="3">физической </text>
	<text transform="matrix(1 0 0 1 269.6855 60.2859)" fill="#FFFFFF" font-family="'DINPro-Regular'" font-size="3">подготовки</text>
	<text transform="matrix(1 0 0 1 272.6104 63.8865)" fill="#FFFFFF" font-family="'DINPro-Regular'" font-size="3">ВС РФ </text>
	<text transform="matrix(1 0 0 1 35.4805 52.5388)" fill="#FFFFFF" font-family="'DINPro-Regular'" font-size="3">Волгостальконструкция</text>
	<text transform="matrix(1 0 0 1 45.2334 56.1384)" fill="#DADADA" font-family="'DINPro-Regular'" font-size="3">JSC&quot;VSK&quot;</text>
	<g>
		<circle fill="#EDEDED" stroke="#3C3C3B" stroke-width="0.25" stroke-miterlimit="10" cx="17.752" cy="39.273" r="3.26"/>
		<text transform="matrix(1 0 0 1 15.3301 40.2576)" fill="#3C3C3B" font-family="'DINPro-Bold'" font-size="2.8">4O1</text>
	</g>
	<g>
		<circle fill="#EDEDED" stroke="#3C3C3B" stroke-width="0.25" stroke-miterlimit="10" cx="94.265" cy="39.273" r="3.26"/>
		<text transform="matrix(1 0 0 1 91.8428 40.2576)" fill="#3C3C3B" font-family="'DINPro-Bold'" font-size="2.8">4O2</text>
	</g>
	<g>
		<circle fill="#EDEDED" stroke="#3C3C3B" stroke-width="0.25" stroke-miterlimit="10" cx="17.83" cy="76.065" r="3.26"/>
		<text transform="matrix(1 0 0 1 15.4082 77.0505)" fill="#3C3C3B" font-family="'DINPro-Bold'" font-size="2.8">4O4</text>
	</g>
	<g>
		<circle fill="#EDEDED" stroke="#3C3C3B" stroke-width="0.25" stroke-miterlimit="10" cx="17.973" cy="118.11" r="3.26"/>
		<text transform="matrix(1 0 0 1 15.5508 119.0955)" fill="#3C3C3B" font-family="'DINPro-Bold'" font-size="2.8">4O7</text>
	</g>
	<g>
		<circle fill="#EDEDED" stroke="#3C3C3B" stroke-width="0.25" stroke-miterlimit="10" cx="256.061" cy="39.214" r="3.26"/>
		<text transform="matrix(1 0 0 1 253.6377 40.198)" fill="#3C3C3B" font-family="'DINPro-Bold'" font-size="2.8">4O9</text>
	</g>
	<g>
		<circle fill="#EDEDED" stroke="#3C3C3B" stroke-width="0.25" stroke-miterlimit="10" cx="58.102" cy="92.958" r="3.26"/>
		<text transform="matrix(1 0 0 1 55.6797 93.9431)" fill="#3C3C3B" font-family="'DINPro-Bold'" font-size="2.8">4O8</text>
	</g>
	<g>
		<circle fill="#EDEDED" stroke="#3C3C3B" stroke-width="0.25" stroke-miterlimit="10" cx="162.314" cy="39.273" r="3.26"/>
		<text transform="matrix(1 0 0 1 159.8926 40.2576)" fill="#3C3C3B" font-family="'DINPro-Bold'" font-size="2.8">4O3</text>
	</g>
	<text transform="matrix(1 0 0 1 23.4053 85.4119)" fill="#FFFFFF" font-family="'DINPro-Regular'" font-size="1.5">Военная</text>
	<text transform="matrix(1 0 0 1 22.9121 87.2126)" fill="#FFFFFF" font-family="'DINPro-Regular'" font-size="1.5">медицина</text>
	<text transform="matrix(1 0 0 1 20.6074 89.0125)" fill="#DADADA" font-family="'DINPro-Regular'" font-size="1.5">Military medicine</text>
</g>
</svg>
