<?xml version="1.0" encoding="utf-8"?>
<!-- Generator: Adobe Illustrator 15.0.0, SVG Export Plug-In . SVG Version: 6.00 Build 0)  -->
<!DOCTYPE svg PUBLIC "-//W3C//DTD SVG 1.1//EN" "http://www.w3.org/Graphics/SVG/1.1/DTD/svg11.dtd">
<svg version="1.1" id="Layer_1" xmlns="http://www.w3.org/2000/svg" xmlns:xlink="http://www.w3.org/1999/xlink" x="0px" y="0px"
	 width="17.575px" height="17.575px" viewBox="0 0 17.575 17.575" enable-background="new 0 0 17.575 17.575" xml:space="preserve">
<g>
	<g>
		<path fill="#A50F14" d="M17.291,8.786c0,4.696-3.807,8.504-8.504,8.504c-4.697,0-8.504-3.808-8.504-8.504
			c0-4.697,3.807-8.504,8.504-8.504C13.484,0.282,17.291,4.089,17.291,8.786"/>
	</g>
	<path fill="#FFFFFF" d="M11.582,8.516h0.73V7.784h-0.73V8.516z M5.597,8.516h0.729v-0.73H5.597V8.516z M11.584,7.393h0.73V6.659
		h-0.73V7.393z M6.33,6.664h-0.73v0.729h0.73V6.664z M11.584,6.271h0.73V5.54h-0.73V6.271z M6.328,5.543h-0.73v0.73h0.73V5.543z
		 M6.72,8.515h4.473V5.54H6.72V8.515z"/>
	<g>
		<path fill="#FFFFFF" d="M4.091,5.042c0.033-0.114,0.053-0.235,0.104-0.343C4.398,4.264,4.75,4.043,5.226,4.038
			c0.617-0.006,1.236-0.001,1.852-0.001c1.85,0,3.7,0,5.549,0c0.533,0,0.977,0.315,1.139,0.822c0.035,0.104,0.051,0.217,0.051,0.326
			c0.004,2.35,0.002,4.698,0.002,7.049c0,0.233-0.143,0.399-0.373,0.404c-0.486,0.007-0.975,0.001-1.463,0.001
			c-0.006,0-0.012-0.005-0.033-0.013v-0.209c0-0.133,0-0.266,0-0.398c0-0.126,0-0.126,0.123-0.126c0.295,0,0.588,0,0.883,0h0.113
			c0.002-0.042,0.006-0.075,0.006-0.109c0-2.175,0-4.35,0-6.526c0-0.304-0.172-0.476-0.477-0.476c-2.428-0.001-4.858-0.001-7.286,0
			c-0.051,0-0.102,0.004-0.152,0.009C5,4.809,4.871,4.932,4.849,5.091c-0.008,0.06-0.01,0.12-0.01,0.181
			c-0.002,2.166,0,4.332,0,6.497v0.125H4.96c0.303,0,0.607,0.002,0.91-0.001c0.072-0.001,0.094,0.021,0.094,0.092
			c-0.004,0.215-0.002,0.43-0.002,0.657H5.851c-0.428,0-0.855,0-1.283,0c-0.281,0-0.375-0.064-0.477-0.321V5.042z"/>
		<path fill="#FFFFFF" d="M10.818,12.263v-1.86h-0.756C9.9,11.124,9.539,11.491,8.978,11.5c-0.242,0.004-0.463-0.067-0.656-0.212
			c-0.293-0.221-0.436-0.525-0.467-0.883h-0.77c0,0.604,0.002,1.199-0.002,1.794c0,0.074,0.043,0.073,0.09,0.079
			c0.32,0.045,0.557,0.252,0.635,0.559c0.014,0.058,0.021,0.117,0.031,0.173h2.236C10.126,12.562,10.375,12.314,10.818,12.263
			 M6.638,13.764c-0.07-0.045-0.152-0.081-0.209-0.139c-0.08-0.079-0.092-0.188-0.092-0.3c0-0.688,0-1.374,0-2.062v-0.118H5.599
			V9.654h6.715v1.486h-0.738v0.122v2.023c0,0.282-0.064,0.376-0.32,0.478H6.638z"/>
	</g>
	<rect x="6.72" y="5.54" fill="#FFFFFF" width="4.473" height="2.975"/>
	<rect x="5.597" y="5.542" fill="#FFFFFF" width="0.73" height="0.73"/>
	<rect x="11.584" y="5.54" fill="#FFFFFF" width="0.73" height="0.731"/>
	<rect x="5.601" y="6.664" fill="#FFFFFF" width="0.729" height="0.73"/>
	<rect x="11.584" y="6.659" fill="#FFFFFF" width="0.73" height="0.733"/>
	<rect x="5.595" y="7.784" fill="#FFFFFF" width="0.73" height="0.73"/>
	<rect x="11.584" y="7.784" fill="#FFFFFF" width="0.73" height="0.731"/>
	<g>
		<path fill="#FFFFFF" d="M8.968,11.777c0.109,0.042,0.229,0.069,0.326,0.13c0.141,0.086,0.137,0.244,0.006,0.347
			c-0.176,0.14-0.518,0.139-0.693-0.002c-0.125-0.102-0.123-0.247,0.004-0.345c0.102-0.079,0.221-0.104,0.348-0.104
			C8.962,11.795,8.964,11.787,8.968,11.777"/>
	</g>
</g>
</svg>
