<?xml version="1.0" encoding="utf-8"?>
<!-- Generator: Adobe Illustrator 15.0.0, SVG Export Plug-In . SVG Version: 6.00 Build 0)  -->
<!DOCTYPE svg PUBLIC "-//W3C//DTD SVG 1.1//EN" "http://www.w3.org/Graphics/SVG/1.1/DTD/svg11.dtd">
<svg version="1.1" id="Layer_1" xmlns="http://www.w3.org/2000/svg" xmlns:xlink="http://www.w3.org/1999/xlink" x="0px" y="0px"
	 width="17.575px" height="17.575px" viewBox="0 0 17.575 17.575" enable-background="new 0 0 17.575 17.575" xml:space="preserve">
<g>
	<path fill="#E74310" d="M17.379,8.786c0,4.746-3.848,8.593-8.593,8.593c-4.744,0-8.593-3.847-8.593-8.593s3.849-8.593,8.593-8.593
		C13.531,0.193,17.379,4.04,17.379,8.786"/>
	<path fill="#FFFFFF" d="M4.976,9.914c-0.014,0-0.021,0.002-0.029,0.001C4.788,9.903,4.638,9.863,4.491,9.804
		c-0.23-0.094-0.426-0.229-0.58-0.426C3.813,9.252,3.745,9.11,3.731,8.95C3.716,8.766,3.792,8.613,3.913,8.48
		c0.096-0.105,0.219-0.165,0.35-0.207c0.08-0.024,0.164-0.029,0.246-0.043C4.632,8.809,4.743,9.375,4.976,9.914 M12.729,7.839
		c0,0.038,0.002,0.071-0.002,0.104c-0.012,0.119-0.025,0.239-0.041,0.357c-0.018,0.135-0.029,0.271-0.055,0.402
		c-0.027,0.146-0.063,0.29-0.104,0.433c-0.096,0.33-0.219,0.646-0.449,0.912c-0.139,0.161-0.303,0.277-0.51,0.325
		c-0.084,0.021-0.172,0.022-0.256,0.032c-0.002-0.005-0.004-0.01-0.006-0.016c0.125-0.122,0.168-0.285,0.215-0.443
		s0.082-0.32,0.115-0.481c0.025-0.124,0.045-0.249,0.064-0.374c0.016-0.102,0.029-0.204,0.043-0.306
		c0.016-0.122,0.037-0.244,0.051-0.366c0.014-0.12,0.021-0.24,0.033-0.359c0.002-0.015,0.021-0.036,0.035-0.038
		c0.072-0.012,0.145-0.011,0.217-0.024c0.154-0.029,0.307-0.063,0.459-0.099C12.602,7.883,12.662,7.86,12.729,7.839 M11.896,11.537
		c0.008,0,0.014,0.001,0.02,0.001c0.012,0.047,0.033,0.094,0.035,0.142c0.006,0.152-0.088,0.255-0.197,0.34
		c-0.168,0.133-0.363,0.223-0.568,0.283c-0.193,0.059-0.391,0.109-0.588,0.157c-0.113,0.027-0.23,0.046-0.347,0.063
		c-0.129,0.018-0.26,0.029-0.389,0.043c-0.162,0.015-0.326,0.038-0.49,0.04c-0.443,0.004-0.889,0.015-1.332-0.04
		c-0.129-0.017-0.26-0.023-0.389-0.044c-0.158-0.026-0.316-0.06-0.473-0.094c-0.291-0.063-0.574-0.149-0.837-0.293
		c-0.135-0.072-0.262-0.158-0.338-0.3c-0.045-0.081-0.055-0.203-0.002-0.269c0.016,0.017,0.029,0.035,0.045,0.051
		c0.088,0.091,0.193,0.157,0.305,0.214c0.166,0.086,0.342,0.152,0.521,0.199c0.172,0.044,0.345,0.08,0.517,0.115
		c0.119,0.024,0.24,0.047,0.359,0.062c0.17,0.022,0.338,0.04,0.508,0.053c0.152,0.013,0.305,0.021,0.457,0.021
		c0.248-0.001,0.496-0.01,0.746-0.021c0.141-0.006,0.281-0.017,0.422-0.03c0.17-0.019,0.338-0.035,0.505-0.064
		c0.201-0.036,0.402-0.078,0.6-0.13c0.193-0.051,0.381-0.12,0.559-0.215c0.111-0.061,0.219-0.129,0.305-0.227
		C11.865,11.576,11.881,11.557,11.896,11.537 M12.434,10.738c0.145-0.252,0.275-0.507,0.379-0.775
		c0.072-0.184,0.148-0.367,0.209-0.555c0.084-0.272,0.16-0.546,0.227-0.822c0.047-0.191,0.078-0.389,0.107-0.585
		c0.023-0.177,0.037-0.354,0.053-0.534c0.014-0.175,0.02-0.352,0.033-0.527c0.008-0.153-0.07-0.252-0.195-0.326
		c-0.199-0.116-0.414-0.186-0.635-0.239c-0.139-0.034-0.273-0.072-0.412-0.1c-0.133-0.027-0.268-0.046-0.4-0.067
		c-0.168-0.024-0.334-0.052-0.504-0.072c-0.123-0.015-0.25-0.021-0.375-0.032c-0.148-0.014-0.299-0.028-0.447-0.041
		c-0.014-0.001-0.033,0.002-0.043,0.01c-0.053,0.051-0.105,0.104-0.158,0.156c-0.006,0.007-0.012,0.016-0.02,0.027
		c0.044,0.005,0.082,0.012,0.121,0.016c0.162,0.014,0.324,0.026,0.484,0.042c0.137,0.012,0.273,0.025,0.41,0.042
		c0.094,0.012,0.188,0.025,0.279,0.043c0.162,0.029,0.322,0.058,0.482,0.094c0.193,0.043,0.387,0.09,0.564,0.175
		c0.082,0.039,0.158,0.088,0.234,0.138c0.102,0.068,0.102,0.203,0.004,0.278c-0.137,0.105-0.293,0.167-0.457,0.214
		c-0.121,0.036-0.24,0.074-0.363,0.102c-0.164,0.035-0.33,0.06-0.496,0.088c-0.104,0.018-0.209,0.035-0.313,0.05
		c-0.072,0.01-0.145,0.016-0.215,0.023c-0.145,0.014-0.289,0.028-0.434,0.042c-0.092,0.008-0.184,0.017-0.277,0.021
		c-0.201,0.008-0.402,0.014-0.604,0.021c-0.086,0.003-0.17,0.008-0.256,0.01c-0.186,0.005-0.375,0.01-0.563,0.01
		c-0.168,0-0.338-0.005-0.506-0.01C8.249,7.65,8.145,7.647,8.043,7.643C7.87,7.633,7.694,7.622,7.52,7.61
		c-0.115-0.008-0.23-0.02-0.346-0.031C7.071,7.567,6.966,7.551,6.86,7.538C6.743,7.523,6.624,7.514,6.507,7.495
		c-0.164-0.026-0.328-0.053-0.49-0.088C5.87,7.376,5.722,7.341,5.577,7.294C5.421,7.243,5.263,7.191,5.136,7.075
		C5.032,6.98,5.042,6.88,5.147,6.793c0.145-0.121,0.318-0.174,0.494-0.228c0.123-0.038,0.25-0.068,0.375-0.096
		c0.137-0.028,0.273-0.054,0.41-0.072C6.626,6.368,6.829,6.345,7.03,6.323c0.148-0.017,0.296-0.03,0.445-0.042
		c0.102-0.009,0.203-0.016,0.316-0.024C7.76,6.188,7.741,6.121,7.702,6.064C7.69,6.045,7.635,6.049,7.6,6.051
		C7.536,6.054,7.469,6.065,7.405,6.07c-0.07,0.006-0.143,0.006-0.211,0.012C7.05,6.094,6.909,6.109,6.767,6.123
		c-0.105,0.01-0.213,0.02-0.318,0.032c-0.143,0.018-0.285,0.038-0.428,0.06C5.888,6.235,5.757,6.253,5.626,6.281
		C5.438,6.322,5.249,6.363,5.065,6.418C4.913,6.462,4.765,6.522,4.622,6.586c-0.094,0.042-0.18,0.104-0.23,0.2
		C4.386,6.798,4.38,6.812,4.38,6.824c0,0.129-0.006,0.258,0.002,0.387c0.006,0.14,0.025,0.278,0.039,0.416
		c0.002,0.015,0,0.027,0,0.047c-0.059,0-0.115-0.003-0.17,0C3.974,7.688,3.722,7.77,3.499,7.941c-0.18,0.14-0.303,0.323-0.361,0.543
		c-0.031,0.12-0.039,0.245-0.029,0.373c0.016,0.194,0.068,0.378,0.164,0.546c0.066,0.118,0.15,0.228,0.234,0.335
		c0.166,0.206,0.377,0.356,0.611,0.475c0.201,0.102,0.416,0.172,0.641,0.202c0.135,0.019,0.273,0.01,0.41,0.013
		c0.012,0,0.023-0.006,0.033-0.008c0.057,0.104,0.113,0.206,0.168,0.308c-0.137,0.055-0.275,0.104-0.41,0.164
		c-0.203,0.089-0.398,0.191-0.57,0.338c-0.082,0.067-0.15,0.145-0.205,0.235c-0.105,0.182-0.104,0.362,0.006,0.539
		c0.115,0.186,0.283,0.312,0.469,0.418c0.324,0.187,0.67,0.315,1.031,0.406c0.211,0.054,0.422,0.11,0.637,0.154
		c0.176,0.037,0.355,0.06,0.537,0.086c0.178,0.026,0.357,0.051,0.539,0.073c0.1,0.011,0.199,0.016,0.299,0.021
		c0.184,0.011,0.367,0.025,0.549,0.03c0.258,0.008,0.516,0.009,0.773,0.011c0.127,0.002,0.252,0.003,0.379,0
		c0.141-0.004,0.281-0.013,0.424-0.021c0.092-0.006,0.182-0.013,0.273-0.021c0.117-0.012,0.236-0.027,0.353-0.04
		c0.096-0.011,0.191-0.021,0.287-0.033c0.102-0.013,0.203-0.024,0.305-0.042c0.139-0.021,0.277-0.046,0.414-0.072
		c0.334-0.065,0.664-0.15,0.988-0.262c0.281-0.097,0.551-0.215,0.797-0.381c0.143-0.096,0.273-0.21,0.354-0.369
		c0.094-0.181,0.076-0.356-0.033-0.523c-0.104-0.156-0.248-0.268-0.404-0.364c-0.221-0.137-0.461-0.237-0.707-0.323
		C12.447,10.75,12.443,10.744,12.434,10.738"/>
	<path fill="#FFFFFF" d="M9.233,2.401c-0.1,0.036-0.201,0.067-0.301,0.109c-0.184,0.08-0.357,0.176-0.518,0.301
		C8.209,2.974,8.057,3.171,8.016,3.434C7.993,3.592,8.02,3.75,8.081,3.899c0.078,0.191,0.188,0.363,0.326,0.514
		c0.16,0.173,0.33,0.335,0.49,0.506c0.166,0.176,0.313,0.363,0.42,0.582c0.088,0.178,0.145,0.36,0.143,0.561
		C9.458,6.216,9.401,6.353,9.319,6.479C9.176,6.694,8.977,6.843,8.741,6.943C8.723,6.952,8.708,6.965,8.692,6.976L8.7,6.989
		C8.799,6.954,8.903,6.923,9,6.88c0.188-0.081,0.373-0.163,0.555-0.255c0.168-0.087,0.324-0.195,0.473-0.318
		c0.135-0.113,0.242-0.248,0.322-0.402c0.066-0.123,0.084-0.257,0.066-0.398c-0.029-0.212-0.14-0.374-0.281-0.525
		c-0.145-0.158-0.322-0.278-0.49-0.41C9.547,4.495,9.454,4.414,9.362,4.331C9.28,4.26,9.204,4.185,9.127,4.107
		c-0.129-0.13-0.242-0.272-0.326-0.436C8.713,3.504,8.672,3.324,8.727,3.136c0.045-0.16,0.145-0.29,0.252-0.412
		c0.08-0.092,0.162-0.184,0.242-0.276c0.01-0.01,0.016-0.023,0.021-0.035C9.239,2.408,9.237,2.404,9.233,2.401"/>
	<path fill="#FFFFFF" d="M7.586,7.294c0.02,0,0.039,0.007,0.055-0.001C7.823,7.221,8.004,7.152,8.18,7.07
		c0.152-0.072,0.291-0.168,0.408-0.292C8.715,6.644,8.793,6.49,8.793,6.295C8.792,6.152,8.739,6.04,8.663,5.931
		c-0.051-0.077-0.107-0.155-0.17-0.224c-0.109-0.113-0.229-0.218-0.338-0.33C7.999,5.218,7.848,5.05,7.731,4.858
		c-0.068-0.107-0.123-0.222-0.135-0.35C7.583,4.368,7.643,4.253,7.737,4.155c0.068-0.073,0.145-0.139,0.219-0.208
		C7.961,3.94,7.965,3.93,7.971,3.92c-0.012,0-0.021-0.002-0.031,0C7.739,3.956,7.555,4.038,7.405,4.175
		C7.278,4.288,7.202,4.434,7.186,4.608C7.159,4.901,7.27,5.155,7.411,5.398c0.139,0.238,0.295,0.465,0.428,0.705
		c0.09,0.159,0.145,0.335,0.166,0.519C8.03,6.821,7.991,6.997,7.846,7.143C7.788,7.204,7.713,7.249,7.627,7.267
		C7.612,7.27,7.598,7.277,7.586,7.282C7.586,7.286,7.586,7.29,7.586,7.294"/>
</g>
</svg>
