<?xml version="1.0" encoding="utf-8"?>
<!-- Generator: Adobe Illustrator 15.0.0, SVG Export Plug-In . SVG Version: 6.00 Build 0)  -->
<!DOCTYPE svg PUBLIC "-//W3C//DTD SVG 1.1//EN" "http://www.w3.org/Graphics/SVG/1.1/DTD/svg11.dtd">
<svg version="1.1" id="Layer_1" xmlns="http://www.w3.org/2000/svg" xmlns:xlink="http://www.w3.org/1999/xlink" x="0px" y="0px"
	 width="17.575px" height="17.575px" viewBox="0 0 17.575 17.575" enable-background="new 0 0 17.575 17.575" xml:space="preserve">
<g>
	<g>
		<path fill="#A50F14" d="M17.29,8.786c0,4.697-3.807,8.504-8.504,8.504c-4.695,0-8.503-3.807-8.503-8.504
			c0-4.696,3.808-8.504,8.503-8.504C13.483,0.282,17.29,4.09,17.29,8.786"/>
		<path fill="#FFFFFF" d="M2.625,9.549v-0.84h6.182c0-0.625-0.002-1.209,0-1.792c0.002-1.055,0.549-1.594,1.61-1.595
			c0.189,0,0.377-0.001,0.564,0.001c0.885,0.008,1.471,0.585,1.486,1.481c0.012,0.619,0.002,1.239,0.002,1.889h1.383v0.855
			c-0.346,0-0.682,0-1.018,0c-0.496,0-0.912,0.387-0.982,0.888c-0.213,1.521-0.434,3.04-0.652,4.583h-1.129
			c-0.084-0.563-0.172-1.138-0.254-1.713c-0.145-0.998-0.283-1.997-0.428-2.995C9.338,9.959,8.866,9.549,8.516,9.549
			c-1.832,0-3.664,0-5.495,0H2.625z"/>
		<path fill="#FFFFFF" d="M7.629,8.124H4.045c0-0.579-0.051-1.153,0.016-1.715c0.068-0.595,0.652-1.05,1.266-1.08
			c0.338-0.018,0.68-0.017,1.02-0.001C6.961,5.355,7.54,5.799,7.614,6.4C7.684,6.962,7.629,7.538,7.629,8.124"/>
		<path fill="#FFFFFF" d="M5.846,4.758C5.374,4.76,5.002,4.385,5.004,3.907C5.008,3.445,5.364,3.08,5.821,3.068
			C6.286,3.058,6.682,3.437,6.69,3.9C6.698,4.361,6.309,4.756,5.846,4.758"/>
		<path fill="#FFFFFF" d="M10.622,4.758c-0.471-0.006-0.834-0.386-0.827-0.864c0.008-0.46,0.373-0.821,0.831-0.824
			c0.465-0.003,0.855,0.384,0.854,0.846C11.478,4.378,11.087,4.764,10.622,4.758"/>
	</g>
</g>
</svg>
