<?xml version="1.0" encoding="utf-8"?>
<!-- Generator: Adobe Illustrator 15.0.0, SVG Export Plug-In . SVG Version: 6.00 Build 0)  -->
<!DOCTYPE svg PUBLIC "-//W3C//DTD SVG 1.1//EN" "http://www.w3.org/Graphics/SVG/1.1/DTD/svg11.dtd">
<svg version="1.1" id="Layer_1" xmlns="http://www.w3.org/2000/svg" xmlns:xlink="http://www.w3.org/1999/xlink" x="0px" y="0px"
	 width="17.575px" height="17.575px" viewBox="0 0 17.575 17.575" enable-background="new 0 0 17.575 17.575" xml:space="preserve">
<g>
	<path fill="#A50F14" d="M17.291,8.775c0,4.698-3.807,8.504-8.505,8.504c-4.697,0-8.504-3.807-8.504-8.504
		c0-4.697,3.807-8.504,8.504-8.504C13.484,0.271,17.291,4.078,17.291,8.775"/>
	<path fill="#FFFFFF" d="M13.633,3.017c1.002,0.837,1.781,1.837,2.27,3.06c1.203,3.022,0.16,6.6-2.482,8.485
		c-0.262,0.187-0.463,0.18-0.654-0.024c-0.246-0.262-0.299-0.604-0.119-0.826c0.057-0.073,0.131-0.136,0.203-0.194
		c1.816-1.47,2.584-3.371,2.279-5.68c-0.195-1.484-0.906-2.71-2.041-3.687c-0.336-0.288-0.357-0.442-0.094-0.795
		c0.088-0.119,0.195-0.227,0.295-0.338H13.633z"/>
	<path fill="#FFFFFF" d="M4.128,3.017c0.137,0.168,0.295,0.321,0.404,0.506c0.137,0.231,0.047,0.421-0.158,0.592
		C3.262,5.04,2.547,6.219,2.316,7.64c-0.386,2.365,0.364,4.335,2.232,5.858c0.393,0.322,0.441,0.679,0.1,1.038
		c-0.168,0.176-0.363,0.236-0.584,0.074C2.402,13.388,1.367,11.773,1.1,9.722C0.749,7,1.706,4.778,3.784,3.017H4.128z"/>
	<path fill="#FFFFFF" d="M14.104,8.789c-0.025,1.577-0.668,2.877-1.91,3.886c-0.244,0.197-0.463,0.178-0.643-0.052
		c-0.258-0.329-0.266-0.607-0.025-0.805c1.906-1.577,2.002-4.211,0.213-5.908c-0.25-0.237-0.236-0.548,0.037-0.844
		c0.211-0.227,0.426-0.223,0.691,0.023C13.531,6.082,14.082,7.302,14.104,8.789"/>
	<path fill="#FFFFFF" d="M3.313,8.832c0.025-1.529,0.573-2.761,1.653-3.754C5.224,4.84,5.425,4.838,5.634,5.062
		c0.279,0.301,0.299,0.612,0.053,0.842c-1.791,1.669-1.703,4.353,0.193,5.91c0.248,0.204,0.246,0.472-0.008,0.8
		c-0.189,0.243-0.395,0.263-0.66,0.048C3.972,11.66,3.349,10.358,3.313,8.832"/>
	<path fill="#FFFFFF" d="M5.435,8.736C5.448,8.01,5.71,7.357,6.237,6.814C6.47,6.577,6.675,6.552,6.854,6.732
		c0.32,0.321,0.373,0.6,0.16,0.837C6.31,8.347,6.345,9.348,7.099,10.09c0.219,0.216,0.197,0.517-0.061,0.807
		c-0.201,0.227-0.406,0.231-0.664-0.005C5.751,10.322,5.438,9.613,5.435,8.736"/>
	<path fill="#FFFFFF" d="M11.98,8.999c-0.014,0.641-0.328,1.35-0.961,1.911c-0.25,0.222-0.439,0.212-0.643-0.011
		c-0.25-0.276-0.274-0.597-0.059-0.807c0.756-0.74,0.787-1.731,0.082-2.522c-0.213-0.239-0.143-0.563,0.184-0.857
		c0.174-0.157,0.379-0.127,0.598,0.101C11.711,7.367,11.986,8.026,11.98,8.999"/>
	<path fill="#FFFFFF" d="M9.22,17.302c0.016,0-1.482-0.068-1.469-0.068c0.066-1.581,0.264-3.11,0.328-4.691
		c0.031-0.724,0.061-1.446,0.104-2.17c0.01-0.178-0.016-0.288-0.193-0.387C7.435,9.672,7.179,9.003,7.343,8.386
		c0.158-0.602,0.727-1.04,1.373-1.059c0.611-0.017,1.188,0.4,1.381,1.001c0.192,0.6-0.02,1.271-0.557,1.604
		c-0.225,0.14-0.271,0.29-0.262,0.525c0.094,2.22,0.184,4.438,0.273,6.656c0.002,0.046,0.004,0.092,0.006,0.137L9.22,17.302z"/>
</g>
</svg>
