<?xml version="1.0" encoding="utf-8"?>
<!-- Generator: Adobe Illustrator 15.0.0, SVG Export Plug-In . SVG Version: 6.00 Build 0)  -->
<!DOCTYPE svg PUBLIC "-//W3C//DTD SVG 1.1//EN" "http://www.w3.org/Graphics/SVG/1.1/DTD/svg11.dtd">
<svg version="1.1" id="Layer_1" xmlns="http://www.w3.org/2000/svg" xmlns:xlink="http://www.w3.org/1999/xlink" x="0px" y="0px"
	 width="17.575px" height="17.575px" viewBox="0 0 17.575 17.575" enable-background="new 0 0 17.575 17.575" xml:space="preserve">
<g>
	<defs>
		<rect id="SVGID_1_" x="0.283" y="1.201" width="17.008" height="15.173"/>
	</defs>
	<clipPath id="SVGID_2_">
		<use xlink:href="#SVGID_1_"  overflow="visible"/>
	</clipPath>
	<path clip-path="url(#SVGID_2_)" fill="#00A651" d="M15.426,16.524H2.123c-1.133,0-2.059-0.86-2.059-1.912V2.909
		c0-1.051,0.926-1.912,2.059-1.912h13.303c1.133,0,2.06,0.86,2.06,1.912v11.703C17.486,15.664,16.559,16.524,15.426,16.524"/>
	<path clip-path="url(#SVGID_2_)" fill="none" stroke="#FFFFFF" stroke-width="0.3227" stroke-miterlimit="10" d="M15.426,16.524
		H2.123c-1.133,0-2.059-0.86-2.059-1.912V2.909c0-1.051,0.926-1.912,2.059-1.912h13.303c1.133,0,2.06,0.86,2.06,1.912v11.703
		C17.486,15.664,16.559,16.524,15.426,16.524z"/>
	<path clip-path="url(#SVGID_2_)" d="M7.123,9.625c0.87,0,1.711,0.003,2.554,0c0.579-0.001,0.61,0.019,0.564,0.554
		c-0.07,0.838-0.552,1.482-1.133,2.087c-0.414,0.429-0.859,0.647-1.523,0.626c-1.65-0.052-3.304-0.014-4.957-0.017
		c-0.518,0-0.697-0.172-0.697-0.662c0-0.436,0.162-0.791,0.563-1.049c1.308-0.839,2.608-1.688,3.921-2.52
		C6.553,8.556,6.789,8.477,6.908,8.53c0.118,0.052,0.18,0.272,0.206,0.428C7.148,9.156,7.123,9.363,7.123,9.625 M5.081,11.215
		c0.027,0.011,0.054,0.023,0.082,0.034c0.022,0.145,0.014,0.303,0.076,0.432c0.073,0.152,0.182,0.348,0.325,0.393
		c0.098,0.031,0.329-0.131,0.413-0.257c0.38-0.567,0.529-1.191,0.362-1.852c-0.037-0.142-0.18-0.321-0.314-0.359
		C5.923,9.579,5.686,9.72,5.632,9.836C5.422,10.286,5.261,10.754,5.081,11.215 M4.782,11.209c-0.015-0.006-0.03-0.012-0.045-0.019
		c-0.009-0.101,0.004-0.211-0.035-0.302c-0.036-0.084-0.114-0.182-0.198-0.209c-0.055-0.02-0.184,0.062-0.228,0.127
		c-0.229,0.338-0.333,0.708-0.225,1.104c0.023,0.085,0.116,0.208,0.187,0.216c0.08,0.007,0.213-0.083,0.249-0.159
		C4.604,11.721,4.687,11.462,4.782,11.209 M3.188,12.297c0.28-0.206,0.429-0.635,0.323-0.883c-0.07-0.162-0.164-0.182-0.291-0.047
		C3.014,11.586,2.991,12.014,3.188,12.297 M2.25,12.375c0.058,0.012,0.116,0.023,0.174,0.036c0.213-0.208,0.242-0.443,0.139-0.7
		c-0.052-0.01-0.105-0.02-0.157-0.029L2.25,12.375z"/>
	<path clip-path="url(#SVGID_2_)" d="M4.113,9.866C4.014,9.546,4.106,9.367,4.37,9.2c0.951-0.602,1.878-1.235,2.826-1.842
		C7.344,7.264,7.55,7.202,7.73,7.2c1.629-0.01,3.261-0.002,4.89,0.002c0.156,0.001,0.351-0.062,0.401,0.185
		c0.008,0.043,0.179,0.078,0.276,0.085c0.293,0.022,0.588,0.015,0.879,0.042c0.331,0.029,0.506,0.222,0.52,0.522
		c0.014,0.34,0.004,0.682-0.001,1.022c-0.004,0.221-0.118,0.313-0.371,0.313C12.106,9.362,9.888,9.36,7.67,9.363
		c-0.275,0-0.382-0.1-0.357-0.345c0.006-0.056,0-0.113,0-0.17C7.31,8.23,7.026,8.061,6.45,8.389C5.783,8.77,5.149,9.201,4.502,9.611
		C4.382,9.686,4.266,9.766,4.113,9.866"/>
	<path clip-path="url(#SVGID_2_)" d="M11.746,9.629c0.74,0,1.534-0.002,2.328,0.001c0.222,0.001,0.31,0.138,0.273,0.319
		c-0.072,0.366-0.118,0.746-0.266,1.086c-0.144,0.331-0.382,0.632-0.607,0.925c-0.496,0.641-1.097,1.069-2.034,0.926
		c-0.447-0.068-0.916-0.013-1.452-0.013C11.022,11.959,11.985,11.085,11.746,9.629"/>
	<path clip-path="url(#SVGID_2_)" d="M11.58,5.918v1.108H7.519c0-0.486-0.015-0.959,0.014-1.431c0.005-0.088,0.18-0.238,0.279-0.239
		c1.096-0.018,2.192-0.011,3.305,0.046c-0.367,0.143-0.732,0.283-1.098,0.427C9.808,5.914,9.59,6.017,9.695,6.276
		c0.109,0.275,0.345,0.237,0.582,0.145C10.694,6.259,11.11,6.1,11.58,5.918"/>
	<path clip-path="url(#SVGID_2_)" d="M5.553,8.2c0-0.393-0.009-0.721,0.007-1.047c0.004-0.088,0.063-0.199,0.136-0.257
		C6.2,6.487,6.716,6.089,7.305,5.627c0,0.503,0.003,0.935-0.004,1.368c-0.001,0.043-0.055,0.1-0.1,0.13
		C6.667,7.478,6.13,7.825,5.553,8.2"/>
	<path clip-path="url(#SVGID_2_)" d="M12.68,4.91c0.064,0.151,0.112,0.264,0.172,0.402c-0.915,0.355-1.801,0.706-2.696,1.036
		c-0.092,0.033-0.232-0.051-0.35-0.081C9.869,6.162,9.904,5.999,9.999,5.96C10.869,5.604,11.751,5.27,12.68,4.91"/>
	<path clip-path="url(#SVGID_2_)" d="M14.362,4.991c-0.238,0.09-0.5,0.229-0.781,0.284c-0.241,0.048-0.537,0.101-0.663-0.233
		c-0.122-0.319,0.112-0.467,0.332-0.59c0.236-0.132,0.51-0.206,0.736-0.294C14.11,4.434,14.226,4.692,14.362,4.991"/>
	<path clip-path="url(#SVGID_2_)" d="M14.878,4.658c-0.173,0.099-0.261,0.15-0.348,0.201c-0.087-0.22-0.188-0.437-0.246-0.663
		c-0.011-0.045,0.147-0.126,0.228-0.191C14.626,4.208,14.741,4.412,14.878,4.658"/>
	<path clip-path="url(#SVGID_2_)" fill="#A70C1B" d="M15.426,39.187H2.123c-1.133,0-2.059-0.86-2.059-1.912V25.572
		c0-1.051,0.926-1.91,2.059-1.91h13.303c1.133,0,2.06,0.859,2.06,1.91v11.703C17.486,38.327,16.559,39.187,15.426,39.187"/>
	<path clip-path="url(#SVGID_2_)" fill="none" stroke="#FFFFFF" stroke-width="0.3227" stroke-miterlimit="10" d="M15.426,39.187
		H2.123c-1.133,0-2.059-0.86-2.059-1.912V25.572c0-1.051,0.926-1.91,2.059-1.91h13.303c1.133,0,2.06,0.859,2.06,1.91v11.703
		C17.486,38.327,16.559,39.187,15.426,39.187z"/>
	<path clip-path="url(#SVGID_2_)" fill="#FFFFFF" d="M7.123,32.288c0.87,0,1.711,0.002,2.554,0c0.579-0.002,0.61,0.018,0.564,0.554
		c-0.07,0.838-0.552,1.482-1.133,2.086c-0.414,0.43-0.859,0.648-1.523,0.627c-1.65-0.052-3.304-0.014-4.957-0.015
		c-0.518-0.002-0.697-0.174-0.697-0.664c0-0.436,0.162-0.791,0.563-1.049c1.308-0.839,2.608-1.688,3.921-2.521
		c0.136-0.087,0.372-0.166,0.492-0.113c0.118,0.053,0.18,0.272,0.206,0.429C7.148,31.819,7.123,32.026,7.123,32.288 M5.081,33.878
		c0.027,0.011,0.054,0.023,0.082,0.034c0.022,0.145,0.014,0.303,0.076,0.432c0.073,0.152,0.182,0.348,0.325,0.393
		c0.098,0.031,0.329-0.131,0.413-0.257c0.38-0.567,0.529-1.192,0.362-1.851c-0.037-0.143-0.18-0.322-0.314-0.36
		c-0.101-0.028-0.338,0.114-0.392,0.229C5.422,32.949,5.261,33.417,5.081,33.878 M4.782,33.873c-0.015-0.006-0.03-0.012-0.045-0.019
		c-0.009-0.101,0.004-0.211-0.035-0.301c-0.036-0.086-0.114-0.183-0.198-0.211c-0.055-0.018-0.184,0.063-0.228,0.127
		c-0.229,0.339-0.333,0.708-0.225,1.104c0.023,0.085,0.116,0.208,0.187,0.216c0.08,0.007,0.213-0.083,0.249-0.16
		C4.604,34.384,4.687,34.125,4.782,33.873 M3.188,34.96c0.28-0.207,0.429-0.636,0.323-0.883c-0.07-0.162-0.164-0.182-0.291-0.047
		C3.014,34.25,2.991,34.677,3.188,34.96 M2.25,35.037c0.058,0.013,0.116,0.024,0.174,0.037c0.213-0.208,0.242-0.444,0.139-0.7
		c-0.052-0.01-0.105-0.02-0.157-0.029L2.25,35.037z"/>
	<path clip-path="url(#SVGID_2_)" fill="#FFFFFF" d="M4.113,32.529c-0.099-0.319-0.007-0.499,0.257-0.666
		c0.951-0.602,1.878-1.234,2.826-1.842c0.148-0.095,0.354-0.156,0.534-0.157c1.629-0.01,3.261-0.003,4.89,0.002
		c0.156,0.001,0.351-0.062,0.401,0.185c0.008,0.044,0.179,0.078,0.276,0.085c0.293,0.022,0.588,0.015,0.879,0.042
		c0.331,0.029,0.506,0.224,0.52,0.522c0.014,0.341,0.004,0.682-0.001,1.022c-0.004,0.221-0.118,0.314-0.371,0.313
		c-2.218-0.011-4.436-0.014-6.654-0.01c-0.275,0-0.382-0.1-0.357-0.345c0.006-0.057,0-0.113,0-0.171
		c-0.003-0.617-0.287-0.786-0.863-0.458c-0.667,0.381-1.301,0.813-1.948,1.222C4.382,32.349,4.266,32.429,4.113,32.529"/>
	<path clip-path="url(#SVGID_2_)" fill="#FFFFFF" d="M11.746,32.292c0.74,0,1.534-0.002,2.328,0.002c0.222,0,0.31,0.137,0.273,0.318
		c-0.072,0.366-0.118,0.745-0.266,1.086c-0.144,0.331-0.382,0.632-0.607,0.925c-0.496,0.641-1.097,1.068-2.034,0.926
		c-0.447-0.068-0.916-0.013-1.452-0.013C11.022,34.623,11.985,33.749,11.746,32.292"/>
	<path clip-path="url(#SVGID_2_)" fill="#FFFFFF" d="M11.58,28.581v1.109H7.519c0-0.486-0.015-0.96,0.014-1.432
		c0.005-0.087,0.18-0.238,0.279-0.239c1.096-0.017,2.192-0.011,3.305,0.047c-0.367,0.142-0.732,0.283-1.098,0.428
		c-0.211,0.082-0.429,0.186-0.324,0.446c0.109,0.274,0.345,0.236,0.582,0.145C10.694,28.922,11.11,28.762,11.58,28.581"/>
	<path clip-path="url(#SVGID_2_)" fill="#FFFFFF" d="M5.553,30.863c0-0.393-0.009-0.72,0.007-1.047
		c0.004-0.089,0.063-0.199,0.136-0.258c0.505-0.408,1.021-0.806,1.61-1.268c0,0.503,0.003,0.935-0.004,1.367
		c-0.001,0.044-0.055,0.1-0.1,0.13C6.667,30.14,6.13,30.488,5.553,30.863"/>
	<path clip-path="url(#SVGID_2_)" fill="#FFFFFF" d="M12.68,27.573c0.064,0.151,0.112,0.263,0.172,0.401
		c-0.915,0.355-1.801,0.705-2.696,1.037c-0.092,0.033-0.232-0.051-0.35-0.081c0.063-0.104,0.098-0.27,0.192-0.307
		C10.869,28.267,11.751,27.932,12.68,27.573"/>
	<path clip-path="url(#SVGID_2_)" fill="#FFFFFF" d="M14.362,27.654c-0.238,0.091-0.5,0.229-0.781,0.285
		c-0.241,0.048-0.537,0.101-0.663-0.233c-0.122-0.319,0.112-0.468,0.332-0.59c0.236-0.132,0.51-0.206,0.736-0.294
		C14.11,27.096,14.226,27.356,14.362,27.654"/>
	<path clip-path="url(#SVGID_2_)" fill="#FFFFFF" d="M14.878,27.322c-0.173,0.099-0.261,0.149-0.348,0.2
		c-0.087-0.22-0.188-0.437-0.246-0.664c-0.011-0.043,0.147-0.125,0.228-0.189C14.626,26.872,14.741,27.076,14.878,27.322"/>
</g>
</svg>
