<?xml version="1.0" encoding="utf-8"?>
<!-- Generator: Adobe Illustrator 15.0.0, SVG Export Plug-In . SVG Version: 6.00 Build 0)  -->
<!DOCTYPE svg PUBLIC "-//W3C//DTD SVG 1.1//EN" "http://www.w3.org/Graphics/SVG/1.1/DTD/svg11.dtd">
<svg version="1.1" id="Layer_1" xmlns="http://www.w3.org/2000/svg" xmlns:xlink="http://www.w3.org/1999/xlink" x="0px" y="0px"
	 width="17.575px" height="17.575px" viewBox="0 0 17.575 17.575" enable-background="new 0 0 17.575 17.575" xml:space="preserve">
<g>
	<defs>
		<rect id="SVGID_1_" x="0.283" y="0.284" width="17.008" height="17.008"/>
	</defs>
	<clipPath id="SVGID_2_">
		<use xlink:href="#SVGID_1_"  overflow="visible"/>
	</clipPath>
	<path clip-path="url(#SVGID_2_)" fill="#D16C28" d="M8.787,17.018c4.546,0,8.23-3.686,8.23-8.23c0-4.546-3.684-8.231-8.23-8.231
		c-4.545,0-8.229,3.685-8.229,8.231C0.558,13.333,4.242,17.018,8.787,17.018"/>
	<circle clip-path="url(#SVGID_2_)" fill="none" stroke="#FFFFFF" stroke-width="0.457" cx="8.787" cy="8.787" r="8.231"/>
	<path clip-path="url(#SVGID_2_)" fill="#FFFFFF" d="M6.611,7.929c0.146-0.648,0.286-1.286,0.438-1.922
		c0.07-0.29,0.196-0.384,0.498-0.385c0.847-0.006,1.694-0.001,2.541-0.006c0.222-0.001,0.347,0.114,0.393,0.312
		c0.129,0.562,0.249,1.126,0.37,1.69c0.025,0.116,0.038,0.235,0.062,0.381c0.099-0.485,0.187-0.945,0.283-1.399
		c0.046-0.214,0.11-0.423,0.168-0.634c0.061-0.223,0.201-0.344,0.442-0.344c0.867,0.001,1.736,0.001,2.604-0.002
		c0.229-0.001,0.333,0.143,0.38,0.33c0.107,0.429,0.205,0.862,0.297,1.295c0.049,0.226,0.069,0.46,0.12,0.686
		c0.035,0.161-0.015,0.245-0.17,0.267c-0.536,0.079-1.067,0.188-1.606,0.223c-0.824,0.052-1.648,0-2.445-0.26
		c-0.053-0.019-0.123-0.001-0.179,0.014c-1.352,0.363-2.7,0.363-4.051,0.003c-0.082-0.021-0.18-0.021-0.262,0.001
		C5.187,8.534,3.878,8.52,2.564,8.214C2.355,8.165,2.308,8.067,2.35,7.874c0.126-0.583,0.239-1.172,0.371-1.755
		c0.097-0.433,0.196-0.5,0.643-0.501c0.776-0.002,1.553-0.001,2.33,0c0.332,0,0.439,0.06,0.52,0.4
		c0.136,0.574,0.242,1.157,0.36,1.737C6.585,7.813,6.599,7.873,6.611,7.929"/>
	<path clip-path="url(#SVGID_2_)" fill="#FFFFFF" d="M2.887,9.682V9.141C2.548,9.021,2.228,8.91,1.903,8.794
		C2.02,8.544,2.167,8.48,2.396,8.539c1.22,0.31,2.456,0.382,3.687,0.124C6.52,8.571,6.917,8.6,7.341,8.671
		C8.52,8.869,9.697,8.895,10.86,8.554c0.076-0.023,0.167-0.004,0.247,0.014c1.246,0.291,2.496,0.333,3.751,0.068
		c0.097-0.02,0.191-0.05,0.284-0.082c0.224-0.077,0.354-0.032,0.529,0.23c-0.338,0.122-0.661,0.236-1.003,0.358v0.54h-3.174V9.136
		c-0.38-0.179-0.737-0.181-1.122-0.002v0.55H7.194V9.14C6.807,8.954,6.444,8.96,6.066,9.133v0.549H2.887z"/>
	<path clip-path="url(#SVGID_2_)" fill="#FFFFFF" d="M8.787,12.948c-0.172,0.004-0.344,0.021-0.524,0.057
		c-1.231,0.26-2.467,0.188-3.686-0.123c-0.23-0.057-0.377,0.006-0.495,0.258c0.325,0.113,0.646,0.227,0.984,0.346v0.541h3.18v-0.551
		c0.183-0.082,0.361-0.127,0.541-0.131V12.948z"/>
	<path clip-path="url(#SVGID_2_)" fill="#FFFFFF" d="M8.787,12.258c-0.011-0.053-0.023-0.107-0.035-0.162
		c-0.118-0.578-0.223-1.16-0.36-1.734c-0.081-0.34-0.188-0.4-0.52-0.402c-0.776,0-1.554,0-2.331,0.002
		c-0.447,0.002-0.545,0.068-0.642,0.5c-0.133,0.584-0.245,1.172-0.372,1.758c-0.042,0.193,0.007,0.289,0.216,0.338
		c1.313,0.307,2.622,0.32,3.929-0.035c0.036-0.01,0.075-0.016,0.114-0.018V12.258z"/>
	<path clip-path="url(#SVGID_2_)" fill="#FFFFFF" d="M8.787,12.948c0.172,0.004,0.345,0.021,0.524,0.057
		c1.232,0.26,2.469,0.188,3.688-0.123c0.23-0.057,0.376,0.006,0.494,0.258c-0.325,0.113-0.646,0.227-0.984,0.346v0.541h-3.18v-0.551
		c-0.182-0.082-0.361-0.127-0.542-0.131V12.948z"/>
	<path clip-path="url(#SVGID_2_)" fill="#FFFFFF" d="M8.787,12.258c0.011-0.053,0.023-0.107,0.035-0.162
		c0.117-0.578,0.223-1.16,0.36-1.734c0.08-0.34,0.188-0.4,0.52-0.402c0.777,0,1.554,0,2.331,0.002
		c0.447,0.002,0.544,0.068,0.641,0.5c0.134,0.584,0.245,1.172,0.373,1.758c0.042,0.193-0.007,0.289-0.216,0.338
		c-1.314,0.307-2.622,0.32-3.929-0.035c-0.036-0.01-0.074-0.016-0.114-0.018V12.258z"/>
</g>
</svg>
