<?xml version="1.0" encoding="utf-8"?>
<!-- Generator: Adobe Illustrator 15.0.0, SVG Export Plug-In . SVG Version: 6.00 Build 0)  -->
<!DOCTYPE svg PUBLIC "-//W3C//DTD SVG 1.1//EN" "http://www.w3.org/Graphics/SVG/1.1/DTD/svg11.dtd">
<svg version="1.1" id="Layer_1" xmlns="http://www.w3.org/2000/svg" xmlns:xlink="http://www.w3.org/1999/xlink" x="0px" y="0px"
	 width="17.575px" height="17.575px" viewBox="0 0 17.575 17.575" enable-background="new 0 0 17.575 17.575" xml:space="preserve">
<g>
	<path fill="#A50F14" d="M17.29,8.786c0,4.697-3.807,8.504-8.504,8.504s-8.504-3.807-8.504-8.504s3.807-8.504,8.504-8.504
		S17.29,4.089,17.29,8.786"/>
	<path fill="#FFFFFF" d="M4.534,11.261L3.347,6.257h1.21l0.38,2.063c0.11,0.595,0.215,1.24,0.297,1.745h0.015
		c0.081-0.542,0.2-1.144,0.325-1.76l0.425-2.049H7.2l0.401,2.107c0.111,0.587,0.192,1.121,0.267,1.679h0.016
		c0.074-0.558,0.186-1.144,0.289-1.737l0.409-2.049h1.149L8.44,11.261H7.215L6.792,9.107C6.696,8.603,6.614,8.135,6.555,7.563H6.54
		c-0.09,0.565-0.172,1.04-0.29,1.545l-0.476,2.153H4.534z"/>
	<path fill="#FFFFFF" d="M13.935,11.119c-0.209,0.104-0.676,0.216-1.285,0.216c-1.73,0-2.619-1.076-2.619-2.502
		c0-1.708,1.217-2.658,2.73-2.658c0.588,0,1.033,0.119,1.234,0.223l-0.232,0.898c-0.229-0.097-0.549-0.187-0.949-0.187
		c-0.898,0-1.596,0.543-1.596,1.656c0,1.002,0.592,1.634,1.604,1.634c0.342,0,0.719-0.074,0.941-0.164L13.935,11.119z"/>
</g>
</svg>
