<?xml version="1.0" encoding="utf-8"?>
<!-- Generator: Adobe Illustrator 15.0.0, SVG Export Plug-In . SVG Version: 6.00 Build 0)  -->
<!DOCTYPE svg PUBLIC "-//W3C//DTD SVG 1.1//EN" "http://www.w3.org/Graphics/SVG/1.1/DTD/svg11.dtd">
<svg version="1.1" id="Layer_1" xmlns="http://www.w3.org/2000/svg" xmlns:xlink="http://www.w3.org/1999/xlink" x="0px" y="0px"
	 width="17.575px" height="17.575px" viewBox="0 0 17.575 17.575" enable-background="new 0 0 17.575 17.575" xml:space="preserve">
<g>
	<g>
		<path fill="#0F66B0" d="M15.605,16.864H1.969c-0.794,0-1.444-0.647-1.444-1.444V2.153c0-0.795,0.649-1.445,1.444-1.445h13.636
			c0.794,0,1.445,0.649,1.445,1.445V15.42C17.051,16.217,16.399,16.864,15.605,16.864"/>
	</g>
	<g>
		<defs>
			<rect id="SVGID_1_" x="0.282" y="0.464" width="17.008" height="16.644"/>
		</defs>
		<clipPath id="SVGID_2_">
			<use xlink:href="#SVGID_1_"  overflow="visible"/>
		</clipPath>
		<path clip-path="url(#SVGID_2_)" fill="none" stroke="#FFFFFF" stroke-width="0.4" stroke-miterlimit="10" d="M15.605,16.864
			H1.969c-0.794,0-1.444-0.647-1.444-1.444V2.153c0-0.795,0.649-1.445,1.444-1.445h13.636c0.794,0,1.445,0.649,1.445,1.445V15.42
			C17.051,16.217,16.399,16.864,15.605,16.864z"/>
	</g>
	<g>
		<path fill="#FFFFFF" d="M5.916,11.154c0,0.386-0.313,0.701-0.7,0.701c-0.386,0-0.699-0.315-0.699-0.701
			c0-0.388,0.313-0.701,0.699-0.701C5.603,10.455,5.916,10.767,5.916,11.154"/>
		<path fill="#FFFFFF" d="M12.712,11.154c0,0.386-0.313,0.701-0.7,0.701c-0.387,0-0.7-0.315-0.7-0.701
			c0-0.388,0.313-0.701,0.7-0.701C12.399,10.455,12.712,10.767,12.712,11.154"/>
		<path fill="#FFFFFF" d="M13.451,9.988H3.743c-0.192,0-0.349-0.155-0.349-0.347V4.715c0-0.191,0.157-0.346,0.349-0.346h9.708
			c0.191,0,0.347,0.155,0.347,0.346v4.926C13.798,9.833,13.643,9.988,13.451,9.988 M4.088,9.293h9.015V5.063H4.088V9.293z"/>
		<path fill="#FFFFFF" d="M13.338,12.918H3.741c-0.189,0-0.346-0.154-0.346-0.346c0-0.192,0.157-0.347,0.346-0.347h9.597
			c0.192,0,0.348,0.154,0.348,0.347C13.686,12.764,13.53,12.918,13.338,12.918"/>
		<path fill="#FFFFFF" d="M3.742,6.505C3.727,6.502,3.712,6.5,3.698,6.5h-0.46c-0.211,0-0.382,0.171-0.382,0.382v1.525
			c0,0.21,0.171,0.381,0.382,0.381h0.46c0.014,0,0.028-0.002,0.044-0.005"/>
		<path fill="#FFFFFF" d="M3.698,8.962h-0.46c-0.306,0-0.555-0.249-0.555-0.555V6.881c0-0.306,0.249-0.555,0.555-0.555h0.46
			c0.028,0,0.055,0.005,0.074,0.007L3.714,6.676C3.708,6.675,3.699,6.674,3.697,6.674H3.238c-0.116,0-0.209,0.094-0.209,0.208v1.526
			c0,0.114,0.093,0.208,0.209,0.208h0.46c0.001,0,0.009-0.001,0.016-0.002l0.058,0.342C3.753,8.958,3.727,8.962,3.698,8.962"/>
		<path fill="#FFFFFF" d="M13.451,8.787c0.014,0.002,0.029,0.005,0.046,0.005h0.46c0.211,0,0.383-0.171,0.383-0.382V6.884
			c0-0.21-0.172-0.381-0.383-0.381h-0.46c-0.015,0-0.028,0.002-0.046,0.005"/>
		<path fill="#FFFFFF" d="M13.958,8.964h-0.46c-0.032,0-0.058-0.003-0.076-0.007l0.058-0.342c0.007,0.001,0.015,0.002,0.019,0.002
			h0.46c0.115,0,0.209-0.094,0.209-0.208V6.884c0-0.114-0.094-0.208-0.209-0.208h-0.46c-0.005,0-0.011,0.001-0.016,0.002h-0.007
			l-0.05-0.342l0.006-0.002c0.02-0.002,0.04-0.006,0.066-0.006h0.46c0.306,0,0.555,0.249,0.555,0.555V8.41
			C14.513,8.716,14.264,8.964,13.958,8.964"/>
		<path fill="#FFFFFF" d="M13.451,9.133c-0.192,0-0.348-0.155-0.348-0.347V6.505c0-0.192,0.155-0.348,0.348-0.348
			c0.191,0,0.347,0.155,0.347,0.348v2.281C13.798,8.978,13.643,9.133,13.451,9.133"/>
		<path fill="#FFFFFF" d="M3.742,9.133c-0.192,0-0.348-0.155-0.348-0.347V6.505c0-0.192,0.155-0.348,0.348-0.348
			c0.192,0,0.347,0.155,0.347,0.348v2.281C4.089,8.978,3.934,9.133,3.742,9.133"/>
		<path fill="#FFFFFF" d="M12.966,13.81H4.227c-0.46,0-0.833-0.372-0.833-0.832V8.786c0-0.192,0.157-0.346,0.348-0.346
			c0.192,0,0.347,0.154,0.347,0.346v4.191c0,0.076,0.062,0.138,0.138,0.138h8.739c0.077,0,0.138-0.062,0.138-0.138V8.786
			c0-0.192,0.155-0.346,0.348-0.346c0.191,0,0.347,0.154,0.347,0.346v4.191C13.798,13.438,13.426,13.81,12.966,13.81"/>
		<path fill="#FFFFFF" d="M13.451,6.852c-0.192,0-0.348-0.155-0.348-0.347V5.063H4.088v1.442c0,0.191-0.154,0.347-0.345,0.347
			c-0.192,0-0.349-0.155-0.349-0.347v-1.79c0-0.191,0.157-0.346,0.349-0.346h9.708c0.191,0,0.347,0.155,0.347,0.346v1.79
			C13.798,6.696,13.643,6.852,13.451,6.852"/>
		<path fill="#FFFFFF" d="M13.451,5.063H3.743c-0.1,0-0.192-0.043-0.258-0.116S3.388,4.777,3.397,4.68l0.121-1.181
			c0.011-0.451,0.379-0.812,0.833-0.812h8.493c0.451,0,0.82,0.361,0.832,0.812l0.12,1.181c0.011,0.097-0.021,0.194-0.088,0.267
			C13.643,5.02,13.549,5.063,13.451,5.063 M4.126,4.368h8.941l-0.084-0.814c-0.001-0.013-0.002-0.023-0.002-0.035
			c0-0.074-0.062-0.138-0.138-0.138H4.351c-0.077,0-0.14,0.061-0.14,0.138c0,0.012,0,0.022,0,0.035L4.126,4.368z M13.676,3.519
			L13.676,3.519z"/>
		<path fill="#FFFFFF" d="M4.078,13.464v1.202c0,0.066,0.053,0.118,0.117,0.118h1.721c0.066,0,0.119-0.054,0.119-0.118v-1.202"/>
		<path fill="#FFFFFF" d="M5.916,14.889H4.196c-0.124,0-0.223-0.1-0.223-0.223v-1.202c0-0.06,0.046-0.104,0.104-0.104
			c0.057,0,0.104,0.045,0.104,0.104v1.202c0,0.01,0.006,0.015,0.014,0.015h1.719c0.009,0,0.014-0.008,0.014-0.015v-1.202
			c0-0.06,0.045-0.104,0.104-0.104c0.057,0,0.104,0.045,0.104,0.104v1.202C6.139,14.789,6.039,14.889,5.916,14.889"/>
		<path fill="#FFFFFF" d="M11.084,13.464v1.202c0,0.066,0.054,0.118,0.117,0.118h1.721c0.066,0,0.117-0.054,0.117-0.118v-1.202"/>
		<path fill="#FFFFFF" d="M12.922,14.889h-1.721c-0.122,0-0.222-0.1-0.222-0.223v-1.202c0-0.06,0.047-0.104,0.104-0.104
			c0.057,0,0.104,0.045,0.104,0.104v1.202c0,0.01,0.006,0.015,0.013,0.015h1.721c0.01,0,0.015-0.008,0.015-0.015v-1.202
			c0-0.06,0.046-0.104,0.104-0.104s0.104,0.045,0.104,0.104v1.202C13.144,14.789,13.045,14.889,12.922,14.889"/>
		<path fill="#FFFFFF" d="M3.767,8.142c-0.089,0-0.178-0.034-0.246-0.102c-0.136-0.135-0.136-0.355,0-0.491l3.08-3.079
			c0.135-0.136,0.355-0.136,0.491,0c0.135,0.135,0.135,0.354,0,0.491L4.011,8.04C3.944,8.108,3.855,8.142,3.767,8.142"/>
		<path fill="#FFFFFF" d="M8.408,9.993c-0.087,0-0.178-0.034-0.244-0.102c-0.138-0.135-0.138-0.354,0-0.491l4.93-4.93
			c0.134-0.136,0.354-0.136,0.49,0c0.135,0.135,0.135,0.354,0,0.49l-4.931,4.93C8.586,9.959,8.497,9.993,8.408,9.993"/>
	</g>
</g>
</svg>
