<?xml version="1.0" encoding="utf-8"?>
<!-- Generator: Adobe Illustrator 15.0.0, SVG Export Plug-In . SVG Version: 6.00 Build 0)  -->
<!DOCTYPE svg PUBLIC "-//W3C//DTD SVG 1.1//EN" "http://www.w3.org/Graphics/SVG/1.1/DTD/svg11.dtd">
<svg version="1.1" id="Layer_1" xmlns="http://www.w3.org/2000/svg" xmlns:xlink="http://www.w3.org/1999/xlink" x="0px" y="0px"
	 width="17.575px" height="17.575px" viewBox="0 0 17.575 17.575" enable-background="new 0 0 17.575 17.575" xml:space="preserve">
<g>
	<g>
		<path fill="#A50F14" d="M17.29,8.786c0,4.697-3.807,8.504-8.504,8.504c-4.695,0-8.503-3.807-8.503-8.504S4.09,0.282,8.786,0.282
			C13.483,0.282,17.29,4.089,17.29,8.786"/>
		<path fill="#FFFFFF" d="M10.837,9.652c-0.113,0.001-0.199,0.072-0.217,0.165c-0.023,0.106,0.025,0.201,0.137,0.252
			c0.559,0.254,1.115,0.507,1.674,0.759c0.135,0.061,0.248,0.021,0.299-0.098c0.049-0.115,0-0.229-0.131-0.289
			c-0.555-0.253-1.109-0.504-1.664-0.755C10.897,9.669,10.858,9.66,10.837,9.652 M7.143,9.919c0.004-0.208-0.139-0.312-0.291-0.245
			C6.28,9.93,5.709,10.19,5.139,10.452c-0.115,0.052-0.154,0.172-0.107,0.281c0.049,0.11,0.158,0.155,0.279,0.101
			c0.568-0.255,1.137-0.511,1.703-0.774C7.077,10.029,7.116,9.948,7.143,9.919 M8.102,11.229c0.264-0.344,0.518-0.669,0.777-1.008
			c0.26,0.335,0.512,0.663,0.779,1.009c0.025-0.057,0.047-0.098,0.064-0.14c0.215-0.51,0.424-1.021,0.647-1.527
			c0.055-0.123,0.152-0.228,0.234-0.336c0.01-0.015,0.055-0.018,0.076-0.009c0.643,0.279,1.297,0.536,1.924,0.85
			c0.549,0.273,0.881,0.764,1.111,1.32c0.191,0.462,0.309,0.938,0.33,1.438c0.008,0.171-0.018,0.213-0.174,0.279
			c-0.551,0.229-1.127,0.352-1.711,0.44c-1.291,0.198-2.592,0.246-3.895,0.218c-0.986-0.021-1.967-0.089-2.941-0.262
			c-0.5-0.089-0.994-0.209-1.467-0.406c-0.107-0.045-0.15-0.12-0.146-0.234c0.029-0.677,0.211-1.311,0.547-1.898
			c0.246-0.432,0.59-0.77,1.041-0.978c0.584-0.269,1.178-0.511,1.77-0.763c0.027-0.011,0.086-0.002,0.1,0.019
			c0.098,0.144,0.205,0.285,0.273,0.442c0.209,0.471,0.402,0.949,0.604,1.426C8.059,11.143,8.075,11.174,8.102,11.229"/>
		<path fill="#FFFFFF" d="M11.128,5.827c0,0.072,0,0.116,0,0.16c0.002,0.134-0.002,0.253,0.109,0.371
			c0.08,0.086,0.104,0.245,0.111,0.374c0.039,0.568-0.186,1.04-0.553,1.459c-0.047,0.053-0.086,0.12-0.107,0.188
			C10.562,8.761,10.37,9.1,10.077,9.376c-0.758,0.72-1.719,0.682-2.441-0.046C7.372,9.064,7.196,8.744,7.075,8.391
			C7.051,8.316,7.008,8.242,6.958,8.184c-0.365-0.42-0.582-0.895-0.549-1.462c0.01-0.174,0.033-0.343,0.193-0.455
			c0.02-0.015,0.027-0.059,0.027-0.088c0.004-0.107,0.002-0.214,0.002-0.343C8.137,6.418,9.624,6.454,11.128,5.827"/>
		<path fill="#FFFFFF" d="M9.467,3.747C9.469,3.419,9.213,3.16,8.883,3.156C8.567,3.152,8.297,3.415,8.295,3.731
			C8.292,4.065,8.551,4.333,8.879,4.335C9.202,4.338,9.467,4.071,9.467,3.747 M11.542,5.256c-0.846-0.409-1.729-0.652-2.667-0.651
			C7.942,4.605,7.063,4.847,6.217,5.257c-0.1-0.179-0.092-0.355-0.047-0.534c0.08-0.311,0.268-0.557,0.5-0.766
			c0.656-0.589,1.426-0.923,2.314-0.884c0.914,0.04,1.694,0.41,2.307,1.103c0.17,0.191,0.287,0.416,0.322,0.675
			C11.632,4.99,11.616,5.122,11.542,5.256"/>
		<path fill="#FFFFFF" d="M11.409,5.413c-1.692,0.811-3.37,0.81-5.071-0.007c0.678-0.328,1.369-0.525,2.098-0.6
			C9.569,4.691,10.802,5.076,11.409,5.413"/>
		<path fill="#FFFFFF" d="M9.467,3.748c0,0.323-0.266,0.59-0.588,0.588C8.551,4.333,8.292,4.065,8.295,3.731
			c0.002-0.315,0.271-0.58,0.588-0.576C9.213,3.161,9.469,3.42,9.467,3.748"/>
	</g>
</g>
</svg>
