<?xml version="1.0" encoding="utf-8"?>
<!-- Generator: Adobe Illustrator 15.0.0, SVG Export Plug-In . SVG Version: 6.00 Build 0)  -->
<!DOCTYPE svg PUBLIC "-//W3C//DTD SVG 1.1//EN" "http://www.w3.org/Graphics/SVG/1.1/DTD/svg11.dtd">
<svg version="1.1" id="Layer_1" xmlns="http://www.w3.org/2000/svg" xmlns:xlink="http://www.w3.org/1999/xlink" x="0px" y="0px"
	 width="17.575px" height="17.575px" viewBox="0 0 17.575 17.575" enable-background="new 0 0 17.575 17.575" xml:space="preserve">
<g>
	<g>
		<path fill="#A50F14" d="M17.29,8.786c0,4.697-3.807,8.504-8.504,8.504c-4.695,0-8.503-3.807-8.503-8.504S4.09,0.282,8.786,0.282
			C13.483,0.282,17.29,4.089,17.29,8.786"/>
		<path fill="#FFFFFF" d="M7.956,9.862c-0.09-0.004-0.156-0.006-0.223-0.012C7.35,9.824,7.036,9.514,7.032,9.132
			C7.026,8.228,7.028,7.325,7.04,6.422C7.045,6.003,7.362,5.7,7.799,5.695c0.779-0.01,1.559-0.01,2.338,0
			c0.456,0.005,0.756,0.322,0.758,0.78c0.004,0.882,0.004,1.763-0.002,2.644c-0.002,0.402-0.313,0.714-0.717,0.732
			c-0.057,0.004-0.113,0-0.199,0v0.203c0,1.203,0,2.406,0,3.609c0,0.43-0.227,0.656-0.658,0.657c-0.236,0-0.475,0.001-0.713,0
			c-0.42-0.001-0.65-0.229-0.65-0.646c0-1.181,0-2.36,0-3.541V9.862z"/>
		<path fill="#FFFFFF" d="M12.724,9.611v0.178c0,0.926,0,1.854,0,2.779c0,0.326-0.176,0.501-0.502,0.501
			c-0.203,0.001-0.406,0.003-0.609,0c-0.271-0.004-0.449-0.172-0.451-0.444c-0.004-0.903-0.002-1.808,0.002-2.712
			c0-0.063,0.039-0.125,0.057-0.189c0.055-0.215,0.15-0.432,0.154-0.648c0.018-0.847,0.01-1.694,0.004-2.541
			c-0.002-0.132,0.033-0.176,0.168-0.174c0.436,0.009,0.871,0.002,1.307,0.004c0.336,0.003,0.58,0.238,0.582,0.575
			c0.006,0.695,0.006,1.39,0.002,2.085c-0.004,0.305-0.203,0.521-0.504,0.564C12.87,9.599,12.81,9.603,12.724,9.611"/>
		<path fill="#FFFFFF" d="M5.209,9.609C4.772,9.574,4.573,9.438,4.51,9.14C4.499,9.079,4.497,9.016,4.497,8.954
			c0-0.649,0-1.299,0-1.949c0-0.411,0.227-0.64,0.637-0.641C5.542,6.363,5.948,6.369,6.354,6.36c0.15-0.004,0.203,0.033,0.201,0.195
			C6.549,7.379,6.559,8.204,6.557,9.029C6.555,9.288,6.594,9.533,6.731,9.76C6.762,9.813,6.77,9.889,6.77,9.953
			c0.004,0.875,0.004,1.751,0.002,2.626c0,0.323-0.17,0.489-0.49,0.49c-0.197,0.001-0.395,0.001-0.594,0
			c-0.301-0.001-0.479-0.184-0.479-0.488c0-0.932,0-1.863,0-2.797V9.609z"/>
		<path fill="#FFFFFF" d="M13.935,7.033c0.381,0,0.73-0.008,1.078,0.003c0.203,0.007,0.357,0.181,0.359,0.383
			c0.004,0.509,0.004,1.017-0.002,1.524c-0.002,0.246-0.146,0.365-0.502,0.415c0,0.057,0,0.118,0,0.178c0,0.622,0.002,1.243,0,1.864
			c0,0.321-0.105,0.423-0.428,0.423c-0.131,0.001-0.262,0.005-0.391-0.003c-0.178-0.01-0.301-0.125-0.303-0.302
			c-0.008-0.615-0.004-1.231-0.004-1.846c0-0.027,0.004-0.061,0.018-0.081c0.18-0.271,0.178-0.575,0.176-0.883
			c-0.004-0.49-0.002-0.982-0.002-1.474V7.033z"/>
		<path fill="#FFFFFF" d="M3.063,9.359C2.643,9.295,2.56,9.196,2.56,8.776c0-0.43-0.001-0.859,0-1.288
			c0-0.301,0.155-0.456,0.459-0.457C3.334,7.029,3.651,7.03,3.987,7.03c0.004,0.075,0.01,0.14,0.01,0.205
			c0.002,0.569-0.01,1.141,0.008,1.711c0.008,0.201,0.092,0.399,0.141,0.6C4.163,9.61,4.188,9.675,4.188,9.74
			c0.004,0.563,0.002,1.129,0.002,1.694c0,0.276-0.111,0.387-0.393,0.39c-0.084,0.001-0.168,0-0.254,0
			c-0.396-0.002-0.479-0.083-0.479-0.473c0-0.605,0-1.209,0-1.813V9.359z"/>
		<path fill="#FFFFFF" d="M8.961,5.387c-0.645-0.002-1.156-0.521-1.15-1.166c0.006-0.637,0.521-1.146,1.158-1.145
			c0.643,0.002,1.156,0.523,1.15,1.168C10.114,4.882,9.602,5.389,8.961,5.387"/>
		<path fill="#FFFFFF" d="M5.995,4.328c0.502,0.001,0.9,0.398,0.9,0.9c-0.002,0.49-0.402,0.894-0.893,0.896
			C5.499,6.128,5.098,5.731,5.096,5.229C5.094,4.723,5.489,4.327,5.995,4.328"/>
		<path fill="#FFFFFF" d="M11.038,5.204c0.008-0.496,0.416-0.883,0.924-0.876c0.498,0.007,0.885,0.417,0.873,0.926
			c-0.012,0.492-0.418,0.881-0.914,0.871C11.421,6.115,11.03,5.707,11.038,5.204"/>
		<path fill="#FFFFFF" d="M2.99,6.226C2.992,5.888,3.225,5.618,3.535,5.58c0.331-0.041,0.639,0.153,0.706,0.465
			c0.021,0.088-0.016,0.191-0.045,0.282C4.176,6.396,4.108,6.451,4.094,6.52c-0.045,0.205-0.17,0.307-0.369,0.335
			C3.516,6.886,3.334,6.822,3.184,6.68C3.051,6.553,2.98,6.396,2.99,6.226"/>
		<path fill="#FFFFFF" d="M14.942,6.215c0.002,0.433-0.41,0.744-0.82,0.618c-0.123-0.037-0.227-0.092-0.254-0.238
			c-0.01-0.064-0.051-0.124-0.084-0.184c-0.201-0.362-0.014-0.754,0.398-0.828C14.585,5.512,14.938,5.805,14.942,6.215"/>
	</g>
</g>
</svg>
