<?xml version="1.0" encoding="utf-8"?>
<!-- Generator: Adobe Illustrator 15.0.0, SVG Export Plug-In . SVG Version: 6.00 Build 0)  -->
<!DOCTYPE svg PUBLIC "-//W3C//DTD SVG 1.1//EN" "http://www.w3.org/Graphics/SVG/1.1/DTD/svg11.dtd">
<svg version="1.1" id="Layer_1" xmlns="http://www.w3.org/2000/svg" xmlns:xlink="http://www.w3.org/1999/xlink" x="0px" y="0px"
	 width="17.575px" height="17.575px" viewBox="0 0 17.575 17.575" enable-background="new 0 0 17.575 17.575" xml:space="preserve">
<g>
	<defs>
		<rect id="SVGID_1_" x="0.283" y="0.284" width="17.008" height="17.008"/>
	</defs>
	<clipPath id="SVGID_2_">
		<use xlink:href="#SVGID_1_"  overflow="visible"/>
	</clipPath>
	<path clip-path="url(#SVGID_2_)" fill="#007A00" d="M8.787,17.292c4.696,0,8.504-3.808,8.504-8.504s-3.809-8.504-8.504-8.504
		c-4.696,0-8.504,3.808-8.504,8.504S4.091,17.292,8.787,17.292"/>
	<path clip-path="url(#SVGID_2_)" fill="#FFFFFF" d="M12.985,9.31c-0.443-0.001-0.799,0.354-0.801,0.801
		c0,0.444,0.357,0.806,0.797,0.808c0.436,0.003,0.799-0.362,0.801-0.805C13.784,9.667,13.432,9.312,12.985,9.31 M5.736,10.105
		C5.733,9.664,5.375,9.309,4.932,9.31c-0.439,0.002-0.806,0.365-0.807,0.799c0,0.439,0.385,0.818,0.822,0.81
		C5.388,10.909,5.738,10.548,5.736,10.105 M10.309,9.31c-0.443-0.003-0.805,0.349-0.811,0.788c-0.005,0.45,0.359,0.821,0.805,0.82
		c0.432-0.002,0.801-0.369,0.803-0.803C11.11,9.679,10.747,9.313,10.309,9.31 M8.423,10.105C8.419,9.667,8.055,9.309,7.616,9.31
		c-0.442,0.002-0.802,0.359-0.804,0.799c-0.001,0.435,0.364,0.807,0.798,0.81C8.054,10.922,8.426,10.549,8.423,10.105 M8.964,12.25
		c-1.373,0-2.746,0.014-4.119-0.005c-1.057-0.015-1.934-0.854-2.048-1.911C2.685,9.29,3.384,8.284,4.407,8.036
		c0.206-0.05,0.422-0.069,0.634-0.069c2.616-0.005,5.231-0.006,7.846-0.002c1.313,0.002,2.279,0.973,2.24,2.235
		c-0.033,1.097-0.947,2.031-2.045,2.046C11.709,12.264,10.336,12.25,8.964,12.25"/>
	<path clip-path="url(#SVGID_2_)" fill="#FFFFFF" d="M12.442,7.685h-6.43v-0.77H5.748c-1.214,0-2.427,0-3.641,0.001
		c-0.139,0-0.315,0.02-0.349-0.146c-0.036-0.172-0.026-0.367,0.02-0.537c0.017-0.062,0.195-0.112,0.299-0.113
		C3.298,6.113,4.519,6.116,5.74,6.116h0.256C6.01,6.028,6.015,5.953,6.034,5.882C6.122,5.538,6.427,5.291,6.789,5.29
		c1.621-0.003,3.241-0.003,4.862,0.001c0.441,0,0.777,0.326,0.787,0.765C12.452,6.592,12.442,7.129,12.442,7.685"/>
	<path clip-path="url(#SVGID_2_)" fill="#FFFFFF" d="M7.899,4.994c0-0.408,0.305-0.759,0.702-0.775c0.418-0.018,0.839-0.018,1.259,0
		c0.381,0.016,0.66,0.334,0.705,0.775H7.899z"/>
</g>
</svg>
