<?xml version="1.0" encoding="utf-8"?>
<!-- Generator: Adobe Illustrator 15.0.0, SVG Export Plug-In . SVG Version: 6.00 Build 0)  -->
<!DOCTYPE svg PUBLIC "-//W3C//DTD SVG 1.1//EN" "http://www.w3.org/Graphics/SVG/1.1/DTD/svg11.dtd">
<svg version="1.1" id="Layer_1" xmlns="http://www.w3.org/2000/svg" xmlns:xlink="http://www.w3.org/1999/xlink" x="0px" y="0px"
	 width="17.575px" height="17.575px" viewBox="0 0 17.575 17.575" enable-background="new 0 0 17.575 17.575" xml:space="preserve">
<g>
	<g>
		<path fill="#A50F14" d="M17.29,8.786c0,4.696-3.807,8.504-8.504,8.504c-4.695,0-8.503-3.808-8.503-8.504
			c0-4.697,3.808-8.504,8.503-8.504C13.483,0.282,17.29,4.089,17.29,8.786"/>
		<path fill="#FFFFFF" d="M4.918,11.511l-1.733-5.41h1.34l0.658,2.288c0.186,0.643,0.354,1.26,0.482,1.935H5.69
			c0.137-0.65,0.305-1.292,0.488-1.91L6.87,6.101H8.17l-1.822,5.41H4.918z"/>
	</g>
	<rect x="8.749" y="6.102" fill="#FFFFFF" width="1.229" height="5.41"/>
	<g>
		<path fill="#FFFFFF" d="M12.249,8.629c0.104,0.024,0.234,0.032,0.41,0.032c0.65,0,1.051-0.329,1.051-0.883
			c0-0.497-0.344-0.794-0.955-0.794c-0.248,0-0.418,0.023-0.506,0.048V8.629z M11.038,6.173c0.377-0.063,0.906-0.112,1.654-0.112
			c0.754,0,1.291,0.145,1.652,0.434c0.346,0.272,0.578,0.723,0.578,1.252c0,0.53-0.178,0.979-0.498,1.285
			c-0.418,0.393-1.035,0.569-1.758,0.569c-0.16,0-0.305-0.009-0.418-0.024v1.935h-1.211V6.173z"/>
	</g>
</g>
</svg>
