<?xml version="1.0" encoding="utf-8"?>
<!-- Generator: Adobe Illustrator 15.0.0, SVG Export Plug-In . SVG Version: 6.00 Build 0)  -->
<!DOCTYPE svg PUBLIC "-//W3C//DTD SVG 1.1//EN" "http://www.w3.org/Graphics/SVG/1.1/DTD/svg11.dtd">
<svg version="1.1" id="Layer_1" xmlns="http://www.w3.org/2000/svg" xmlns:xlink="http://www.w3.org/1999/xlink" x="0px" y="0px"
	 width="17.575px" height="17.575px" viewBox="0 0 17.575 17.575" enable-background="new 0 0 17.575 17.575" xml:space="preserve">
<g>
	<g>
		<path fill="#3FA535" d="M3.532,0.849c0,0-3,0-3,3v9.875c0,0,0,3,3,3H14.04c0,0,3,0,3-3V3.849c0,0,0-3-3-3H3.532z"/>
		<path fill="none" stroke="#FFFFFF" stroke-width="0.5" d="M3.532,0.849c0,0-3,0-3,3v9.875c0,0,0,3,3,3H14.04c0,0,3,0,3-3V3.849
			c0,0,0-3-3-3H3.532z"/>
		<path fill="#FFFFFF" d="M3.08,6.241c0.682-0.119,1.249-0.219,1.883-0.33c-0.703-0.675-1.34-1.288-2.008-1.93
			C3.323,3.625,3.67,3.292,4.049,2.927C4.682,3.536,5.333,4.16,6.075,4.873C6.198,4.23,6.301,3.678,6.426,3.028
			C6.95,3.532,7.405,3.958,7.84,4.402c0.07,0.071,0.074,0.236,0.057,0.342c-0.121,0.734-0.24,1.472-0.4,2.192
			C7.463,7.083,7.29,7.244,7.133,7.276c-0.736,0.15-1.484,0.265-2.236,0.373C4.766,7.667,4.559,7.641,4.461,7.555
			C4.016,7.161,3.598,6.739,3.08,6.241"/>
		<path fill="#FFFFFF" d="M11.743,3.061c0.111,0.659,0.207,1.212,0.314,1.845c0.734-0.705,1.4-1.347,2.086-2.007
			c0.381,0.366,0.729,0.699,1.109,1.065c-0.682,0.656-1.35,1.297-2.09,2.01c0.662,0.104,1.234,0.195,1.92,0.303
			c-0.547,0.526-1.018,0.988-1.504,1.434c-0.064,0.059-0.221,0.053-0.32,0.039c-0.789-0.114-1.58-0.223-2.355-0.368
			c-0.143-0.027-0.289-0.189-0.316-0.331c-0.145-0.717-0.266-1.444-0.356-2.179c-0.018-0.157,0.079-0.402,0.206-0.538
			C10.817,3.922,11.239,3.545,11.743,3.061"/>
		<path fill="#FFFFFF" d="M15.257,13.669c-0.381,0.366-0.729,0.7-1.109,1.066c-0.666-0.642-1.314-1.265-2.031-1.953
			c-0.115,0.627-0.217,1.173-0.336,1.822c-0.523-0.504-0.984-0.929-1.416-1.377c-0.078-0.08-0.076-0.266-0.057-0.385
			c0.117-0.722,0.232-1.444,0.389-2.152c0.033-0.149,0.205-0.31,0.361-0.342c0.736-0.151,1.486-0.265,2.238-0.373
			c0.133-0.02,0.34,0.005,0.438,0.09c0.447,0.396,0.867,0.821,1.387,1.32c-0.66,0.115-1.234,0.217-1.893,0.333
			C13.942,12.406,14.591,13.029,15.257,13.669"/>
		<path fill="#FFFFFF" d="M6.522,14.518c-0.102-0.675-0.186-1.238-0.279-1.868c-0.758,0.729-1.445,1.389-2.166,2.083
			c-0.369-0.354-0.715-0.688-1.108-1.064c0.688-0.661,1.395-1.342,2.178-2.096c-0.689-0.095-1.273-0.176-1.967-0.271
			c0.563-0.542,1.039-1.017,1.539-1.465c0.09-0.08,0.287-0.084,0.418-0.069c0.773,0.09,1.549,0.179,2.305,0.308
			c0.16,0.028,0.328,0.193,0.355,0.348c0.135,0.729,0.229,1.474,0.316,2.22c0.016,0.132-0.018,0.339-0.115,0.439
			C7.555,13.543,7.083,13.979,6.522,14.518"/>
	</g>
</g>
</svg>
