<?xml version="1.0" encoding="utf-8"?>
<!-- Generator: Adobe Illustrator 15.0.0, SVG Export Plug-In . SVG Version: 6.00 Build 0)  -->
<!DOCTYPE svg PUBLIC "-//W3C//DTD SVG 1.1//EN" "http://www.w3.org/Graphics/SVG/1.1/DTD/svg11.dtd">
<svg version="1.1" id="Layer_1" xmlns="http://www.w3.org/2000/svg" xmlns:xlink="http://www.w3.org/1999/xlink" x="0px" y="0px"
	 width="17.575px" height="17.575px" viewBox="0 0 17.575 17.575" enable-background="new 0 0 17.575 17.575" xml:space="preserve">
<g>
	<g>
		<path fill="#A50F14" d="M17.29,8.786c0,4.697-3.807,8.504-8.503,8.504c-4.697,0-8.504-3.807-8.504-8.504
			c0-4.696,3.807-8.504,8.504-8.504C13.483,0.282,17.29,4.09,17.29,8.786"/>
		<path fill="#FFFFFF" d="M11.321,9.756c0-0.256,0-0.504,0-0.753c0.002-0.123,0.043-0.228,0.141-0.311
			c0.172-0.146,0.465-0.089,0.559,0.118c0.023,0.055,0.041,0.117,0.041,0.178c0.004,0.604,0.004,1.208,0.002,1.812
			c-0.002,0.282-0.164,0.481-0.416,0.555c-0.084,0.024-0.178,0.014-0.266,0.017c-0.01,0.001-0.02-0.013-0.023-0.015
			c-0.031,0.006-0.059,0.016-0.086,0.016c-0.43,0.001-0.859,0.001-1.291,0c-0.404-0.001-0.717-0.182-0.936-0.516
			c-0.146-0.224-0.191-0.476-0.158-0.743c0.021-0.181,0.1-0.339,0.186-0.493c0.096-0.171,0.193-0.341,0.291-0.513
			C9.373,9.094,9.38,9.081,9.392,9.062C9.324,9.021,9.253,8.98,9.185,8.941C9.011,8.844,8.833,8.752,8.664,8.645
			C8.4,8.479,8.41,8.094,8.648,7.931C8.82,7.814,8.988,7.828,9.16,7.929c0.164,0.095,0.328,0.187,0.494,0.279
			c0.209,0.119,0.426,0.229,0.628,0.358c0.193,0.125,0.273,0.316,0.252,0.55c-0.012,0.128-0.078,0.23-0.139,0.337
			c-0.051,0.093-0.104,0.185-0.154,0.277c-0.004,0.007-0.004,0.015-0.006,0.025H11.321z"/>
		<path fill="#FFFFFF" d="M13.202,11.398c-0.494-0.001-0.9-0.399-0.9-0.899c0-0.511,0.4-0.907,0.904-0.906
			c0.5,0,0.898,0.395,0.9,0.905C14.106,10.999,13.7,11.399,13.202,11.398"/>
		<path fill="#FFFFFF" d="M6.197,10.044c-0.004,0.023-0.01,0.047-0.014,0.069c-0.01-0.004-0.031-0.01-0.031-0.012
			c0.004-0.022,0.012-0.043,0.018-0.065C6.179,10.039,6.189,10.041,6.197,10.044"/>
	</g>
	<rect x="8.666" y="11.632" fill="#FFFFFF" width="5.373" height="0.523"/>
	<g>
		<path fill="#FFFFFF" d="M11.116,3.133c0,0.609-0.494,1.102-1.101,1.102c-0.609,0-1.104-0.492-1.104-1.102s0.494-1.102,1.104-1.102
			C10.622,2.031,11.116,2.523,11.116,3.133"/>
		<path fill="#FFFFFF" d="M6.191,9.856C6.189,9.838,6.193,9.825,6.205,9.819h0.002L6.191,9.856z M11.038,7.533
			c-0.1-0.077-0.213-0.134-0.322-0.195c-0.215-0.123-0.43-0.243-0.644-0.366C9.843,6.841,9.617,6.706,9.386,6.576
			C9.347,6.555,9.332,6.532,9.332,6.487c0.002-0.573,0.002-1.146-0.002-1.72C9.328,4.585,9.269,4.414,9.171,4.261
			C8.982,3.964,8.712,3.798,8.361,3.764C8.166,3.743,7.976,3.775,7.802,3.867C7.576,3.988,7.353,4.116,7.128,4.242
			c-0.32,0.181-0.641,0.362-0.959,0.543C5.876,4.952,5.582,5.113,5.292,5.286C4.998,5.463,4.761,5.703,4.564,5.985
			C4.361,6.278,4.253,6.609,4.16,6.947C4.105,7.139,4.048,7.328,3.992,7.52C3.951,7.66,3.908,7.801,3.867,7.941
			C3.812,8.13,3.759,8.317,3.704,8.505C3.661,8.648,3.618,8.792,3.575,8.937C3.507,9.163,3.441,9.392,3.374,9.619
			C3.357,9.682,3.341,9.743,3.322,9.812h1.714V9.88c0,1.491,0,2.983,0,4.476c0,0.146,0.047,0.275,0.141,0.387
			c0.178,0.21,0.482,0.255,0.707,0.134c0.18-0.098,0.281-0.245,0.305-0.438l0.02-0.023V9.819h1.627L7.832,9.811h0.008
			C7.837,9.799,7.837,9.79,7.835,9.782C7.806,9.69,7.779,9.598,7.751,9.505C7.718,9.396,7.685,9.285,7.65,9.177
			C7.646,9.169,7.642,9.162,7.636,9.156l-0.02-0.065c0.004,0.001,0.004,0.003,0.006,0.004c-0.02-0.071-0.033-0.129-0.051-0.186
			C7.507,8.696,7.441,8.483,7.376,8.271c-0.08-0.272-0.16-0.545-0.242-0.817c-0.063-0.211-0.129-0.42-0.191-0.631
			C6.939,6.811,6.951,6.786,6.96,6.779c0.074-0.044,0.148-0.084,0.223-0.126c0.406-0.229,0.813-0.459,1.23-0.695
			c0,0.029,0,0.049,0,0.067c0,0.262-0.002,0.523,0,0.784C8.416,6.99,8.496,7.129,8.652,7.219c0.176,0.099,0.35,0.196,0.523,0.297
			c0.23,0.133,0.461,0.267,0.691,0.398c0.199,0.115,0.4,0.229,0.599,0.346c0.152,0.089,0.305,0.121,0.473,0.043
			C11.243,8.163,11.302,7.738,11.038,7.533"/>
	</g>
</g>
</svg>
