<?xml version="1.0" encoding="utf-8"?>
<!-- Generator: Adobe Illustrator 15.0.0, SVG Export Plug-In . SVG Version: 6.00 Build 0)  -->
<!DOCTYPE svg PUBLIC "-//W3C//DTD SVG 1.1//EN" "http://www.w3.org/Graphics/SVG/1.1/DTD/svg11.dtd">
<svg version="1.1" id="Layer_1" xmlns="http://www.w3.org/2000/svg" xmlns:xlink="http://www.w3.org/1999/xlink" x="0px" y="0px"
	 width="17.575px" height="17.575px" viewBox="0 0 17.575 17.575" enable-background="new 0 0 17.575 17.575" xml:space="preserve">
<g>
	<g>
		<defs>
			<rect id="SVGID_1_" x="0.284" y="0.283" width="17.008" height="17.008"/>
		</defs>
		<clipPath id="SVGID_2_">
			<use xlink:href="#SVGID_1_"  overflow="visible"/>
		</clipPath>
		<path clip-path="url(#SVGID_2_)" fill="#A60C1B" d="M8.788,17.292c4.697,0,8.506-3.808,8.506-8.505
			c0-4.696-3.809-8.503-8.506-8.503c-4.697,0-8.504,3.808-8.504,8.503C0.283,13.484,4.091,17.292,8.788,17.292"/>
		<path clip-path="url(#SVGID_2_)" fill="#FFFFFF" d="M12.704,6.409c-0.016,0.648-0.154,1.351-0.6,1.958
			c-0.111,0.151-0.258,0.281-0.4,0.409c-0.063,0.056-0.08,0.099-0.07,0.181c0.111,1.029,0.217,2.057,0.324,3.086
			c0.037,0.34,0.07,0.68,0.115,1.017c0.084,0.654-0.344,1.198-1.002,1.263c-0.592,0.056-1.135-0.42-1.146-1.043
			c-0.008-0.334,0.053-0.671,0.088-1.003c0.088-0.838,0.178-1.678,0.268-2.516c0.025-0.246,0.051-0.493,0.082-0.738
			c0.018-0.117,0-0.194-0.104-0.276C9.807,8.4,9.573,7.914,9.436,7.376C9.192,6.418,9.25,5.481,9.688,4.584
			c0.174-0.354,0.414-0.658,0.77-0.847c0.408-0.217,0.809-0.192,1.188,0.062c0.461,0.31,0.705,0.773,0.873,1.284
			C12.647,5.485,12.702,5.898,12.704,6.409"/>
		<path clip-path="url(#SVGID_2_)" fill="#FFFFFF" d="M8.19,5.72c0.021,0.574,0.048,1.148,0.061,1.721
			c0.008,0.353-0.122,0.649-0.424,0.85C7.643,8.414,7.446,8.519,7.261,8.643C7.218,8.671,7.174,8.748,7.179,8.797
			c0.082,0.813,0.172,1.625,0.258,2.438c0.068,0.638,0.149,1.273,0.197,1.914c0.055,0.729-0.522,1.255-1.247,1.161
			c-0.526-0.069-0.958-0.596-0.906-1.123c0.1-0.983,0.208-1.965,0.313-2.946c0.053-0.489,0.107-0.979,0.152-1.467
			c0.003-0.04-0.039-0.103-0.076-0.127C5.694,8.534,5.507,8.43,5.33,8.315C5.023,8.119,4.862,7.836,4.872,7.47
			c0.026-0.956,0.06-1.914,0.09-2.87C4.97,4.363,4.975,4.124,4.985,3.886c0.008-0.129,0.072-0.242,0.199-0.264
			c0.096-0.017,0.223-0.001,0.299,0.053C5.55,3.722,5.593,3.841,5.598,3.93c0.026,0.501,0.038,1.003,0.055,1.504
			c0.008,0.249,0.016,0.497,0.026,0.744c0.007,0.178,0.113,0.298,0.254,0.298c0.145-0.001,0.239-0.117,0.245-0.302
			c0.025-0.708,0.048-1.417,0.075-2.125C6.256,3.96,6.254,3.868,6.285,3.788c0.051-0.13,0.163-0.205,0.306-0.189
			c0.146,0.017,0.257,0.098,0.27,0.254c0.02,0.221,0.025,0.444,0.034,0.666c0.02,0.553,0.038,1.106,0.057,1.659
			c0.006,0.174,0.1,0.291,0.236,0.295c0.138,0.006,0.25-0.114,0.256-0.294c0.02-0.511,0.034-1.024,0.05-1.535
			c0.007-0.228,0.013-0.456,0.021-0.683C7.524,3.735,7.648,3.59,7.831,3.591c0.178,0.001,0.299,0.14,0.306,0.36
			c0.021,0.589,0.04,1.18,0.059,1.769C8.195,5.72,8.192,5.72,8.19,5.72"/>
	</g>
</g>
</svg>
