<?xml version="1.0" encoding="utf-8"?>
<!-- Generator: Adobe Illustrator 15.0.0, SVG Export Plug-In . SVG Version: 6.00 Build 0)  -->
<!DOCTYPE svg PUBLIC "-//W3C//DTD SVG 1.1//EN" "http://www.w3.org/Graphics/SVG/1.1/DTD/svg11.dtd">
<svg version="1.1" id="Layer_1" xmlns="http://www.w3.org/2000/svg" xmlns:xlink="http://www.w3.org/1999/xlink" x="0px" y="0px"
	 width="481.891px" height="321.029px" viewBox="0 0 481.891 321.029" enable-background="new 0 0 481.891 321.029"
	 xml:space="preserve">
<g id="Улица">
	<path fill="none" stroke="#000000" stroke-width="0.5" stroke-miterlimit="10" d="M280.438,203.745
		c94.027-17.594,185.798-30.104,185.798-30.104V36.411H17.793l60.735,209.064C78.528,245.476,179.706,222.594,280.438,203.745z"/>
</g>
<g id="Экспозиция">
	
		<rect x="97.73" y="39.308" fill="#6B6E6F" stroke="#000000" stroke-width="0.2" stroke-miterlimit="10" width="28.347" height="42.52"/>
	
		<rect x="299.053" y="39.214" fill="#6B6E6F" stroke="#000000" stroke-width="0.2" stroke-miterlimit="10" width="53.924" height="76.535"/>
	
		<rect x="321.623" y="169.725" fill="#6B6E6F" stroke="#000000" stroke-width="0.2" stroke-miterlimit="10" width="28.347" height="17.008"/>
	
		<rect x="284.682" y="172.524" fill="#6B6E6F" stroke="#000000" stroke-width="0.2" stroke-miterlimit="10" width="28.346" height="8.504"/>
	
		<rect x="344.344" y="121.252" fill="#6B6E6F" stroke="#000000" stroke-width="0.2" stroke-miterlimit="10" width="8.504" height="45.354"/>
	<text transform="matrix(1 0 0 1 310.5527 163.2566)" fill="#FFFFFF" font-family="'DINPro-Bold'" font-size="2">30</text>
	<text transform="matrix(1 0 0 1 330.8496 174.947)" fill="#FFFFFF" font-family="'DINPro-Regular'" font-size="1.5">Рубин ЦКБМТ </text>
	<text transform="matrix(1 0 0 1 333.9268 176.7468)" fill="#FFFFFF" font-family="'DINPro-Regular'" font-size="1.5">(ОСК)</text>
	<text transform="matrix(1 0 0 1 324.3594 178.5466)" fill="#DADADA" font-family="'DINPro-Regular'" font-size="1.5">Central Design Bureau for Marine </text>
	<text transform="matrix(1 0 0 1 328.8359 180.3464)" fill="#DADADA" font-family="'DINPro-Regular'" font-size="1.5">Engineering  &quot;Rubin&quot;</text>
	<text transform="matrix(1 0 0 1 294.7539 176.0681)" fill="#FFFFFF" font-family="'DINPro-Regular'" font-size="1.5">ЭлектроЭир</text>
	<text transform="matrix(1 0 0 1 295.5547 177.8679)" fill="#DADADA" font-family="'DINPro-Regular'" font-size="1.5">Electroair</text>
	<text transform="matrix(1 0 0 1 345.6445 144.6794)" fill="#FFFFFF" font-family="'DINPro-Regular'" font-size="1.5">Комппас</text>
	
		<rect x="361.246" y="39.214" fill="#6B6E6F" stroke="#000000" stroke-width="0.2" stroke-miterlimit="10" width="102.047" height="42.521"/>
	<text transform="matrix(1 0 0 1 403.3447 60.072)" fill="#FFFFFF" font-family="'DINPro-Regular'" font-size="3">Алмаз-Антей</text>
	<text transform="matrix(1 0 0 1 402.373 63.6716)" fill="#DADADA" font-family="'DINPro-Regular'" font-size="3">ALMAZ-ANTEY</text>
	
		<rect x="361.246" y="95.994" fill="#6B6E6F" stroke="#000000" stroke-width="0.2" stroke-miterlimit="10" width="102.047" height="42.521"/>
	<text transform="matrix(1 0 0 1 403.3447 116.8523)" fill="#FFFFFF" font-family="'DINPro-Regular'" font-size="3">Алмаз-Антей</text>
	<text transform="matrix(1 0 0 1 402.373 120.4519)" fill="#DADADA" font-family="'DINPro-Regular'" font-size="3">ALMAZ-ANTEY</text>
	
		<rect x="361.246" y="152.683" fill="#6B6E6F" stroke="#000000" stroke-width="0.2" stroke-miterlimit="10" width="102.047" height="19.843"/>
	<text transform="matrix(1 0 0 1 403.3447 161.8728)" fill="#FFFFFF" font-family="'DINPro-Regular'" font-size="3">Алмаз-Антей</text>
	<text transform="matrix(1 0 0 1 402.373 165.4734)" fill="#DADADA" font-family="'DINPro-Regular'" font-size="3">ALMAZ-ANTEY</text>
	<text transform="matrix(1 0 0 1 108.708 58.2732)" fill="#FFFFFF" font-family="'DINPro-Regular'" font-size="1.5">Концерн </text>
	<text transform="matrix(1 0 0 1 103.1738 60.074)" fill="#FFFFFF" font-family="'DINPro-Regular'" font-size="1.5">Моринформсистема-Агат</text>
	<text transform="matrix(1 0 0 1 108.8472 61.8738)" fill="#DADADA" font-family="'DINPro-Regular'" font-size="1.5">Concern </text>
	<text transform="matrix(1 0 0 1 104.0752 63.6736)" fill="#DADADA" font-family="'DINPro-Regular'" font-size="1.5">Morinformsystem-Agat</text>
	<text transform="matrix(1 0 0 1 323.2041 77.4812)" fill="#FFFFFF" font-family="'DINPro-Regular'" font-size="3">КРЭТ</text>
	<text transform="matrix(1 0 0 1 323.1602 81.0818)" fill="#DADADA" font-family="'DINPro-Regular'" font-size="3">KRET</text>
	
		<rect x="134.603" y="39.214" fill="#6B6E6F" stroke="#000000" stroke-width="0.2" stroke-miterlimit="10" width="155.934" height="107.718"/>
	<text transform="matrix(1 0 0 1 200.1743 88.8513)" fill="#FFFFFF" font-family="'DINPro-Regular'" font-size="3">Вертолеты России</text>
	<text transform="matrix(1 0 0 1 199.4785 92.4509)" fill="#DADADA" font-family="'DINPro-Regular'" font-size="3">Russian Helicopters</text>
	<g>
		<circle fill="#EDEDED" stroke="#3C3C3B" stroke-width="0.25" stroke-miterlimit="10" cx="97.73" cy="39.214" r="3.26"/>
		<text transform="matrix(1 0 0 1 95.3081 40.198)" fill="#3C3C3B" font-family="'DINPro-Bold'" font-size="2.8">1O1</text>
	</g>
	<g>
		<circle fill="#EDEDED" stroke="#3C3C3B" stroke-width="0.25" stroke-miterlimit="10" cx="134.821" cy="39.214" r="3.26"/>
		<text transform="matrix(1 0 0 1 132.3989 40.198)" fill="#3C3C3B" font-family="'DINPro-Bold'" font-size="2.8">1O2</text>
	</g>
	<g>
		<circle fill="#EDEDED" stroke="#3C3C3B" stroke-width="0.25" stroke-miterlimit="10" cx="298.854" cy="39.214" r="3.26"/>
		<text transform="matrix(1 0 0 1 296.4316 40.198)" fill="#3C3C3B" font-family="'DINPro-Bold'" font-size="2.8">1O3</text>
	</g>
	<g>
		<circle fill="#EDEDED" stroke="#3C3C3B" stroke-width="0.25" stroke-miterlimit="10" cx="361.246" cy="39.214" r="3.26"/>
		<text transform="matrix(1 0 0 1 358.8242 40.198)" fill="#3C3C3B" font-family="'DINPro-Bold'" font-size="2.8">1O4</text>
	</g>
	<g>
		<circle fill="#EDEDED" stroke="#3C3C3B" stroke-width="0.25" stroke-miterlimit="10" cx="361.246" cy="95.994" r="3.26"/>
		<text transform="matrix(1 0 0 1 358.8242 96.9783)" fill="#3C3C3B" font-family="'DINPro-Bold'" font-size="2.8">1O5</text>
	</g>
	<g>
		<circle fill="#EDEDED" stroke="#3C3C3B" stroke-width="0.25" stroke-miterlimit="10" cx="361.246" cy="152.683" r="3.26"/>
		<text transform="matrix(1 0 0 1 358.8242 153.6677)" fill="#3C3C3B" font-family="'DINPro-Bold'" font-size="2.8">1O6</text>
	</g>
	<g>
		<circle fill="#EDEDED" stroke="#3C3C3B" stroke-width="0.25" stroke-miterlimit="10" cx="284.682" cy="172.525" r="3.26"/>
		<text transform="matrix(1 0 0 1 282.2588 173.5105)" fill="#3C3C3B" font-family="'DINPro-Bold'" font-size="2.8">1O7</text>
	</g>
	<g>
		<circle fill="#EDEDED" stroke="#3C3C3B" stroke-width="0.25" stroke-miterlimit="10" cx="321.623" cy="169.264" r="3.26"/>
		<text transform="matrix(1 0 0 1 318.4404 170.2478)" fill="#3C3C3B" font-family="'DINPro-Bold'" font-size="2.8">1O11</text>
	</g>
	<g>
		<circle fill="#EDEDED" stroke="#3C3C3B" stroke-width="0.25" stroke-miterlimit="10" cx="344.344" cy="121.252" r="3.26"/>
		<text transform="matrix(1 0 0 1 341.1621 122.2361)" fill="#3C3C3B" font-family="'DINPro-Bold'" font-size="2.8">1O12</text>
	</g>
</g>
</svg>
