<?xml version="1.0" encoding="utf-8"?>
<!-- Generator: Adobe Illustrator 15.0.0, SVG Export Plug-In . SVG Version: 6.00 Build 0)  -->
<!DOCTYPE svg PUBLIC "-//W3C//DTD SVG 1.1//EN" "http://www.w3.org/Graphics/SVG/1.1/DTD/svg11.dtd">
<svg version="1.1" xmlns="http://www.w3.org/2000/svg" xmlns:xlink="http://www.w3.org/1999/xlink" x="0px" y="0px"
	 width="442.492px" height="203.183px" viewBox="0 0 442.492 203.183" enable-background="new 0 0 442.492 203.183"
	 xml:space="preserve">
<g id="Улица">
	<path fill="#9D9D9C" stroke="#12100B" stroke-miterlimit="10" d="M428.486,38.621"/>
	<path fill="none" stroke="#12100B" stroke-width="0.5" stroke-miterlimit="10" d="M454.381,46.988l-58.305,200.697
		c0,0-101.178-22.882-201.908-41.73C100.141,188.361,8.37,175.85,8.37,175.85V38.621h428.882
		C454.381,46.988,454.381,46.988,454.381,46.988z"/>
</g>
<g id="План">
	<rect x="27.463" y="0.217" opacity="0.1" fill="#95C11F" width="411.792" height="14.174"/>
</g>
<g id="Экспозиция">
	
		<rect x="11.249" y="41.424" fill="#6B6E6F" stroke="#000000" stroke-width="0.2" stroke-miterlimit="10" width="68.031" height="28.347"/>
	
		<rect x="87.762" y="41.483" fill="#939698" stroke="#000000" stroke-width="0.2" stroke-miterlimit="10" width="59.527" height="28.347"/>
	
		<rect x="11.327" y="78.275" fill="#BFC3C6" stroke="#000000" stroke-width="0.2" stroke-miterlimit="10" width="68.031" height="28.347"/>
	
		<rect x="11.47" y="154.798" fill="#939698" stroke="#000000" stroke-width="0.2" stroke-miterlimit="10" width="33.942" height="14.173"/>
	
		<rect x="11.249" y="115.128" fill="#939698" stroke="#000000" stroke-width="0.2" stroke-miterlimit="10" width="34.016" height="28.347"/>
	
		<rect x="52.008" y="115.499" fill="#6B6E6F" stroke="#000000" stroke-width="0.2" stroke-miterlimit="10" width="37.085" height="34.016"/>
	<text transform="matrix(1 0 0 1 316.7393 10.9834)" fill="#FFFFFF" font-family="'DINPro-Bold'" font-size="2">50</text>
	<text transform="matrix(1 0 0 1 74.7559 68.9219)" fill="#FFFFFF" font-family="'DINPro-Bold'" font-size="2">240</text>
	
		<rect x="155.859" y="41.424" fill="#6B6E6F" stroke="#000000" stroke-width="0.2" stroke-miterlimit="10" width="42.52" height="28.347"/>
	<text transform="matrix(1 0 0 1 194.1631 68.5586)" fill="#FFFFFF" font-family="'DINPro-Bold'" font-size="2">150</text>
	<text transform="matrix(1 0 0 1 142.9355 68.9219)" fill="#FFFFFF" font-family="'DINPro-Bold'" font-size="2">210</text>
	<text transform="matrix(1 0 0 1 74.7559 105.8604)" fill="#FFFFFF" font-family="'DINPro-Bold'" font-size="2">240</text>
	<text transform="matrix(1 0 0 1 42.542 168.1426)" fill="#FFFFFF" font-family="'DINPro-Bold'" font-size="2">60</text>
	<text transform="matrix(1 0 0 1 41.4561 142.7734)" fill="#FFFFFF" font-family="'DINPro-Bold'" font-size="2">120</text>
	<text transform="matrix(1 0 0 1 86.4756 148.6592)" fill="#FFFFFF" font-family="'DINPro-Bold'" font-size="2">156</text>
	<text transform="matrix(1 0 0 1 92.209 54.3242)"><tspan x="0" y="0" fill="#FFFFFF" font-family="'ArialNarrow-Bold'" font-size="3.3455">Комбинат автомобильных фургонов</tspan><tspan x="22.499" y="4.015" fill="#DADADA" font-family="'ArialNarrow-Bold'" font-size="3.3455">KAF</tspan></text>
	<text transform="matrix(1 0 0 1 21.9971 160.8398)"><tspan x="0" y="0" fill="#FFFFFF" font-family="'ArialNarrow-Bold'" font-size="3.3455">Новотент</tspan><tspan x="0.502" y="4.015" fill="#DADADA" font-family="'ArialNarrow-Bold'" font-size="3.3455">Novotent</tspan></text>
	<text transform="matrix(1 0 0 1 169.1602 55.5967)"><tspan x="0" y="0" fill="#FFFFFF" font-family="'ArialNarrow-Bold'" font-size="3.6171">Оборонлес</tspan><tspan x="1.602" y="3.906" fill="#DADADA" font-family="'ArialNarrow-Bold'" font-size="3.2554">Oboronles</tspan></text>
	<text transform="matrix(1 0 0 1 64.6523 129.8047)"><tspan x="0" y="0" fill="#FFFFFF" font-family="'ArialNarrow-Bold'" font-size="2.9065">МЧС России</tspan><tspan x="1.872" y="2.906" fill="#DADADA" font-family="'ArialNarrow-Bold'" font-size="2.4221">EMERCOM </tspan><tspan x="2.864" y="5.813" fill="#DADADA" font-family="'ArialNarrow-Bold'" font-size="2.4221">of Russia</tspan></text>
	<text transform="matrix(1 0 0 1 15.9658 129.3008)"><tspan x="0" y="0" fill="#FFFFFF" font-family="'ArialNarrow-Bold'" font-size="2.9065">КОМПАНИЯ ВИТАНД</tspan><tspan x="8.596" y="2.906" fill="#DADADA" font-family="'ArialNarrow-Bold'" font-size="2.4221">VITAND</tspan></text>
	<text transform="matrix(1 0 0 1 19.1943 54.3242)"><tspan x="0" y="0" fill="#FFFFFF" font-family="'ArialNarrow-Bold'" font-size="4.8408">Волгостальконструкция</tspan><tspan x="15.806" y="4.841" fill="#DADADA" font-family="'ArialNarrow-Bold'" font-size="4.034">JSC&quot;VSK&quot;</tspan></text>
	<g>
		<g>
			<g>
				<polyline fill="none" stroke="#000000" stroke-width="0.5" stroke-miterlimit="10" points="96.008,21.494 96.008,22.994 
					94.508,22.994 				"/>
				
					<line fill="none" stroke="#000000" stroke-width="0.5" stroke-miterlimit="10" stroke-dasharray="3.7246,3.7246" x1="90.783" y1="22.994" x2="85.196" y2="22.994"/>
				<polyline fill="none" stroke="#000000" stroke-width="0.5" stroke-miterlimit="10" points="83.334,22.994 81.834,22.994 
					81.834,21.494 				"/>
				
					<line fill="none" stroke="#000000" stroke-width="0.5" stroke-miterlimit="10" stroke-dasharray="1.8346,1.8346" x1="81.834" y1="19.659" x2="81.834" y2="16.907"/>
				<polyline fill="none" stroke="#000000" stroke-width="0.5" stroke-miterlimit="10" points="81.834,15.99 81.834,14.49 
					83.334,14.49 				"/>
				
					<line fill="none" stroke="#000000" stroke-width="0.5" stroke-miterlimit="10" stroke-dasharray="3.7246,3.7246" x1="87.059" y1="14.49" x2="92.646" y2="14.49"/>
				<polyline fill="none" stroke="#000000" stroke-width="0.5" stroke-miterlimit="10" points="94.508,14.49 96.008,14.49 
					96.008,15.99 				"/>
				
					<line fill="none" stroke="#000000" stroke-width="0.5" stroke-miterlimit="10" stroke-dasharray="1.8346,1.8346" x1="96.008" y1="17.825" x2="96.008" y2="20.577"/>
			</g>
		</g>
		<text transform="matrix(1 0 0 1 84.1523 18.2422)"><tspan x="0" y="0" font-family="'ArialNarrow-Bold'" font-size="2">Место для</tspan><tspan x="0.834" y="2.4" font-family="'ArialNarrow-Bold'" font-size="2">курения </tspan></text>
	</g>
</g>
</svg>
