<?xml version="1.0" encoding="utf-8"?>
<!-- Generator: Adobe Illustrator 15.0.0, SVG Export Plug-In . SVG Version: 6.00 Build 0)  -->
<!DOCTYPE svg PUBLIC "-//W3C//DTD SVG 1.1//EN" "http://www.w3.org/Graphics/SVG/1.1/DTD/svg11.dtd">
<svg version="1.1" xmlns="http://www.w3.org/2000/svg" xmlns:xlink="http://www.w3.org/1999/xlink" x="0px" y="0px"
	 width="442.492px" height="203.183px" viewBox="0 0 442.492 203.183" enable-background="new 0 0 442.492 203.183"
	 xml:space="preserve">
<g id="Улица">
	<path fill="none" stroke="#12100B" stroke-width="0.5" stroke-miterlimit="10" d="M205.29,145.648
		c-98.52-7.428-193.541-9.585-193.541-9.585V38.621h418.184v128.967C429.933,167.588,315.234,153.936,205.29,145.648z"/>
</g>
<g id="План">
	<rect x="6.766" y="0.217" opacity="0.1" fill="#95C11F" width="408.861" height="14.174"/>
</g>
<g id="Экспозиция">
	
		<rect x="353.415" y="120.972" fill="#BFC3C6" stroke="#000000" stroke-width="0.2" stroke-miterlimit="10" width="31.182" height="28.347"/>
	
		<rect x="393.104" y="126.513" fill="#6B6E6F" stroke="#000000" stroke-width="0.2" stroke-miterlimit="10" width="34.016" height="22.677"/>
	<text transform="matrix(1 0 0 1 424.1191 148.3994)" fill="#FFFFFF" font-family="'DINPro-Bold'" font-size="2">96</text>
	<text transform="matrix(1 0 0 1 380.0332 148.3994)" fill="#FFFFFF" font-family="'DINPro-Bold'" font-size="2">110</text>
	
		<rect x="384.624" y="78.274" fill="#6B6E6F" stroke="#000000" stroke-width="0.2" stroke-miterlimit="10" width="42.52" height="28.347"/>
	<text transform="matrix(1 0 0 1 423.0332 105.6533)" fill="#FFFFFF" font-family="'DINPro-Bold'" font-size="2">150</text>
	<text transform="matrix(1 0 0 1 396.4717 90.3633)"><tspan x="0" y="0" fill="#FFFFFF" font-family="'ArialNarrow-Bold'" font-size="3.3455">ВЦМК Защита</tspan><tspan x="-5.45" y="4.015" fill="#DADADA" font-family="'ArialNarrow-Bold'" font-size="3.3455">All-Russian Centre for </tspan><tspan x="-9.504" y="8.029" fill="#DADADA" font-family="'ArialNarrow-Bold'" font-size="3.3455">Disaster Medicine &apos;&apos;Zaschita&apos;&apos;</tspan></text>
	
		<rect x="152.144" y="78.304" fill="#6B6E6F" stroke="#000000" stroke-width="0.2" stroke-miterlimit="10" width="17.008" height="31.18"/>
	
		<rect x="174.769" y="121.025" fill="#BFC3C6" stroke="#000000" stroke-width="0.2" stroke-miterlimit="10" width="85.039" height="17.008"/>
	
		<rect x="177.848" y="78.334" fill="#BFC3C6" stroke="#000000" stroke-width="0.2" stroke-miterlimit="10" width="56.693" height="31.181"/>
	
		<rect x="152.144" y="120.665" fill="#6B6E6F" stroke="#000000" stroke-width="0.2" stroke-miterlimit="10" width="14.173" height="17.008"/>
	<text transform="matrix(1 0 0 1 255.252 137.5586)" fill="#FFFFFF" font-family="'DINPro-Bold'" font-size="2">180</text>
	<text transform="matrix(1 0 0 1 163.7285 137.3613)" fill="#FFFFFF" font-family="'DINPro-Bold'" font-size="2">30</text>
	<text transform="matrix(1 0 0 1 166.4219 108.6182)" fill="#FFFFFF" font-family="'DINPro-Bold'" font-size="2">66</text>
	
		<rect x="16.052" y="41.483" fill="#6B6E6F" stroke="#000000" stroke-width="0.2" stroke-miterlimit="10" width="127.559" height="90.709"/>
	
		<rect x="151.739" y="41.483" fill="#6B6E6F" stroke="#000000" stroke-width="0.2" stroke-miterlimit="10" width="70.866" height="28.347"/>
	
		<rect x="231.557" y="41.483" fill="#6B6E6F" stroke="#000000" stroke-width="0.2" stroke-miterlimit="10" width="51.023" height="28.347"/>
	
		<rect x="330.724" y="41.483" fill="#6B6E6F" stroke="#000000" stroke-width="0.2" stroke-miterlimit="10" width="31.181" height="28.347"/>
	
		<rect x="291.159" y="41.483" fill="#6B6E6F" stroke="#000000" stroke-width="0.2" stroke-miterlimit="10" width="31.181" height="28.347"/>
	
		<rect x="359.049" y="78.274" fill="#6B6E6F" stroke="#000000" stroke-width="0.2" stroke-miterlimit="10" width="17.008" height="31.181"/>
	
		<rect x="319.451" y="120.848" fill="#6B6E6F" stroke="#000000" stroke-width="0.2" stroke-miterlimit="10" width="25.512" height="28.347"/>
	
		<rect x="242.872" y="78.146" fill="#939698" stroke="#000000" stroke-width="0.2" stroke-miterlimit="10" width="8.504" height="31.181"/>
	
		<rect x="259.896" y="78.146" fill="#939698" stroke="#000000" stroke-width="0.2" stroke-miterlimit="10" width="17.008" height="25.512"/>
	
		<rect x="268.601" y="121.025" fill="#939698" stroke="#000000" stroke-width="0.2" stroke-miterlimit="10" width="17.008" height="17.008"/>
	
		<rect x="336.348" y="78.419" fill="#6B6E6F" stroke="#000000" stroke-width="0.2" stroke-miterlimit="10" width="14.173" height="31.181"/>
	
		<rect x="285.101" y="78.146" fill="#6B6E6F" stroke="#000000" stroke-width="0.2" stroke-miterlimit="10" width="17.008" height="31.181"/>
	
		<rect x="293.913" y="120.972" fill="#6B6E6F" stroke="#000000" stroke-width="0.2" stroke-miterlimit="10" width="17.008" height="14.173"/>
	
		<rect x="310.826" y="98.153" fill="#6B6E6F" stroke="#000000" stroke-width="0.2" stroke-miterlimit="10" width="17.008" height="14.173"/>
	
		<rect x="310.947" y="78.419" fill="#939698" stroke="#000000" stroke-width="0.2" stroke-miterlimit="10" width="17.008" height="14.173"/>
	
		<rect x="367.616" y="41.483" fill="#6B6E6F" stroke="#000000" stroke-width="0.2" stroke-miterlimit="10" width="59.527" height="28.347"/>
	<text transform="matrix(1 0 0 1 341.917 148.167)" fill="#FFFFFF" font-family="'DINPro-Bold'" font-size="2">90</text>
	<text transform="matrix(1 0 0 1 372.7334 108.1895)" fill="#FFFFFF" font-family="'DINPro-Bold'" font-size="2">66</text>
	<text transform="matrix(1 0 0 1 299.1514 108.6182)" fill="#FFFFFF" font-family="'DINPro-Bold'" font-size="2">66</text>
	<text transform="matrix(1 0 0 1 347.5576 109.0957)" fill="#FFFFFF" font-family="'DINPro-Bold'" font-size="2">55</text>
	<text transform="matrix(1 0 0 1 273.3623 102.7285)" fill="#FFFFFF" font-family="'DINPro-Bold'" font-size="2">54</text>
	<text transform="matrix(1 0 0 1 249.0938 108.6182)" fill="#FFFFFF" font-family="'DINPro-Bold'" font-size="2">33</text>
	<text transform="matrix(1 0 0 1 230.3828 108.6182)" fill="#FFFFFF" font-family="'DINPro-Bold'" font-size="2">220</text>
	<text transform="matrix(1 0 0 1 324.7881 111.6113)" fill="#FFFFFF" font-family="'DINPro-Bold'" font-size="2">30</text>
	<text transform="matrix(1 0 0 1 282.8037 137.6729)" fill="#FFFFFF" font-family="'DINPro-Bold'" font-size="2">36</text>
	<text transform="matrix(1 0 0 1 308.0625 135.001)" fill="#FFFFFF" font-family="'DINPro-Bold'" font-size="2">30</text>
	<text transform="matrix(1.0355 0 0 1 325.1143 92.0518)" fill="#FFFFFF" font-family="'DINPro-Bold'" font-size="2">30</text>
	<text transform="matrix(1 0 0 1 357.4639 68.5586)" fill="#FFFFFF" font-family="'DINPro-Bold'" font-size="2">110</text>
	<text transform="matrix(1 0 0 1 318.2139 68.5586)" fill="#FFFFFF" font-family="'DINPro-Bold'" font-size="2">110</text>
	<text transform="matrix(1 0 0 1 277.8389 68.5586)" fill="#FFFFFF" font-family="'DINPro-Bold'" font-size="2">180</text>
	<text transform="matrix(1 0 0 1 218.3115 68.5586)" fill="#FFFFFF" font-family="'DINPro-Bold'" font-size="2">250</text>
	<text transform="matrix(1 0 0 1 137.752 131.1006)" fill="#FFFFFF" font-family="'DINPro-Bold'" font-size="2">1440</text>
	<text transform="matrix(1 0 0 1 423.0889 68.5586)" fill="#FFFFFF" font-family="'DINPro-Bold'" font-size="2">210</text>
	<text transform="matrix(1 0 0 1 181.8271 54.5898)"><tspan x="0" y="0" fill="#FFFFFF" font-family="'ArialNarrow-Bold'" font-size="4">АЗ УРАЛ</tspan><tspan x="-12.844" y="4.8" fill="#DADADA" font-family="'ArialNarrow-Bold'" font-size="4">Automobile plant &quot;URAL&quot;</tspan></text>
	<text transform="matrix(1 0 0 1 251.3428 54.5898)"><tspan x="0" y="0" fill="#FFFFFF" font-family="'ArialNarrow-Bold'" font-size="4">Астейс</tspan><tspan x="0.804" y="4.8" fill="#DADADA" font-family="'ArialNarrow-Bold'" font-size="4">Astais</tspan></text>
	<text transform="matrix(1 0 0 1 386.7744 54.5898)"><tspan x="0" y="0" fill="#FFFFFF" font-family="'ArialNarrow-Bold'" font-size="4">Авангард + К</tspan><tspan x="-0.012" y="4.8" fill="#DADADA" font-family="'ArialNarrow-Bold'" font-size="4">Avangard + K</tspan></text>
	<text transform="matrix(1 0 0 1 293.4258 55.2959)"><tspan x="0" y="0" fill="#FFFFFF" font-family="'ArialNarrow-Bold'" font-size="3.5312">ВЕЛМАШ / ИНМАН</tspan><tspan x="1.896" y="4.237" fill="#DADADA" font-family="'ArialNarrow-Bold'" font-size="3.5312">Velmash / Inman</tspan></text>
	<text transform="matrix(1 0 0 1 335.8438 54.5898)"><tspan x="0" y="0" fill="#FFFFFF" font-family="'ArialNarrow-Bold'" font-size="4">ОКБ Техника</tspan><tspan x="-2.039" y="3.6" fill="#DADADA" font-family="'ArialNarrow-Bold'" font-size="3">Experimental Design </tspan><tspan x="-1.428" y="7.2" fill="#DADADA" font-family="'ArialNarrow-Bold'" font-size="3">Bureau &quot;Technique&quot;</tspan></text>
	<text transform="matrix(1 0 0 1 361.2246 94.4746)"><tspan x="0" y="0" fill="#FFFFFF" font-family="'ArialNarrow-Bold'" font-size="2">Электроагрегат</tspan><tspan x="0.586" y="2.4" fill="#DADADA" font-family="'ArialNarrow-Bold'" font-size="2">Electroagregat</tspan></text>
	<text transform="matrix(1 0 0 1 339.8594 94.4746)"><tspan x="0" y="0" fill="#FFFFFF" font-family="'ArialNarrow-Bold'" font-size="2">Телекор </tspan><tspan x="0.201" y="2.4" fill="#DADADA" font-family="'ArialNarrow-Bold'" font-size="2">Telecore</tspan></text>
	<text transform="matrix(1 0 0 1 326.0488 131.8848)"><tspan x="0" y="0" fill="#FFFFFF" font-family="'ArialNarrow-Bold'" font-size="3">Телепорт-</tspan><tspan x="1.48" y="3.6" fill="#FFFFFF" font-family="'ArialNarrow-Bold'" font-size="3">Монтаж</tspan><tspan x="-4.092" y="7.2" fill="#DADADA" font-family="'ArialNarrow-Bold'" font-size="3">Teleport-Montazh</tspan></text>
	<text transform="matrix(1 0 0 1 401.5352 137.2471)"><tspan x="0" y="0" fill="#FFFFFF" font-family="'ArialNarrow-Bold'" font-size="3.8458">ИТИС /</tspan><tspan x="10.493" y="0" fill="#DADADA" font-family="'ArialNarrow-Bold'" font-size="3.8458">ITaS</tspan><tspan x="-7.289" y="4.615" fill="#FFFFFF" font-family="'ArialNarrow-Bold'" font-size="3.8458">Контроль ИТ / </tspan><tspan x="15.512" y="4.615" fill="#DADADA" font-family="'ArialNarrow-Bold'" font-size="3.8458">kmyt</tspan></text>
	<text transform="matrix(1 0 0 1 155.1875 94.0693)"><tspan x="0" y="0" fill="#FFFFFF" font-family="'ArialNarrow-Bold'" font-size="3">НТЦ РЭБ</tspan><tspan x="2.141" y="2.16" fill="#DADADA" font-family="'ArialNarrow-Bold'" font-size="1.8">ntc-reb</tspan></text>
	<text transform="matrix(1 0 0 1 153.1934 130.0127)"><tspan x="0" y="0" fill="#FFFFFF" font-family="'ArialNarrow-Bold'" font-size="2.4796">НПК ДЕДАЛ</tspan><tspan x="3.845" y="1.785" fill="#DADADA" font-family="'ArialNarrow-Bold'" font-size="1.4878">dedal</tspan></text>
	<text transform="matrix(1 0 0 1 243.5977 93.8936)"><tspan x="0" y="0" fill="#FFFFFF" font-family="'ArialNarrow-Bold'" font-size="1.8649">ТЕГРУСС</tspan><tspan x="1.615" y="1.343" fill="#DADADA" font-family="'ArialNarrow-Bold'" font-size="1.119">TEGRUS</tspan></text>
	<text transform="matrix(1 0 0 1 260.9248 90.9023)"><tspan x="0" y="0" fill="#FFFFFF" font-family="'ArialNarrow-Bold'" font-size="2.197">Уралавтоприцеп</tspan><tspan x="1.97" y="2.197" fill="#DADADA" font-family="'ArialNarrow-Bold'" font-size="1.8308">Uralavtopritsep</tspan></text>
	<text transform="matrix(1 0 0 1 294.3066 127.6035)"><tspan x="0" y="0" fill="#FFFFFF" font-family="'ArialNarrow-Bold'" font-size="2.1392">МеталлСпецСтрой</tspan><tspan x="2.343" y="2.14" fill="#DADADA" font-family="'ArialNarrow-Bold'" font-size="1.7827">Metallspetsstroy</tspan></text>
	<text transform="matrix(0.9831 0 0 1 286.8564 94.4746)" fill="#FFFFFF" font-family="'DINPro-Bold'" font-size="3">Магеллан</text>
	<text transform="matrix(1 0 0 1 313.4658 103.6162)"><tspan x="0" y="0" fill="#FFFFFF" font-family="'ArialNarrow-Bold'" font-size="2.331">АльфаБалт-</tspan><tspan x="0.024" y="2.797" fill="#FFFFFF" font-family="'ArialNarrow-Bold'" font-size="2.331">Инжиниринг</tspan><tspan x="4.049" y="5.314" fill="#DADADA" font-family="'ArialNarrow-Bold'" font-size="2.0979">abe</tspan></text>
	<text transform="matrix(1 0 0 1 272.3076 128.0586)"><tspan x="0" y="0" fill="#FFFFFF" font-family="'ArialNarrow-Bold'" font-size="2.331">Средства </tspan><tspan x="0.214" y="2.797" fill="#FFFFFF" font-family="'ArialNarrow-Bold'" font-size="2.331">Спасения</tspan><tspan x="-2.946" y="5.314" fill="#DADADA" font-family="'ArialNarrow-Bold'" font-size="2.0979">Rescue Equipment</tspan></text>
	<text transform="matrix(1 0 0 1 316.5283 83.8281)"><tspan x="0" y="0" fill="#FFFFFF" font-family="'ArialNarrow-Bold'" font-size="1.9791">ПетрГУ</tspan><tspan x="-1.826" y="2.138" fill="#DADADA" font-family="'ArialNarrow-Bold'" font-size="1.7812">Petrozavodsk</tspan><tspan x="-2.597" y="4.274" fill="#DADADA" font-family="'ArialNarrow-Bold'" font-size="1.7812">State University</tspan></text>
	
		<rect x="412.971" y="155.17" fill="#6B6E6F" stroke="#000000" stroke-width="0.2" stroke-miterlimit="10" width="14.173" height="5.67"/>
	<text transform="matrix(1 0 0 1 424.6113 160.1885)" fill="#FFFFFF" font-family="'DINPro-Bold'" font-size="2">10</text>
	<text transform="matrix(1 0 0 1 415.7109 156.6299)"><tspan x="0" y="0" fill="#FFFFFF" font-family="'ArialNarrow-Bold'" font-size="1.5">Современные</tspan><tspan x="-0.855" y="1.8" fill="#FFFFFF" font-family="'ArialNarrow-Bold'" font-size="1.5">технологические</tspan><tspan x="2.451" y="3.6" fill="#FFFFFF" font-family="'ArialNarrow-Bold'" font-size="1.5">линии</tspan></text>
	<g>
		<g>
			<g>
				<polyline fill="none" stroke="#000000" stroke-width="0.5" stroke-miterlimit="10" points="74.938,21.494 74.938,22.994 
					73.438,22.994 				"/>
				
					<line fill="none" stroke="#000000" stroke-width="0.5" stroke-miterlimit="10" stroke-dasharray="3.7246,3.7246" x1="69.713" y1="22.994" x2="64.126" y2="22.994"/>
				<polyline fill="none" stroke="#000000" stroke-width="0.5" stroke-miterlimit="10" points="62.264,22.994 60.764,22.994 
					60.764,21.494 				"/>
				
					<line fill="none" stroke="#000000" stroke-width="0.5" stroke-miterlimit="10" stroke-dasharray="1.8346,1.8346" x1="60.764" y1="19.659" x2="60.764" y2="16.907"/>
				<polyline fill="none" stroke="#000000" stroke-width="0.5" stroke-miterlimit="10" points="60.764,15.99 60.764,14.49 
					62.264,14.49 				"/>
				
					<line fill="none" stroke="#000000" stroke-width="0.5" stroke-miterlimit="10" stroke-dasharray="3.7246,3.7246" x1="65.988" y1="14.49" x2="71.575" y2="14.49"/>
				<polyline fill="none" stroke="#000000" stroke-width="0.5" stroke-miterlimit="10" points="73.438,14.49 74.938,14.49 
					74.938,15.99 				"/>
				
					<line fill="none" stroke="#000000" stroke-width="0.5" stroke-miterlimit="10" stroke-dasharray="1.8346,1.8346" x1="74.938" y1="17.825" x2="74.938" y2="20.577"/>
			</g>
		</g>
		<text transform="matrix(1 0 0 1 63.082 18.2422)"><tspan x="0" y="0" font-family="'ArialNarrow-Bold'" font-size="2">Место для</tspan><tspan x="0.834" y="2.4" font-family="'ArialNarrow-Bold'" font-size="2">курения </tspan></text>
	</g>
	<g>
		<g>
			<g>
				<polyline fill="none" stroke="#000000" stroke-width="0.5" stroke-miterlimit="10" points="361.629,21.494 361.629,22.994 
					360.129,22.994 				"/>
				
					<line fill="none" stroke="#000000" stroke-width="0.5" stroke-miterlimit="10" stroke-dasharray="3.7246,3.7246" x1="356.404" y1="22.994" x2="350.817" y2="22.994"/>
				<polyline fill="none" stroke="#000000" stroke-width="0.5" stroke-miterlimit="10" points="348.955,22.994 347.455,22.994 
					347.455,21.494 				"/>
				
					<line fill="none" stroke="#000000" stroke-width="0.5" stroke-miterlimit="10" stroke-dasharray="1.8346,1.8346" x1="347.455" y1="19.659" x2="347.455" y2="16.907"/>
				<polyline fill="none" stroke="#000000" stroke-width="0.5" stroke-miterlimit="10" points="347.455,15.99 347.455,14.49 
					348.955,14.49 				"/>
				
					<line fill="none" stroke="#000000" stroke-width="0.5" stroke-miterlimit="10" stroke-dasharray="3.7246,3.7246" x1="352.68" y1="14.49" x2="358.267" y2="14.49"/>
				<polyline fill="none" stroke="#000000" stroke-width="0.5" stroke-miterlimit="10" points="360.129,14.49 361.629,14.49 
					361.629,15.99 				"/>
				
					<line fill="none" stroke="#000000" stroke-width="0.5" stroke-miterlimit="10" stroke-dasharray="1.8346,1.8346" x1="361.629" y1="17.825" x2="361.629" y2="20.577"/>
			</g>
		</g>
		<text transform="matrix(1 0 0 1 349.7734 18.2422)"><tspan x="0" y="0" font-family="'ArialNarrow-Bold'" font-size="2">Место для</tspan><tspan x="0.834" y="2.4" font-family="'ArialNarrow-Bold'" font-size="2">курения </tspan></text>
	</g>
	<text transform="matrix(1 0 0 1 63.6152 78.3037)"><tspan x="0" y="0" fill="#FFFFFF" font-family="'ArialNarrow-Bold'" font-size="5.6403">Высокоточные</tspan><tspan x="4.697" y="6.769" fill="#FFFFFF" font-family="'ArialNarrow-Bold'" font-size="5.6403">комплексы</tspan><tspan x="-14.097" y="13.537" fill="#DADADA" font-family="'ArialNarrow-Bold'" font-size="5.6403">HIGH PRECISION WEAPONS</tspan></text>
</g>
</svg>
