<?xml version="1.0" encoding="utf-8"?>
<!-- Generator: Adobe Illustrator 15.0.0, SVG Export Plug-In . SVG Version: 6.00 Build 0)  -->
<!DOCTYPE svg PUBLIC "-//W3C//DTD SVG 1.1//EN" "http://www.w3.org/Graphics/SVG/1.1/DTD/svg11.dtd">
<svg version="1.1" id="Layer_1" xmlns="http://www.w3.org/2000/svg" xmlns:xlink="http://www.w3.org/1999/xlink" x="0px" y="0px"
	 width="17.575px" height="17.575px" viewBox="0 0 17.575 17.575" enable-background="new 0 0 17.575 17.575" xml:space="preserve">
<g>
	<g>
		<path fill="#283583" d="M3.488,0.652c0,0-2.836,0-2.836,2.836v10.596c0,0,0,2.836,2.836,2.836h10.597c0,0,2.836,0,2.836-2.836
			V3.488c0,0,0-2.836-2.836-2.836H3.488z"/>
		<path fill="none" stroke="#FFFFFF" stroke-width="0.739" d="M3.488,0.652c0,0-2.836,0-2.836,2.836v10.596c0,0,0,2.836,2.836,2.836
			h10.597c0,0,2.836,0,2.836-2.836V3.488c0,0,0-2.836-2.836-2.836H3.488z"/>
		<path fill="#FFFFFF" d="M9.941,2.705c0.759,0,1.408,0.11,1.943,0.332c0.533,0.222,0.967,0.514,1.303,0.877
			c0.334,0.363,0.578,0.777,0.732,1.243c0.152,0.467,0.229,0.948,0.229,1.448c0,0.489-0.076,0.969-0.229,1.44
			c-0.154,0.471-0.398,0.888-0.732,1.252c-0.336,0.363-0.77,0.656-1.303,0.877c-0.535,0.222-1.184,0.332-1.943,0.332H7.13v4.362
			H4.457V2.705H9.941z M9.208,8.429c0.307,0,0.602-0.023,0.887-0.068c0.283-0.045,0.533-0.134,0.748-0.264
			c0.217-0.131,0.389-0.315,0.52-0.554c0.133-0.238,0.197-0.551,0.197-0.938c0-0.386-0.064-0.698-0.197-0.937
			c-0.131-0.238-0.303-0.423-0.52-0.555c-0.215-0.13-0.465-0.218-0.748-0.264C9.81,4.806,9.515,4.782,9.208,4.782H7.13v3.646H9.208z
			"/>
	</g>
</g>
</svg>
