<?xml version="1.0" encoding="utf-8"?>
<!-- Generator: Adobe Illustrator 15.0.0, SVG Export Plug-In . SVG Version: 6.00 Build 0)  -->
<!DOCTYPE svg PUBLIC "-//W3C//DTD SVG 1.1//EN" "http://www.w3.org/Graphics/SVG/1.1/DTD/svg11.dtd">
<svg version="1.1" xmlns="http://www.w3.org/2000/svg" xmlns:xlink="http://www.w3.org/1999/xlink" x="0px" y="0px" width="76.79px"
	 height="255.118px" viewBox="0 0 76.79 255.118" enable-background="new 0 0 76.79 255.118" xml:space="preserve">
<g id="План">
	<g>
		<line fill-rule="evenodd" clip-rule="evenodd" fill="#E4E3E3" x1="5.194" y1="41.493" x2="5.194" y2="5.606"/>
		<line fill-rule="evenodd" clip-rule="evenodd" fill="#E4E3E3" x1="70.834" y1="41.792" x2="70.834" y2="5.603"/>
		<rect x="34.913" y="74.275" fill-rule="evenodd" clip-rule="evenodd" fill="#E4F0FC" width="37.151" height="34.699"/>
		<rect x="3.429" y="74.275" fill-rule="evenodd" clip-rule="evenodd" fill="#E4F0FC" width="21.586" height="18.443"/>
		<rect x="-6.125" y="5.372" fill-rule="evenodd" clip-rule="evenodd" fill="#FFEDCC" width="10.455" height="35.771"/>
		<rect x="70.834" y="5.372" fill-rule="evenodd" clip-rule="evenodd" fill="#FFEDCC" width="11.184" height="36.42"/>
		<rect x="81.813" y="5.372" fill-rule="evenodd" clip-rule="evenodd" fill="#FFEDCC" width="7.464" height="11.59"/>
		<rect x="3.707" y="40.044" fill-rule="evenodd" clip-rule="evenodd" fill="#FFEDCC" width="21.485" height="20.578"/>
		<rect x="2.759" y="109.409" fill-rule="evenodd" clip-rule="evenodd" fill="#FFEDCC" width="69.935" height="32.401"/>
		<rect x="25.277" y="18.603" fill-rule="evenodd" clip-rule="evenodd" fill="#FFEDCC" width="8.776" height="90.807"/>
		<rect x="20.987" y="141.811" fill-rule="evenodd" clip-rule="evenodd" fill="#FFEDCC" width="34.9" height="56.714"/>
		<rect x="27.935" y="157.94" fill-rule="evenodd" clip-rule="evenodd" fill="#FFEDCC" width="21.005" height="34.133"/>
		<rect x="25.451" y="198.488" fill-rule="evenodd" clip-rule="evenodd" fill="#FFEDCC" width="24.67" height="29.938"/>
		<rect x="34.542" y="35.115" fill-rule="evenodd" clip-rule="evenodd" fill="#FFEDCC" width="6.915" height="21.797"/>
		<rect x="-13.733" y="5.398" fill-rule="evenodd" clip-rule="evenodd" fill="#FFEDCC" width="7.608" height="11.901"/>
		<rect x="4.33" y="18.603" fill-rule="evenodd" clip-rule="evenodd" fill="#E4E3E3" width="20.862" height="21.442"/>
		<rect x="3.429" y="60.622" fill-rule="evenodd" clip-rule="evenodd" fill="#E4E3E3" width="21.453" height="12.929"/>
		<rect x="3.429" y="92.504" fill-rule="evenodd" clip-rule="evenodd" fill="#E4E3E3" width="21.453" height="16.47"/>
		<rect x="34.559" y="57.004" fill-rule="evenodd" clip-rule="evenodd" fill="#E4E3E3" width="37.607" height="16.47"/>
		<rect x="3.233" y="142.22" fill-rule="evenodd" clip-rule="evenodd" fill="#E4E3E3" width="17.281" height="56.564"/>
		<rect x="55.887" y="142.22" fill-rule="evenodd" clip-rule="evenodd" fill="#E4E3E3" width="16.399" height="56.564"/>
		<rect x="6.56" y="198.784" fill-rule="evenodd" clip-rule="evenodd" fill="#E4E3E3" width="18.421" height="29.643"/>
		<rect x="3.53" y="223.511" fill-rule="evenodd" clip-rule="evenodd" fill="#E4E3E3" width="3.439" height="5.174"/>
		<rect x="50.444" y="198.784" fill-rule="evenodd" clip-rule="evenodd" fill="#E4E3E3" width="21.842" height="29.643"/>
		<rect x="41.248" y="34.706" fill-rule="evenodd" clip-rule="evenodd" fill="#E4E3E3" width="30.918" height="22.298"/>
		<rect x="34.503" y="23.101" fill-rule="evenodd" clip-rule="evenodd" fill="#E4E3E3" width="37.663" height="11.607"/>
		<line fill="#575756" x1="-13.251" y1="25.373" x2="-13.251" y2="26.077"/>
		<rect x="-19.202" y="4.899" fill="#575756" width="24.396" height="0.703"/>
		<rect x="-13.733" y="16.8" fill="#575756" width="0.78" height="0.703"/>
		<rect x="-10.668" y="16.8" fill="#575756" width="4.786" height="0.703"/>
		<rect x="-6.125" y="23.941" fill="#575756" width="9.832" height="0.704"/>
		<rect x="-2.837" y="17.124" fill="#575756" width="7.585" height="0.352"/>
		<rect x="-6.037" y="17.124" fill="#575756" width="0.521" height="0.352"/>
		<line fill="#575756" x1="-10.573" y1="41.44" x2="-10.573" y2="42.144"/>
		<rect x="-7.896" y="41.44" fill="#575756" width="11.603" height="0.704"/>
		<rect x="-14.049" y="5.398" fill="#575756" width="0.705" height="20.38"/>
		<rect x="-6.463" y="5.398" fill="#575756" width="0.704" height="15.026"/>
		<rect x="-6.463" y="23.024" fill="#575756" width="0.704" height="8.707"/>
		<rect x="2.759" y="23.996" fill="#575756" width="0.948" height="56.229"/>
		<rect x="2.759" y="85.58" fill="#575756" width="0.948" height="23.803"/>
		<rect x="2.823" y="141.811" fill="#575756" width="0.819" height="57.421"/>
		<rect x="2.823" y="222.734" fill="#575756" width="0.819" height="6.548"/>
		<rect x="6.15" y="198.411" fill="#575756" width="0.82" height="25.145"/>
		<rect x="3.71" y="229.279" fill="#575756" width="1.406" height="19.389"/>
		<line fill="#575756" x1="4.413" y1="244.453" x2="4.413" y2="248.667"/>
		<rect x="70.47" y="228.557" fill="#575756" width="1.405" height="20.11"/>
		<line fill="#575756" x1="71.173" y1="248.667" x2="71.173" y2="244.453"/>
		<rect x="12.048" y="198.411" fill="#575756" width="0.82" height="25.145"/>
		<rect x="24.57" y="215.594" fill="#575756" width="0.819" height="7.961"/>
		<rect x="24.57" y="202.689" fill="#575756" width="0.819" height="8.442"/>
		<rect x="50.121" y="198.375" fill="#575756" width="0.819" height="17.814"/>
		<rect x="50.121" y="219.166" fill="#575756" width="0.819" height="9.52"/>
		<rect x="24.57" y="198.488" fill="#575756" width="0.819" height="1.634"/>
		<rect x="20.105" y="192.684" fill="#575756" width="0.82" height="6.249"/>
		<rect x="20.105" y="175.727" fill="#575756" width="0.82" height="1.784"/>
		<rect x="20.105" y="141.811" fill="#575756" width="0.82" height="18.445"/>
		<rect x="55.477" y="141.811" fill="#575756" width="0.82" height="18.343"/>
		<rect x="55.477" y="175.727" fill="#575756" width="0.82" height="1.75"/>
		<rect x="71.875" y="141.811" fill="#575756" width="0.82" height="87.468"/>
		<rect x="18.583" y="108.563" fill="#575756" width="6.842" height="0.819"/>
		<rect x="34.054" y="108.564" fill="#575756" width="38.533" height="0.82"/>
		<rect x="3.232" y="92.309" fill="#575756" width="22.045" height="0.82"/>
		<rect x="3.232" y="73.567" fill="#575756" width="23.979" height="0.82"/>
		<rect x="32.267" y="73.567" fill="#575756" width="40.463" height="0.82"/>
		<rect x="34.203" y="91.121" fill="#575756" width="38.527" height="0.82"/>
		<rect x="3.232" y="60.178" fill="#575756" width="21.96" height="0.82"/>
		<rect x="3.232" y="39.8" fill="#575756" width="21.96" height="0.82"/>
		<rect x="24.605" y="98.969" fill="#575756" width="0.819" height="10.413"/>
		<rect x="24.605" y="85.58" fill="#575756" width="0.819" height="11.008"/>
		<rect x="24.605" y="66.242" fill="#575756" width="0.819" height="13.982"/>
		<rect x="24.605" y="48.986" fill="#575756" width="0.819" height="14.429"/>
		<rect x="24.605" y="39.795" fill="#575756" width="0.819" height="1.454"/>
		<rect x="24.605" y="44.227" fill="#575756" width="0.819" height="2.38"/>
		<rect x="24.605" y="26.375" fill="#575756" width="0.819" height="4.24"/>
		<rect x="34.093" y="23.4" fill="#575756" width="0.82" height="8.032"/>
		<rect x="56.254" y="23.4" fill="#575756" width="0.82" height="10.413"/>
		<rect x="34.093" y="34.11" fill="#575756" width="0.82" height="8.627"/>
		<rect x="34.093" y="45.474" fill="#575756" width="0.82" height="3.214"/>
		<rect x="34.093" y="51.366" fill="#575756" width="0.82" height="1.784"/>
		<rect x="34.093" y="55.531" fill="#575756" width="0.82" height="7.94"/>
		<rect x="55.363" y="56.502" fill="#575756" width="0.82" height="17.474"/>
		<rect x="34.093" y="68.622" fill="#575756" width="0.82" height="11.603"/>
		<rect x="34.093" y="85.58" fill="#575756" width="0.82" height="11.9"/>
		<rect x="34.093" y="102.539" fill="#575756" width="0.82" height="6.842"/>
		<rect x="71.874" y="85.58" fill="#575756" width="0.82" height="11.9"/>
		<rect x="71.874" y="22.824" fill="#575756" width="0.82" height="57.402"/>
		<rect x="71.874" y="102.539" fill="#575756" width="0.82" height="6.846"/>
		<rect x="40.638" y="34.708" fill="#575756" width="0.819" height="22.165"/>
		<rect x="24.605" y="18.341" fill="#575756" width="0.819" height="5.477"/>
		<rect x="21.744" y="45.713" fill="#575756" width="0.82" height="4.075"/>
		<rect x="21.777" y="45.601" fill="#575756" width="3.647" height="0.819"/>
		<rect x="18.88" y="29.833" fill="#575756" width="6.543" height="0.819"/>
		<rect x="56.254" y="32.992" fill="#575756" width="15.912" height="0.82"/>
		<rect x="34.914" y="34.706" fill="#575756" width="6.543" height="0.82"/>
		<rect x="34.5" y="56.501" fill="#575756" width="21.57" height="0.819"/>
		<rect x="16.5" y="17.45" fill="#575756" width="11.307" height="1.152"/>
		<rect x="32.863" y="17.45" fill="#575756" width="2.382" height="1.152"/>
		<rect x="34.093" y="17.449" fill="#575756" width="1.152" height="5.95"/>
		<rect x="34.093" y="22.246" fill="#575756" width="10.077" height="1.152"/>
		<rect x="52.518" y="22.246" fill="#575756" width="7.123" height="1.152"/>
		<rect x="68.277" y="22.246" fill="#575756" width="4.603" height="1.152"/>
		<rect x="4.151" y="17.45" fill="#575756" width="9.671" height="1.152"/>
		<rect x="21.777" y="49.171" fill="#575756" width="3.647" height="0.82"/>
		<rect x="2.816" y="141.811" fill="#575756" width="18.109" height="0.82"/>
		<rect x="55.477" y="141.811" fill="#575756" width="17.254" height="0.82"/>
		<rect x="55.477" y="176.656" fill="#575756" width="17.254" height="0.821"/>
		<rect x="56.443" y="192.459" fill="#575756" width="7.065" height="0.821"/>
		<rect x="56.443" y="183.947" fill="#575756" width="1.114" height="0.82"/>
		<rect x="61.166" y="183.947" fill="#575756" width="1.896" height="0.82"/>
		<rect x="62.65" y="176.918" fill="#575756" width="0.821" height="1.486"/>
		<rect x="62.65" y="181.379" fill="#575756" width="0.821" height="11.901"/>
		<rect x="56.443" y="184.058" fill="#575756" width="0.821" height="9.223"/>
		<rect x="50.121" y="198.375" fill="#575756" width="22.609" height="0.821"/>
		<rect x="2.823" y="198.416" fill="#575756" width="22.602" height="0.818"/>
		<rect x="2.823" y="228.46" fill="#575756" width="2.371" height="0.821"/>
		<rect x="48.34" y="222.734" fill="#575756" width="2.37" height="0.821"/>
		<rect x="70.354" y="228.46" fill="#575756" width="2.37" height="0.821"/>
		<rect x="2.823" y="222.734" fill="#575756" width="4.146" height="0.821"/>
		<rect x="12.048" y="222.734" fill="#575756" width="15.164" height="0.821"/>
		<rect x="-6.463" y="34.524" fill="#575756" width="0.704" height="7.467"/>
		<rect x="4.543" y="4.899" fill="#575756" width="0.705" height="12.551"/>
		<rect x="70.389" y="4.899" fill="#575756" width="0.704" height="18.592"/>
		<rect x="3.707" y="17.451" fill="#575756" width="0.704" height="24.693"/>
		<rect x="18.528" y="17.451" fill="#575756" width="0.705" height="13.683"/>
		<rect x="18.528" y="35.297" fill="#575756" width="0.705" height="5.356"/>
		<rect x="3.857" y="108.463" fill="#A50F14" width="14.578" height="0.946"/>
		<rect x="20.042" y="160.255" fill="#A50F14" width="0.944" height="15.472"/>
		<rect x="55.415" y="160.154" fill="#A50F14" width="0.944" height="15.573"/>
		<rect x="20.042" y="177.511" fill="#A50F14" width="0.944" height="15.173"/>
		<rect x="24.507" y="211.131" fill="#A50F14" width="0.944" height="4.463"/>
		<rect x="24.507" y="223.48" fill="#A50F14" width="0.944" height="5.205"/>
		<rect x="32.269" y="222.56" fill="#A50F14" width="11.008" height="0.944"/>
		<rect x="5.194" y="228.46" fill="#A50F14" width="5.655" height="1.413"/>
		<rect x="15.905" y="228.46" fill="#A50F14" width="11.307" height="1.413"/>
		<rect x="32.269" y="228.46" fill="#A50F14" width="11.006" height="1.413"/>
		<rect x="48.34" y="228.46" fill="#A50F14" width="22.014" height="1.413"/>
		<rect x="13.822" y="17.554" fill="#A50F14" width="2.678" height="0.946"/>
		<rect x="44.17" y="22.35" fill="#A50F14" width="8.348" height="0.946"/>
		<rect x="59.641" y="22.35" fill="#A50F14" width="8.636" height="0.946"/>
		<g>
			<g>
				<path fill="#A50F14" d="M-19.347,2.151h0.118v2.801h-0.234v-2.55"/>
			</g>
		</g>
		<g>
			<g>
				<path fill="#A50F14" d="M30.439,17.45h-0.235c0-1.365-0.96-2.482-2.164-2.551v2.551h-0.233v-2.802h0.117
					C29.311,14.648,30.439,15.905,30.439,17.45z"/>
			</g>
			<g>
				<path fill="#A50F14" d="M32.836,17.449h-0.233v-2.551c-1.203,0.069-2.163,1.186-2.163,2.551h-0.235
					c0-1.545,1.128-2.801,2.514-2.801h0.117V17.449z"/>
			</g>
		</g>
		<g>
			<g>
				<path fill="#A50F14" d="M19.233,33.392V33.19c1.087,0,1.978-0.823,2.034-1.854h-2.034v-0.201h2.233v0.101
					C21.466,32.423,20.464,33.392,19.233,33.392z"/>
			</g>
			<g>
				<path fill="#A50F14" d="M19.233,35.448v-0.201h2.035c-0.056-1.031-0.946-1.854-2.035-1.854V33.19
					c1.232,0,2.235,0.969,2.235,2.157v0.101H19.233z"/>
			</g>
		</g>
		<g>
			<g>
				<path fill="#A50F14" d="M34.002,65.896v0.237c-1.277,0-2.324,0.968-2.39,2.179h2.39v0.236h-2.625v-0.119
					C31.377,67.033,32.556,65.896,34.002,65.896z"/>
			</g>
			<g>
				<path fill="#A50F14" d="M34.002,63.48v0.236h-2.391c0.065,1.211,1.112,2.179,2.391,2.179v0.237
					c-1.448,0-2.625-1.138-2.625-2.535V63.48H34.002z"/>
			</g>
		</g>
		<g>
			<g>
				<path fill="#A50F14" d="M29.864,73.829h-0.237c0-1.277-0.967-2.324-2.179-2.39v2.39h-0.236v-2.625h0.119
					C28.726,71.204,29.864,72.382,29.864,73.829z"/>
			</g>
			<g>
				<path fill="#A50F14" d="M32.279,73.829h-0.236v-2.391c-1.212,0.065-2.179,1.113-2.179,2.391h-0.237
					c0-1.448,1.138-2.626,2.535-2.626h0.117V73.829z"/>
			</g>
		</g>
		<g>
			<g>
				<path fill="#A50F14" d="M25.425,82.961v-0.258c1.39,0,2.529-1.052,2.601-2.371h-2.601v-0.257h2.856v0.13
					C28.281,81.723,26.999,82.961,25.425,82.961z"/>
			</g>
			<g>
				<path fill="#A50F14" d="M25.425,85.589v-0.257h2.602c-0.071-1.318-1.21-2.372-2.602-2.372v-0.258
					c1.575,0,2.857,1.238,2.857,2.759v0.127H25.425z"/>
			</g>
		</g>
		<g>
			<g>
				<path fill="#A50F14" d="M2.759,82.693v0.258c-1.39,0-2.529,1.052-2.6,2.372h2.6v0.257h-2.855V85.45
					C-0.097,83.932,1.186,82.693,2.759,82.693z"/>
			</g>
			<g>
				<path fill="#A50F14" d="M2.759,80.065v0.257H0.157c0.072,1.318,1.211,2.371,2.602,2.371v0.258c-1.575,0-2.856-1.238-2.856-2.758
					v-0.128H2.759z"/>
			</g>
		</g>
		<g>
			<g>
				<path fill="#A50F14" d="M34.093,82.852v0.258c-1.39,0-2.529,1.051-2.6,2.372h2.6v0.256h-2.855v-0.129
					C31.237,84.09,32.519,82.852,34.093,82.852z"/>
			</g>
			<g>
				<path fill="#A50F14" d="M34.093,80.224v0.256h-2.602c0.071,1.318,1.21,2.372,2.602,2.372v0.258
					c-1.575,0-2.856-1.239-2.856-2.759v-0.127H34.093z"/>
			</g>
		</g>
		<g>
			<g>
				<path fill="#A50F14" d="M34.093,99.998v0.239c-1.39,0-2.53,0.981-2.602,2.211h2.602v0.238h-2.856v-0.121
					C31.236,101.152,32.518,99.998,34.093,99.998z"/>
			</g>
			<g>
				<path fill="#A50F14" d="M34.093,97.548v0.24H31.49c0.071,1.228,1.211,2.209,2.603,2.209v0.239c-1.576,0-2.858-1.153-2.858-2.57
					v-0.119H34.093z"/>
			</g>
		</g>
		<g>
			<g>
				<path fill="#A50F14" d="M72.726,100.237v-0.239c1.389,0,2.53-0.981,2.601-2.211h-2.601v-0.239h2.857v0.122
					C75.583,99.084,74.301,100.237,72.726,100.237z"/>
			</g>
			<g>
				<path fill="#A50F14" d="M72.726,102.687v-0.24h2.603c-0.072-1.228-1.212-2.209-2.603-2.209v-0.239
					c1.576,0,2.858,1.154,2.858,2.57v0.119H72.726z"/>
			</g>
		</g>
		<g>
			<g>
				<path fill="#A50F14" d="M72.726,83.022v-0.24c1.389,0,2.53-0.98,2.601-2.21h-2.601v-0.238h2.857v0.121
					C75.583,81.868,74.301,83.022,72.726,83.022z"/>
			</g>
			<g>
				<path fill="#A50F14" d="M72.726,85.471v-0.24h2.603c-0.072-1.228-1.212-2.209-2.603-2.209v-0.24c1.576,0,2.858,1.154,2.858,2.57
					v0.119H72.726z"/>
			</g>
		</g>
		<g>
			<g>
				<path fill="#A50F14" d="M29.579,223.504h0.242c0,1.39,0.978,2.53,2.208,2.6v-2.6h0.24v2.856h-0.121
					C30.734,226.361,29.579,225.078,29.579,223.504z"/>
			</g>
			<g>
				<path fill="#A50F14" d="M27.13,223.504h0.24v2.603c1.228-0.072,2.208-1.213,2.208-2.603h0.242c0,1.576-1.155,2.856-2.571,2.856
					H27.13V223.504z"/>
			</g>
		</g>
		<g>
			<g>
				<path fill="#A50F14" d="M45.723,223.504h0.243c0,1.39,0.978,2.53,2.208,2.6v-2.6h0.24v2.856h-0.121
					C46.878,226.361,45.723,225.078,45.723,223.504z"/>
			</g>
			<g>
				<path fill="#A50F14" d="M43.275,223.504h0.24v2.603c1.228-0.072,2.208-1.213,2.208-2.603h0.243c0,1.576-1.155,2.856-2.572,2.856
					h-0.119V223.504z"/>
			</g>
		</g>
		<g>
			<g>
				<path fill="#A50F14" d="M29.579,229.785h0.242c0,1.39,0.978,2.53,2.208,2.6v-2.6h0.24v2.856h-0.121
					C30.734,232.641,29.579,231.358,29.579,229.785z"/>
			</g>
			<g>
				<path fill="#A50F14" d="M27.13,229.785h0.24v2.603c1.228-0.072,2.208-1.213,2.208-2.603h0.242c0,1.576-1.155,2.856-2.571,2.856
					H27.13V229.785z"/>
			</g>
		</g>
		<g>
			<g>
				<path fill="#A50F14" d="M13.106,229.785h0.242c0,1.39,0.978,2.53,2.208,2.6v-2.6h0.239v2.856h-0.121
					C14.261,232.641,13.106,231.358,13.106,229.785z"/>
			</g>
			<g>
				<path fill="#A50F14" d="M10.658,229.785h0.239v2.603c1.228-0.072,2.208-1.213,2.208-2.603h0.242
					c0,1.576-1.155,2.856-2.571,2.856h-0.119V229.785z"/>
			</g>
		</g>
		<g>
			<g>
				<path fill="#A50F14" d="M45.723,229.785h0.243c0,1.39,0.978,2.53,2.208,2.6v-2.6h0.24v2.856h-0.121
					C46.878,232.641,45.723,231.358,45.723,229.785z"/>
			</g>
			<g>
				<path fill="#A50F14" d="M43.275,229.785h0.24v2.603c1.228-0.072,2.208-1.213,2.208-2.603h0.243c0,1.576-1.155,2.856-2.572,2.856
					h-0.119V229.785z"/>
			</g>
		</g>
		<g>
			<path fill="#A50F14" d="M-10.691,17.239h-0.201c0,1.107-0.827,2.014-1.863,2.069v-2.069h-0.201v2.272h0.101
				C-11.66,19.511-10.691,18.492-10.691,17.239z"/>
		</g>
		<g>
			<path fill="#A50F14" d="M-2.915,17.239h-0.227c0,1.243-0.928,2.262-2.093,2.325v-2.325H-5.46v2.552h0.114
				C-4.004,19.791-2.915,18.647-2.915,17.239z"/>
		</g>
		<g>
			<path fill="#A50F14" d="M-6.26,23.117v-0.24c-1.243,0-2.262-0.982-2.325-2.214h2.325v-0.238h-2.552v0.12
				C-8.812,21.964-7.668,23.117-6.26,23.117z"/>
		</g>
		<g>
			<path fill="#A50F14" d="M-6.26,34.415v-0.24c-1.243,0-2.262-0.981-2.325-2.214h2.325v-0.239h-2.552v0.12
				C-8.812,33.263-7.668,34.415-6.26,34.415z"/>
		</g>
		<g>
			<path fill="#A50F14" d="M-10.559,42.144h0.237c0,1.243,0.972,2.261,2.19,2.324v-2.324h0.236v2.552h-0.119
				C-9.418,44.696-10.559,43.552-10.559,42.144z"/>
		</g>
		<line fill="#575756" x1="88.833" y1="25.373" x2="88.833" y2="26.077"/>
		<rect x="70.389" y="4.899" fill="#575756" width="24.396" height="0.703"/>
		<rect x="88.533" y="16.8" fill="#575756" width="0.78" height="0.703"/>
		<rect x="81.463" y="16.8" fill="#575756" width="4.784" height="0.703"/>
		
			<rect x="71.875" y="23.941" transform="matrix(-0.9998 0.0194 -0.0194 -0.9998 154.0378 47.0896)" fill="#575756" width="9.831" height="0.703"/>
		<rect x="70.834" y="17.124" fill="#575756" width="7.583" height="0.352"/>
		<rect x="81.095" y="17.124" fill="#575756" width="0.523" height="0.352"/>
		<line fill="#575756" x1="86.156" y1="41.44" x2="86.156" y2="42.144"/>
		<rect x="71.875" y="41.44" fill="#575756" width="11.602" height="0.704"/>
		<rect x="88.926" y="5.398" fill="#575756" width="0.704" height="20.38"/>
		<rect x="81.34" y="5.398" fill="#575756" width="0.705" height="15.026"/>
		<rect x="81.34" y="23.024" fill="#575756" width="0.705" height="8.707"/>
		<rect x="81.34" y="34.524" fill="#575756" width="0.705" height="7.467"/>
		<g>
			<g>
				<path fill="#A50F14" d="M97.206,4.954h0.237"/>
			</g>
			<g>
				<path fill="#A50F14" d="M94.809,4.953h0.235v-2.55c1.203,0.069,2.162,1.186,2.162,2.55h0.237c0-1.545-1.127-2.801-2.515-2.801
					h-0.119V4.953z"/>
			</g>
		</g>
		<g>
			<path fill="#A50F14" d="M86.272,17.239h0.201c0,1.107,0.826,2.014,1.862,2.069v-2.069h0.203v2.272h-0.102
				C87.24,19.511,86.272,18.492,86.272,17.239z"/>
		</g>
		<g>
			<path fill="#A50F14" d="M78.495,17.239h0.228c0,1.243,0.93,2.262,2.092,2.325v-2.325h0.228v2.552h-0.116
				C79.585,19.791,78.495,18.647,78.495,17.239z"/>
		</g>
		<g>
			<path fill="#A50F14" d="M81.841,23.117v-0.24c1.245,0,2.262-0.982,2.324-2.214h-2.324v-0.238h2.552v0.12
				C84.393,21.964,83.25,23.117,81.841,23.117z"/>
		</g>
		<g>
			<path fill="#A50F14" d="M81.841,34.415v-0.24c1.245,0,2.262-0.981,2.324-2.214h-2.324v-0.239h2.552v0.12
				C84.393,33.263,83.25,34.415,81.841,34.415z"/>
		</g>
		<g>
			<path fill="#A50F14" d="M86.141,42.144h-0.237c0,1.243-0.974,2.261-2.191,2.324v-2.324h-0.235v2.552h0.116
				C84.999,44.696,86.141,43.552,86.141,42.144z"/>
		</g>
		<g>
			<path fill="#A50F14" d="M25.511,23.607v0.25c1.177,0,2.14,1.029,2.199,2.317h-2.199v0.25h2.415v-0.126
				C27.926,24.813,26.843,23.607,25.511,23.607z"/>
		</g>
		<g>
			<path fill="#A50F14" d="M25.425,44.121v-0.256c1.338,0,2.434-1.048,2.5-2.36h-2.5v-0.255h2.746v0.128
				C28.17,42.89,26.938,44.121,25.425,44.121z"/>
		</g>
		<g>
			<path fill="#A50F14" d="M34.093,42.602v0.255c-1.338,0-2.433,1.048-2.5,2.361h2.5v0.255h-2.746v-0.128
				C31.347,43.832,32.58,42.602,34.093,42.602z"/>
		</g>
		<g>
			<path fill="#A50F14" d="M34.093,48.636v0.239c-1.248,0-2.27,0.979-2.333,2.202h2.333v0.238h-2.562v-0.12
				C31.531,49.783,32.681,48.636,34.093,48.636z"/>
		</g>
		<g>
			<path fill="#A50F14" d="M25.425,49.192v-0.225c1.182,0,2.149-0.926,2.208-2.086h-2.208v-0.225h2.425v0.114
				C27.85,48.106,26.762,49.192,25.425,49.192z"/>
		</g>
		<g>
			<path fill="#A50F14" d="M25.425,66.148v-0.242c1.274,0,2.316-0.999,2.38-2.248h-2.38v-0.243h2.614v0.122
				C28.039,64.978,26.866,66.148,25.425,66.148z"/>
		</g>
		<g>
			<path fill="#A50F14" d="M25.425,98.922v-0.243c1.274,0,2.316-0.999,2.38-2.248h-2.38v-0.244h2.614v0.122
				C28.039,97.751,26.866,98.922,25.425,98.922z"/>
		</g>
		<g>
			<path fill="#A50F14" d="M25.39,202.854v-0.242c1.274,0,2.316-0.998,2.38-2.247h-2.38v-0.243h2.614v0.122
				C28.003,201.684,26.831,202.854,25.39,202.854z"/>
		</g>
		<g>
			<path fill="#A50F14" d="M50.121,216.179v0.267c-1.391,0-2.53,1.092-2.602,2.456h2.602v0.264h-2.854v-0.133
				C47.267,217.46,48.547,216.179,50.121,216.179z"/>
		</g>
		<g>
			<path fill="#A50F14" d="M62.853,181.392v-0.278c-1.391,0-2.53-1.143-2.602-2.566h2.602v-0.273h-2.854v0.141
				C59.999,180.055,61.279,181.392,62.853,181.392z"/>
		</g>
		<g>
			<path fill="#A50F14" d="M34.093,34.25V34c-1.177,0-2.14-1.029-2.199-2.317h2.199v-0.25h-2.415v0.126
				C31.678,33.043,32.761,34.25,34.093,34.25z"/>
		</g>
		<g>
			<path fill="#A50F14" d="M34.093,55.713v-0.221c-1.177,0-2.14-0.907-2.199-2.043h2.199v-0.22h-2.415v0.111
				C31.678,54.65,32.761,55.713,34.093,55.713z"/>
		</g>
		<g>
			<path fill="#575756" d="M41.564,148.553h-7.281c-3.15,0-5.713-2.562-5.713-5.713v-10.393c0-3.15,2.563-5.711,5.713-5.711h7.281
				c3.15,0,5.712,2.562,5.712,5.711v10.393C47.276,145.992,44.715,148.553,41.564,148.553z M34.283,129.215
				c-1.783,0-3.234,1.45-3.234,3.232v10.393c0,1.781,1.451,3.234,3.234,3.234h7.281c1.782,0,3.232-1.453,3.232-3.234v-10.393
				c0-1.782-1.45-3.232-3.232-3.232H34.283z"/>
		</g>
		<g>
			<rect x="-15.001" y="174.812" fill="#575756" width="3.118" height="3.686"/>
		</g>
		<g>
			<rect x="87.273" y="174.812" fill="#575756" width="3.118" height="3.686"/>
		</g>
		<g>
			<rect x="87.273" y="242.758" fill="#575756" width="3.118" height="3.686"/>
		</g>
		<g>
			<rect x="87.273" y="106.721" fill="#575756" width="3.118" height="3.686"/>
		</g>
		<g>
			<rect x="-15.001" y="242.758" fill="#575756" width="3.118" height="3.686"/>
		</g>
		<g>
			<rect x="-15.001" y="106.721" fill="#575756" width="3.118" height="3.686"/>
		</g>
		<g>
			<g>
				
					<rect x="7.426" y="216.766" fill="none" stroke="#194383" stroke-width="0.05" stroke-miterlimit="10" width="4.165" height="0.894"/>
				
					<rect x="7.426" y="217.66" fill="none" stroke="#194383" stroke-width="0.05" stroke-miterlimit="10" width="4.165" height="0.893"/>
				
					<rect x="7.426" y="218.552" fill="none" stroke="#194383" stroke-width="0.05" stroke-miterlimit="10" width="4.165" height="0.894"/>
				
					<rect x="7.426" y="219.446" fill="none" stroke="#194383" stroke-width="0.05" stroke-miterlimit="10" width="4.165" height="0.894"/>
				
					<rect x="7.426" y="220.308" fill="none" stroke="#194383" stroke-width="0.05" stroke-miterlimit="10" width="4.165" height="0.892"/>
				
					<rect x="7.426" y="221.2" fill="none" stroke="#194383" stroke-width="0.05" stroke-miterlimit="10" width="4.165" height="0.895"/>
			</g>
			<g>
				
					<rect x="51.31" y="184.544" fill="none" stroke="#194383" stroke-width="0.05" stroke-miterlimit="10" width="5.133" height="0.894"/>
				
					<rect x="51.31" y="185.438" fill="none" stroke="#194383" stroke-width="0.05" stroke-miterlimit="10" width="5.133" height="0.894"/>
				
					<rect x="51.31" y="186.298" fill="none" stroke="#194383" stroke-width="0.05" stroke-miterlimit="10" width="5.133" height="0.895"/>
				
					<rect x="51.31" y="187.193" fill="none" stroke="#194383" stroke-width="0.05" stroke-miterlimit="10" width="5.133" height="0.892"/>
				
					<rect x="51.31" y="188.084" fill="none" stroke="#194383" stroke-width="0.05" stroke-miterlimit="10" width="5.133" height="0.896"/>
				
					<rect x="51.31" y="188.98" fill="none" stroke="#194383" stroke-width="0.05" stroke-miterlimit="10" width="5.133" height="0.892"/>
				
					<rect x="51.31" y="189.84" fill="none" stroke="#194383" stroke-width="0.05" stroke-miterlimit="10" width="5.133" height="0.893"/>
				
					<rect x="51.31" y="190.733" fill="none" stroke="#194383" stroke-width="0.05" stroke-miterlimit="10" width="5.133" height="0.894"/>
				
					<rect x="51.31" y="191.626" fill="none" stroke="#194383" stroke-width="0.05" stroke-miterlimit="10" width="5.133" height="0.894"/>
				
					<rect x="51.31" y="192.52" fill="none" stroke="#194383" stroke-width="0.05" stroke-miterlimit="10" width="5.133" height="0.894"/>
			</g>
			<g>
				
					<rect x="56.56" y="193.392" fill="none" stroke="#194383" stroke-width="0.05" stroke-miterlimit="10" width="0.894" height="5.133"/>
				
					<rect x="57.454" y="193.392" fill="none" stroke="#194383" stroke-width="0.05" stroke-miterlimit="10" width="0.893" height="5.133"/>
				
					<rect x="58.313" y="193.392" fill="none" stroke="#194383" stroke-width="0.05" stroke-miterlimit="10" width="0.896" height="5.133"/>
				
					<rect x="59.209" y="193.392" fill="none" stroke="#194383" stroke-width="0.05" stroke-miterlimit="10" width="0.891" height="5.133"/>
				
					<rect x="60.1" y="193.392" fill="none" stroke="#194383" stroke-width="0.05" stroke-miterlimit="10" width="0.896" height="5.133"/>
				
					<rect x="60.996" y="193.392" fill="none" stroke="#194383" stroke-width="0.05" stroke-miterlimit="10" width="0.891" height="5.133"/>
				
					<rect x="61.855" y="193.392" fill="none" stroke="#194383" stroke-width="0.05" stroke-miterlimit="10" width="0.894" height="5.133"/>
				
					<rect x="62.749" y="193.392" fill="none" stroke="#194383" stroke-width="0.05" stroke-miterlimit="10" width="0.893" height="5.133"/>
			</g>
			<g>
				<g>
					
						<rect x="4.563" y="23.889" fill="none" stroke="#194383" stroke-width="0.05" stroke-miterlimit="10" width="5.132" height="0.893"/>
					
						<rect x="4.563" y="24.782" fill="none" stroke="#194383" stroke-width="0.05" stroke-miterlimit="10" width="5.132" height="0.894"/>
					
						<rect x="4.563" y="25.642" fill="none" stroke="#194383" stroke-width="0.05" stroke-miterlimit="10" width="5.132" height="0.896"/>
					
						<rect x="4.563" y="26.538" fill="none" stroke="#194383" stroke-width="0.05" stroke-miterlimit="10" width="5.132" height="0.891"/>
					
						<rect x="4.563" y="27.429" fill="none" stroke="#194383" stroke-width="0.05" stroke-miterlimit="10" width="5.132" height="0.896"/>
					
						<rect x="4.563" y="28.324" fill="none" stroke="#194383" stroke-width="0.05" stroke-miterlimit="10" width="5.132" height="0.892"/>
					
						<rect x="4.563" y="29.184" fill="none" stroke="#194383" stroke-width="0.05" stroke-miterlimit="10" width="5.132" height="0.893"/>
					
						<rect x="4.563" y="30.077" fill="none" stroke="#194383" stroke-width="0.05" stroke-miterlimit="10" width="5.132" height="0.894"/>
					
						<rect x="4.563" y="30.971" fill="none" stroke="#194383" stroke-width="0.05" stroke-miterlimit="10" width="5.132" height="0.894"/>
					
						<rect x="4.563" y="31.865" fill="none" stroke="#194383" stroke-width="0.05" stroke-miterlimit="10" width="5.132" height="0.893"/>
					
						<rect x="4.563" y="32.726" fill="none" stroke="#194383" stroke-width="0.05" stroke-miterlimit="10" width="5.132" height="0.892"/>
					
						<rect x="4.563" y="33.618" fill="none" stroke="#194383" stroke-width="0.05" stroke-miterlimit="10" width="5.132" height="0.896"/>
				</g>
				<g>
					
						<rect x="13.489" y="23.889" fill="none" stroke="#194383" stroke-width="0.05" stroke-miterlimit="10" width="5.133" height="0.893"/>
					
						<rect x="13.489" y="24.782" fill="none" stroke="#194383" stroke-width="0.05" stroke-miterlimit="10" width="5.133" height="0.894"/>
					
						<rect x="13.489" y="25.642" fill="none" stroke="#194383" stroke-width="0.05" stroke-miterlimit="10" width="5.133" height="0.896"/>
					
						<rect x="13.489" y="26.538" fill="none" stroke="#194383" stroke-width="0.05" stroke-miterlimit="10" width="5.133" height="0.891"/>
					
						<rect x="13.489" y="27.429" fill="none" stroke="#194383" stroke-width="0.05" stroke-miterlimit="10" width="5.133" height="0.896"/>
					
						<rect x="13.489" y="28.324" fill="none" stroke="#194383" stroke-width="0.05" stroke-miterlimit="10" width="5.133" height="0.892"/>
				</g>
				
					<rect x="14.628" y="34.519" fill="none" stroke="#194383" stroke-width="0.05" stroke-miterlimit="10" width="0.894" height="5.133"/>
				
					<rect x="13.734" y="34.519" fill="none" stroke="#194383" stroke-width="0.05" stroke-miterlimit="10" width="0.894" height="5.133"/>
				
					<rect x="12.841" y="34.519" fill="none" stroke="#194383" stroke-width="0.05" stroke-miterlimit="10" width="0.893" height="5.133"/>
				
					<rect x="12.037" y="18.601" fill="none" stroke="#194383" stroke-width="0.05" stroke-miterlimit="10" width="0.894" height="5.133"/>
				
					<rect x="11.144" y="18.601" fill="none" stroke="#194383" stroke-width="0.05" stroke-miterlimit="10" width="0.894" height="5.133"/>
				
					<rect x="10.25" y="18.601" fill="none" stroke="#194383" stroke-width="0.05" stroke-miterlimit="10" width="0.894" height="5.133"/>
				
					<rect x="11.947" y="34.519" fill="none" stroke="#194383" stroke-width="0.05" stroke-miterlimit="10" width="0.894" height="5.133"/>
				
					<rect x="11.088" y="34.519" fill="none" stroke="#194383" stroke-width="0.05" stroke-miterlimit="10" width="0.891" height="5.133"/>
				
					<rect x="10.192" y="34.519" fill="none" stroke="#194383" stroke-width="0.05" stroke-miterlimit="10" width="0.896" height="5.133"/>
			</g>
		</g>
	</g>
	<g>
		<g>
			<g>
				
					<line fill="none" stroke="#F39200" stroke-width="1.5" stroke-miterlimit="10" x1="29.359" y1="115.529" x2="8.12" y2="115.529"/>
				<g>
					<polygon fill="#F39200" points="8.996,112.554 3.814,115.545 8.996,118.537 					"/>
				</g>
			</g>
		</g>
		<g>
			<g>
				
					<line fill="none" stroke="#F39200" stroke-width="1.5" stroke-miterlimit="10" x1="47.276" y1="115.529" x2="68.516" y2="115.529"/>
				<g>
					<polygon fill="#F39200" points="67.64,118.503 72.821,115.512 67.64,112.521 					"/>
				</g>
			</g>
		</g>
		<g>
			<g>
				
					<line fill="none" stroke="#F39200" stroke-width="1.5" stroke-miterlimit="10" x1="29.359" y1="137.421" x2="8.12" y2="137.421"/>
				<g>
					<polygon fill="#F39200" points="8.996,134.447 3.814,137.438 8.996,140.43 					"/>
				</g>
			</g>
		</g>
		<g>
			<g>
				
					<line fill="none" stroke="#F39200" stroke-width="1.5" stroke-miterlimit="10" x1="47.276" y1="137.421" x2="68.516" y2="137.421"/>
				<g>
					<polygon fill="#F39200" points="67.64,140.396 72.821,137.405 67.64,134.413 					"/>
				</g>
			</g>
		</g>
	</g>
	<text transform="matrix(1 0 0 1 6.7861 80.6021)"><tspan x="0" y="0" fill="#8A0F0C" font-family="'Arial-BoldMT'" font-size="2">Конференц-зал</tspan><tspan x="5.439" y="2.4" fill="#8A0F0C" font-family="'Arial-BoldMT'" font-size="2">1112</tspan><tspan x="0.912" y="4.56" fill="#A50F14" font-family="'Arial-BoldMT'" font-size="1.8">Conference hall</tspan><tspan x="5.662" y="6.72" fill="#A50F14" font-family="'Arial-BoldMT'" font-size="1.8">1112</tspan></text>
	<text transform="matrix(1 0 0 1 45.3657 80.6021)"><tspan x="0" y="0" fill="#8A0F0C" font-family="'Arial-BoldMT'" font-size="2">Конференц-зал</tspan><tspan x="5.439" y="2.4" fill="#8A0F0C" font-family="'Arial-BoldMT'" font-size="2">1110</tspan><tspan x="0.912" y="4.56" fill="#A50F14" font-family="'Arial-BoldMT'" font-size="1.8">Conference hall</tspan><tspan x="5.662" y="6.72" fill="#A50F14" font-family="'Arial-BoldMT'" font-size="1.8">1110</tspan></text>
	<text transform="matrix(1 0 0 1 45.8247 97.479)"><tspan x="0" y="0" fill="#8A0F0C" font-family="'Arial-BoldMT'" font-size="2">Конференц-зал</tspan><tspan x="5.439" y="2.4" fill="#8A0F0C" font-family="'Arial-BoldMT'" font-size="2">1109</tspan><tspan x="0.912" y="4.56" fill="#A50F14" font-family="'Arial-BoldMT'" font-size="1.8">Conference hall</tspan><tspan x="5.662" y="6.72" fill="#A50F14" font-family="'Arial-BoldMT'" font-size="1.8">1109</tspan></text>
	<line opacity="0.1" fill="#95C11F" x1="71.173" y1="262.841" x2="71.173" y2="248.667"/>
	<line opacity="0.1" fill="#95C11F" x1="4.413" y1="248.667" x2="4.413" y2="262.841"/>
</g>
<g id="ПК">
</g>
<g id="Экспозиция">
</g>
</svg>
