<?xml version="1.0" encoding="utf-8"?>
<!-- Generator: Adobe Illustrator 15.0.0, SVG Export Plug-In . SVG Version: 6.00 Build 0)  -->
<!DOCTYPE svg PUBLIC "-//W3C//DTD SVG 1.1//EN" "http://www.w3.org/Graphics/SVG/1.1/DTD/svg11.dtd">
<svg version="1.1" id="Layer_1" xmlns="http://www.w3.org/2000/svg" xmlns:xlink="http://www.w3.org/1999/xlink" x="0px" y="0px"
	 width="481.891px" height="321.029px" viewBox="0 0 481.891 321.029" enable-background="new 0 0 481.891 321.029"
	 xml:space="preserve">
<g id="Улица">
	<path fill="none" stroke="#000000" stroke-width="0.5" stroke-miterlimit="10" d="M242.93,143.438
		c98.52-7.428,193.54-9.585,193.54-9.585V36.411H18.286v128.967C18.286,165.378,132.984,151.726,242.93,143.438z"/>
</g>
<g id="Экспозиция">
	
		<rect x="100.868" y="121.597" fill="#6B6E6F" stroke="#000000" stroke-width="0.2" stroke-miterlimit="10" width="34.016" height="8.504"/>
	
		<rect x="163.274" y="39.194" fill="#6B6E6F" stroke="#000000" stroke-width="0.2" stroke-miterlimit="10" width="11.338" height="34.016"/>
	
		<rect x="262.107" y="59.082" fill="#6B6E6F" stroke="#000000" stroke-width="0.2" stroke-miterlimit="10" width="28.347" height="14.173"/>
	
		<rect x="298.987" y="59.083" fill="#6B6E6F" stroke="#000000" stroke-width="0.2" stroke-miterlimit="10" width="19.842" height="11.339"/>
	
		<rect x="378.182" y="39.225" fill="#6B6E6F" stroke="#000000" stroke-width="0.2" stroke-miterlimit="10" width="53.986" height="56.692"/>
	
		<rect x="296.152" y="39.297" fill="#6B6E6F" stroke="#000000" stroke-width="0.2" stroke-miterlimit="10" width="25.512" height="14.175"/>
	
		<rect x="262.107" y="39.571" fill="#6B6E6F" stroke="#000000" stroke-width="0.2" stroke-miterlimit="10" width="28.347" height="14.173"/>
	
		<rect x="163.11" y="115.381" fill="#6B6E6F" stroke="#000000" stroke-width="0.2" stroke-miterlimit="10" width="8.504" height="28.347"/>
	
		<rect x="327.298" y="39.297" fill="#6B6E6F" stroke="#000000" stroke-width="0.2" stroke-miterlimit="10" width="11.338" height="34.017"/>
	
		<rect x="21.089" y="81.618" fill="#6B6E6F" stroke="#000000" stroke-width="0.2" stroke-miterlimit="10" width="34.016" height="28.347"/>
	
		<rect x="63.65" y="81.753" fill="#6B6E6F" stroke="#000000" stroke-width="0.2" stroke-miterlimit="10" width="39.685" height="17.01"/>
	
		<rect x="344.242" y="39.571" fill="#6B6E6F" stroke="#000000" stroke-width="0.2" stroke-miterlimit="10" width="25.512" height="31.181"/>
	
		<rect x="417.995" y="101.454" fill="#6B6E6F" stroke="#000000" stroke-width="0.2" stroke-miterlimit="10" width="14.173" height="28.347"/>
	
		<rect x="97.709" y="39.226" fill="#6B6E6F" stroke="#000000" stroke-width="0.2" stroke-miterlimit="10" width="34.016" height="28.346"/>
	
		<rect x="21.089" y="121.436" fill="#6B6E6F" stroke="#000000" stroke-width="0.2" stroke-miterlimit="10" width="34.049" height="25.512"/>
	
		<rect x="60.824" y="121.436" fill="#6B6E6F" stroke="#000000" stroke-width="0.2" stroke-miterlimit="10" width="11.338" height="28.347"/>
	
		<rect x="80.675" y="121.436" fill="#6B6E6F" stroke="#000000" stroke-width="0.2" stroke-miterlimit="10" width="11.34" height="25.513"/>
	
		<rect x="140.521" y="39.194" fill="#6B6E6F" stroke="#000000" stroke-width="0.2" stroke-miterlimit="10" width="14.173" height="17.008"/>
	
		<rect x="318.654" y="107.254" fill="#6B6E6F" stroke="#000000" stroke-width="0.2" stroke-miterlimit="10" width="59.527" height="19.844"/>
	
		<rect x="332.858" y="84.428" fill="#6B6E6F" stroke="#000000" stroke-width="0.2" stroke-miterlimit="10" width="28.347" height="17.008"/>
	<text transform="matrix(1 0 0 1 300.3535 137.5427)" fill="#FFFFFF" font-family="'DINPro-Bold'" font-size="2">147</text>
	
		<rect x="262.341" y="107.429" fill="#6B6E6F" stroke="#000000" stroke-width="0.2" stroke-miterlimit="10" width="28.347" height="14.173"/>
	<text transform="matrix(1 0 0 1 110.0254 124.9392)" fill="#FFFFFF" font-family="'DINPro-Regular'" font-size="3">Завод Старт</text>
	<text transform="matrix(1 0 0 1 110.8022 128.5388)" fill="#DADADA" font-family="'DINPro-Regular'" font-size="3">Zavod Start</text>
	
		<rect x="21.089" y="39.248" fill="#6B6E6F" stroke="#000000" stroke-width="0.2" stroke-miterlimit="10" width="39.685" height="28.348"/>
	
		<rect x="185.741" y="39.295" fill="#6B6E6F" stroke="#000000" stroke-width="0.2" stroke-miterlimit="10" width="68.03" height="73.701"/>
	<text transform="matrix(1 0 0 1 30.2275 52.4148)" fill="#FFFFFF" font-family="'DINPro-Regular'" font-size="3">Минотор Сервис</text>
	<text transform="matrix(1 0 0 1 31.125 56.0144)" fill="#DADADA" font-family="'DINPro-Regular'" font-size="3">Minotor Service</text>
	<text transform="matrix(1 0 0 1 389.7031 66.7126)" fill="#FFFFFF" font-family="'DINPro-Regular'" font-size="3">Военно-промышленная</text>
	<text transform="matrix(1 0 0 1 399.3555 70.3123)" fill="#FFFFFF" font-family="'DINPro-Regular'" font-size="3">компания</text>
	<text transform="matrix(1 0 0 1 387.6445 73.9119)" fill="#DADADA" font-family="'DINPro-Regular'" font-size="3">Military Industrial Company</text>
	<text transform="matrix(1 0 0 1 272.0898 112.9958)" fill="#FFFFFF" font-family="'DINPro-Regular'" font-size="1.5">НПП Солитон</text>
	<text transform="matrix(1 0 0 1 269.6367 114.7966)" fill="#DADADA" font-family="'DINPro-Regular'" font-size="1.5">Scientific Production </text>
	<text transform="matrix(1 0 0 1 270.3984 116.5964)" fill="#DADADA" font-family="'DINPro-Regular'" font-size="1.5">Company SOLITON</text>
	<text transform="matrix(1 0 0 1 341.2461 112.9958)" fill="#FFFFFF" font-family="'DINPro-Regular'" font-size="3">Корпорация</text>
	<text transform="matrix(1 0 0 1 337.0176 116.5964)" fill="#FFFFFF" font-family="'DINPro-Regular'" font-size="3">«Проект-техника»</text>
	<text transform="matrix(1 0 0 1 338.375 120.196)" fill="#DADADA" font-family="'DINPro-Regular'" font-size="3">Proekt-technika </text>
	<text transform="matrix(1 0 0 1 341.6123 123.7966)" fill="#DADADA" font-family="'DINPro-Regular'" font-size="3">Corporation</text>
	<text transform="matrix(1 0 0 1 342.8828 91.4294)" fill="#FFFFFF" font-family="'DINPro-Regular'" font-size="1.5">Корпорация</text>
	<text transform="matrix(1 0 0 1 340.7676 93.2302)" fill="#FFFFFF" font-family="'DINPro-Regular'" font-size="1.5">«Проект-техника»</text>
	<text transform="matrix(1 0 0 1 341.4463 95.03)" fill="#DADADA" font-family="'DINPro-Regular'" font-size="1.5">Proekt-technika </text>
	<text transform="matrix(1 0 0 1 343.0654 96.8298)" fill="#DADADA" font-family="'DINPro-Regular'" font-size="1.5">Corporation</text>
	<text transform="matrix(1 0 0 1 108.4668 48.8103)" fill="#FFFFFF" font-family="'DINPro-Regular'" font-size="3">Концерн </text>
	<text transform="matrix(1 0 0 1 99.9106 52.4099)" fill="#FFFFFF" font-family="'DINPro-Regular'" font-size="3">&quot;Тракторные заводы&quot;</text>
	<text transform="matrix(1 0 0 1 109.1187 56.0095)" fill="#DADADA" font-family="'DINPro-Regular'" font-size="3">Concern</text>
	<text transform="matrix(1 0 0 1 103.9087 59.6101)" fill="#DADADA" font-family="'DINPro-Regular'" font-size="3">&quot;Tractor Plants&quot;</text>
	<text transform="matrix(1 0 0 1 29.5303 133.238)" fill="#FFFFFF" font-family="'DINPro-Regular'" font-size="3">Спецтехмаш</text>
	<text transform="matrix(1 0 0 1 27.7422 136.8376)" fill="#DADADA" font-family="'DINPro-Regular'" font-size="3">Spetstekhmash</text>
	<text transform="matrix(1 0 0 1 82.0518 132.988)" fill="#FFFFFF" font-family="'DINPro-Regular'" font-size="3">СНВП</text>
	<text transform="matrix(1 0 0 1 82.3535 136.5886)" fill="#DADADA" font-family="'DINPro-Regular'" font-size="3">SNVP</text>
	<text transform="matrix(1 0 0 1 63.4775 136.3005)" fill="#FFFFFF" font-family="'DINPro-Regular'" font-size="1.5">BrahMos</text>
	
		<rect x="112.206" y="81.618" fill="#6B6E6F" stroke="#000000" stroke-width="0.2" stroke-miterlimit="10" width="17.008" height="14.173"/>
	
		<rect x="137.334" y="81.618" fill="#6B6E6F" stroke="#000000" stroke-width="0.2" stroke-miterlimit="10" width="17.008" height="14.173"/>
	
		<rect x="162.891" y="81.587" fill="#6B6E6F" stroke="#000000" stroke-width="0.2" stroke-miterlimit="10" width="14.173" height="17.009"/>
	
		<rect x="142.959" y="121.404" fill="#6B6E6F" stroke="#000000" stroke-width="0.2" stroke-miterlimit="10" width="11.339" height="22.677"/>
	<text transform="matrix(1 0 0 1 316.1406 72.5076)" fill="#FFFFFF" font-family="'DINPro-Bold'" font-size="2">40</text>
	<text transform="matrix(1 0 0 1 115.728 88.6931)" fill="#FFFFFF" font-family="'DINPro-Regular'" font-size="1.5">Завод Сантэкс</text>
	<text transform="matrix(1 0 0 1 115.2651 90.4929)" fill="#DADADA" font-family="'DINPro-Regular'" font-size="1.5">Plant of Santeks</text>
	<text transform="matrix(1 0 0 1 142.7495 88.6931)" fill="#FFFFFF" font-family="'DINPro-Regular'" font-size="1.5">МИКРОН</text>
	<text transform="matrix(1 0 0 1 143.5337 90.4929)" fill="#DADADA" font-family="'DINPro-Regular'" font-size="1.5">Micron</text>
	<text transform="matrix(1 0 0 1 168.5713 88.6931)" fill="#FFFFFF" font-family="'DINPro-Regular'" font-size="1.5">НПО </text>
	<text transform="matrix(1 0 0 1 166.7412 90.4929)" fill="#FFFFFF" font-family="'DINPro-Regular'" font-size="1.5">Транспорт</text>
	<text transform="matrix(1 0 0 1 142.7168 48.8103)" fill="#FFFFFF" font-family="'DINPro-Regular'" font-size="1.5">Сервис-Центр</text>
	<text transform="matrix(1 0 0 1 167.0229 56.2019)" fill="#FFFFFF" font-family="'DINPro-Regular'" font-size="1.5">ГЦСС</text>
	<text transform="matrix(1 0 0 1 167.0098 58.0027)" fill="#DADADA" font-family="'DINPro-Regular'" font-size="1.5">cccb</text>
	<text transform="matrix(1 0 0 1 80.6709 88.8513)" fill="#FFFFFF" font-family="'DINPro-Regular'" font-size="3">ПТС</text>
	<text transform="matrix(1 0 0 1 80.8428 92.4509)" fill="#DADADA" font-family="'DINPro-Regular'" font-size="3">PTS</text>
	<text transform="matrix(1 0 0 1 24.6982 95.4666)" fill="#FFFFFF" font-family="'DINPro-Regular'" font-size="3">Электроавтоматика</text>
	<text transform="matrix(1 0 0 1 25.8984 99.0662)" fill="#DADADA" font-family="'DINPro-Regular'" font-size="3">Elektroavtomatika</text>
	
		<rect x="261.857" y="81.753" fill="#6B6E6F" stroke="#000000" stroke-width="0.2" stroke-miterlimit="10" width="14.172" height="17.009"/>
	<text transform="matrix(1 0 0 1 262.6377 89.5623)" fill="#FFFFFF" font-family="'DINPro-Regular'" font-size="1.5">МеталлСпецСтрой</text>
	<text transform="matrix(1 0 0 1 263.375 91.363)" fill="#DADADA" font-family="'DINPro-Regular'" font-size="1.5">Metallspetsstroy</text>
	<text transform="matrix(1 0 0 1 304.5664 44.3083)" fill="#FFFFFF" font-family="'DINPro-Regular'" font-size="1.5">Концерн Вега</text>
	<text transform="matrix(1 0 0 1 303.0215 46.1091)" fill="#DADADA" font-family="'DINPro-Regular'" font-size="1.5">Radio Engineering </text>
	<text transform="matrix(1 0 0 1 302.9023 47.9089)" fill="#DADADA" font-family="'DINPro-Regular'" font-size="1.5">Corporation &quot;Vega&quot;</text>
	<text transform="matrix(1 0 0 1 268.4629 46.9099)" fill="#FFFFFF" font-family="'DINPro-Regular'" font-size="3">ЦНИИ ЭИСУ</text>
	<text transform="matrix(1 0 0 1 270.4063 50.5095)" fill="#DADADA" font-family="'DINPro-Regular'" font-size="3">cnii eisu</text>
	<text transform="matrix(0 -1 1 0 166.1689 134.5271)" fill="#FFFFFF" font-family="'DINPro-Regular'" font-size="1.5">Мытищинский</text>
	<text transform="matrix(0 -1 1 0 167.9697 139.6033)" fill="#FFFFFF" font-family="'DINPro-Regular'" font-size="1.5">Приборостроительный Завод</text>
	<text transform="matrix(0 -1 1 0 169.7715 131.0554)" fill="#DADADA" font-family="'DINPro-Regular'" font-size="1.5009">MPZ</text>
	<text transform="matrix(1 0 0 1 353.0137 52.906)" fill="#FFFFFF" font-family="'DINPro-Regular'" font-size="1.5">Подольский</text>
	<text transform="matrix(1 0 0 1 347.417 54.7058)" fill="#FFFFFF" font-family="'DINPro-Regular'" font-size="1.5">электромеханический завод</text>
	<text transform="matrix(1 0 0 1 346.876 56.5056)" fill="#DADADA" font-family="'DINPro-Regular'" font-size="1.5">Podolskiy electrical and </text>
	<text transform="matrix(1 0 0 1 345.2617 58.3054)" fill="#DADADA" font-family="'DINPro-Regular'" font-size="1.5">mechanical plant for special</text>
	<text transform="matrix(1 0 0 1 347.4238 60.1052)" fill="#DADADA" font-family="'DINPro-Regular'" font-size="1.5">mechanical engineering</text>
	<text transform="matrix(1 0 0 1 329.8359 53.0857)" fill="#FFFFFF" font-family="'DINPro-Regular'" font-size="3">НПП</text>
	<text transform="matrix(1 0 0 1 328.8438 56.6863)" fill="#FFFFFF" font-family="'DINPro-Regular'" font-size="3">Рубин</text>
	<text transform="matrix(1 0 0 1 329.1006 60.2859)" fill="#DADADA" font-family="'DINPro-Regular'" font-size="3">Rubin</text>
	<text transform="matrix(1 0 0 1 420.6777 111.865)" fill="#FFFFFF" font-family="'DINPro-Regular'" font-size="3">Аргус-</text>
	<text transform="matrix(1 0 0 1 420.2891 115.4656)" fill="#FFFFFF" font-family="'DINPro-Regular'" font-size="3">Спектр</text>
	<text transform="matrix(1 0 0 1 420.4922 119.0652)" fill="#DADADA" font-family="'DINPro-Regular'" font-size="3">Argus-</text>
	<text transform="matrix(1 0 0 1 420.7227 122.6658)" fill="#DADADA" font-family="'DINPro-Regular'" font-size="3">Spectr</text>
	<text transform="matrix(1 0 0 1 267.7715 66.1687)" fill="#FFFFFF" font-family="'DINPro-Regular'" font-size="3">ГрандМоторс</text>
	<text transform="matrix(1 0 0 1 268.166 69.7693)" fill="#DADADA" font-family="'DINPro-Regular'" font-size="3">GrandMotors</text>
	<text transform="matrix(1 0 0 1 214.8608 75.2947)" fill="#FFFFFF" font-family="'DINPro-Regular'" font-size="3">КАМАЗ</text>
	<text transform="matrix(1 0 0 1 214.8906 78.8953)" fill="#DADADA" font-family="'DINPro-Regular'" font-size="3">KAMAZ</text>
	
		<rect x="21.089" y="152.338" fill="#6B6E6F" stroke="#000000" stroke-width="0.2" stroke-miterlimit="10" width="14.173" height="5.67"/>
	<text transform="matrix(1 0 0 1 23.4219 153.7986)" fill="#FFFFFF" font-family="'DINPro-Regular'" font-size="1.5">Современные</text>
	<text transform="matrix(1 0 0 1 22.3701 155.5984)" fill="#FFFFFF" font-family="'DINPro-Regular'" font-size="1.5">технологические</text>
	<text transform="matrix(1 0 0 1 26.0469 157.3982)" fill="#FFFFFF" font-family="'DINPro-Regular'" font-size="1.5">линии</text>
	
		<rect x="395.473" y="124.115" fill="#6B6E6F" stroke="#000000" stroke-width="0.2" stroke-miterlimit="10" width="14.172" height="5.67"/>
	<text transform="matrix(1 0 0 1 397.9785 125.5759)" fill="#FFFFFF" font-family="'DINPro-Regular'" font-size="1.5">Современные</text>
	<text transform="matrix(1 0 0 1 396.9277 127.3757)" fill="#FFFFFF" font-family="'DINPro-Regular'" font-size="1.5">технологические</text>
	<text transform="matrix(1 0 0 1 400.6035 129.1755)" fill="#FFFFFF" font-family="'DINPro-Regular'" font-size="1.5">линии</text>
	
		<rect x="386.781" y="104.016" fill="#6B6E6F" stroke="#000000" stroke-width="0.2" stroke-miterlimit="10" width="22.678" height="11.339"/>
	<text transform="matrix(1 0 0 1 305.1875 64.2712)" fill="#FFFFFF" font-family="'DINPro-Regular'" font-size="1.5">НПК БРИЗК</text>
	<text transform="matrix(1 0 0 1 305.4922 66.072)" fill="#DADADA" font-family="'DINPro-Regular'" font-size="1.5">npk brizk</text>
	<text transform="matrix(1 0 0 1 392.9287 109.1853)" fill="#FFFFFF" font-family="'DINPro-Regular'" font-size="3">Авторос</text>
	<text transform="matrix(1 0 0 1 393.3809 112.7859)" fill="#DADADA" font-family="'DINPro-Regular'" font-size="3">Avtoros</text>
	
		<rect x="72.179" y="39.435" fill="#6B6E6F" stroke="#000000" stroke-width="0.2" stroke-miterlimit="10" width="17.008" height="25.512"/>
	<text transform="matrix(1 0 0 1 73.3037 50.573)" fill="#FFFFFF" font-family="'DINPro-Regular'" font-size="1.5">Белспецвнештехника</text>
	<text transform="matrix(1 0 0 1 76.8271 52.3738)" fill="#DADADA" font-family="'DINPro-Regular'" font-size="1.5">BELSPETS-</text>
	<text transform="matrix(1 0 0 1 74.8037 54.1736)" fill="#DADADA" font-family="'DINPro-Regular'" font-size="1.5">VNESHTECHNIKA</text>
	<g>
		<circle fill="#EDEDED" stroke="#3C3C3B" stroke-width="0.25" stroke-miterlimit="10" cx="97.709" cy="39.194" r="3.26"/>
		<text transform="matrix(1 0 0 1 95.2876 40.1794)" fill="#3C3C3B" font-family="'DINPro-Bold'" font-size="2.8">2O1</text>
	</g>
	<g>
		<circle fill="#EDEDED" stroke="#3C3C3B" stroke-width="0.25" stroke-miterlimit="10" cx="21.089" cy="81.587" r="3.26"/>
		<text transform="matrix(1 0 0 1 17.9063 82.572)" fill="#3C3C3B" font-family="'DINPro-Bold'" font-size="2.8">2O14</text>
	</g>
	<g>
		<circle fill="#EDEDED" stroke="#3C3C3B" stroke-width="0.25" stroke-miterlimit="10" cx="21.089" cy="121.404" r="3.26"/>
		<text transform="matrix(1 0 0 1 17.9063 122.3894)" fill="#3C3C3B" font-family="'DINPro-Bold'" font-size="2.8">2O17</text>
	</g>
	<g>
		<circle fill="#EDEDED" stroke="#3C3C3B" stroke-width="0.25" stroke-miterlimit="10" cx="61.217" cy="121.404" r="3.26"/>
		<text transform="matrix(1 0 0 1 58.0352 122.3894)" fill="#3C3C3B" font-family="'DINPro-Bold'" font-size="2.8">2O19</text>
	</g>
	<g>
		<circle fill="#EDEDED" stroke="#3C3C3B" stroke-width="0.25" stroke-miterlimit="10" cx="81.383" cy="121.404" r="3.26"/>
		<text transform="matrix(1 0 0 1 78.2012 122.3894)" fill="#3C3C3B" font-family="'DINPro-Bold'" font-size="2.8">2O20</text>
	</g>
	<g>
		<circle fill="#EDEDED" stroke="#3C3C3B" stroke-width="0.25" stroke-miterlimit="10" cx="100.868" cy="121.404" r="3.26"/>
		<text transform="matrix(1 0 0 1 97.686 122.3894)" fill="#3C3C3B" font-family="'DINPro-Bold'" font-size="2.8">2O21</text>
	</g>
	<g>
		<circle fill="#EDEDED" stroke="#3C3C3B" stroke-width="0.25" stroke-miterlimit="10" cx="262.76" cy="107.357" r="3.26"/>
		<text transform="matrix(1 0 0 1 259.5781 108.3416)" fill="#3C3C3B" font-family="'DINPro-Bold'" font-size="2.8">2O22</text>
	</g>
	<g>
		<circle fill="#EDEDED" stroke="#3C3C3B" stroke-width="0.25" stroke-miterlimit="10" cx="318.312" cy="106.886" r="3.26"/>
		<text transform="matrix(1 0 0 1 315.1299 107.8708)" fill="#3C3C3B" font-family="'DINPro-Bold'" font-size="2.8">2O23</text>
	</g>
	<g>
		<circle fill="#EDEDED" stroke="#3C3C3B" stroke-width="0.25" stroke-miterlimit="10" cx="332.858" cy="84.428" r="3.26"/>
		<text transform="matrix(1 0 0 1 329.6758 85.4119)" fill="#3C3C3B" font-family="'DINPro-Bold'" font-size="2.8">2O24</text>
	</g>
	<g>
		<circle fill="#EDEDED" stroke="#3C3C3B" stroke-width="0.25" stroke-miterlimit="10" cx="394.713" cy="122.97" r="3.26"/>
		<text transform="matrix(1 0 0 1 391.5303 123.9548)" fill="#3C3C3B" font-family="'DINPro-Bold'" font-size="2.8">2O26</text>
	</g>
	<g>
		<circle fill="#EDEDED" stroke="#3C3C3B" stroke-width="0.25" stroke-miterlimit="10" cx="417.995" cy="101.451" r="3.26"/>
		<text transform="matrix(1 0 0 1 414.8125 102.4353)" fill="#3C3C3B" font-family="'DINPro-Bold'" font-size="2.8">2O27</text>
	</g>
	<g>
		<circle fill="#EDEDED" stroke="#3C3C3B" stroke-width="0.25" stroke-miterlimit="10" cx="140.961" cy="40.179" r="3.26"/>
		<text transform="matrix(1 0 0 1 137.7783 41.1638)" fill="#3C3C3B" font-family="'DINPro-Bold'" font-size="2.8">2O28</text>
	</g>
	<g>
		<circle fill="#EDEDED" stroke="#3C3C3B" stroke-width="0.25" stroke-miterlimit="10" cx="142.938" cy="121.001" r="3.26"/>
		<text transform="matrix(1 0 0 1 139.7554 121.9861)" fill="#3C3C3B" font-family="'DINPro-Bold'" font-size="2.8">2O29</text>
	</g>
	<g>
		<circle fill="#EDEDED" stroke="#3C3C3B" stroke-width="0.25" stroke-miterlimit="10" cx="262.107" cy="81.753" r="3.26"/>
		<text transform="matrix(1 0 0 1 258.9248 82.738)" fill="#3C3C3B" font-family="'DINPro-Bold'" font-size="2.8">2O30</text>
	</g>
	<g>
		<circle fill="#EDEDED" stroke="#3C3C3B" stroke-width="0.25" stroke-miterlimit="10" cx="137.334" cy="80.634" r="3.26"/>
		<text transform="matrix(1 0 0 1 134.1519 81.6189)" fill="#3C3C3B" font-family="'DINPro-Bold'" font-size="2.8">2O31</text>
	</g>
	<g>
		<circle fill="#EDEDED" stroke="#3C3C3B" stroke-width="0.25" stroke-miterlimit="10" cx="161.845" cy="80.634" r="3.26"/>
		<text transform="matrix(1 0 0 1 158.6626 81.6189)" fill="#3C3C3B" font-family="'DINPro-Bold'" font-size="2.8">2O32</text>
	</g>
	<g>
		<circle fill="#EDEDED" stroke="#3C3C3B" stroke-width="0.25" stroke-miterlimit="10" cx="386.781" cy="103.647" r="3.26"/>
		<text transform="matrix(1 0 0 1 383.5986 104.6316)" fill="#3C3C3B" font-family="'DINPro-Bold'" font-size="2.8">2O25</text>
	</g>
	<g>
		<circle fill="#EDEDED" stroke="#3C3C3B" stroke-width="0.25" stroke-miterlimit="10" cx="21.089" cy="152.338" r="3.26"/>
		<text transform="matrix(1 0 0 1 17.9063 153.323)" fill="#3C3C3B" font-family="'DINPro-Bold'" font-size="2.8">2O18</text>
	</g>
	<g>
		<circle fill="#EDEDED" stroke="#3C3C3B" stroke-width="0.25" stroke-miterlimit="10" cx="64.156" cy="81.587" r="3.26"/>
		<text transform="matrix(1 0 0 1 60.9736 82.572)" fill="#3C3C3B" font-family="'DINPro-Bold'" font-size="2.8">2O15</text>
	</g>
	<g>
		<circle fill="#EDEDED" stroke="#3C3C3B" stroke-width="0.25" stroke-miterlimit="10" cx="112.086" cy="81.587" r="3.26"/>
		<text transform="matrix(1 0 0 1 108.9038 82.572)" fill="#3C3C3B" font-family="'DINPro-Bold'" font-size="2.8">2O16</text>
	</g>
	<g>
		<circle fill="#EDEDED" stroke="#3C3C3B" stroke-width="0.25" stroke-miterlimit="10" cx="21.405" cy="39.194" r="3.26"/>
		<text transform="matrix(1 0 0 1 18.9834 40.1794)" fill="#3C3C3B" font-family="'DINPro-Bold'" font-size="2.8">2O2</text>
	</g>
	<g>
		<circle fill="#EDEDED" stroke="#3C3C3B" stroke-width="0.25" stroke-miterlimit="10" cx="72.967" cy="39.194" r="3.26"/>
		<text transform="matrix(1 0 0 1 70.5449 40.1794)" fill="#3C3C3B" font-family="'DINPro-Bold'" font-size="2.8">2O3</text>
	</g>
	<g>
		<circle fill="#EDEDED" stroke="#3C3C3B" stroke-width="0.25" stroke-miterlimit="10" cx="163.411" cy="115.141" r="3.26"/>
		<text transform="matrix(1 0 0 1 160.9893 116.1248)" fill="#3C3C3B" font-family="'DINPro-Bold'" font-size="2.8">2O4</text>
	</g>
	<g>
		<circle fill="#EDEDED" stroke="#3C3C3B" stroke-width="0.25" stroke-miterlimit="10" cx="163.274" cy="39.194" r="3.26"/>
		<text transform="matrix(1 0 0 1 160.8525 40.1794)" fill="#3C3C3B" font-family="'DINPro-Bold'" font-size="2.8">2O5</text>
	</g>
	<g>
		<circle fill="#EDEDED" stroke="#3C3C3B" stroke-width="0.25" stroke-miterlimit="10" cx="185.741" cy="39.194" r="3.26"/>
		<text transform="matrix(1 0 0 1 183.3193 40.1794)" fill="#3C3C3B" font-family="'DINPro-Bold'" font-size="2.8">2O6</text>
	</g>
	<g>
		<circle fill="#EDEDED" stroke="#3C3C3B" stroke-width="0.25" stroke-miterlimit="10" cx="262.107" cy="39.194" r="3.26"/>
		<text transform="matrix(1 0 0 1 259.6855 40.1794)" fill="#3C3C3B" font-family="'DINPro-Bold'" font-size="2.8">2O7</text>
	</g>
	<g>
		<circle fill="#EDEDED" stroke="#3C3C3B" stroke-width="0.25" stroke-miterlimit="10" cx="296.152" cy="39.194" r="3.26"/>
		<text transform="matrix(1 0 0 1 293.7305 40.1794)" fill="#3C3C3B" font-family="'DINPro-Bold'" font-size="2.8">2O8</text>
	</g>
	<g>
		<circle fill="#EDEDED" stroke="#3C3C3B" stroke-width="0.25" stroke-miterlimit="10" cx="299.412" cy="59.082" r="3.26"/>
		<text transform="matrix(1 0 0 1 296.2305 60.0662)" fill="#3C3C3B" font-family="'DINPro-Bold'" font-size="2.8">2O10</text>
	</g>
	<g>
		<circle fill="#EDEDED" stroke="#3C3C3B" stroke-width="0.25" stroke-miterlimit="10" cx="261.857" cy="58.539" r="3.26"/>
		<text transform="matrix(1 0 0 1 259.4355 59.5232)" fill="#3C3C3B" font-family="'DINPro-Bold'" font-size="2.8">2O9</text>
	</g>
	<g>
		<circle fill="#EDEDED" stroke="#3C3C3B" stroke-width="0.25" stroke-miterlimit="10" cx="327.298" cy="39.194" r="3.26"/>
		<text transform="matrix(1 0 0 1 324.1162 40.1794)" fill="#3C3C3B" font-family="'DINPro-Bold'" font-size="2.8">2O11</text>
	</g>
	<g>
		<circle fill="#EDEDED" stroke="#3C3C3B" stroke-width="0.25" stroke-miterlimit="10" cx="344.244" cy="39.194" r="3.26"/>
		<text transform="matrix(1 0 0 1 341.0625 40.1794)" fill="#3C3C3B" font-family="'DINPro-Bold'" font-size="2.8">2O12</text>
	</g>
	<g>
		<circle fill="#EDEDED" stroke="#3C3C3B" stroke-width="0.25" stroke-miterlimit="10" cx="378.463" cy="39.194" r="3.26"/>
		<text transform="matrix(1 0 0 1 375.2813 40.1794)" fill="#3C3C3B" font-family="'DINPro-Bold'" font-size="2.8">2O13</text>
	</g>
	<text transform="matrix(1 0 0 1 145.8149 132.6111)" fill="#FFFFFF" font-family="'DINPro-Regular'" font-size="1.5">ТРЭКОЛ</text>
	<text transform="matrix(1 0 0 1 145.8711 134.4119)" fill="#DADADA" font-family="'DINPro-Regular'" font-size="1.5">TREKOL</text>
	
		<rect x="284.792" y="81.753" fill="#6B6E6F" stroke="#000000" stroke-width="0.2" stroke-miterlimit="10" width="14.173" height="17.009"/>
	<text transform="matrix(1 0 0 1 288.1016 90.4626)" fill="#FFFFFF" font-family="'DINPro-Regular'" font-size="1.5">БиванАэро</text>
	<g>
		<circle fill="#EDEDED" stroke="#3C3C3B" stroke-width="0.25" stroke-miterlimit="10" cx="285.042" cy="81.753" r="3.26"/>
		<text transform="matrix(1 0 0 1 281.8594 82.738)" fill="#3C3C3B" font-family="'DINPro-Bold'" font-size="2.8">2O33</text>
	</g>
</g>
</svg>
