<?xml version="1.0" encoding="utf-8"?>
<!-- Generator: Adobe Illustrator 15.0.0, SVG Export Plug-In . SVG Version: 6.00 Build 0)  -->
<!DOCTYPE svg PUBLIC "-//W3C//DTD SVG 1.1//EN" "http://www.w3.org/Graphics/SVG/1.1/DTD/svg11.dtd">
<svg version="1.1" id="Layer_1" xmlns="http://www.w3.org/2000/svg" xmlns:xlink="http://www.w3.org/1999/xlink" x="0px" y="0px"
	 width="481.891px" height="321.029px" viewBox="0 0 481.891 321.029" enable-background="new 0 0 481.891 321.029"
	 xml:space="preserve">
<g id="Улица">
	<path fill="none" stroke="#000000" stroke-width="0.5" stroke-miterlimit="10" d="M238.351,143.438
		c-98.52-7.428-193.541-9.585-193.541-9.585V36.411h418.184v128.967C462.993,165.378,348.295,151.726,238.351,143.438z"/>
</g>
<g id="Экспозиция">
	
		<rect x="380.6" y="115.98" fill="#6B6E6F" stroke="#000000" stroke-width="0.2" stroke-miterlimit="10" width="37.085" height="34.016"/>
	
		<rect x="426.165" y="124.303" fill="#6B6E6F" stroke="#000000" stroke-width="0.2" stroke-miterlimit="10" width="34.016" height="22.677"/>
	
		<rect x="417.685" y="76.064" fill="#6B6E6F" stroke="#000000" stroke-width="0.2" stroke-miterlimit="10" width="42.521" height="28.347"/>
	<text transform="matrix(1 0 0 1 429.126 88.1541)" fill="#FFFFFF" font-family="'DINPro-Regular'" font-size="3">ВЦМК Защита</text>
	<text transform="matrix(1 0 0 1 423.6348 91.7537)" fill="#DADADA" font-family="'DINPro-Regular'" font-size="3">All-Russian Centre for </text>
	<text transform="matrix(1 0 0 1 419.4961 95.3533)" fill="#DADADA" font-family="'DINPro-Regular'" font-size="3">Disaster Medicine &apos;&apos;Zaschita&apos;&apos;</text>
	
		<rect x="185.144" y="76.124" fill="#6B6E6F" stroke="#000000" stroke-width="0.2" stroke-miterlimit="10" width="36.851" height="34.017"/>
	
		<rect x="244.327" y="67.62" fill="#6B6E6F" stroke="#000000" stroke-width="0.2" stroke-miterlimit="10" width="11.339" height="62.339"/>
	
		<rect x="185.204" y="118.455" fill="#6B6E6F" stroke="#000000" stroke-width="0.2" stroke-miterlimit="10" width="14.173" height="17.008"/>
	
		<rect x="49.112" y="39.273" fill="#6B6E6F" stroke="#000000" stroke-width="0.2" stroke-miterlimit="10" width="127.559" height="90.709"/>
	
		<rect x="184.8" y="39.273" fill="#6B6E6F" stroke="#000000" stroke-width="0.2" stroke-miterlimit="10" width="70.866" height="28.347"/>
	
		<rect x="264.617" y="39.273" fill="#6B6E6F" stroke="#000000" stroke-width="0.2" stroke-miterlimit="10" width="51.022" height="28.347"/>
	
		<rect x="363.784" y="39.273" fill="#6B6E6F" stroke="#000000" stroke-width="0.2" stroke-miterlimit="10" width="31.181" height="28.347"/>
	
		<rect x="324.22" y="39.273" fill="#6B6E6F" stroke="#000000" stroke-width="0.2" stroke-miterlimit="10" width="31.182" height="28.347"/>
	
		<rect x="392.109" y="76.064" fill="#6B6E6F" stroke="#000000" stroke-width="0.2" stroke-miterlimit="10" width="17.008" height="31.181"/>
	
		<rect x="301.46" y="118.22" fill="#6B6E6F" stroke="#000000" stroke-width="0.2" stroke-miterlimit="10" width="25.512" height="28.347"/>
	
		<rect x="292.956" y="75.937" fill="#6B6E6F" stroke="#000000" stroke-width="0.2" stroke-miterlimit="10" width="17.008" height="25.512"/>
	
		<rect x="267.318" y="76.124" fill="#6B6E6F" stroke="#000000" stroke-width="0.2" stroke-miterlimit="10" width="17.008" height="17.008"/>
	
		<rect x="369.408" y="76.209" fill="#6B6E6F" stroke="#000000" stroke-width="0.2" stroke-miterlimit="10" width="14.173" height="31.182"/>
	
		<rect x="318.161" y="75.937" fill="#6B6E6F" stroke="#000000" stroke-width="0.2" stroke-miterlimit="10" width="17.008" height="31.181"/>
	
		<rect x="343.887" y="95.943" fill="#6B6E6F" stroke="#000000" stroke-width="0.2" stroke-miterlimit="10" width="17.008" height="14.173"/>
	
		<rect x="344.008" y="76.209" fill="#6B6E6F" stroke="#000000" stroke-width="0.2" stroke-miterlimit="10" width="17.008" height="14.173"/>
	
		<rect x="400.677" y="39.273" fill="#6B6E6F" stroke="#000000" stroke-width="0.2" stroke-miterlimit="10" width="59.527" height="28.347"/>
	<text transform="matrix(1 0 0 1 216.0938 52.8816)" fill="#FFFFFF" font-family="'DINPro-Regular'" font-size="3">АЗ УРАЛ</text>
	<text transform="matrix(1 0 0 1 205.2056 56.4822)" fill="#DADADA" font-family="'DINPro-Regular'" font-size="3">Automobile plant &quot;URAL&quot;</text>
	<text transform="matrix(1 0 0 1 285.4473 52.8816)" fill="#FFFFFF" font-family="'DINPro-Regular'" font-size="3">Астейс</text>
	<text transform="matrix(1 0 0 1 286.0586 56.4822)" fill="#DADADA" font-family="'DINPro-Regular'" font-size="3">Astais</text>
	<text transform="matrix(1 0 0 1 421.5723 52.8816)" fill="#FFFFFF" font-family="'DINPro-Regular'" font-size="3">Авангард + К</text>
	<text transform="matrix(1 0 0 1 421.6641 56.4822)" fill="#DADADA" font-family="'DINPro-Regular'" font-size="3">Avangard + K</text>
	<text transform="matrix(1 0 0 1 326.6748 52.8816)" fill="#FFFFFF" font-family="'DINPro-Regular'" font-size="3">ВЕЛМАШ / ИНМАН</text>
	<text transform="matrix(1 0 0 1 328.5605 56.4822)" fill="#DADADA" font-family="'DINPro-Regular'" font-size="3">Velmash / Inman</text>
	<text transform="matrix(1 0 0 1 370.5488 51.0818)" fill="#FFFFFF" font-family="'DINPro-Regular'" font-size="3">ОКБ Техника</text>
	<text transform="matrix(1 0 0 1 365.1133 54.6814)" fill="#DADADA" font-family="'DINPro-Regular'" font-size="3">Experimental Design </text>
	<text transform="matrix(1 0 0 1 365.9551 58.281)" fill="#DADADA" font-family="'DINPro-Regular'" font-size="3">Bureau &quot;Technique&quot;</text>
	<text transform="matrix(1 0 0 1 395.293 92.2644)" fill="#FFFFFF" font-family="'DINPro-Regular'" font-size="1.5">Электроагрегат</text>
	<text transform="matrix(1 0 0 1 395.6465 94.0652)" fill="#DADADA" font-family="'DINPro-Regular'" font-size="1.5">Electroagregat</text>
	<text transform="matrix(1 0 0 1 373.5117 92.2644)" fill="#FFFFFF" font-family="'DINPro-Regular'" font-size="1.5">Телекор </text>
	<text transform="matrix(1 0 0 1 373.5879 94.0652)" fill="#DADADA" font-family="'DINPro-Regular'" font-size="1.5">Telecore</text>
	<text transform="matrix(1 0 0 1 307.2559 129.2566)" fill="#FFFFFF" font-family="'DINPro-Regular'" font-size="3">Телепорт-</text>
	<text transform="matrix(1 0 0 1 308.8574 132.8572)" fill="#FFFFFF" font-family="'DINPro-Regular'" font-size="3">Монтаж</text>
	<text transform="matrix(1 0 0 1 302.2969 136.4568)" fill="#DADADA" font-family="'DINPro-Regular'" font-size="3">Teleport-Montazh</text>
	<text transform="matrix(1 0 0 1 435.4258 135.0369)" fill="#FFFFFF" font-family="'DINPro-Regular'" font-size="3">ИТИС /</text>
	<text transform="matrix(1 0 0 1 445.0889 135.0369)" fill="#DADADA" font-family="'DINPro-Regular'" font-size="3">ITaS</text>
	<text transform="matrix(1 0 0 1 429.4531 138.6375)" fill="#FFFFFF" font-family="'DINPro-Regular'" font-size="3">Контроль ИТ / </text>
	<text transform="matrix(1 0 0 1 449.3076 138.6375)" fill="#DADADA" font-family="'DINPro-Regular'" font-size="3">kmyt</text>
	<text transform="matrix(1 0 0 1 195.3271 92.2644)" fill="#FFFFFF" font-family="'DINPro-Regular'" font-size="3">Пожтехника</text>
	<text transform="matrix(1 0 0 1 192.6982 95.865)" fill="#DADADA" font-family="'DINPro-Regular'" font-size="3">pozhtechnika</text>
	<text transform="matrix(1 0 0 1 188.0537 127.8025)" fill="#FFFFFF" font-family="'DINPro-Regular'" font-size="1.5">НПК ДЕДАЛ</text>
	<text transform="matrix(1 0 0 1 189.8516 129.6033)" fill="#DADADA" font-family="'DINPro-Regular'" font-size="1.5">dedal</text>
	<text transform="matrix(1 0 0 1 295.8086 88.6931)" fill="#FFFFFF" font-family="'DINPro-Regular'" font-size="1.5">Уралавтоприцеп</text>
	<text transform="matrix(1 0 0 1 296.2969 90.4929)" fill="#DADADA" font-family="'DINPro-Regular'" font-size="1.5">Uralavtopritsep</text>
	<text transform="matrix(1 0 0 1 391.874 129.9216)" fill="#FFFFFF" font-family="'DINPro-Regular'" font-size="3">МЧС России</text>
	<text transform="matrix(1 0 0 1 392.7988 133.5212)" fill="#DADADA" font-family="'DINPro-Regular'" font-size="3">EMERCOM </text>
	<text transform="matrix(1 0 0 1 394.2119 137.1208)" fill="#DADADA" font-family="'DINPro-Regular'" font-size="3">of Russia</text>
	<text transform="matrix(0.9831 0 0 1 320.0742 92.2644)" fill="#FFFFFF" font-family="'DINPro-Regular'" font-size="3">Магеллан</text>
	<text transform="matrix(1 0 0 1 348.3594 101.407)" fill="#FFFFFF" font-family="'DINPro-Regular'" font-size="1.5">АльфаБалт-</text>
	<text transform="matrix(1 0 0 1 348.0938 103.2068)" fill="#FFFFFF" font-family="'DINPro-Regular'" font-size="1.5">Инжиниринг</text>
	<text transform="matrix(1 0 0 1 351.043 105.0066)" fill="#DADADA" font-family="'DINPro-Regular'" font-size="1.5">abe</text>
	<text transform="matrix(1 0 0 1 272.4512 83.158)" fill="#FFFFFF" font-family="'DINPro-Regular'" font-size="1.5">Средства </text>
	<text transform="matrix(1 0 0 1 272.5137 84.9578)" fill="#FFFFFF" font-family="'DINPro-Regular'" font-size="1.5">Спасения</text>
	<text transform="matrix(1 0 0 1 269.582 86.7576)" fill="#DADADA" font-family="'DINPro-Regular'" font-size="1.5">Rescue Equipment</text>
	<text transform="matrix(1 0 0 1 244.4883 99.2048)" fill="#FFFFFF" font-family="'DINPro-Regular'" font-size="1.5">Тверьстроймаш</text>
	<text transform="matrix(1 0 0 1 349.9697 81.6189)" fill="#FFFFFF" font-family="'DINPro-Regular'" font-size="1.5">ПетрГУ</text>
	<text transform="matrix(1 0 0 1 347.9648 83.4187)" fill="#DADADA" font-family="'DINPro-Regular'" font-size="1.5">Petrozavodsk</text>
	<text transform="matrix(1 0 0 1 347.2158 85.2185)" fill="#DADADA" font-family="'DINPro-Regular'" font-size="1.5">State University</text>
	
		<rect x="446.031" y="152.96" fill="#6B6E6F" stroke="#000000" stroke-width="0.2" stroke-miterlimit="10" width="14.173" height="5.67"/>
	<text transform="matrix(1 0 0 1 448.3633 154.4197)" fill="#FFFFFF" font-family="'DINPro-Regular'" font-size="1.5">Современные</text>
	<text transform="matrix(1 0 0 1 447.3125 156.2205)" fill="#FFFFFF" font-family="'DINPro-Regular'" font-size="1.5">технологические</text>
	<text transform="matrix(1 0 0 1 450.9883 158.0203)" fill="#FFFFFF" font-family="'DINPro-Regular'" font-size="1.5">линии</text>
	<text transform="matrix(1 0 0 1 96.3174 81.6189)" fill="#FFFFFF" font-family="'DINPro-Regular'" font-size="3">Высокоточные комплексы</text>
	<text transform="matrix(1 0 0 1 95.4976 85.2185)" fill="#DADADA" font-family="'DINPro-Regular'" font-size="3">HIGH PRECISION WEAPONS</text>
	<g>
		<circle fill="#EDEDED" stroke="#3C3C3B" stroke-width="0.25" stroke-miterlimit="10" cx="49.112" cy="39.273" r="3.26"/>
		<text transform="matrix(1 0 0 1 46.6904 40.2576)" fill="#3C3C3B" font-family="'DINPro-Bold'" font-size="2.8">3O1</text>
	</g>
	<g>
		<circle fill="#EDEDED" stroke="#3C3C3B" stroke-width="0.25" stroke-miterlimit="10" cx="184.8" cy="39.273" r="3.26"/>
		<text transform="matrix(1 0 0 1 182.3779 40.2576)" fill="#3C3C3B" font-family="'DINPro-Bold'" font-size="2.8">3O2</text>
	</g>
	<g>
		<circle fill="#EDEDED" stroke="#3C3C3B" stroke-width="0.25" stroke-miterlimit="10" cx="184.8" cy="75.937" r="3.26"/>
		<text transform="matrix(1 0 0 1 182.3779 76.9216)" fill="#3C3C3B" font-family="'DINPro-Bold'" font-size="2.8">3O7</text>
	</g>
	<g>
		<circle fill="#EDEDED" stroke="#3C3C3B" stroke-width="0.25" stroke-miterlimit="10" cx="244.327" cy="71.993" r="3.26"/>
		<text transform="matrix(1 0 0 1 241.9053 72.9773)" fill="#3C3C3B" font-family="'DINPro-Bold'" font-size="2.8">3O8</text>
	</g>
	<g>
		<circle fill="#EDEDED" stroke="#3C3C3B" stroke-width="0.25" stroke-miterlimit="10" cx="267.318" cy="76.124" r="3.26"/>
		<text transform="matrix(1 0 0 1 264.8965 77.1091)" fill="#3C3C3B" font-family="'DINPro-Bold'" font-size="2.8">3O9</text>
	</g>
	<g>
		<circle fill="#EDEDED" stroke="#3C3C3B" stroke-width="0.25" stroke-miterlimit="10" cx="292.868" cy="75.937" r="3.26"/>
		<text transform="matrix(1 0 0 1 289.6855 76.9216)" fill="#3C3C3B" font-family="'DINPro-Bold'" font-size="2.8">3O10</text>
	</g>
	<g>
		<circle fill="#EDEDED" stroke="#3C3C3B" stroke-width="0.25" stroke-miterlimit="10" cx="318.142" cy="75.937" r="3.26"/>
		<text transform="matrix(1 0 0 1 314.959 76.9216)" fill="#3C3C3B" font-family="'DINPro-Bold'" font-size="2.8">3O11</text>
	</g>
	<g>
		<circle fill="#EDEDED" stroke="#3C3C3B" stroke-width="0.25" stroke-miterlimit="10" cx="344.008" cy="75.937" r="3.26"/>
		<text transform="matrix(1 0 0 1 340.8262 76.9216)" fill="#3C3C3B" font-family="'DINPro-Bold'" font-size="2.8">3O12</text>
	</g>
	<g>
		<circle fill="#EDEDED" stroke="#3C3C3B" stroke-width="0.25" stroke-miterlimit="10" cx="369.408" cy="75.937" r="3.26"/>
		<text transform="matrix(1 0 0 1 366.2266 76.9216)" fill="#3C3C3B" font-family="'DINPro-Bold'" font-size="2.8">3O14</text>
	</g>
	<g>
		<circle fill="#EDEDED" stroke="#3C3C3B" stroke-width="0.25" stroke-miterlimit="10" cx="392.109" cy="75.937" r="3.26"/>
		<text transform="matrix(1 0 0 1 388.9277 76.9216)" fill="#3C3C3B" font-family="'DINPro-Bold'" font-size="2.8">3O15</text>
	</g>
	<g>
		<circle fill="#EDEDED" stroke="#3C3C3B" stroke-width="0.25" stroke-miterlimit="10" cx="417.621" cy="75.937" r="3.26"/>
		<text transform="matrix(1 0 0 1 414.4395 76.9216)" fill="#3C3C3B" font-family="'DINPro-Bold'" font-size="2.8">3O16</text>
	</g>
	<g>
		<circle fill="#EDEDED" stroke="#3C3C3B" stroke-width="0.25" stroke-miterlimit="10" cx="301.339" cy="118.397" r="3.26"/>
		<text transform="matrix(1 0 0 1 298.1563 119.3816)" fill="#3C3C3B" font-family="'DINPro-Bold'" font-size="2.8">3O22</text>
	</g>
	<g>
		<circle fill="#EDEDED" stroke="#3C3C3B" stroke-width="0.25" stroke-miterlimit="10" cx="426.165" cy="123.954" r="3.26"/>
		<text transform="matrix(1 0 0 1 422.9824 124.9392)" fill="#3C3C3B" font-family="'DINPro-Bold'" font-size="2.8">3O24</text>
	</g>
	<g>
		<circle fill="#EDEDED" stroke="#3C3C3B" stroke-width="0.25" stroke-miterlimit="10" cx="380.6" cy="115.98" r="3.26"/>
		<text transform="matrix(1 0 0 1 377.418 116.9646)" fill="#3C3C3B" font-family="'DINPro-Bold'" font-size="2.8">3O23</text>
	</g>
	<g>
		<circle fill="#EDEDED" stroke="#3C3C3B" stroke-width="0.25" stroke-miterlimit="10" cx="444.722" cy="151.158" r="3.26"/>
		<text transform="matrix(1 0 0 1 441.5391 152.1423)" fill="#3C3C3B" font-family="'DINPro-Bold'" font-size="2.8">3O25</text>
	</g>
	<g>
		<circle fill="#EDEDED" stroke="#3C3C3B" stroke-width="0.25" stroke-miterlimit="10" cx="185.204" cy="118.455" r="3.26"/>
		<text transform="matrix(1 0 0 1 182.0215 119.4402)" fill="#3C3C3B" font-family="'DINPro-Bold'" font-size="2.8">3O17</text>
	</g>
	<g>
		<circle fill="#EDEDED" stroke="#3C3C3B" stroke-width="0.25" stroke-miterlimit="10" cx="343.887" cy="95.943" r="3.26"/>
		<text transform="matrix(1 0 0 1 340.7051 96.9275)" fill="#3C3C3B" font-family="'DINPro-Bold'" font-size="2.8">3O13</text>
	</g>
	<g>
		<circle fill="#EDEDED" stroke="#3C3C3B" stroke-width="0.25" stroke-miterlimit="10" cx="264.617" cy="39.273" r="3.26"/>
		<text transform="matrix(1 0 0 1 262.1953 40.2576)" fill="#3C3C3B" font-family="'DINPro-Bold'" font-size="2.8">3O3</text>
	</g>
	<g>
		<circle fill="#EDEDED" stroke="#3C3C3B" stroke-width="0.25" stroke-miterlimit="10" cx="324.22" cy="39.273" r="3.26"/>
		<text transform="matrix(1 0 0 1 321.7979 40.2576)" fill="#3C3C3B" font-family="'DINPro-Bold'" font-size="2.8">3O4</text>
	</g>
	<g>
		<circle fill="#EDEDED" stroke="#3C3C3B" stroke-width="0.25" stroke-miterlimit="10" cx="363.752" cy="39.273" r="3.26"/>
		<text transform="matrix(1 0 0 1 361.3301 40.2576)" fill="#3C3C3B" font-family="'DINPro-Bold'" font-size="2.8">3O5</text>
	</g>
	<g>
		<circle fill="#EDEDED" stroke="#3C3C3B" stroke-width="0.25" stroke-miterlimit="10" cx="400.677" cy="39.273" r="3.26"/>
		<text transform="matrix(1 0 0 1 398.2549 40.2576)" fill="#3C3C3B" font-family="'DINPro-Bold'" font-size="2.8">3O6</text>
	</g>
</g>
</svg>
