<?xml version="1.0" encoding="utf-8"?>
<!-- Generator: Adobe Illustrator 15.0.0, SVG Export Plug-In . SVG Version: 6.00 Build 0)  -->
<!DOCTYPE svg PUBLIC "-//W3C//DTD SVG 1.1//EN" "http://www.w3.org/Graphics/SVG/1.1/DTD/svg11.dtd">
<svg version="1.1" xmlns="http://www.w3.org/2000/svg" xmlns:xlink="http://www.w3.org/1999/xlink" x="0px" y="0px"
	 width="442.492px" height="203.183px" viewBox="0 0 442.492 203.183" enable-background="new 0 0 442.492 203.183"
	 xml:space="preserve">
<g id="Улица">
	<path fill="none" stroke="#12100B" stroke-width="0.5" stroke-miterlimit="10" d="M251.91,205.955
		c94.028-17.594,185.798-30.105,185.798-30.105V38.621H-10.733l60.735,209.064C50.001,247.686,151.18,224.804,251.91,205.955z"/>
</g>
<g id="План">
	<rect x="11.886" y="-40.761" fill="none" width="68.031" height="68.031"/>
	<rect x="7.728" y="0.217" opacity="0.1" fill="#95C11F" width="412.706" height="14.174"/>
</g>
<g id="Экспозиция">
	
		<rect x="69.204" y="41.518" fill="#6B6E6F" stroke="#000000" stroke-width="0.2" stroke-miterlimit="10" width="28.347" height="42.52"/>
	
		<rect x="270.526" y="41.424" fill="#6B6E6F" stroke="#000000" stroke-width="0.2" stroke-miterlimit="10" width="53.924" height="76.535"/>
	
		<rect x="188.255" y="174.734" fill="#939698" stroke="#000000" stroke-width="0.2" stroke-miterlimit="10" width="28.347" height="11.339"/>
	
		<rect x="293.096" y="171.935" fill="#6B6E6F" stroke="#000000" stroke-width="0.2" stroke-miterlimit="10" width="28.347" height="17.008"/>
	
		<rect x="276.173" y="123.639" fill="#6B6E6F" stroke="#000000" stroke-width="0.2" stroke-miterlimit="10" width="8.504" height="28.346"/>
	<text transform="matrix(1 0 0 1 93.502 82.3076)" fill="#FFFFFF" font-family="'DINPro-Bold'" font-size="2">150</text>
	<text transform="matrix(1 0 0 1 282.0264 151.2695)" fill="#FFFFFF" font-family="'DINPro-Bold'" font-size="2">30</text>
	<text transform="matrix(1 0 0 1 319.2944 116.7256)" fill="#FFFFFF" font-family="'DINPro-Bold'" font-size="2">513</text>
	<text transform="matrix(1 0 0 1 319.271 188.3574)" fill="#FFFFFF" font-family="'DINPro-Bold'" font-size="2">60</text>
	<text transform="matrix(1 0 0 1 299.9712 177.1563)"><tspan x="0" y="0" fill="#FFFFFF" font-family="'ArialNarrow-Bold'" font-size="2.5">Рубин ЦКБМТ </tspan><tspan x="4.452" y="3" fill="#FFFFFF" font-family="'ArialNarrow-Bold'" font-size="2.5">(ОСК)</tspan><tspan x="-5.961" y="5.4" fill="#DADADA" font-family="'ArialNarrow-Bold'" font-size="2">Central Design Bureau for Marine </tspan><tspan x="-0.998" y="7.8" fill="#DADADA" font-family="'ArialNarrow-Bold'" font-size="2">Engineering  &quot;Rubin&quot;</tspan></text>
	<text transform="matrix(1 0 0 1 276.8804 137.2471)"><tspan x="0" y="0" fill="#FFFFFF" font-family="'ArialNarrow-Bold'" font-size="1.4515">ЭлектроЭир</tspan><tspan x="1.405" y="1.394" fill="#DADADA" font-family="'ArialNarrow-Bold'" font-size="1.1612">Electroair</tspan></text>
	
		<rect x="332.72" y="41.424" fill="#6B6E6F" stroke="#000000" stroke-width="0.2" stroke-miterlimit="10" width="102.047" height="42.52"/>
	<text transform="matrix(1 0 0 1 430.7485 82.8379)" fill="#FFFFFF" font-family="'DINPro-Bold'" font-size="2">540</text>
	<text transform="matrix(1 0 0 1 373.1377 62.2813)"><tspan x="0" y="0" fill="#FFFFFF" font-family="'ArialNarrow-Bold'" font-size="4">Алмаз-Антей</tspan><tspan x="1.726" y="3.6" fill="#DADADA" font-family="'ArialNarrow-Bold'" font-size="3">ALMAZ-ANTEY</tspan></text>
	
		<rect x="332.72" y="98.204" fill="#6B6E6F" stroke="#000000" stroke-width="0.2" stroke-miterlimit="10" width="102.047" height="42.52"/>
	<text transform="matrix(1 0 0 1 430.7485 139.6182)" fill="#FFFFFF" font-family="'DINPro-Bold'" font-size="2">540</text>
	<text transform="matrix(1 0 0 1 373.1377 119.0615)"><tspan x="0" y="0" fill="#FFFFFF" font-family="'ArialNarrow-Bold'" font-size="4">Алмаз-Антей</tspan><tspan x="1.726" y="3.6" fill="#DADADA" font-family="'ArialNarrow-Bold'" font-size="3">ALMAZ-ANTEY</tspan></text>
	
		<rect x="332.72" y="154.893" fill="#6B6E6F" stroke="#000000" stroke-width="0.2" stroke-miterlimit="10" width="102.047" height="19.843"/>
	<text transform="matrix(1 0 0 1 430.7485 173.6396)" fill="#FFFFFF" font-family="'DINPro-Bold'" font-size="2">252</text>
	<text transform="matrix(1 0 0 1 373.1377 164.083)"><tspan x="0" y="0" fill="#FFFFFF" font-family="'ArialNarrow-Bold'" font-size="4">Алмаз-Антей</tspan><tspan x="1.726" y="3.6" fill="#DADADA" font-family="'ArialNarrow-Bold'" font-size="3">ALMAZ-ANTEY</tspan></text>
	<text transform="matrix(1 0 0 1 77.7847 55.126)"><tspan x="0" y="0" fill="#FFFFFF" font-family="'ArialNarrow-Bold'" font-size="3">Концерн </tspan><tspan x="-7.407" y="3.6" fill="#FFFFFF" font-family="'ArialNarrow-Bold'" font-size="3">Моринформсистема-</tspan><tspan x="2.835" y="7.2" fill="#FFFFFF" font-family="'ArialNarrow-Bold'" font-size="3">Агат</tspan><tspan x="1.08" y="10.2" fill="#DADADA" font-family="'ArialNarrow-Bold'" font-size="2.5">Concern </tspan><tspan x="-5.696" y="13.2" fill="#DADADA" font-family="'ArialNarrow-Bold'" font-size="2.5">Morinformsystem-Agat</tspan></text>
	<text transform="matrix(1 0 0 1 294.0513 79.6914)"><tspan x="0" y="0" fill="#FFFFFF" font-family="'ArialNarrow-Bold'" font-size="4">КРЭТ</tspan><tspan x="0.917" y="3.6" fill="#DADADA" font-family="'ArialNarrow-Bold'" font-size="3">KRET</tspan></text>
	
		<rect x="151.459" y="41.424" fill="#6B6E6F" stroke="#000000" stroke-width="0.2" stroke-miterlimit="10" width="110.551" height="107.717"/>
	
		<rect x="106.294" y="41.424" fill="#939698" stroke="#000000" stroke-width="0.2" stroke-miterlimit="10" width="45.354" height="107.717"/>
	<text transform="matrix(1 0 0 1 190.8047 95.168)"><tspan x="0" y="0" fill="#FFFFFF" font-family="'ArialNarrow-Bold'" font-size="4">Вертолеты России</tspan><tspan x="3.691" y="3.6" fill="#DADADA" font-family="'ArialNarrow-Bold'" font-size="3">Russian Helicopters</tspan></text>
	<text transform="matrix(1 0 0 1 114.373 95.168)"><tspan x="0" y="0" fill="#FFFFFF" font-family="'ArialNarrow-Bold'" font-size="4">Вертолеты России</tspan><tspan x="3.691" y="3.6" fill="#DADADA" font-family="'ArialNarrow-Bold'" font-size="3">Russian Helicopters</tspan></text>
	<text transform="matrix(1 0 0 1 255.7695 147.7168)" fill="#FFFFFF" font-family="'DINPro-Bold'" font-size="2">1470</text>
	<text transform="matrix(1 0 0 1 147.231 147.7168)" fill="#FFFFFF" font-family="'DINPro-Bold'" font-size="2">620</text>
	
		<rect x="256.331" y="174.735" fill="#6B6E6F" stroke="#000000" stroke-width="0.2" stroke-miterlimit="10" width="28.347" height="8.504"/>
	<text transform="matrix(1 0 0 1 268.3394 176.5771)"><tspan x="0" y="0" fill="#FFFFFF" font-family="'ArialNarrow-Bold'" font-size="1.5">Концерн </tspan><tspan x="-2.484" y="1.8" fill="#FFFFFF" font-family="'ArialNarrow-Bold'" font-size="1.5">Гранит-Электрон</tspan><tspan x="0.095" y="3.6" fill="#DADADA" font-family="'ArialNarrow-Bold'" font-size="1.5">Concern </tspan><tspan x="-1.716" y="5.4" fill="#DADADA" font-family="'ArialNarrow-Bold'" font-size="1.5">Granit-Electron</tspan></text>
	<text transform="matrix(1 0 0 1 282.0264 182.6426)" fill="#FFFFFF" font-family="'DINPro-Bold'" font-size="2">30</text>
	
		<rect x="225.207" y="174.735" fill="#6B6E6F" stroke="#000000" stroke-width="0.2" stroke-miterlimit="10" width="22.677" height="11.338"/>
	<text transform="matrix(1 0 0 1 227.5151 179.6895)"><tspan x="0" y="0" fill="#FFFFFF" font-family="'ArialNarrow-Bold'" font-size="1.6534">Завод слоистых пластиков</tspan><tspan x="2.331" y="1.786" fill="#DADADA" font-family="'ArialNarrow-Bold'" font-size="1.488">Laminatedplastics plant</tspan></text>
	<text transform="matrix(1 0 0 1 199.8916 180.1904)"><tspan x="0" y="0" fill="#FFFFFF" font-family="'ArialNarrow-Bold'" font-size="2.2364">ГКМП</tspan><tspan x="0.062" y="2.415" fill="#DADADA" font-family="'ArialNarrow-Bold'" font-size="2.0128">GKMP</tspan></text>
	<text transform="matrix(1 0 0 1 245.2139 185.2051)" fill="#FFFFFF" font-family="'DINPro-Bold'" font-size="2">32</text>
	<text transform="matrix(1 0 0 1 213.3921 185.2051)" fill="#FFFFFF" font-family="'DINPro-Bold'" font-size="2">40</text>
	<g>
		<g>
			<g>
				<polyline fill="none" stroke="#000000" stroke-width="0.5" stroke-miterlimit="10" points="365.728,21.494 365.728,22.994 
					364.228,22.994 				"/>
				
					<line fill="none" stroke="#000000" stroke-width="0.5" stroke-miterlimit="10" stroke-dasharray="3.7246,3.7246" x1="360.503" y1="22.994" x2="354.917" y2="22.994"/>
				<polyline fill="none" stroke="#000000" stroke-width="0.5" stroke-miterlimit="10" points="353.054,22.994 351.554,22.994 
					351.554,21.494 				"/>
				
					<line fill="none" stroke="#000000" stroke-width="0.5" stroke-miterlimit="10" stroke-dasharray="1.8346,1.8346" x1="351.554" y1="19.659" x2="351.554" y2="16.907"/>
				<polyline fill="none" stroke="#000000" stroke-width="0.5" stroke-miterlimit="10" points="351.554,15.99 351.554,14.49 
					353.054,14.49 				"/>
				
					<line fill="none" stroke="#000000" stroke-width="0.5" stroke-miterlimit="10" stroke-dasharray="3.7246,3.7246" x1="356.779" y1="14.49" x2="362.366" y2="14.49"/>
				<polyline fill="none" stroke="#000000" stroke-width="0.5" stroke-miterlimit="10" points="364.228,14.49 365.728,14.49 
					365.728,15.99 				"/>
				
					<line fill="none" stroke="#000000" stroke-width="0.5" stroke-miterlimit="10" stroke-dasharray="1.8346,1.8346" x1="365.728" y1="17.825" x2="365.728" y2="20.577"/>
			</g>
		</g>
		<text transform="matrix(1 0 0 1 353.8726 18.2422)"><tspan x="0" y="0" font-family="'ArialNarrow-Bold'" font-size="2">Место для</tspan><tspan x="0.834" y="2.4" font-family="'ArialNarrow-Bold'" font-size="2">курения </tspan></text>
	</g>
</g>
</svg>
