<?xml version="1.0" encoding="utf-8"?>
<!-- Generator: Adobe Illustrator 15.0.0, SVG Export Plug-In . SVG Version: 6.00 Build 0)  -->
<!DOCTYPE svg PUBLIC "-//W3C//DTD SVG 1.1//EN" "http://www.w3.org/Graphics/SVG/1.1/DTD/svg11.dtd">
<svg version="1.1" xmlns="http://www.w3.org/2000/svg" xmlns:xlink="http://www.w3.org/1999/xlink" x="0px" y="0px"
	 width="442.492px" height="203.183px" viewBox="0 0 442.492 203.183" enable-background="new 0 0 442.492 203.183"
	 xml:space="preserve">
<g id="Улица">
	<path fill="none" stroke="#12100B" stroke-width="0.5" stroke-miterlimit="10" d="M237.626,145.648
		c98.52-7.428,193.541-9.585,193.541-9.585V38.621H12.983v128.967C12.983,167.588,127.682,153.936,237.626,145.648z"/>
</g>
<g id="План">
	<rect x="28.526" y="0.217" opacity="0.1" fill="#95C11F" width="408.861" height="14.174"/>
</g>
<g id="Экспозиция">
	
		<rect x="95.565" y="123.807" fill="#6B6E6F" stroke="#000000" stroke-width="0.2" stroke-miterlimit="10" width="34.016" height="8.504"/>
	
		<rect x="163.177" y="41.645" fill="#6B6E6F" stroke="#000000" stroke-width="0.2" stroke-miterlimit="10" width="8.504" height="28.347"/>
	
		<rect x="256.805" y="61.292" fill="#6B6E6F" stroke="#000000" stroke-width="0.2" stroke-miterlimit="10" width="28.347" height="14.173"/>
	
		<rect x="293.685" y="61.293" fill="#6B6E6F" stroke="#000000" stroke-width="0.2" stroke-miterlimit="10" width="19.842" height="11.339"/>
	
		<rect x="372.879" y="41.435" fill="#6B6E6F" stroke="#000000" stroke-width="0.2" stroke-miterlimit="10" width="53.986" height="48.217"/>
	
		<rect x="290.85" y="41.507" fill="#6B6E6F" stroke="#000000" stroke-width="0.2" stroke-miterlimit="10" width="25.512" height="14.174"/>
	
		<rect x="256.805" y="41.781" fill="#6B6E6F" stroke="#000000" stroke-width="0.2" stroke-miterlimit="10" width="28.347" height="14.173"/>
	
		<rect x="146.169" y="41.645" fill="#6B6E6F" stroke="#000000" stroke-width="0.2" stroke-miterlimit="10" width="8.504" height="28.346"/>
	
		<rect x="321.996" y="41.507" fill="#6B6E6F" stroke="#000000" stroke-width="0.2" stroke-miterlimit="10" width="11.338" height="34.016"/>
	
		<rect x="15.786" y="83.828" fill="#6B6E6F" stroke="#000000" stroke-width="0.2" stroke-miterlimit="10" width="34.016" height="28.347"/>
	
		<rect x="98.275" y="83.963" fill="#6B6E6F" stroke="#000000" stroke-width="0.2" stroke-miterlimit="10" width="39.685" height="17.009"/>
	
		<rect x="338.939" y="41.781" fill="#6B6E6F" stroke="#000000" stroke-width="0.2" stroke-miterlimit="10" width="25.512" height="31.181"/>
	
		<rect x="412.692" y="98.207" fill="#6B6E6F" stroke="#000000" stroke-width="0.2" stroke-miterlimit="10" width="14.173" height="28.347"/>
	
		<rect x="15.921" y="41.436" fill="#6B6E6F" stroke="#000000" stroke-width="0.2" stroke-miterlimit="10" width="56.693" height="28.346"/>
	
		<rect x="15.786" y="123.646" fill="#6B6E6F" stroke="#000000" stroke-width="0.2" stroke-miterlimit="10" width="34.049" height="25.512"/>
	
		<rect x="55.521" y="123.646" fill="#939698" stroke="#000000" stroke-width="0.2" stroke-miterlimit="10" width="11.338" height="28.347"/>
	
		<rect x="75.372" y="123.646" fill="#939698" stroke="#000000" stroke-width="0.2" stroke-miterlimit="10" width="11.34" height="25.513"/>
	<text transform="matrix(1 0 0 1 68.375 69.3193)" fill="#FFFFFF" font-family="'DINPro-Bold'" font-size="2">200</text>
	<text transform="matrix(1 0 0 1 45.6743 148.3994)" fill="#FFFFFF" font-family="'DINPro-Bold'" font-size="2">108</text>
	
		<rect x="313.351" y="109.464" fill="#6B6E6F" stroke="#000000" stroke-width="0.2" stroke-miterlimit="10" width="59.528" height="19.843"/>
	
		<rect x="327.555" y="86.638" fill="#6B6E6F" stroke="#000000" stroke-width="0.2" stroke-miterlimit="10" width="28.347" height="17.008"/>
	<text transform="matrix(1 0 0 1 295.0503 139.752)" fill="#FFFFFF" font-family="'DINPro-Bold'" font-size="2">147</text>
	<text transform="matrix(1 0 0 1 352.793 102.7734)" fill="#FFFFFF" font-family="'DINPro-Bold'" font-size="2">60</text>
	
		<rect x="257.039" y="109.639" fill="#6B6E6F" stroke="#000000" stroke-width="0.2" stroke-miterlimit="10" width="28.347" height="14.173"/>
	<text transform="matrix(1 0 0 1 282.3369 122.8818)" fill="#FFFFFF" font-family="'DINPro-Bold'" font-size="2">50</text>
	<text transform="matrix(1 0 0 1 126.5146 131.7656)" fill="#FFFFFF" font-family="'DINPro-Bold'" font-size="2">36</text>
	<text transform="matrix(0.9771 0 0 1 168.8545 69.3193)" fill="#FFFFFF" font-family="'DINPro-Bold'" font-size="2.0469">30</text>
	<text transform="matrix(1 0 0 1 105.4639 127.707)"><tspan x="0" y="0" fill="#FFFFFF" font-family="'ArialNarrow-Bold'" font-size="3">Завод Старт</tspan><tspan x="1.976" y="3" fill="#DADADA" font-family="'ArialNarrow-Bold'" font-size="2.5">Zavod Start</tspan></text>
	<text transform="matrix(1 0 0 1 282.0425 54.624)" fill="#FFFFFF" font-family="'DINPro-Bold'" font-size="2">50</text>
	<text transform="matrix(1 0 0 1 152.3018 69.6309)" fill="#FFFFFF" font-family="'DINPro-Bold'" font-size="2">30</text>
	<text transform="matrix(1 0 0 1 313.8364 54.8916)" fill="#FFFFFF" font-family="'DINPro-Bold'" font-size="2">45</text>
	<text transform="matrix(1 0 0 1 330.917 74.6836)" fill="#FFFFFF" font-family="'DINPro-Bold'" font-size="2">48</text>
	<text transform="matrix(1 0 0 1 422.1738 88.4629)" fill="#FFFFFF" font-family="'DINPro-Bold'" font-size="2">323</text>
	<text transform="matrix(1 0 0 1 423.2598 125.1797)" fill="#FFFFFF" font-family="'DINPro-Bold'" font-size="2">50</text>
	
		<rect x="80.978" y="41.458" fill="#6B6E6F" stroke="#000000" stroke-width="0.2" stroke-miterlimit="10" width="36.851" height="28.347"/>
	
		<rect x="180.438" y="41.505" fill="#939698" stroke="#000000" stroke-width="0.2" stroke-miterlimit="10" width="68.031" height="73.701"/>
	<text transform="matrix(1 0 0 1 241.0234 114.1602)" fill="#FFFFFF" font-family="'DINPro-Bold'" font-size="2">624</text>
	<text transform="matrix(1 0 0 1 113.0981 69.2598)" fill="#FFFFFF" font-family="'DINPro-Bold'" font-size="2">140</text>
	<text transform="matrix(1 0 0 1 361.2241 72.2432)" fill="#FFFFFF" font-family="'DINPro-Bold'" font-size="2">99</text>
	<text transform="matrix(1 0 0 1 89.1611 54.624)"><tspan x="0" y="0" fill="#FFFFFF" font-family="'ArialNarrow-Bold'" font-size="3">Минотор Сервис</tspan><tspan x="1.014" y="3.6" fill="#DADADA" font-family="'ArialNarrow-Bold'" font-size="3">Minotor Service</tspan></text>
	<text transform="matrix(1 0 0 1 381.9336 61.8486)"><tspan x="0" y="0" fill="#FFFFFF" font-family="'ArialNarrow-Bold'" font-size="3.858">Военно-промышленная</tspan><tspan x="11.164" y="4.63" fill="#FFFFFF" font-family="'ArialNarrow-Bold'" font-size="3.858">компания</tspan><tspan x="-0.586" y="8.95" fill="#DADADA" font-family="'ArialNarrow-Bold'" font-size="3.6008">Military Industrial Company</tspan></text>
	<text transform="matrix(1 0 0 1 262.8418 114.0781)"><tspan x="0" y="0" fill="#FFFFFF" font-family="'ArialNarrow-Bold'" font-size="3.0992">НПП Солитон</tspan><tspan x="-1.245" y="2.789" fill="#DADADA" font-family="'ArialNarrow-Bold'" font-size="2.3244">Scientific Production </tspan><tspan x="-0.291" y="5.578" fill="#DADADA" font-family="'ArialNarrow-Bold'" font-size="2.3244">Company SOLITON</tspan></text>
	<text transform="matrix(1 0 0 1 336.8271 114.208)"><tspan x="0" y="0" fill="#FFFFFF" font-family="'ArialNarrow-Bold'" font-size="3">Корпорация</tspan><tspan x="-3.427" y="3.6" fill="#FFFFFF" font-family="'ArialNarrow-Bold'" font-size="3">«Проект-техника»</tspan><tspan x="-2.157" y="7.2" fill="#DADADA" font-family="'ArialNarrow-Bold'" font-size="3">Proekt-technika </tspan><tspan x="0.375" y="10.8" fill="#DADADA" font-family="'ArialNarrow-Bold'" font-size="3">Corporation</tspan></text>
	<text transform="matrix(1 0 0 1 335.7451 91.6396)"><tspan x="0" y="0" fill="#FFFFFF" font-family="'ArialNarrow-Bold'" font-size="2.4212">Корпорация</tspan><tspan x="-2.765" y="2.905" fill="#FFFFFF" font-family="'ArialNarrow-Bold'" font-size="2.4212">«Проект-техника»</tspan><tspan x="-1.741" y="5.811" fill="#DADADA" font-family="'ArialNarrow-Bold'" font-size="2.4212">Proekt-technika </tspan><tspan x="0.303" y="8.716" fill="#DADADA" font-family="'ArialNarrow-Bold'" font-size="2.4212">Corporation</tspan></text>
	<text transform="matrix(1 0 0 1 36.9058 51.4258)"><tspan x="0" y="0" fill="#FFFFFF" font-family="'ArialNarrow-Bold'" font-size="4">Концерн </tspan><tspan x="-10.805" y="4.8" fill="#FFFFFF" font-family="'ArialNarrow-Bold'" font-size="4">&quot;Тракторные заводы&quot;</tspan><tspan x="-12.329" y="9.6" fill="#DADADA" font-family="'ArialNarrow-Bold'" font-size="4">Concern &quot;Tractor Plants&quot;</tspan></text>
	<text transform="matrix(1 0 0 1 22.5967 135.4473)"><tspan x="0" y="0" fill="#FFFFFF" font-family="'ArialNarrow-Bold'" font-size="4">Спецтехмаш</tspan><tspan x="-1.908" y="4.8" fill="#DADADA" font-family="'ArialNarrow-Bold'" font-size="4">Spetstekhmash</tspan></text>
	<text transform="matrix(1 0 0 1 76.6934 135.1982)"><tspan x="0" y="0" fill="#FFFFFF" font-family="'ArialNarrow-Bold'" font-size="3.4656">СНВП</tspan><tspan x="0.233" y="4.158" fill="#DADADA" font-family="'ArialNarrow-Bold'" font-size="3.4656">SNVP</tspan></text>
	<text transform="matrix(1 0 0 1 57.0078 138.5107)" fill="#FFFFFF" font-family="'ArialNarrow-Bold'" font-size="2.3841">BrahMos</text>
	
		<rect x="146.169" y="83.828" fill="#6B6E6F" stroke="#000000" stroke-width="0.2" stroke-miterlimit="10" width="17.008" height="14.173"/>
	<text transform="matrix(1 0 0 1 160.1523 97.1855)" fill="#FFFFFF" font-family="'DINPro-Bold'" font-size="2">30</text>
	<text transform="matrix(1 0 0 1 282.0425 74.2031)" fill="#FFFFFF" font-family="'DINPro-Bold'" font-size="2">50</text>
	<text transform="matrix(1 0 0 1 310.8374 74.7178)" fill="#FFFFFF" font-family="'DINPro-Bold'" font-size="2">40</text>
	<text transform="matrix(1 0 0 1 310.8374 71.9678)" fill="#FFFFFF" font-family="'DINPro-Bold'" font-size="2">28</text>
	<text transform="matrix(1 0 0 1 148.6855 90.1338)"><tspan x="0" y="0" fill="#FFFFFF" font-family="'ArialNarrow-Bold'" font-size="2">Завод Сантэкс</tspan><tspan x="-0.393" y="2.4" fill="#DADADA" font-family="'ArialNarrow-Bold'" font-size="2">Plant of Santeks</tspan></text>
	<text transform="matrix(1 0 0 1 165.4595 55.5967)"><tspan x="0" y="0" fill="#FFFFFF" font-family="'ArialNarrow-Bold'" font-size="2">ГЦСС</tspan><tspan x="-0.091" y="2.4" fill="#DADADA" font-family="'ArialNarrow-Bold'" font-size="2">cccb</tspan></text>
	<text transform="matrix(1 0 0 1 115.5903 91.0605)"><tspan x="0" y="0" fill="#FFFFFF" font-family="'ArialNarrow-Bold'" font-size="3">ПТС</tspan><tspan x="0.135" y="3.6" fill="#DADADA" font-family="'ArialNarrow-Bold'" font-size="3">PTS</tspan></text>
	<text transform="matrix(1 0 0 1 134.8931 100.2285)" fill="#FFFFFF" font-family="'DINPro-Bold'" font-size="2">84</text>
	<text transform="matrix(1 0 0 1 45.8091 111.5986)" fill="#FFFFFF" font-family="'DINPro-Bold'" font-size="2">120</text>
	<text transform="matrix(1 0 0 1 64.2676 151.2695)" fill="#FFFFFF" font-family="'DINPro-Bold'" font-size="2">40</text>
	<text transform="matrix(1 0 0 1 84.2124 148.582)" fill="#FFFFFF" font-family="'DINPro-Bold'" font-size="2">36</text>
	<text transform="matrix(1 0 0 1 22.085 97.6758)"><tspan x="0" y="0" fill="#FFFFFF" font-family="'ArialNarrow-Bold'" font-size="2.6537">Электроавтоматика</tspan><tspan x="2.991" y="2.622" fill="#DADADA" font-family="'ArialNarrow-Bold'" font-size="2.1854">Elektroavtomatika</tspan></text>
	<text transform="matrix(1 0 0 1 295.4297 46.5186)"><tspan x="0" y="0" fill="#FFFFFF" font-family="'ArialNarrow-Bold'" font-size="3.0992">Концерн Вега</tspan><tspan x="-0.12" y="2.789" fill="#DADADA" font-family="'ArialNarrow-Bold'" font-size="2.3244">Radio Engineering </tspan><tspan x="-0.335" y="5.578" fill="#DADADA" font-family="'ArialNarrow-Bold'" font-size="2.3244">Corporation &quot;Vega&quot;</tspan></text>
	<text transform="matrix(1 0 0 1 264.0547 49.1191)"><tspan x="0" y="0" fill="#FFFFFF" font-family="'ArialNarrow-Bold'" font-size="3.0992">ЦНИИ ЭИСУ</tspan><tspan x="3.157" y="2.789" fill="#DADADA" font-family="'ArialNarrow-Bold'" font-size="2.3244">cnii eisu</tspan></text>
	<text transform="matrix(0 -1 1 0 149.2285 61.7041)"><tspan x="0" y="0" fill="#FFFFFF" font-family="'ArialNarrow-Bold'" font-size="2.0013">Мытищинский</tspan><tspan x="-6.426" y="2.401" fill="#FFFFFF" font-family="'ArialNarrow-Bold'" font-size="2.0013">Приборостроительный Завод</tspan><tspan x="4.588" y="4.203" fill="#DADADA" font-family="'ArialNarrow-Bold'" font-size="1.5009">MPZ</tspan></text>
	<text transform="matrix(1 0 0 1 346.7549 55.1152)"><tspan x="0" y="0" fill="#FFFFFF" font-family="'ArialNarrow-Bold'" font-size="2.03">Подольский</tspan><tspan x="-6.729" y="2.436" fill="#FFFFFF" font-family="'ArialNarrow-Bold'" font-size="2.03">электромеханический завод</tspan><tspan x="-4.415" y="4.263" fill="#DADADA" font-family="'ArialNarrow-Bold'" font-size="1.5225">Podolskiy electrical and </tspan><tspan x="-5.731" y="6.09" fill="#DADADA" font-family="'ArialNarrow-Bold'" font-size="1.5225">mechanical plant for special</tspan><tspan x="-3.652" y="7.917" fill="#DADADA" font-family="'ArialNarrow-Bold'" font-size="1.5225">mechanical engineering</tspan></text>
	<text transform="matrix(1 0 0 1 324.9136 55.6201)"><tspan x="0" y="0" fill="#FFFFFF" font-family="'ArialNarrow-Bold'" font-size="3.0992">НПП</tspan><tspan x="-1.137" y="3.719" fill="#FFFFFF" font-family="'ArialNarrow-Bold'" font-size="3.0992">Рубин</tspan><tspan x="0.052" y="6.508" fill="#DADADA" font-family="'ArialNarrow-Bold'" font-size="2.3244">Rubin</tspan></text>
	<text transform="matrix(1 0 0 1 415.7197 108.6182)"><tspan x="0" y="0" fill="#FFFFFF" font-family="'ArialNarrow-Bold'" font-size="3.0992">Аргус-</tspan><tspan x="-0.366" y="3.719" fill="#FFFFFF" font-family="'ArialNarrow-Bold'" font-size="3.0992">Спектр</tspan><tspan x="-1.977" y="6.508" fill="#DADADA" font-family="'ArialNarrow-Bold'" font-size="2.3244">Argus-Spectr</tspan></text>
	<text transform="matrix(1 0 0 1 264.916 68.3789)"><tspan x="0" y="0" fill="#FFFFFF" font-family="'ArialNarrow-Bold'" font-size="2.4281">ГрандМоторс</tspan><tspan x="2.002" y="2.186" fill="#DADADA" font-family="'ArialNarrow-Bold'" font-size="1.8211">GrandMotors</tspan></text>
	<text transform="matrix(1 0 0 1 208.0449 74.6836)"><tspan x="0" y="0" fill="#FFFFFF" font-family="'ArialNarrow-Bold'" font-size="5.6732">КАМАЗ</tspan><tspan x="-0.223" y="6.808" fill="#DADADA" font-family="'ArialNarrow-Bold'" font-size="5.6732">KAMAZ</tspan></text>
	
		<rect x="58.199" y="83.502" fill="#6B6E6F" stroke="#000000" stroke-width="0.2" stroke-miterlimit="10" width="31.181" height="28.347"/>
	<text transform="matrix(1 0 0 1 85.6265 111.0166)" fill="#FFFFFF" font-family="'DINPro-Bold'" font-size="2">110</text>
	<text transform="matrix(1 0 0 1 69.9336 97.6924)"><tspan x="0" y="0" fill="#FFFFFF" font-family="'ArialNarrow-Bold'" font-size="2">Чайка-НН</tspan><tspan x="-2.024" y="2.4" fill="#DADADA" font-family="'ArialNarrow-Bold'" font-size="2">Chaika-Service</tspan></text>
	
		<rect x="15.786" y="154.548" fill="#6B6E6F" stroke="#000000" stroke-width="0.2" stroke-miterlimit="10" width="14.173" height="5.67"/>
	<text transform="matrix(1 0 0 1 27.4268 159.5664)" fill="#FFFFFF" font-family="'DINPro-Bold'" font-size="2">10</text>
	<text transform="matrix(1 0 0 1 18.5269 156.0078)"><tspan x="0" y="0" fill="#FFFFFF" font-family="'ArialNarrow-Bold'" font-size="1.5">Современные</tspan><tspan x="-0.856" y="1.8" fill="#FFFFFF" font-family="'ArialNarrow-Bold'" font-size="1.5">технологические</tspan><tspan x="2.45" y="3.6" fill="#FFFFFF" font-family="'ArialNarrow-Bold'" font-size="1.5">линии</tspan></text>
	
		<rect x="390.17" y="126.325" fill="#6B6E6F" stroke="#000000" stroke-width="0.2" stroke-miterlimit="10" width="14.172" height="5.67"/>
	<text transform="matrix(1 0 0 1 401.9844 131.3438)" fill="#FFFFFF" font-family="'DINPro-Bold'" font-size="2">10</text>
	<text transform="matrix(1 0 0 1 393.084 127.7852)"><tspan x="0" y="0" fill="#FFFFFF" font-family="'ArialNarrow-Bold'" font-size="1.5">Современные</tspan><tspan x="-0.855" y="1.8" fill="#FFFFFF" font-family="'ArialNarrow-Bold'" font-size="1.5">технологические</tspan><tspan x="2.451" y="3.6" fill="#FFFFFF" font-family="'ArialNarrow-Bold'" font-size="1.5">линии</tspan></text>
	
		<rect x="256.554" y="81.191" fill="#939698" stroke="#000000" stroke-width="0.2" stroke-miterlimit="10" width="22.904" height="11.339"/>
	
		<rect x="381.479" y="109.464" fill="#939698" stroke="#000000" stroke-width="0.2" stroke-miterlimit="10" width="22.678" height="11.339"/>
	<text transform="matrix(1 0 0 1 276.3262 91.958)" fill="#FFFFFF" font-family="'DINPro-Bold'" font-size="2">32</text>
	<text transform="matrix(1 0 0 1 401.251 120.3203)" fill="#FFFFFF" font-family="'DINPro-Bold'" font-size="2">32</text>
	<text transform="matrix(1 0 0 1 263.7471 86.2314)"><tspan x="0" y="0" fill="#FFFFFF" font-family="'ArialNarrow-Bold'" font-size="2">НПК Энтек</tspan><tspan x="0.889" y="2.4" fill="#DADADA" font-family="'ArialNarrow-Bold'" font-size="2">ENTECH</tspan></text>
	<text transform="matrix(1 0 0 1 299.3408 66.4814)"><tspan x="0" y="0" fill="#FFFFFF" font-family="'ArialNarrow-Bold'" font-size="2">НПК БРИЗК</tspan><tspan x="0.19" y="2.4" fill="#DADADA" font-family="'ArialNarrow-Bold'" font-size="2">npk brizk</tspan></text>
	<text transform="matrix(1 0 0 1 389.6719 114.6338)"><tspan x="0" y="0" fill="#FFFFFF" font-family="'ArialNarrow-Bold'" font-size="2">Авторос</tspan><tspan x="0.358" y="2.4" fill="#DADADA" font-family="'ArialNarrow-Bold'" font-size="2">Avtoros</tspan></text>
	
		<rect x="123.539" y="41.645" fill="#6B6E6F" stroke="#000000" stroke-width="0.2" stroke-miterlimit="10" width="17.008" height="25.512"/>
	<text transform="matrix(1 0 0 1 125.0977 54.9082)"><tspan x="0" y="0" fill="#FFFFFF" font-family="'ArialNarrow-Bold'" font-size="1.5928">Белспецвнештехника</tspan><tspan x="-0.553" y="1.593" fill="#DADADA" font-family="'ArialNarrow-Bold'" font-size="1.3273">BELSPETSVNESHTECHNIKA</tspan></text>
	<text transform="matrix(1 0 0 1 137.4399 65.7549)" fill="#FFFFFF" font-family="'DINPro-Bold'" font-size="2">56</text>
	<g>
		<g>
			<g>
				<polyline fill="none" stroke="#000000" stroke-width="0.5" stroke-miterlimit="10" points="95.564,21.494 95.564,22.994 
					94.064,22.994 				"/>
				
					<line fill="none" stroke="#000000" stroke-width="0.5" stroke-miterlimit="10" stroke-dasharray="3.7246,3.7246" x1="90.34" y1="22.994" x2="84.753" y2="22.994"/>
				<polyline fill="none" stroke="#000000" stroke-width="0.5" stroke-miterlimit="10" points="82.891,22.994 81.391,22.994 
					81.391,21.494 				"/>
				
					<line fill="none" stroke="#000000" stroke-width="0.5" stroke-miterlimit="10" stroke-dasharray="1.8346,1.8346" x1="81.391" y1="19.659" x2="81.391" y2="16.907"/>
				<polyline fill="none" stroke="#000000" stroke-width="0.5" stroke-miterlimit="10" points="81.391,15.99 81.391,14.49 
					82.891,14.49 				"/>
				
					<line fill="none" stroke="#000000" stroke-width="0.5" stroke-miterlimit="10" stroke-dasharray="3.7246,3.7246" x1="86.615" y1="14.49" x2="92.202" y2="14.49"/>
				<polyline fill="none" stroke="#000000" stroke-width="0.5" stroke-miterlimit="10" points="94.064,14.49 95.564,14.49 
					95.564,15.99 				"/>
				
					<line fill="none" stroke="#000000" stroke-width="0.5" stroke-miterlimit="10" stroke-dasharray="1.8346,1.8346" x1="95.564" y1="17.825" x2="95.564" y2="20.577"/>
			</g>
		</g>
		<text transform="matrix(1 0 0 1 83.709 18.2422)"><tspan x="0" y="0" font-family="'ArialNarrow-Bold'" font-size="2">Место для</tspan><tspan x="0.834" y="2.4" font-family="'ArialNarrow-Bold'" font-size="2">курения </tspan></text>
	</g>
	<g>
		<g>
			<g>
				<polyline fill="none" stroke="#000000" stroke-width="0.5" stroke-miterlimit="10" points="383.477,21.494 383.477,22.994 
					381.977,22.994 				"/>
				
					<line fill="none" stroke="#000000" stroke-width="0.5" stroke-miterlimit="10" stroke-dasharray="3.7246,3.7246" x1="378.252" y1="22.994" x2="372.665" y2="22.994"/>
				<polyline fill="none" stroke="#000000" stroke-width="0.5" stroke-miterlimit="10" points="370.803,22.994 369.303,22.994 
					369.303,21.494 				"/>
				
					<line fill="none" stroke="#000000" stroke-width="0.5" stroke-miterlimit="10" stroke-dasharray="1.8346,1.8346" x1="369.303" y1="19.659" x2="369.303" y2="16.907"/>
				<polyline fill="none" stroke="#000000" stroke-width="0.5" stroke-miterlimit="10" points="369.303,15.99 369.303,14.49 
					370.803,14.49 				"/>
				
					<line fill="none" stroke="#000000" stroke-width="0.5" stroke-miterlimit="10" stroke-dasharray="3.7246,3.7246" x1="374.527" y1="14.49" x2="380.114" y2="14.49"/>
				<polyline fill="none" stroke="#000000" stroke-width="0.5" stroke-miterlimit="10" points="381.977,14.49 383.477,14.49 
					383.477,15.99 				"/>
				
					<line fill="none" stroke="#000000" stroke-width="0.5" stroke-miterlimit="10" stroke-dasharray="1.8346,1.8346" x1="383.477" y1="17.825" x2="383.477" y2="20.577"/>
			</g>
		</g>
		<text transform="matrix(1 0 0 1 371.6211 18.2422)"><tspan x="0" y="0" font-family="'ArialNarrow-Bold'" font-size="2">Место для</tspan><tspan x="0.834" y="2.4" font-family="'ArialNarrow-Bold'" font-size="2">курения </tspan></text>
	</g>
</g>
</svg>
