<?xml version="1.0" encoding="utf-8"?>
<!-- Generator: Adobe Illustrator 15.0.0, SVG Export Plug-In . SVG Version: 6.00 Build 0)  -->
<!DOCTYPE svg PUBLIC "-//W3C//DTD SVG 1.1//EN" "http://www.w3.org/Graphics/SVG/1.1/DTD/svg11.dtd">
<svg version="1.1" xmlns="http://www.w3.org/2000/svg" xmlns:xlink="http://www.w3.org/1999/xlink" x="0px" y="0px"
	 width="212.396px" height="255.118px" viewBox="0 0 212.396 255.118" enable-background="new 0 0 212.396 255.118"
	 xml:space="preserve">
<g id="План">
	<g>
		<line fill-rule="evenodd" clip-rule="evenodd" fill="#E4E3E3" x1="5.264" y1="5.603" x2="5.264" y2="41.792"/>
		<line fill-rule="evenodd" clip-rule="evenodd" fill="#E4E3E3" x1="206.66" y1="41.792" x2="206.66" y2="5.603"/>
		<rect x="5.552" y="39.555" fill-rule="evenodd" clip-rule="evenodd" fill="#E4E3E3" width="201.046" height="128.586"/>
		<rect x="5.314" y="119.522" fill-rule="evenodd" clip-rule="evenodd" fill="#FFEDCC" width="201.346" height="57.989"/>
		<rect x="70.261" y="168.141" fill-rule="evenodd" clip-rule="evenodd" fill="#FFEDCC" width="71.521" height="31.132"/>
		<rect x="5.314" y="110.297" fill-rule="evenodd" clip-rule="evenodd" fill="#FFEDCC" width="33.824" height="10.175"/>
		<rect x="31.535" y="61.102" fill-rule="evenodd" clip-rule="evenodd" fill="#FFEDCC" width="14.148" height="5.14"/>
		<rect x="39.23" y="72.808" fill-rule="evenodd" clip-rule="evenodd" fill="#FFEDCC" width="30.849" height="29.729"/>
		<rect x="161.791" y="72.808" fill-rule="evenodd" clip-rule="evenodd" fill="#FFEDCC" width="44.859" height="18.276"/>
		<rect x="172.87" y="110.297" fill-rule="evenodd" clip-rule="evenodd" fill="#FFEDCC" width="33.824" height="10.175"/>
		<rect x="1.354" y="4.899" fill="#575756" width="4.198" height="0.703"/>
		<rect x="-15.604" y="4.899" fill="#575756" width="12.125" height="0.703"/>
		<line fill="#575756" x1="5.264" y1="25.994" x2="5.264" y2="24.94"/>
		<rect x="2.543" y="41.44" fill="#575756" width="3.009" height="0.704"/>
		<line fill="#575756" x1="-0.136" y1="42.144" x2="-0.136" y2="41.44"/>
		<rect x="4.85" y="5.606" fill="#575756" width="0.702" height="111.509"/>
		<rect x="-13.874" y="5.606" fill="#575756" width="0.703" height="20.261"/>
		<rect x="-2.571" y="25.25" fill="#575756" width="0.707" height="16.596"/>
		<line fill="#5BC5F2" x1="3.819" y1="248.667" x2="3.819" y2="244.453"/>
		<g>
			<g>
				<path fill="#A50F14" d="M-1.15,4.901h0.248c0-1.367,1.078-2.487,2.431-2.551v2.551h0.246V2.099H1.649
					C0.104,2.099-1.15,3.356-1.15,4.901z"/>
			</g>
			<g>
				<path fill="#A50F14" d="M-3.828,4.899h0.247v-2.55C-2.23,2.413-1.15,3.533-1.15,4.899h0.248c0-1.544-1.26-2.801-2.805-2.801
					h-0.121V4.899z"/>
			</g>
		</g>
		<g>
			<g>
				<path fill="#A50F14" d="M-18.406,4.901h0.248c0-1.364,1.012-2.482,2.28-2.551v2.551h0.247V2.099h-0.126
					C-17.219,2.099-18.406,3.356-18.406,4.901z"/>
			</g>
			<g>
				<path fill="#A50F14" d="M-18.406,4.899h0.248"/>
			</g>
		</g>
		<g>
			<path fill="#A50F14" d="M-0.136,42.082h0.255c0,1.364,1.06,2.482,2.389,2.551v-2.551h0.255v2.802H2.635
				C1.106,44.883-0.136,43.626-0.136,42.082z"/>
		</g>
		<g>
			<rect x="-14.781" y="174.812" fill="#575756" width="3.119" height="3.686"/>
		</g>
		<g>
			<rect x="223.62" y="174.812" fill="#575756" width="3.119" height="3.686"/>
		</g>
		<g>
			<rect x="223.62" y="242.61" fill="#575756" width="3.119" height="3.686"/>
		</g>
		<g>
			<rect x="223.62" y="106.69" fill="#575756" width="3.119" height="3.686"/>
		</g>
		<g>
			<rect x="-14.781" y="242.758" fill="#575756" width="3.119" height="3.686"/>
		</g>
		<g>
			<rect x="-14.781" y="106.721" fill="#575756" width="3.119" height="3.686"/>
		</g>
		<g>
			<rect x="206.31" y="4.899" fill="#575756" width="7.472" height="0.703"/>
			<rect x="219.137" y="4.899" fill="#575756" width="11.9" height="0.703"/>
			<line fill="#575756" x1="206.598" y1="25.994" x2="206.598" y2="24.94"/>
			<rect x="206.31" y="41.44" fill="#575756" width="3.009" height="0.704"/>
			<line fill="#575756" x1="211.997" y1="42.144" x2="211.997" y2="41.44"/>
			<rect x="206.31" y="5.606" fill="#575756" width="0.701" height="111.214"/>
			<rect x="224.289" y="5.606" fill="#575756" width="0.702" height="20.261"/>
			<rect x="213.333" y="25.25" fill="#575756" width="0.708" height="16.596"/>
			<line fill="#5BC5F2" x1="207.856" y1="248.667" x2="207.856" y2="244.453"/>
			<g>
				<g>
					<path fill="#A50F14" d="M216.583,4.901h-0.247c0-1.367-1.08-2.487-2.432-2.551v2.551h-0.247V2.099h0.126
						C215.329,2.099,216.583,3.356,216.583,4.901z"/>
				</g>
				<g>
					<path fill="#A50F14" d="M219.261,4.899h-0.247v-2.55c-1.351,0.064-2.431,1.184-2.431,2.55h-0.247
						c0-1.544,1.258-2.801,2.804-2.801h0.121V4.899z"/>
				</g>
			</g>
			<g>
				<g>
					<path fill="#A50F14" d="M231.013,2.35v2.551h-0.247V2.099h0.126"/>
				</g>
			</g>
			<g>
				<path fill="#A50F14" d="M211.997,42.082h-0.255c0,1.364-1.06,2.482-2.39,2.551v-2.551h-0.254v2.802h0.128
					C210.755,44.883,211.997,43.626,211.997,42.082z"/>
			</g>
		</g>
		<rect x="4.902" y="38.939" fill="#575756" width="28.582" height="1.055"/>
		<rect x="43.589" y="38.939" fill="#575756" width="8.051" height="1.055"/>
		<rect x="55.938" y="38.939" fill="#575756" width="2.391" height="1.055"/>
		<rect x="62.783" y="38.939" fill="#575756" width="3.052" height="1.055"/>
		<rect x="64.31" y="43.252" fill="#575756" width="1.525" height="1.054"/>
		<rect x="68.734" y="38.939" fill="#575756" width="7.594" height="1.055"/>
		<rect x="68.734" y="42.954" fill="#575756" width="2.831" height="1.054"/>
		<rect x="79.819" y="38.939" fill="#575756" width="7.593" height="1.055"/>
		<rect x="101.688" y="38.939" fill="#575756" width="6.326" height="1.055"/>
		<rect x="112.883" y="38.939" fill="#575756" width="34.592" height="1.055"/>
		<rect x="157.511" y="38.939" fill="#575756" width="19.824" height="1.055"/>
		<rect x="182.001" y="38.939" fill="#575756" width="16.104" height="1.055"/>
		<rect x="202.455" y="38.939" fill="#575756" width="4.442" height="1.055"/>
		<rect x="90.53" y="38.939" fill="#575756" width="8.188" height="1.055"/>
		<g>
			<rect x="5.201" y="60.742" fill="#575756" width="5.375" height="1.24"/>
		</g>
		<g>
			<polygon fill="#575756" points="28.602,62.101 13.254,62.101 13.254,60.861 27.362,60.861 27.362,59.968 44.768,59.968 
				44.768,59.076 61.154,59.076 61.154,60.316 46.008,60.316 46.008,61.208 28.602,61.208 			"/>
		</g>
		<g>
			<rect x="19.775" y="60.588" fill="#575756" width="1.24" height="49.24"/>
		</g>
		<g>
			<rect x="5.201" y="109.059" fill="#575756" width="7.758" height="1.239"/>
		</g>
		<g>
			<rect x="17.122" y="109.058" fill="#575756" width="14.877" height="1.24"/>
		</g>
		<g>
			<rect x="14.123" y="39.467" fill="#575756" width="1.238" height="16.808"/>
		</g>
		<g>
			<rect x="19.773" y="39.466" fill="#575756" width="1.239" height="8.032"/>
		</g>
		<g>
			<rect x="19.773" y="51.217" fill="#575756" width="1.239" height="5.207"/>
		</g>
		<g>
			<rect x="14.74" y="52.53" fill="#575756" width="5.804" height="1.24"/>
		</g>
		<g>
			<rect x="14.742" y="44.497" fill="#575756" width="5.651" height="1.24"/>
		</g>
		<g>
			<rect x="45.065" y="39.503" fill="#575756" width="1.239" height="16.623"/>
		</g>
		<g>
			<polygon fill="#575756" points="39.758,83.522 20.493,83.522 20.493,82.283 38.52,82.283 38.52,73.258 38.245,73.258 
				38.245,72.019 39.758,72.019 			"/>
		</g>
		<g>
			<polygon fill="#575756" points="28.154,76.953 26.914,76.953 26.914,71.868 35.272,71.868 35.272,73.108 28.154,73.108 			"/>
		</g>
		<g>
			<rect x="23.369" y="75.44" fill="#575756" width="4.049" height="1.24"/>
		</g>
		<g>
			<rect x="26.914" y="79.035" fill="#575756" width="1.24" height="3.939"/>
		</g>
		<g>
			<rect x="23.496" y="76.506" fill="#575756" width="1.239" height="6.468"/>
		</g>
		<g>
			<rect x="20.396" y="90.313" fill="#575756" width="12.197" height="1.24"/>
		</g>
		<g>
			<rect x="35.272" y="90.315" fill="#575756" width="3.866" height="1.24"/>
		</g>
		<g>
			<polygon fill="#575756" points="50.148,119.67 38.52,119.67 38.52,82.903 39.758,82.903 39.758,118.43 50.148,118.43 			"/>
		</g>
		<g>
			<rect x="36.162" y="109.058" fill="#575756" width="2.977" height="1.24"/>
		</g>
		<g>
			<polygon fill="#575756" points="70.698,102.86 39.224,102.86 39.224,101.62 69.459,101.62 69.459,97.182 70.698,97.182 			"/>
		</g>
		<g>
			<polygon fill="#575756" points="72.161,104.646 69.459,104.646 69.459,102.538 70.698,102.538 70.698,103.407 72.161,103.407 			
				"/>
		</g>
		<g>
			<rect x="75.139" y="103.407" fill="#575756" width="12.494" height="1.239"/>
		</g>
		<g>
			<polygon fill="#575756" points="94.201,119.522 84.485,119.522 84.485,104.027 85.725,104.027 85.725,118.283 92.961,118.283 
				92.961,104.646 90.311,104.646 90.311,103.407 94.201,103.407 			"/>
		</g>
		<g>
			<rect x="84.064" y="118.283" fill="#575756" width="1.783" height="1.239"/>
		</g>
		<g>
			<polygon fill="#575756" points="57.758,94.356 56.518,94.356 56.518,88.431 39.224,88.431 39.224,87.191 57.758,87.191 			"/>
		</g>
		<g>
			<rect x="56.518" y="97.182" fill="#575756" width="1.24" height="5.058"/>
		</g>
		<g>
			<polygon fill="#575756" points="57.758,78.737 56.518,78.737 56.518,73.258 39.139,73.258 39.139,72.019 57.758,72.019 			"/>
		</g>
		<g>
			<rect x="56.518" y="81.713" fill="#575756" width="1.24" height="6.098"/>
		</g>
		<g>
			<rect x="57.137" y="72.019" fill="#575756" width="17.406" height="1.24"/>
		</g>
		<g>
			<rect x="69.459" y="72.639" fill="#575756" width="1.239" height="4.612"/>
		</g>
		<g>
			<rect x="69.459" y="80.224" fill="#575756" width="1.239" height="5.653"/>
		</g>
		<g>
			<rect x="69.459" y="90.191" fill="#575756" width="1.239" height="4.018"/>
		</g>
		<g>
			<polygon fill="#575756" points="70.698,90.811 57.286,90.811 57.286,89.571 69.459,89.571 69.459,88.853 70.698,88.853 			"/>
		</g>
		<g>
			<rect x="57.288" y="83.77" fill="#575756" width="12.794" height="1.239"/>
		</g>
		<g>
			<rect x="30.684" y="60.588" fill="#575756" width="1.24" height="8.332"/>
		</g>
		<g>
			<rect x="31.303" y="65.622" fill="#575756" width="4.563" height="1.24"/>
		</g>
		<g>
			<rect x="37.751" y="65.622" fill="#575756" width="1.445" height="1.24"/>
		</g>
		<g>
			<polygon fill="#575756" points="65.195,66.862 41.519,66.862 41.519,65.622 63.955,65.622 63.955,56.721 65.195,56.721 			"/>
		</g>
		<g>
			<rect x="45.063" y="58.804" fill="#575756" width="1.24" height="7.384"/>
		</g>
		<g>
			<rect x="56.37" y="59.399" fill="#575756" width="1.239" height="2.976"/>
		</g>
		<g>
			<rect x="56.37" y="65.051" fill="#575756" width="1.239" height="1.191"/>
		</g>
		<g>
			<rect x="63.955" y="39.555" fill="#575756" width="1.24" height="14.19"/>
		</g>
		<g>
			<rect x="71.096" y="39.192" fill="#575756" width="1.24" height="16.042"/>
		</g>
		<g>
			<rect x="71.246" y="58.208" fill="#575756" width="1.24" height="8.927"/>
		</g>
		<g>
			<rect x="70.945" y="70.108" fill="#575756" width="1.24" height="2.085"/>
		</g>
		<g>
			<polygon fill="#575756" points="107.891,66.712 71.865,66.712 71.865,65.473 106.651,65.473 106.651,39.467 107.891,39.467 			
				"/>
		</g>
		<g>
			<rect x="71.716" y="53.424" fill="#575756" width="35.853" height="1.24"/>
		</g>
		<g>
			<polygon fill="#575756" points="98.518,62.226 97.278,62.226 97.278,54.664 96.234,54.664 96.234,39.316 97.475,39.316 
				97.475,53.424 98.518,53.424 			"/>
		</g>
		<g>
			<rect x="82.996" y="39.467" fill="#575756" width="1.239" height="14.577"/>
		</g>
		<g>
			<rect x="114.239" y="39.467" fill="#575756" width="1.239" height="13.981"/>
		</g>
		<g>
			<polygon fill="#575756" points="131.965,66.266 114.387,66.266 114.387,56.424 115.626,56.424 115.626,65.026 131.965,65.026 			
				"/>
		</g>
		<g>
			<polygon fill="#575756" points="135.857,66.266 134.345,66.266 134.345,65.026 134.618,65.026 134.618,60.886 135.857,60.886 			
				"/>
		</g>
		<g>
			<rect x="115.006" y="57.143" fill="#575756" width="7.141" height="1.24"/>
		</g>
		<g>
			<rect x="125.866" y="61.011" fill="#575756" width="9.37" height="1.24"/>
		</g>
		<g>
			<rect x="125.394" y="39.466" fill="#575756" width="1.239" height="25.882"/>
		</g>
		<g>
			<rect x="126.014" y="53.126" fill="#575756" width="10.413" height="1.24"/>
		</g>
		<g>
			<rect x="139.701" y="53.126" fill="#575756" width="2.229" height="1.24"/>
		</g>
		<g>
			<rect x="134.618" y="53.746" fill="#575756" width="1.239" height="5.058"/>
		</g>
		<g>
			<rect x="141.013" y="39.347" fill="#575756" width="1.239" height="27.192"/>
		</g>
		<g>
			<rect x="141.632" y="65.026" fill="#575756" width="47.456" height="1.24"/>
		</g>
		<g>
			<rect x="162.285" y="39.467" fill="#575756" width="1.239" height="9.519"/>
		</g>
		<g>
			<rect x="165.881" y="48.068" fill="#575756" width="11.604" height="1.24"/>
		</g>
		<g>
			<rect x="181.947" y="48.068" fill="#575756" width="6.843" height="1.24"/>
		</g>
		<g>
			<rect x="188.022" y="39.316" fill="#575756" width="1.239" height="1.785"/>
		</g>
		<g>
			<rect x="187.872" y="45.415" fill="#575756" width="1.239" height="3.869"/>
		</g>
		<g>
			<polygon fill="#575756" points="200.689,62.25 188.022,62.25 188.022,53.448 189.262,53.448 189.262,61.011 200.689,61.011 			
				"/>
		</g>
		<g>
			<rect x="196.203" y="39.467" fill="#575756" width="1.24" height="22.015"/>
		</g>
		<g>
			<rect x="188.79" y="54.613" fill="#575756" width="7.886" height="1.24"/>
		</g>
		<g>
			<rect x="188.79" y="46.582" fill="#575756" width="7.735" height="1.24"/>
		</g>
		<g>
			<rect x="205.005" y="61.011" fill="#575756" width="1.637" height="1.24"/>
		</g>
		<g>
			<polygon fill="#575756" points="155.196,65.348 153.956,65.348 153.956,57.588 158.74,57.588 158.74,58.828 155.196,58.828 			
				"/>
		</g>
		<g>
			<polygon fill="#575756" points="163.822,65.497 162.583,65.497 162.583,58.828 161.418,58.828 161.418,57.588 163.822,57.588 			
				"/>
		</g>
		<g>
			<rect x="77.517" y="72.167" fill="#575756" width="30.35" height="1.239"/>
		</g>
		<g>
			<rect x="104.271" y="73.083" fill="#575756" width="1.24" height="7.438"/>
		</g>
		<g>
			<rect x="104.271" y="85.877" fill="#575756" width="1.24" height="9.61"/>
		</g>
		<g>
			<polygon fill="#575756" points="107.271,95.721 77.79,95.721 77.79,73.083 79.029,73.083 79.029,94.481 107.271,94.481 			"/>
		</g>
		<g>
			<rect x="87.311" y="77.696" fill="#575756" width="1.24" height="17.405"/>
		</g>
		<g>
			<rect x="87.931" y="86.447" fill="#575756" width="5.65" height="1.24"/>
		</g>
		<g>
			<rect x="92.961" y="84.688" fill="#575756" width="1.24" height="10.56"/>
		</g>
		<g>
			<rect x="87.931" y="78.042" fill="#575756" width="5.65" height="1.24"/>
		</g>
		<g>
			<rect x="92.964" y="77.546" fill="#575756" width="1.239" height="3.571"/>
		</g>
		<g>
			<rect x="112.924" y="72.019" fill="#575756" width="19.935" height="1.24"/>
		</g>
		<g>
			<rect x="135.533" y="71.868" fill="#575756" width="9.225" height="1.24"/>
		</g>
		<g>
			<rect x="147.436" y="71.868" fill="#575756" width="2.974" height="1.24"/>
		</g>
		<g>
			<rect x="153.534" y="72.018" fill="#575756" width="5.206" height="1.24"/>
		</g>
		<g>
			<rect x="161.418" y="71.868" fill="#575756" width="7.14" height="1.24"/>
		</g>
		<g>
			<rect x="171.534" y="71.868" fill="#575756" width="4.76" height="1.24"/>
		</g>
		<g>
			<rect x="178.674" y="71.868" fill="#575756" width="8.034" height="1.24"/>
		</g>
		<g>
			<rect x="189.088" y="71.868" fill="#575756" width="3.866" height="1.24"/>
		</g>
		<g>
			<rect x="195.633" y="71.868" fill="#575756" width="11.158" height="1.24"/>
		</g>
		<g>
			<polygon fill="#575756" points="206.642,91.555 161.394,91.555 161.394,72.695 162.634,72.695 162.634,90.315 206.642,90.315 			
				"/>
		</g>
		<g>
			<rect x="161.394" y="90.787" fill="#575756" width="1.24" height="2.529"/>
		</g>
		<g>
			<polygon fill="#575756" points="173.491,119.522 161.717,119.522 161.717,118.283 172.25,118.283 172.25,90.935 173.491,90.935 
							"/>
		</g>
		<g>
			<polygon fill="#575756" points="127.652,119.522 117.362,119.522 117.362,113.844 118.602,113.844 118.602,118.283 
				127.652,118.283 			"/>
		</g>
		<g>
			<rect x="117.212" y="98.969" fill="#575756" width="1.239" height="12.048"/>
		</g>
		<g>
			<rect x="117.685" y="103.407" fill="#575756" width="55.186" height="1.239"/>
		</g>
		<g>
			<rect x="127.773" y="72.488" fill="#575756" width="1.239" height="31.389"/>
		</g>
		<g>
			<polygon fill="#575756" points="128.394,90.662 117.212,90.662 117.212,72.488 118.451,72.488 118.451,89.422 128.394,89.422 			
				"/>
		</g>
		<g>
			<rect x="117.362" y="94.209" fill="#575756" width="1.239" height="2.38"/>
		</g>
		<g>
			<path fill="none" stroke="#575756" stroke-width="0.5" stroke-miterlimit="10" d="M117.982,91.531"/>
		</g>
		<g>
			<rect x="117.212" y="90.042" fill="#575756" width="1.239" height="1.489"/>
		</g>
		<g>
			<rect x="115.897" y="94.628" fill="#575756" width="12.346" height="1.24"/>
		</g>
		<g>
			<polygon fill="#575756" points="140.32,104.091 139.08,104.091 139.08,85.257 143.567,85.257 143.567,86.498 140.32,86.498 			
				"/>
		</g>
		<g>
			<polygon fill="#575756" points="150.436,92.598 139.701,92.598 139.701,91.358 149.196,91.358 149.196,86.199 145.947,86.199 
				145.947,84.96 150.436,84.96 			"/>
		</g>
		<g>
			<rect x="157.525" y="72.555" fill="#575756" width="1.239" height="24.034"/>
		</g>
		<g>
			<rect x="189.276" y="72.555" fill="#575756" width="0.702" height="11.24"/>
		</g>
		<g>
			<rect x="182.245" y="72.555" fill="#575756" width="0.703" height="18.53"/>
		</g>
		<g>
			<rect x="189.276" y="86.175" fill="#575756" width="0.702" height="5.175"/>
		</g>
		<g>
			<rect x="175.551" y="72.555" fill="#575756" width="0.702" height="11.24"/>
		</g>
		<g>
			<rect x="175.551" y="86.175" fill="#575756" width="0.702" height="5.175"/>
		</g>
		<g>
			<path fill="none" stroke="#575756" stroke-width="0.5" stroke-miterlimit="10" d="M158.033,92.05"/>
		</g>
		<g>
			<rect x="149.815" y="91.358" fill="#575756" width="8.329" height="1.24"/>
		</g>
		<g>
			<rect x="157.525" y="98.969" fill="#575756" width="1.239" height="5.122"/>
		</g>
		<g>
			<rect x="161.394" y="95.695" fill="#575756" width="1.24" height="3.273"/>
		</g>
		<g>
			<rect x="161.915" y="96.267" fill="#575756" width="11.105" height="1.24"/>
		</g>
		<g>
			<rect x="161.295" y="101.944" fill="#575756" width="1.239" height="2.083"/>
		</g>
		<g>
			<polygon fill="#575756" points="191.92,101.671 172.87,101.671 172.87,100.431 190.681,100.431 190.681,97.778 191.92,97.778 			
				"/>
		</g>
		<g>
			<rect x="190.681" y="91.084" fill="#575756" width="1.239" height="4.016"/>
		</g>
		<g>
			<rect x="190.681" y="101.051" fill="#575756" width="1.239" height="8.626"/>
		</g>
		<g>
			<rect x="173.021" y="109.059" fill="#575756" width="5.355" height="1.239"/>
		</g>
		<g>
			<rect x="181.352" y="109.058" fill="#575756" width="11.603" height="1.24"/>
		</g>
		<g>
			<rect x="197.416" y="109.058" fill="#575756" width="9.223" height="1.24"/>
		</g>
		<g>
			<polygon fill="#575756" points="11.171,178.131 3.709,178.131 3.709,168.289 4.949,168.289 4.949,176.891 11.171,176.891 			"/>
		</g>
		<g>
			<polygon fill="#575756" points="28.154,176.62 26.914,176.62 26.914,167.669 33.584,167.669 33.584,168.909 28.154,168.909 			
				"/>
		</g>
		<g>
			<rect x="39.139" y="167.669" fill="#575756" width="3.123" height="1.239"/>
		</g>
		<g>
			<rect x="47.47" y="167.669" fill="#575756" width="3.568" height="1.239"/>
		</g>
		<g>
			<rect x="56.097" y="167.669" fill="#575756" width="3.271" height="1.239"/>
		</g>
		<g>
			<rect x="69.188" y="167.669" fill="#575756" width="3.568" height="1.239"/>
		</g>
		<g>
			<rect x="76.922" y="167.669" fill="#575756" width="22.613" height="1.239"/>
		</g>
		<g>
			<rect x="69.459" y="168.436" fill="#575756" width="1.239" height="18.002"/>
		</g>
		<g>
			<polygon fill="#575756" points="86.741,200.445 69.164,200.445 69.164,190.901 70.403,190.901 70.403,199.206 86.741,199.206 			
				"/>
		</g>
		<g>
			<polygon fill="#575756" points="82.003,194.198 69.783,194.198 69.783,192.958 80.764,192.958 80.764,168.289 82.003,168.289 			
				"/>
		</g>
		<g>
			<rect x="72.732" y="193.445" fill="#575756" width="1.239" height="6.529"/>
		</g>
		<g>
			<rect x="80.767" y="193.281" fill="#575756" width="1.239" height="1.188"/>
		</g>
		<g>
			<rect x="80.767" y="197.742" fill="#575756" width="1.239" height="1.788"/>
		</g>
		<g>
			<rect x="112.328" y="167.521" fill="#575756" width="22.611" height="1.239"/>
		</g>
		<g>
			<rect x="129.708" y="168.141" fill="#575756" width="1.239" height="26.328"/>
		</g>
		<g>
			<polygon fill="#575756" points="142.402,186.438 141.163,186.438 141.163,168.611 139.104,168.611 139.104,167.371 
				142.402,167.371 			"/>
		</g>
		<g>
			<polygon fill="#575756" points="142.402,194.198 130.328,194.198 130.328,192.958 141.163,192.958 141.163,190.602 
				142.402,190.602 			"/>
		</g>
		<g>
			<polygon fill="#575756" points="142.553,200.149 129.708,200.149 129.708,197.742 130.947,197.742 130.947,198.909 
				141.313,198.909 141.313,193.875 142.553,193.875 			"/>
		</g>
		<g>
			<polygon fill="#575756" points="129.734,200.149 124.948,200.149 124.948,198.784 126.188,198.784 126.188,198.909 
				129.734,198.909 			"/>
		</g>
		<g>
			<rect x="141.782" y="167.371" fill="#575756" width="0.894" height="1.24"/>
		</g>
		<g>
			<rect x="152.494" y="167.521" fill="#575756" width="3.271" height="1.239"/>
		</g>
		<g>
			<rect x="160.823" y="167.669" fill="#575756" width="3.571" height="1.239"/>
		</g>
		<g>
			<rect x="169.452" y="167.669" fill="#575756" width="3.271" height="1.239"/>
		</g>
		<g>
			<polygon fill="#575756" points="184.947,177.364 183.707,177.364 183.707,168.909 177.78,168.909 177.78,167.669 
				184.947,167.669 			"/>
		</g>
		<g>
			<polygon fill="#575756" points="207.856,177.983 200.689,177.983 200.689,176.743 206.617,176.743 206.617,168.141 
				207.856,168.141 			"/>
		</g>
		<g>
			<rect x="3.709" y="177.511" fill="#575756" width="1.24" height="71.156"/>
		</g>
		<g>
			<rect x="206.617" y="176.62" fill="#575756" width="1.239" height="72.048"/>
		</g>
		<rect x="51.635" y="38.994" fill="#A50F14" width="4.303" height="0.945"/>
		<rect x="33.484" y="38.994" fill="#A50F14" width="2.678" height="0.945"/>
		<rect x="41.071" y="38.994" fill="#A50F14" width="2.677" height="0.945"/>
		<rect x="58.332" y="38.994" fill="#A50F14" width="4.456" height="0.945"/>
		<rect x="147.586" y="38.414" fill="#A50F14" width="9.925" height="2.105"/>
		<rect x="49.997" y="118.577" fill="#A50F14" width="34.067" height="0.945"/>
		<rect x="127.502" y="118.577" fill="#A50F14" width="34.289" height="0.945"/>
		<rect x="64.428" y="167.667" fill="#A50F14" width="4.761" height="0.944"/>
		<rect x="99.535" y="167.667" fill="#A50F14" width="4.314" height="0.944"/>
		<rect x="108.161" y="167.667" fill="#A50F14" width="4.315" height="0.944"/>
		<rect x="142.601" y="167.667" fill="#A50F14" width="4.835" height="0.944"/>
		<rect x="177.78" y="177.04" fill="#A50F14" width="22.909" height="0.943"/>
		<rect x="169.151" y="177.04" fill="#A50F14" width="3.869" height="0.943"/>
		<rect x="160.676" y="177.04" fill="#A50F14" width="3.868" height="0.943"/>
		<rect x="152.193" y="177.04" fill="#A50F14" width="3.869" height="0.943"/>
		<rect x="142.23" y="177.04" fill="#A50F14" width="5.205" height="0.943"/>
		<rect x="11.099" y="177.04" fill="#A50F14" width="22.91" height="0.943"/>
		<rect x="86.741" y="198.759" fill="#A50F14" width="12.048" height="0.944"/>
		<rect x="113.22" y="198.759" fill="#A50F14" width="12.048" height="0.944"/>
		<rect x="102.733" y="198.759" fill="#A50F14" width="6.024" height="0.944"/>
		<rect x="38.769" y="177.04" fill="#A50F14" width="3.868" height="0.943"/>
		<rect x="47.244" y="177.04" fill="#A50F14" width="3.869" height="0.943"/>
		<rect x="55.726" y="177.04" fill="#A50F14" width="3.87" height="0.943"/>
		<rect x="64.353" y="177.04" fill="#A50F14" width="5.205" height="0.943"/>
		<g>
			<g>
				<path fill="#A50F14" d="M38.718,39.229h0.246c0-1.367,1.08-2.486,2.432-2.55v2.55h0.246v-2.801h-0.126
					C39.972,36.428,38.718,37.685,38.718,39.229z"/>
			</g>
			<g>
				<path fill="#A50F14" d="M36.039,39.228h0.248v-2.55c1.351,0.064,2.431,1.184,2.431,2.55h0.246c0-1.544-1.259-2.801-2.804-2.801
					h-0.121V39.228z"/>
			</g>
		</g>
		<g>
			<g>
				<path fill="#A50F14" d="M20.012,58.59v-0.196c-1.08,0.001-1.967-0.854-2.02-1.926h2.02v-0.195h-2.218v0.1
					C17.794,57.598,18.789,58.59,20.012,58.59z"/>
			</g>
			<g>
				<path fill="#A50F14" d="M20.012,60.711v-0.195h-2.02c0.051-1.071,0.939-1.926,2.02-1.926v-0.195
					c-1.223,0-2.221,0.997-2.218,2.221v0.095H20.012z"/>
			</g>
		</g>
		<g>
			<g>
				<path fill="#A50F14" d="M110.42,39.156h0.248c0-1.367,1.08-2.486,2.431-2.551v2.551h0.247v-2.801h-0.126
					C111.675,36.354,110.42,37.611,110.42,39.156z"/>
			</g>
			<g>
				<path fill="#A50F14" d="M107.743,39.155h0.246v-2.551c1.352,0.064,2.431,1.184,2.431,2.551h0.248
					c0-1.545-1.26-2.802-2.805-2.802h-0.12V39.155z"/>
			</g>
		</g>
		<g>
			<g>
				<path fill="#A50F14" d="M179.759,39.155h0.213c0-1.19,0.942-2.166,2.118-2.222v2.222h0.213v-2.439h-0.108
					C180.851,36.715,179.759,37.81,179.759,39.155z"/>
			</g>
			<g>
				<path fill="#A50F14" d="M177.425,39.153h0.215v-2.222c1.177,0.056,2.119,1.032,2.119,2.222h0.213
					c0-1.345-1.097-2.439-2.44-2.439h-0.106V39.153z"/>
			</g>
		</g>
		<g>
			<g>
				<path fill="#A50F14" d="M200.286,39.155h0.213c0-1.19,0.941-2.166,2.118-2.222v2.222h0.213v-2.439h-0.108
					C201.378,36.715,200.286,37.81,200.286,39.155z"/>
			</g>
			<g>
				<path fill="#A50F14" d="M197.952,39.153h0.215v-2.222c1.177,0.056,2.119,1.032,2.119,2.222h0.213
					c0-1.345-1.097-2.439-2.44-2.439h-0.106V39.153z"/>
			</g>
		</g>
		<g>
			<g>
				<path fill="#A50F14" d="M202.727,60.917h0.213c0-1.19,0.942-2.166,2.118-2.221v2.221h0.213v-2.439h-0.108
					C203.818,58.478,202.727,59.572,202.727,60.917z"/>
			</g>
			<g>
				<path fill="#A50F14" d="M200.393,60.917h0.215v-2.222c1.177,0.056,2.119,1.031,2.119,2.222h0.213c0-1.345-1.097-2.44-2.44-2.44
					h-0.106V60.917z"/>
			</g>
		</g>
		<g>
			<g>
				<path fill="#A50F14" d="M195.228,109.796h-0.213c0,1.19-0.942,2.166-2.119,2.221v-2.221h-0.213v2.439h0.109
					C194.136,112.236,195.228,111.142,195.228,109.796z"/>
			</g>
			<g>
				<path fill="#A50F14" d="M197.562,109.798h-0.215v2.221c-1.177-0.056-2.119-1.031-2.119-2.221h-0.213
					c0,1.345,1.097,2.439,2.44,2.439h0.106V109.798z"/>
			</g>
		</g>
		<g>
			<g>
				<path fill="#A50F14" d="M36.567,168.259h-0.213c0,1.191-0.942,2.167-2.119,2.223v-2.223h-0.213v2.44h0.109
					C35.476,170.7,36.567,169.606,36.567,168.259z"/>
			</g>
			<g>
				<path fill="#A50F14" d="M38.901,168.262h-0.215v2.22c-1.177-0.053-2.119-1.031-2.119-2.22h-0.213
					c0,1.344,1.097,2.438,2.44,2.438h0.106V168.262z"/>
			</g>
		</g>
		<g>
			<g>
				<path fill="#A50F14" d="M45.104,168.259h-0.213c0,1.191-0.942,2.167-2.119,2.223v-2.223H42.56v2.44h0.109
					C44.012,170.7,45.104,169.606,45.104,168.259z"/>
			</g>
			<g>
				<path fill="#A50F14" d="M47.438,168.262h-0.216v2.22c-1.177-0.053-2.118-1.031-2.118-2.22h-0.213
					c0,1.344,1.097,2.438,2.44,2.438h0.106V168.262z"/>
			</g>
		</g>
		<g>
			<g>
				<path fill="#A50F14" d="M53.658,168.259h-0.213c0,1.191-0.941,2.167-2.119,2.223v-2.223h-0.213v2.44h0.109
					C52.566,170.7,53.658,169.606,53.658,168.259z"/>
			</g>
			<g>
				<path fill="#A50F14" d="M55.992,168.262h-0.216v2.22c-1.177-0.053-2.118-1.031-2.118-2.22h-0.213
					c0,1.344,1.097,2.438,2.44,2.438h0.106V168.262z"/>
			</g>
		</g>
		<g>
			<g>
				<path fill="#A50F14" d="M62.152,168.259h-0.213c0,1.191-0.942,2.167-2.119,2.223v-2.223h-0.213v2.44h0.109
					C61.061,170.7,62.152,169.606,62.152,168.259z"/>
			</g>
			<g>
				<path fill="#A50F14" d="M64.486,168.262h-0.216v2.22c-1.177-0.053-2.118-1.031-2.118-2.22h-0.213
					c0,1.344,1.097,2.438,2.44,2.438h0.106V168.262z"/>
			</g>
		</g>
		<g>
			<g>
				<path fill="#A50F14" d="M36.567,177.78h-0.213c0,1.191-0.942,2.167-2.119,2.223v-2.223h-0.213v2.44h0.109
					C35.476,180.22,36.567,179.125,36.567,177.78z"/>
			</g>
			<g>
				<path fill="#A50F14" d="M38.901,177.782h-0.215v2.221c-1.177-0.054-2.119-1.031-2.119-2.221h-0.213
					c0,1.344,1.097,2.438,2.44,2.438h0.106V177.782z"/>
			</g>
		</g>
		<g>
			<g>
				<path fill="#A50F14" d="M45.104,177.78h-0.213c0,1.191-0.942,2.167-2.119,2.223v-2.223H42.56v2.44h0.109
					C44.012,180.22,45.104,179.125,45.104,177.78z"/>
			</g>
			<g>
				<path fill="#A50F14" d="M47.438,177.782h-0.216v2.221c-1.177-0.054-2.118-1.031-2.118-2.221h-0.213
					c0,1.344,1.097,2.438,2.44,2.438h0.106V177.782z"/>
			</g>
		</g>
		<g>
			<g>
				<path fill="#A50F14" d="M53.658,177.78h-0.213c0,1.191-0.941,2.167-2.119,2.223v-2.223h-0.213v2.44h0.109
					C52.566,180.22,53.658,179.125,53.658,177.78z"/>
			</g>
			<g>
				<path fill="#A50F14" d="M55.992,177.782h-0.216v2.221c-1.177-0.054-2.118-1.031-2.118-2.221h-0.213
					c0,1.344,1.097,2.438,2.44,2.438h0.106V177.782z"/>
			</g>
		</g>
		<g>
			<g>
				<path fill="#A50F14" d="M62.152,177.78h-0.213c0,1.191-0.942,2.167-2.119,2.223v-2.223h-0.213v2.44h0.109
					C61.061,180.22,62.152,179.125,62.152,177.78z"/>
			</g>
			<g>
				<path fill="#A50F14" d="M64.486,177.782h-0.216v2.221c-1.177-0.054-2.118-1.031-2.118-2.221h-0.213
					c0,1.344,1.097,2.438,2.44,2.438h0.106V177.782z"/>
			</g>
		</g>
		<g>
			<g>
				<path fill="#A50F14" d="M149.922,168.259h-0.213c0,1.191-0.941,2.167-2.118,2.223v-2.223h-0.213v2.44h0.108
					C148.83,170.7,149.922,169.606,149.922,168.259z"/>
			</g>
			<g>
				<path fill="#A50F14" d="M152.256,168.262h-0.215v2.22c-1.177-0.053-2.119-1.031-2.119-2.22h-0.213
					c0,1.344,1.097,2.438,2.44,2.438h0.106V168.262z"/>
			</g>
		</g>
		<g>
			<g>
				<path fill="#A50F14" d="M136.918,167.8h0.213c0-1.191,0.942-2.168,2.119-2.223v2.223h0.213v-2.44h-0.109
					C138.01,165.36,136.918,166.454,136.918,167.8z"/>
			</g>
			<g>
				<path fill="#A50F14" d="M134.584,167.797h0.216v-2.22c1.177,0.053,2.118,1.031,2.118,2.22h0.213c0-1.344-1.097-2.438-2.44-2.438
					h-0.106V167.797z"/>
			</g>
		</g>
		<g>
			<g>
				<path fill="#A50F14" d="M105.825,167.8h0.214c0-1.191,0.94-2.168,2.117-2.223v2.223h0.214v-2.44h-0.108
					C106.917,165.36,105.825,166.454,105.825,167.8z"/>
			</g>
			<g>
				<path fill="#A50F14" d="M103.491,167.797h0.216v-2.22c1.177,0.053,2.118,1.031,2.118,2.22h0.214
					c0-1.344-1.098-2.438-2.441-2.438h-0.106V167.797z"/>
			</g>
		</g>
		<g>
			<g>
				<path fill="#A50F14" d="M74.584,167.8h0.214c0-1.191,0.942-2.168,2.118-2.223v2.223h0.214v-2.44h-0.109
					C75.676,165.36,74.584,166.454,74.584,167.8z"/>
			</g>
			<g>
				<path fill="#A50F14" d="M72.25,167.797h0.217v-2.22c1.177,0.053,2.117,1.031,2.117,2.22h0.214c0-1.344-1.097-2.438-2.44-2.438
					H72.25V167.797z"/>
			</g>
		</g>
		<g>
			<g>
				<path fill="#A50F14" d="M69.813,188.627v-0.214c-1.191,0-2.166-0.941-2.221-2.118h2.221v-0.214h-2.44l0.002,0.106
					C67.372,187.533,68.469,188.627,69.813,188.627z"/>
			</g>
			<g>
				<path fill="#A50F14" d="M69.813,190.958v-0.216H67.59c0.053-1.175,1.031-2.115,2.22-2.115v-0.214
					c-1.341,0-2.438,1.094-2.436,2.44v0.104H69.813z"/>
			</g>
		</g>
		<g>
			<g>
				<path fill="#A50F14" d="M142.049,188.414v0.214c1.191,0,2.167,0.94,2.221,2.117h-2.221v0.214h2.44l-0.002-0.106
					C144.489,189.507,143.393,188.414,142.049,188.414z"/>
			</g>
			<g>
				<path fill="#A50F14" d="M142.049,186.082v0.217h2.223c-0.054,1.174-1.031,2.115-2.221,2.115v0.214
					c1.342,0,2.438-1.095,2.437-2.441v-0.104H142.049z"/>
			</g>
		</g>
		<g>
			<g>
				<path fill="#A50F14" d="M110.884,198.963h0.213c0-1.192,0.941-2.167,2.118-2.221v2.221h0.213v-2.441l-0.106,0.002
					C111.978,196.522,110.884,197.619,110.884,198.963z"/>
			</g>
			<g>
				<path fill="#A50F14" d="M108.552,198.963h0.215v-2.223c1.175,0.053,2.117,1.03,2.117,2.219h0.213
					c0-1.341-1.095-2.438-2.44-2.436h-0.104V198.963z"/>
			</g>
		</g>
		<g>
			<g>
				<path fill="#A50F14" d="M100.617,198.963h0.213c0-1.192,0.942-2.167,2.119-2.221v2.221h0.213v-2.441l-0.106,0.002
					C101.712,196.522,100.617,197.619,100.617,198.963z"/>
			</g>
			<g>
				<path fill="#A50F14" d="M98.286,198.963h0.215v-2.223c1.175,0.053,2.116,1.03,2.116,2.219h0.213c0-1.341-1.095-2.438-2.44-2.436
					h-0.104V198.963z"/>
			</g>
		</g>
		<g>
			<g>
				<path fill="#A50F14" d="M158.46,168.259h-0.214c0,1.191-0.941,2.167-2.118,2.223v-2.223h-0.214v2.44h0.109
					C157.368,170.7,158.46,169.606,158.46,168.259z"/>
			</g>
			<g>
				<path fill="#A50F14" d="M160.794,168.262h-0.216v2.22c-1.178-0.053-2.118-1.031-2.118-2.22h-0.214
					c0,1.344,1.097,2.438,2.441,2.438h0.106V168.262z"/>
			</g>
		</g>
		<g>
			<g>
				<path fill="#A50F14" d="M167.014,168.259h-0.213c0,1.191-0.942,2.167-2.119,2.223v-2.223h-0.213v2.44h0.109
					C165.922,170.7,167.014,169.606,167.014,168.259z"/>
			</g>
			<g>
				<path fill="#A50F14" d="M169.348,168.262h-0.216v2.22c-1.177-0.053-2.118-1.031-2.118-2.22h-0.213
					c0,1.344,1.097,2.438,2.44,2.438h0.106V168.262z"/>
			</g>
		</g>
		<g>
			<g>
				<path fill="#A50F14" d="M175.507,168.259h-0.213c0,1.191-0.942,2.167-2.119,2.223v-2.223h-0.213v2.44h0.109
					C174.415,170.7,175.507,169.606,175.507,168.259z"/>
			</g>
			<g>
				<path fill="#A50F14" d="M177.841,168.262h-0.216v2.22c-1.176-0.053-2.118-1.031-2.118-2.22h-0.213
					c0,1.344,1.097,2.438,2.44,2.438h0.106V168.262z"/>
			</g>
		</g>
		<g>
			<g>
				<path fill="#A50F14" d="M149.922,177.78h-0.213c0,1.191-0.941,2.167-2.118,2.223v-2.223h-0.213v2.44h0.108
					C148.83,180.22,149.922,179.125,149.922,177.78z"/>
			</g>
			<g>
				<path fill="#A50F14" d="M152.256,177.782h-0.215v2.221c-1.177-0.054-2.119-1.031-2.119-2.221h-0.213
					c0,1.344,1.097,2.438,2.44,2.438h0.106V177.782z"/>
			</g>
		</g>
		<g>
			<g>
				<path fill="#A50F14" d="M158.46,177.78h-0.214c0,1.191-0.941,2.167-2.118,2.223v-2.223h-0.214v2.44h0.109
					C157.368,180.22,158.46,179.125,158.46,177.78z"/>
			</g>
			<g>
				<path fill="#A50F14" d="M160.794,177.782h-0.216v2.221c-1.178-0.054-2.118-1.031-2.118-2.221h-0.214
					c0,1.344,1.097,2.438,2.441,2.438h0.106V177.782z"/>
			</g>
		</g>
		<g>
			<g>
				<path fill="#A50F14" d="M167.014,177.78h-0.213c0,1.191-0.942,2.167-2.119,2.223v-2.223h-0.213v2.44h0.109
					C165.922,180.22,167.014,179.125,167.014,177.78z"/>
			</g>
			<g>
				<path fill="#A50F14" d="M169.348,177.782h-0.216v2.221c-1.177-0.054-2.118-1.031-2.118-2.221h-0.213
					c0,1.344,1.097,2.438,2.44,2.438h0.106V177.782z"/>
			</g>
		</g>
		<g>
			<g>
				<path fill="#A50F14" d="M175.507,177.78h-0.213c0,1.191-0.942,2.167-2.119,2.223v-2.223h-0.213v2.44h0.109
					C174.415,180.22,175.507,179.125,175.507,177.78z"/>
			</g>
			<g>
				<path fill="#A50F14" d="M177.841,177.782h-0.216v2.221c-1.176-0.054-2.118-1.031-2.118-2.221h-0.213
					c0,1.344,1.097,2.438,2.44,2.438h0.106V177.782z"/>
			</g>
		</g>
		<g>
			<g>
				<path fill="#A50F14" d="M179.969,48.954h-0.213c0,1.19-0.941,2.166-2.118,2.222v-2.222h-0.213v2.439h0.108
					C178.877,51.394,179.969,50.299,179.969,48.954z"/>
			</g>
			<g>
				<path fill="#A50F14" d="M182.303,48.956h-0.215v2.222c-1.177-0.056-2.119-1.032-2.119-2.222h-0.213
					c0,1.345,1.098,2.439,2.441,2.439h0.105V48.956z"/>
			</g>
		</g>
		<g>
			<g>
				<path fill="#A50F14" d="M110.42,45.924h0.248c0-1.367,1.08-2.487,2.431-2.551v2.551h0.247v-2.801h-0.126
					C111.675,43.123,110.42,44.379,110.42,45.924z"/>
			</g>
			<g>
				<path fill="#A50F14" d="M107.743,45.923h0.246v-2.551c1.352,0.064,2.431,1.184,2.431,2.551h0.248
					c0-1.545-1.26-2.802-2.805-2.802h-0.12V45.923z"/>
			</g>
		</g>
		<g>
			<g>
				<path fill="#A50F14" d="M141.571,69.094v0.247c1.366,0,2.486,1.08,2.55,2.431h-2.55v0.247h2.802v-0.126
					C144.373,70.348,143.117,69.094,141.571,69.094z"/>
			</g>
			<g>
				<path fill="#A50F14" d="M141.571,66.416v0.247h2.552c-0.065,1.352-1.184,2.432-2.552,2.432v0.247
					c1.546,0,2.802-1.259,2.802-2.804v-0.121H141.571z"/>
			</g>
		</g>
		<g>
			<g>
				<path fill="#A50F14" d="M110.297,72.18h0.248c0-1.366,1.079-2.486,2.43-2.549v2.549h0.248v-2.801h-0.126
					C111.551,69.378,110.297,70.635,110.297,72.18z"/>
			</g>
			<g>
				<path fill="#A50F14" d="M107.619,72.18h0.247v-2.552c1.351,0.066,2.431,1.185,2.431,2.552h0.248c0-1.545-1.26-2.801-2.805-2.801
					h-0.121V72.18z"/>
			</g>
		</g>
		<g>
			<g>
				<path fill="#A50F14" d="M34.178,110.064h-0.193c0,1.071-0.848,1.951-1.911,2.001v-2.001H31.88v2.2h0.1
					C33.192,112.264,34.178,111.277,34.178,110.064z"/>
			</g>
			<g>
				<path fill="#A50F14" d="M36.279,110.064h-0.194v2.004c-1.06-0.053-1.907-0.93-1.907-2.004h-0.193c0,1.213,0.987,2.2,2.201,2.2
					h0.094V110.064z"/>
			</g>
		</g>
		<g>
			<g>
				<path fill="#A50F14" d="M15.14,110.064h-0.194c0,1.071-0.848,1.951-1.91,2.001v-2.001h-0.193v2.2h0.1
					C14.154,112.264,15.14,111.277,15.14,110.064z"/>
			</g>
			<g>
				<path fill="#A50F14" d="M17.241,110.064h-0.193v2.004c-1.061-0.053-1.908-0.93-1.908-2.004h-0.194c0,1.213,0.988,2.2,2.201,2.2
					h0.095V110.064z"/>
			</g>
		</g>
		<g>
			<g>
				<path fill="#A50F14" d="M105.273,83.076v0.247c1.365,0,2.488,1.08,2.552,2.431h-2.552v0.247h2.803v-0.126
					C108.076,84.331,106.817,83.076,105.273,83.076z"/>
			</g>
			<g>
				<path fill="#A50F14" d="M105.273,80.398v0.247h2.552c-0.063,1.352-1.182,2.431-2.552,2.431v0.247
					c1.544,0,2.803-1.259,2.803-2.804v-0.121H105.273z"/>
			</g>
		</g>
		<g>
			<g>
				<path fill="#A50F14" d="M93.892,75.458v0.189c1.046,0,1.905,0.827,1.954,1.86h-1.954v0.188h2.147v-0.095
					C96.039,76.418,95.072,75.458,93.892,75.458z"/>
			</g>
			<g>
				<path fill="#A50F14" d="M93.892,73.407v0.188h1.954c-0.049,1.034-0.906,1.862-1.954,1.862v0.189
					c1.181,0,2.147-0.965,2.147-2.148v-0.092H93.892z"/>
			</g>
		</g>
		<g>
			<g>
				<path fill="#A50F14" d="M138.044,54.021h-0.157c0,0.866-0.683,1.578-1.542,1.618v-1.618h-0.157v1.778h0.08
					C137.247,55.799,138.044,55,138.044,54.021z"/>
			</g>
			<g>
				<path fill="#A50F14" d="M139.744,54.022h-0.155v1.618c-0.859-0.04-1.545-0.751-1.545-1.618h-0.157
					c0,0.979,0.802,1.778,1.779,1.778h0.078V54.022z"/>
			</g>
		</g>
		<g>
			<path fill="#A50F14" d="M68.479,39.377h-0.254c0-1.364-1.061-2.481-2.39-2.55v2.55H65.58v-2.801h0.129
				C67.236,36.576,68.479,37.833,68.479,39.377z"/>
		</g>
		<g>
			<path fill="#A50F14" d="M79.413,39.377h-0.255c0-1.364-1.061-2.481-2.39-2.55v2.55h-0.254v-2.801h0.128
				C78.171,36.576,79.413,37.833,79.413,39.377z"/>
		</g>
		<g>
			<path fill="#A50F14" d="M90.497,39.377h-0.255c0-1.364-1.061-2.481-2.39-2.55v2.55h-0.254v-2.801h0.129
				C89.255,36.576,90.497,37.833,90.497,39.377z"/>
		</g>
		<g>
			<path fill="#A50F14" d="M97.811,62.411v0.254c-1.365,0-2.483,1.061-2.552,2.39h2.552v0.254h-2.804v-0.128
				C95.007,63.653,96.267,62.411,97.811,62.411z"/>
		</g>
		<g>
			<path fill="#A50F14" d="M147.694,72.319h-0.254c0-1.366-1.061-2.484-2.39-2.552v2.552h-0.254v-2.804h0.128
				C146.452,69.515,147.694,70.774,147.694,72.319z"/>
		</g>
		<g>
			<path fill="#A50F14" d="M153.646,72.319h-0.255c0-1.366-1.061-2.484-2.39-2.552v2.552h-0.254v-2.804h0.128
				C152.404,69.515,153.646,70.774,153.646,72.319z"/>
		</g>
		<g>
			<path fill="#A50F14" d="M146.503,85.569h-0.254c0-1.365-1.061-2.484-2.39-2.552v2.552h-0.254v-2.804h0.128
				C145.262,82.765,146.503,84.024,146.503,85.569z"/>
		</g>
		<g>
			<path fill="#A50F14" d="M161.93,92.982v0.254c-1.365,0-2.484,1.061-2.553,2.39h2.553v0.254h-2.805v-0.129
				C159.125,94.225,160.384,92.982,161.93,92.982z"/>
		</g>
		<g>
			<path fill="#A50F14" d="M176.207,86.359v-0.254c-1.365,0-2.484-1.061-2.552-2.39h2.552v-0.254h-2.805v0.128
				C173.402,85.117,174.662,86.359,176.207,86.359z"/>
		</g>
		<g>
			<path fill="#A50F14" d="M189.516,83.531v0.254c1.365,0,2.484,1.061,2.553,2.39h-2.553v0.254h2.805v-0.128
				C192.32,84.773,191.062,83.531,189.516,83.531z"/>
		</g>
		<g>
			<path fill="#A50F14" d="M161.93,98.857v0.254c-1.365,0-2.484,1.061-2.553,2.39h2.553v0.255h-2.805v-0.128
				C159.125,100.1,160.384,98.857,161.93,98.857z"/>
		</g>
		<g>
			<path fill="#A50F14" d="M157.907,96.325v0.254c-1.365,0-2.484,1.061-2.552,2.39h2.552v0.254h-2.803v-0.128
				C155.104,97.567,156.363,96.325,157.907,96.325z"/>
		</g>
		<g>
			<path fill="#A50F14" d="M161.677,72.319h-0.254c0-1.366-1.061-2.484-2.39-2.552v2.552h-0.254v-2.804h0.128
				C160.435,69.515,161.677,70.774,161.677,72.319z"/>
		</g>
		<g>
			<path fill="#A50F14" d="M171.643,72.319h-0.254c0-1.366-1.061-2.484-2.39-2.552v2.552h-0.255v-2.804h0.129
				C170.4,69.515,171.643,70.774,171.643,72.319z"/>
		</g>
		<g>
			<path fill="#A50F14" d="M163.392,48.773h0.254c0,1.365,1.061,2.484,2.39,2.552v-2.552h0.254v2.803h-0.128
				C164.634,51.576,163.392,50.317,163.392,48.773z"/>
		</g>
		<g>
			<path fill="#A50F14" d="M179.08,72.319h-0.254c0-1.366-1.061-2.484-2.39-2.552v2.552h-0.254v-2.804h0.128
				C177.838,69.515,179.08,70.774,179.08,72.319z"/>
		</g>
		<g>
			<path fill="#A50F14" d="M189.473,72.319h-0.254c0-1.366-1.062-2.484-2.391-2.552v2.552h-0.254v-2.804h0.129
				C188.23,69.515,189.473,70.774,189.473,72.319z"/>
		</g>
		<g>
			<path fill="#A50F14" d="M191.404,97.889v-0.254c1.366,0,2.484-1.061,2.552-2.39h-2.552v-0.254h2.804v0.128
				C194.208,96.647,192.949,97.889,191.404,97.889z"/>
		</g>
		<g>
			<path fill="#A50F14" d="M178.49,110.063h0.254c0,1.366,1.061,2.484,2.39,2.552v-2.552h0.254v2.804h-0.128
				C179.732,112.867,178.49,111.607,178.49,110.063z"/>
		</g>
		<g>
			<path fill="#A50F14" d="M195.807,72.319h-0.254c0-1.366-1.061-2.484-2.391-2.552v2.552h-0.254v-2.804h0.128
				C194.564,69.515,195.807,70.774,195.807,72.319z"/>
		</g>
		<g>
			<path fill="#A50F14" d="M115.091,53.561v0.254c1.366,0,2.485,1.061,2.552,2.39h-2.552v0.255h2.805v-0.128
				C117.896,54.803,116.637,53.561,115.091,53.561z"/>
		</g>
		<g>
			<path fill="#A50F14" d="M122.184,57.826h0.256c0-1.366,1.061-2.484,2.388-2.552v2.552h0.256v-2.804h-0.13
				C123.428,55.021,122.184,56.281,122.184,57.826z"/>
		</g>
		<g>
			<path fill="#A50F14" d="M132.746,72.181h0.258c0-1.366,1.06-2.484,2.387-2.552v2.552h0.257v-2.804h-0.131
				C133.991,69.377,132.746,70.636,132.746,72.181z"/>
		</g>
		<g>
			<path fill="#A50F14" d="M158.481,58.124h0.257c0-1.366,1.061-2.484,2.387-2.552v2.552h0.257V55.32h-0.131
				C159.726,55.32,158.481,56.579,158.481,58.124z"/>
		</g>
		<g>
			<path fill="#A50F14" d="M131.749,65.311h0.213c0,1.136,0.882,2.065,1.986,2.121v-2.121h0.213v2.331h-0.109
				C132.785,67.641,131.749,66.595,131.749,65.311z"/>
		</g>
		<g>
			<path fill="#A50F14" d="M135.659,58.639v0.213c-1.136,0-2.065,0.882-2.121,1.985h2.121v0.213h-2.332v-0.109
				C133.327,59.675,134.374,58.639,135.659,58.639z"/>
		</g>
		<g>
			<path fill="#A50F14" d="M101.576,39.377h-0.254c0-1.364-1.061-2.481-2.391-2.55v2.55h-0.254v-2.801h0.128
				C100.334,36.576,101.576,37.833,101.576,39.377z"/>
		</g>
		<g>
			<path fill="#A50F14" d="M68.479,43.841h-0.254c0-1.364-1.061-2.482-2.39-2.551v2.551H65.58v-2.802h0.129
				C67.236,41.039,68.479,42.296,68.479,43.841z"/>
		</g>
		<g>
			<path fill="#A50F14" d="M71.95,58.171v-0.255c1.365,0,2.481-1.06,2.552-2.39H71.95v-0.254h2.802v0.128
				C74.752,56.929,73.495,58.171,71.95,58.171z"/>
		</g>
		<g>
			<path fill="#A50F14" d="M64.735,56.831v-0.254c1.365,0,2.481-1.061,2.552-2.39h-2.552v-0.254h2.802v0.128
				C67.537,55.588,66.279,56.831,64.735,56.831z"/>
		</g>
		<g>
			<path fill="#A50F14" d="M60.898,59.634h0.254c0,1.366,1.061,2.482,2.39,2.552v-2.552h0.254v2.802h-0.129
				C62.14,62.436,60.898,61.179,60.898,59.634z"/>
		</g>
		<g>
			<path fill="#A50F14" d="M56.779,81.599v-0.254c1.365,0,2.479-1.061,2.552-2.39h-2.552v-0.254h2.799v0.128
				C59.578,80.357,58.324,81.599,56.779,81.599z"/>
		</g>
		<g>
			<path fill="#A50F14" d="M70.094,80.112v-0.255c1.365,0,2.479-1.061,2.552-2.39h-2.552v-0.254h2.799v0.128
				C72.893,78.869,71.638,80.112,70.094,80.112z"/>
		</g>
		<g>
			<path fill="#A50F14" d="M74.73,72.801h0.254c0,1.365,1.061,2.479,2.39,2.552v-2.552h0.254V75.6H77.5
				C75.973,75.6,74.73,74.346,74.73,72.801z"/>
		</g>
		<g>
			<path fill="#A50F14" d="M71.952,69.997v-0.254c1.366,0,2.479-1.061,2.552-2.39h-2.552v-0.254h2.8v0.128
				C74.752,68.755,73.498,69.997,71.952,69.997z"/>
		</g>
		<g>
			<path fill="#A50F14" d="M70.094,88.64v-0.254c1.365,0,2.479-1.061,2.552-2.39h-2.552v-0.254h2.799v0.128
				C72.893,87.398,71.638,88.64,70.094,88.64z"/>
		</g>
		<g>
			<path fill="#A50F14" d="M70.094,97.22v-0.254c1.365,0,2.479-1.061,2.552-2.39h-2.552v-0.254h2.799v0.128
				C72.893,95.978,71.638,97.22,70.094,97.22z"/>
		</g>
		<g>
			<path fill="#A50F14" d="M57.673,94.321v0.254c1.365,0,2.479,1.061,2.552,2.39h-2.552v0.254h2.799v-0.128
				C60.472,95.563,59.217,94.321,57.673,94.321z"/>
		</g>
		<g>
			<path fill="#A50F14" d="M74.912,103.639h-0.254c0-1.365-1.062-2.479-2.391-2.552v2.552h-0.255v-2.799h0.129
				C73.67,100.84,74.912,102.094,74.912,103.639z"/>
		</g>
		<g>
			<path fill="#A50F14" d="M90.422,103.639h-0.254c0-1.365-1.061-2.479-2.39-2.552v2.552h-0.255v-2.799h0.129
				C89.18,100.84,90.422,102.094,90.422,103.639z"/>
		</g>
		<g>
			<path fill="#A50F14" d="M117.817,91.568v0.254c-1.366,0-2.479,1.061-2.552,2.39h2.552v0.254h-2.799v-0.128
				C115.019,92.811,116.272,91.568,117.817,91.568z"/>
		</g>
		<g>
			<path fill="#A50F14" d="M117.817,99.227v-0.254c-1.366,0-2.479-1.061-2.552-2.39h2.552v-0.255h-2.799v0.129
				C115.019,97.984,116.272,99.227,117.817,99.227z"/>
		</g>
		<g>
			<path fill="#A50F14" d="M117.817,113.804v-0.254c-1.366,0-2.479-1.061-2.552-2.39h2.552v-0.254h-2.799v0.128
				C115.019,112.563,116.272,113.804,117.817,113.804z"/>
		</g>
		<g>
			<path fill="#A50F14" d="M45.771,56.016v0.254c1.365,0,2.481,1.06,2.552,2.39h-2.552v0.254h2.801v-0.128
				C48.571,57.258,47.314,56.016,45.771,56.016z"/>
		</g>
		<g>
			<path fill="#A50F14" d="M57.226,62.115v0.254c1.365,0,2.481,1.061,2.552,2.39h-2.552v0.255h2.801v-0.129
				C60.026,63.357,58.77,62.115,57.226,62.115z"/>
		</g>
		<g>
			<path fill="#A50F14" d="M31.525,68.957v0.254c-1.365,0-2.481,1.061-2.552,2.39h2.552v0.254h-2.801v-0.128
				C28.725,70.199,29.981,68.957,31.525,68.957z"/>
		</g>
		<g>
			<path fill="#A50F14" d="M23.926,75.974h-0.254c0-1.366-1.061-2.482-2.39-2.552v2.552h-0.255v-2.801h0.129
				C22.685,73.172,23.926,74.429,23.926,75.974z"/>
		</g>
		<g>
			<path fill="#A50F14" d="M35.233,72.875h0.254c0,1.365,1.061,2.481,2.39,2.552v-2.552h0.254v2.801h-0.128
				C36.476,75.676,35.233,74.419,35.233,72.875z"/>
		</g>
		<g>
			<path fill="#A50F14" d="M27.773,79.591v-0.254c1.365,0,2.479-1.061,2.552-2.39h-2.552v-0.254h2.799v0.128
				C30.572,78.349,29.318,79.591,27.773,79.591z"/>
		</g>
		<g>
			<path fill="#A50F14" d="M32.41,91.172h0.254c0,1.366,1.061,2.479,2.391,2.552v-2.552h0.254v2.799h-0.128
				C33.651,93.971,32.41,92.717,32.41,91.172z"/>
		</g>
		<g>
			<path fill="#A50F14" d="M38.131,66.774h-0.193c0,1.048-0.816,1.906-1.836,1.96v-1.96h-0.195v2.151h0.099
				C37.177,68.925,38.131,67.961,38.131,66.774z"/>
		</g>
		<g>
			<path fill="#A50F14" d="M39.397,66.774h0.193c0,1.048,0.816,1.906,1.836,1.96v-1.96h0.195v2.151h-0.099
				C40.352,68.925,39.397,67.961,39.397,66.774z"/>
		</g>
		<g>
			<path fill="#A50F14" d="M13.326,60.955h-0.254c0-1.365-1.061-2.481-2.391-2.552v2.552h-0.254v-2.801h0.128
				C12.084,58.154,13.326,59.41,13.326,60.955z"/>
		</g>
	</g>
	<g>
		<g>
			
				<line fill="none" stroke="#F39200" stroke-width="1.5" stroke-miterlimit="10" x1="181.436" y1="158.107" x2="202.675" y2="158.107"/>
			<g>
				<polygon fill="#F39200" points="201.799,161.082 206.98,158.09 201.799,155.099 				"/>
			</g>
		</g>
	</g>
	<g>
		<g>
			
				<line fill="none" stroke="#F39200" stroke-width="1.5" stroke-miterlimit="10" x1="181.436" y1="126.969" x2="202.675" y2="126.969"/>
			<g>
				<polygon fill="#F39200" points="201.799,129.943 206.98,126.952 201.799,123.96 				"/>
			</g>
		</g>
	</g>
	<g>
		<g>
			
				<line fill="none" stroke="#F39200" stroke-width="1.5" stroke-miterlimit="10" x1="30.959" y1="126.969" x2="9.72" y2="126.969"/>
			<g>
				<polygon fill="#F39200" points="10.596,123.994 5.414,126.985 10.596,129.977 				"/>
			</g>
		</g>
	</g>
	<g>
		<g>
			
				<line fill="none" stroke="#F39200" stroke-width="1.5" stroke-miterlimit="10" x1="30.959" y1="158.107" x2="9.72" y2="158.107"/>
			<g>
				<polygon fill="#F39200" points="10.596,155.132 5.414,158.124 10.596,161.115 				"/>
			</g>
		</g>
	</g>
	<g>
		<g>
			<g>
				<path fill-rule="evenodd" clip-rule="evenodd" fill="#9D0F12" d="M51.53,82.952c-0.815,0-1.272,0.421-1.272,1.282v8.869
					c0,0.806,0.412,1.227,1.226,1.227h8.908c0.814,0,1.226-0.4,1.226-1.227v-8.869c0-0.839-0.411-1.282-1.252-1.282
					C60.365,82.952,51.527,82.949,51.53,82.952z"/>
				<path fill="#FFFFFF" d="M60.392,94.73h-8.908c-1.033,0-1.626-0.593-1.626-1.627v-8.869c0-1.069,0.609-1.683,1.673-1.683v0.036
					c0.327-0.037,0.972-0.037,2.289-0.037l6.546,0.001c1.051,0,1.653,0.613,1.653,1.683v8.869
					C62.019,94.152,61.44,94.73,60.392,94.73z M51.53,83.353c-0.611,0-0.871,0.264-0.871,0.881v8.869
					c0,0.587,0.238,0.826,0.824,0.826h8.908c0.602,0,0.825-0.224,0.825-0.826v-8.869c0-0.626-0.247-0.881-0.852-0.881l-6.546-0.001
					c-0.883,0-1.615,0-1.998,0v0.001H51.53z"/>
			</g>
		</g>
		<g>
			<path fill="#FFFFFF" d="M52.822,91.222l-0.874-5.118h1.033l0.251,2.043c0.067,0.584,0.114,1.169,0.175,1.792h0.022
				c0.068-0.63,0.183-1.184,0.289-1.799l0.365-2.035h0.804l0.342,2.02c0.092,0.578,0.182,1.146,0.242,1.815h0.016
				c0.069-0.668,0.131-1.215,0.197-1.807l0.251-2.027h0.974l-0.905,5.118h-1.024l-0.305-1.679c-0.082-0.469-0.159-1.055-0.227-1.678
				h-0.016c-0.091,0.615-0.176,1.185-0.28,1.686l-0.343,1.671H52.822z"/>
			<path fill="#FFFFFF" d="M59.898,91.147c-0.144,0.067-0.424,0.121-0.765,0.121c-1.315,0-1.938-1.071-1.938-2.529
				c0-1.929,1.071-2.68,2.066-2.68c0.349,0,0.592,0.069,0.692,0.136l-0.17,0.836c-0.112-0.054-0.242-0.099-0.461-0.099
				c-0.563,0-1.072,0.486-1.072,1.755c0,1.222,0.465,1.7,1.072,1.7c0.165,0,0.356-0.038,0.477-0.077L59.898,91.147z"/>
		</g>
	</g>
	<g>
		<g>
			<g>
				<path fill-rule="evenodd" clip-rule="evenodd" fill="#9D0F12" d="M179.609,76.258c-0.815,0-1.272,0.421-1.272,1.282v8.869
					c0,0.806,0.412,1.227,1.226,1.227h8.908c0.814,0,1.226-0.4,1.226-1.227V77.54c0-0.839-0.411-1.282-1.252-1.282
					C188.444,76.258,179.606,76.255,179.609,76.258z"/>
				<path fill="#FFFFFF" d="M188.471,88.036h-8.908c-1.033,0-1.626-0.593-1.626-1.627V77.54c0-1.069,0.609-1.683,1.673-1.683v0.036
					c0.327-0.037,0.972-0.037,2.289-0.037l6.546,0.001c1.051,0,1.653,0.613,1.653,1.683v8.869
					C190.098,87.458,189.52,88.036,188.471,88.036z M179.609,76.659c-0.611,0-0.871,0.264-0.871,0.881v8.869
					c0,0.587,0.238,0.826,0.824,0.826h8.908c0.602,0,0.825-0.224,0.825-0.826V77.54c0-0.626-0.247-0.881-0.852-0.881l-6.546-0.001
					c-0.883,0-1.615,0-1.998,0v0.001H179.609z"/>
			</g>
		</g>
		<g>
			<path fill="#FFFFFF" d="M180.901,84.528l-0.874-5.118h1.033l0.251,2.043c0.067,0.584,0.114,1.169,0.175,1.792h0.022
				c0.068-0.63,0.183-1.184,0.289-1.799l0.365-2.035h0.804l0.342,2.02c0.092,0.578,0.182,1.146,0.242,1.815h0.016
				c0.069-0.668,0.131-1.215,0.197-1.807l0.251-2.027h0.974l-0.905,5.118h-1.024l-0.305-1.679c-0.082-0.469-0.159-1.055-0.227-1.678
				h-0.016c-0.091,0.615-0.176,1.185-0.28,1.686l-0.343,1.671H180.901z"/>
			<path fill="#FFFFFF" d="M187.978,84.453c-0.144,0.067-0.424,0.121-0.765,0.121c-1.315,0-1.938-1.071-1.938-2.529
				c0-1.929,1.071-2.68,2.066-2.68c0.349,0,0.592,0.069,0.692,0.136l-0.17,0.836c-0.112-0.054-0.242-0.099-0.461-0.099
				c-0.563,0-1.072,0.486-1.072,1.755c0,1.222,0.465,1.7,1.072,1.7c0.165,0,0.356-0.038,0.477-0.077L187.978,84.453z"/>
		</g>
	</g>
	<line opacity="0.1" fill="#95C11F" x1="4.034" y1="248.667" x2="4.034" y2="262.841"/>
	<line opacity="0.1" fill="#95C11F" x1="207.412" y1="262.841" x2="207.412" y2="248.667"/>
</g>
<g id="ПК">
</g>
<g id="Экспозиция">
</g>
</svg>
