<?xml version="1.0" encoding="utf-8"?>
<!-- Generator: Adobe Illustrator 15.0.0, SVG Export Plug-In . SVG Version: 6.00 Build 0)  -->
<!DOCTYPE svg PUBLIC "-//W3C//DTD SVG 1.1//EN" "http://www.w3.org/Graphics/SVG/1.1/DTD/svg11.dtd">
<svg version="1.1" xmlns="http://www.w3.org/2000/svg" xmlns:xlink="http://www.w3.org/1999/xlink" x="0px" y="0px" width="76.79px"
	 height="255.118px" viewBox="0 0 76.79 255.118" enable-background="new 0 0 76.79 255.118" xml:space="preserve">
<g id="План">
	<g>
		<line fill-rule="evenodd" clip-rule="evenodd" fill="#E4E3E3" x1="5.379" y1="5.603" x2="5.379" y2="41.792"/>
		<rect x="4.338" y="22.824" fill-rule="evenodd" clip-rule="evenodd" fill="#E4E3E3" width="68.171" height="86.15"/>
		<rect x="4.338" y="141.811" fill-rule="evenodd" clip-rule="evenodd" fill="#E4E3E3" width="68.171" height="87.356"/>
		<rect x="41.716" y="17.979" fill-rule="evenodd" clip-rule="evenodd" fill="#E4E3E3" width="31.74" height="40.89"/>
		<line fill-rule="evenodd" clip-rule="evenodd" fill="#E4E3E3" x1="71.32" y1="41.792" x2="71.32" y2="5.603"/>
		<rect x="3.929" y="74.387" fill-rule="evenodd" clip-rule="evenodd" fill="#E4F0FC" width="37.787" height="34.629"/>
		<rect x="51.199" y="74.387" fill-rule="evenodd" clip-rule="evenodd" fill="#E4F0FC" width="21.784" height="18.332"/>
		<rect x="-5.404" y="22.789" fill-rule="evenodd" clip-rule="evenodd" fill="#FFEDCC" width="9.452" height="19.003"/>
		<rect x="-5.404" y="5.447" fill-rule="evenodd" clip-rule="evenodd" fill="#FFEDCC" width="10.783" height="17.377"/>
		<rect x="71.468" y="5.447" fill-rule="evenodd" clip-rule="evenodd" fill="#FFEDCC" width="18.57" height="12.003"/>
		<rect x="72.064" y="17.114" fill-rule="evenodd" clip-rule="evenodd" fill="#FFEDCC" width="10.188" height="7.327"/>
		<rect x="35.509" y="35.448" fill-rule="evenodd" clip-rule="evenodd" fill="#FFEDCC" width="6.038" height="21.425"/>
		<rect x="41.547" y="18.027" fill-rule="evenodd" clip-rule="evenodd" fill="#FFEDCC" width="9.652" height="91.357"/>
		<rect x="3.52" y="109.385" fill-rule="evenodd" clip-rule="evenodd" fill="#FFEDCC" width="69.871" height="32.426"/>
		<rect x="20.327" y="123.951" fill-rule="evenodd" clip-rule="evenodd" fill="#FFEDCC" width="35.371" height="74.982"/>
		<rect x="25.504" y="198.416" fill-rule="evenodd" clip-rule="evenodd" fill="#FFEDCC" width="25.73" height="31.255"/>
		<rect x="51.042" y="40.21" fill-rule="evenodd" clip-rule="evenodd" fill="#FFEDCC" width="21.467" height="20.376"/>
		<rect x="-13.034" y="5.447" fill-rule="evenodd" clip-rule="evenodd" fill="#FFEDCC" width="10.784" height="11.677"/>
		<g>
			<line fill="#575756" x1="-10.961" y1="174.812" x2="-10.961" y2="178.498"/>
		</g>
		<g>
			<line fill="#575756" x1="-10.961" y1="242.61" x2="-10.961" y2="246.295"/>
		</g>
		<g>
			<line fill="#575756" x1="-10.961" y1="106.69" x2="-10.961" y2="110.375"/>
		</g>
		<g>
			<line fill="#575756" x1="89.467" y1="25.373" x2="89.467" y2="26.077"/>
			<line fill="#575756" x1="100.474" y1="4.899" x2="100.474" y2="5.603"/>
			<rect x="71.022" y="4.899" fill="#575756" width="24.396" height="0.703"/>
			<rect x="89.167" y="16.8" fill="#575756" width="0.779" height="0.703"/>
			<rect x="82.097" y="16.8" fill="#575756" width="4.784" height="0.703"/>
			<rect x="72.509" y="23.941" fill="#575756" width="9.83" height="0.704"/>
			<rect x="71.468" y="17.124" fill="#575756" width="7.583" height="0.352"/>
			<rect x="81.729" y="17.124" fill="#575756" width="0.522" height="0.352"/>
			<line fill="#575756" x1="86.789" y1="41.44" x2="86.789" y2="42.144"/>
			<rect x="72.509" y="41.44" fill="#575756" width="11.603" height="0.704"/>
			<line fill="#575756" x1="104.883" y1="5.398" x2="104.883" y2="25.779"/>
			<rect x="89.559" y="5.398" fill="#575756" width="0.705" height="20.38"/>
			<rect x="81.974" y="5.398" fill="#575756" width="0.705" height="15.026"/>
			<rect x="81.974" y="23.024" fill="#575756" width="0.705" height="8.707"/>
			<rect x="72.509" y="23.996" fill="#575756" width="0.947" height="56.229"/>
			<rect x="72.509" y="85.58" fill="#575756" width="0.947" height="23.803"/>
			<rect x="72.572" y="141.811" fill="#575756" width="0.818" height="81.745"/>
			<rect x="72.572" y="222.734" fill="#575756" width="0.818" height="6.548"/>
			<rect x="71.101" y="239.285" fill="#575756" width="1.403" height="9.383"/>
			<rect x="71.101" y="228.872" fill="#575756" width="1.403" height="7.221"/>
			<rect x="4.338" y="228.557" fill="#575756" width="1.406" height="20.11"/>
			<rect x="63.348" y="198.411" fill="#575756" width="0.818" height="25.145"/>
			<rect x="50.825" y="215.594" fill="#575756" width="0.818" height="7.961"/>
			<rect x="50.825" y="202.689" fill="#575756" width="0.818" height="8.442"/>
			<rect x="25.273" y="198.375" fill="#575756" width="0.821" height="17.814"/>
			<rect x="25.273" y="219.166" fill="#575756" width="0.821" height="9.52"/>
			<rect x="50.825" y="198.488" fill="#575756" width="0.818" height="1.634"/>
			<rect x="55.289" y="192.684" fill="#575756" width="0.819" height="6.249"/>
			<rect x="55.289" y="175.727" fill="#575756" width="0.819" height="1.784"/>
			<rect x="55.289" y="141.811" fill="#575756" width="0.819" height="18.445"/>
			<rect x="19.919" y="141.811" fill="#575756" width="0.82" height="18.343"/>
			<rect x="19.919" y="175.727" fill="#575756" width="0.82" height="1.75"/>
			<rect x="3.52" y="141.811" fill="#575756" width="0.818" height="87.468"/>
			<rect x="50.791" y="108.564" fill="#575756" width="22.665" height="0.82"/>
			<rect x="3.629" y="108.564" fill="#575756" width="38.533" height="0.82"/>
			<rect x="50.936" y="92.309" fill="#575756" width="22.048" height="0.82"/>
			<rect x="49.005" y="73.567" fill="#575756" width="23.979" height="0.82"/>
			<rect x="3.486" y="73.567" fill="#575756" width="40.462" height="0.82"/>
			<rect x="3.486" y="91.121" fill="#575756" width="38.525" height="0.82"/>
			<rect x="51.023" y="60.178" fill="#575756" width="21.96" height="0.82"/>
			<rect x="62.004" y="39.8" fill="#575756" width="10.979" height="0.82"/>
			<rect x="50.791" y="98.969" fill="#575756" width="0.818" height="10.413"/>
			<rect x="50.791" y="85.58" fill="#575756" width="0.818" height="11.008"/>
			<rect x="50.791" y="66.242" fill="#575756" width="0.818" height="13.982"/>
			<rect x="50.791" y="50.128" fill="#575756" width="0.818" height="13.287"/>
			<rect x="50.791" y="39.819" fill="#575756" width="0.818" height="7.681"/>
			<rect x="50.791" y="35.922" fill="#575756" width="0.818" height="1.049"/>
			<rect x="50.791" y="26.375" fill="#575756" width="0.818" height="4.24"/>
			<rect x="41.302" y="23.4" fill="#575756" width="0.821" height="8.032"/>
			<rect x="19.142" y="23.4" fill="#575756" width="0.818" height="10.413"/>
			<rect x="41.302" y="34.11" fill="#575756" width="0.821" height="8.627"/>
			<rect x="41.302" y="45.474" fill="#575756" width="0.821" height="3.214"/>
			<rect x="41.302" y="51.366" fill="#575756" width="0.821" height="1.784"/>
			<rect x="41.302" y="55.531" fill="#575756" width="0.821" height="7.94"/>
			<rect x="20.032" y="56.502" fill="#575756" width="0.819" height="17.474"/>
			<rect x="41.302" y="68.622" fill="#575756" width="0.821" height="11.603"/>
			<rect x="41.302" y="85.58" fill="#575756" width="0.821" height="11.9"/>
			<rect x="41.302" y="102.539" fill="#575756" width="0.821" height="6.842"/>
			<rect x="3.52" y="85.58" fill="#575756" width="0.82" height="11.9"/>
			<rect x="3.52" y="22.824" fill="#575756" width="0.82" height="57.402"/>
			<rect x="3.52" y="102.539" fill="#575756" width="0.82" height="6.846"/>
			<rect x="34.758" y="34.708" fill="#575756" width="0.818" height="22.165"/>
			<rect x="50.791" y="18.341" fill="#575756" width="0.818" height="5.477"/>
			<rect x="49.259" y="29.833" fill="#575756" width="8.074" height="0.819"/>
			<rect x="42.162" y="29.833" fill="#575756" width="2.23" height="0.819"/>
			<rect x="50.791" y="35.932" fill="#575756" width="6.542" height="0.819"/>
			<rect x="50.791" y="39.8" fill="#575756" width="8.625" height="0.82"/>
			<rect x="4.048" y="32.992" fill="#575756" width="15.912" height="0.82"/>
			<rect x="34.758" y="34.706" fill="#575756" width="6.542" height="0.82"/>
			<rect x="34.758" y="45.452" fill="#575756" width="6.542" height="0.819"/>
			<rect x="34.758" y="51.701" fill="#575756" width="6.542" height="0.819"/>
			<rect x="20.144" y="56.501" fill="#575756" width="21.572" height="0.819"/>
			<rect x="49.496" y="17.45" fill="#575756" width="10.22" height="1.152"/>
			<rect x="40.971" y="17.45" fill="#575756" width="3.273" height="1.152"/>
			<rect x="40.971" y="17.449" fill="#575756" width="1.152" height="5.95"/>
			<rect x="32.046" y="22.246" fill="#575756" width="10.077" height="1.152"/>
			<rect x="16.575" y="22.246" fill="#575756" width="7.123" height="1.152"/>
			<rect x="3.335" y="22.246" fill="#575756" width="4.601" height="1.152"/>
			<rect x="62.394" y="17.45" fill="#575756" width="9.671" height="1.152"/>
			<rect x="55.289" y="141.811" fill="#575756" width="18.111" height="0.82"/>
			<rect x="3.486" y="141.811" fill="#575756" width="17.253" height="0.82"/>
			<rect x="3.486" y="176.656" fill="#575756" width="17.253" height="0.821"/>
			<rect x="12.705" y="192.459" fill="#575756" width="7.066" height="0.821"/>
			<rect x="18.656" y="183.947" fill="#575756" width="1.115" height="0.82"/>
			<rect x="13.153" y="183.947" fill="#575756" width="1.896" height="0.82"/>
			<rect x="12.744" y="176.918" fill="#575756" width="0.818" height="1.486"/>
			<rect x="12.744" y="181.379" fill="#575756" width="0.818" height="11.901"/>
			<rect x="18.952" y="184.058" fill="#575756" width="0.819" height="9.223"/>
			<rect x="3.486" y="198.375" fill="#575756" width="22.608" height="0.821"/>
			<rect x="50.791" y="198.416" fill="#575756" width="22.6" height="0.818"/>
			<rect x="71.022" y="228.46" fill="#575756" width="2.368" height="0.821"/>
			<rect x="25.504" y="222.734" fill="#575756" width="2.371" height="0.821"/>
			<rect x="3.49" y="228.46" fill="#575756" width="2.371" height="0.821"/>
			<rect x="49.005" y="222.734" fill="#575756" width="15.161" height="0.821"/>
			<rect x="81.974" y="34.524" fill="#575756" width="0.705" height="7.467"/>
			<rect x="70.967" y="4.899" fill="#575756" width="0.704" height="12.551"/>
			<rect x="5.123" y="4.899" fill="#575756" width="0.701" height="18.592"/>
			<rect x="71.802" y="17.451" fill="#575756" width="0.707" height="24.693"/>
			<rect x="56.982" y="17.451" fill="#575756" width="0.704" height="13.683"/>
			<rect x="56.982" y="35.297" fill="#575756" width="0.704" height="5.356"/>
			<rect x="55.227" y="160.255" fill="#A50F14" width="0.944" height="15.472"/>
			<rect x="19.855" y="160.154" fill="#A50F14" width="0.944" height="15.573"/>
			<rect x="55.227" y="177.511" fill="#A50F14" width="0.944" height="15.173"/>
			<rect x="50.762" y="211.131" fill="#A50F14" width="0.944" height="4.463"/>
			<rect x="50.762" y="223.48" fill="#A50F14" width="0.944" height="5.205"/>
			<rect x="32.938" y="222.56" fill="#A50F14" width="11.009" height="0.944"/>
			<rect x="65.367" y="228.46" fill="#A50F14" width="5.655" height="1.413"/>
			<rect x="49.005" y="228.46" fill="#A50F14" width="11.306" height="1.413"/>
			<rect x="32.939" y="228.46" fill="#A50F14" width="11.007" height="1.413"/>
			<rect x="5.861" y="228.46" fill="#A50F14" width="22.014" height="1.413"/>
			<rect x="59.716" y="17.554" fill="#A50F14" width="2.678" height="0.946"/>
			<rect x="23.698" y="22.35" fill="#A50F14" width="8.348" height="0.946"/>
			<rect x="7.936" y="22.35" fill="#A50F14" width="8.64" height="0.946"/>
			<g>
				<g>
					<path fill="#A50F14" d="M97.84,4.954h0.237c0-1.364,0.959-2.482,2.162-2.551v2.551h0.234V2.152h-0.118
						C98.968,2.152,97.84,3.41,97.84,4.954z"/>
				</g>
				<g>
					<path fill="#A50F14" d="M95.443,4.953h0.234v-2.55c1.203,0.069,2.162,1.186,2.162,2.55h0.237c0-1.545-1.129-2.801-2.516-2.801
						h-0.118V4.953z"/>
				</g>
			</g>
			<g>
				<g>
					<path fill="#A50F14" d="M46.743,17.66h0.237c0-1.364,0.959-2.481,2.162-2.55v2.55h0.234v-2.801h-0.118
						C47.871,14.859,46.743,16.116,46.743,17.66z"/>
				</g>
				<g>
					<path fill="#A50F14" d="M44.346,17.659h0.235v-2.551c1.203,0.069,2.162,1.187,2.162,2.551h0.237
						c0-1.545-1.129-2.801-2.516-2.801h-0.119V17.659z"/>
				</g>
			</g>
			<g>
				<g>
					<path fill="#A50F14" d="M46.625,30.23h0.236c0-1.364,0.959-2.482,2.162-2.551v2.551h0.235v-2.801H49.14
						C47.753,27.429,46.625,28.685,46.625,30.23z"/>
				</g>
				<g>
					<path fill="#A50F14" d="M44.227,30.229h0.235v-2.551c1.203,0.069,2.163,1.186,2.163,2.551h0.236
						c0-1.545-1.128-2.801-2.516-2.801h-0.119V30.229z"/>
				</g>
			</g>
			<g>
				<g>
					<path fill="#A50F14" d="M56.982,33.392V33.19c-1.087,0-1.979-0.823-2.034-1.854h2.034v-0.201h-2.235v0.101
						C54.747,32.423,55.75,33.392,56.982,33.392z"/>
				</g>
				<g>
					<path fill="#A50F14" d="M56.982,35.448v-0.201h-2.036c0.058-1.031,0.949-1.854,2.036-1.854V33.19
						c-1.232,0-2.235,0.969-2.235,2.157v0.101H56.982z"/>
				</g>
			</g>
			<g>
				<g>
					<path fill="#A50F14" d="M42.213,65.896v0.237c1.276,0,2.324,0.968,2.39,2.179h-2.39v0.236h2.624v-0.119
						C44.837,67.033,43.658,65.896,42.213,65.896z"/>
				</g>
				<g>
					<path fill="#A50F14" d="M42.213,63.48v0.236h2.39c-0.063,1.211-1.111,2.179-2.39,2.179v0.237c1.447,0,2.627-1.138,2.627-2.535
						V63.48H42.213z"/>
				</g>
			</g>
			<g>
				<g>
					<path fill="#A50F14" d="M46.351,73.829h0.237c0-1.277,0.968-2.324,2.18-2.39v2.39h0.237v-2.625h-0.122
						C47.488,71.204,46.351,72.382,46.351,73.829z"/>
				</g>
				<g>
					<path fill="#A50F14" d="M43.934,73.829h0.238v-2.391c1.211,0.065,2.179,1.113,2.179,2.391h0.237
						c0-1.448-1.138-2.626-2.535-2.626h-0.119V73.829z"/>
				</g>
			</g>
			<g>
				<g>
					<path fill="#A50F14" d="M50.791,82.961v-0.258c-1.39,0-2.53-1.052-2.601-2.371h2.601v-0.257h-2.856v0.13
						C47.935,81.723,49.218,82.961,50.791,82.961z"/>
				</g>
				<g>
					<path fill="#A50F14" d="M50.791,85.589v-0.257h-2.603c0.07-1.318,1.21-2.372,2.603-2.372v-0.258
						c-1.576,0-2.856,1.238-2.856,2.759v0.127H50.791z"/>
				</g>
			</g>
			<g>
				<g>
					<path fill="#A50F14" d="M73.456,82.693v0.258c1.39,0,2.53,1.052,2.6,2.372h-2.6v0.257h2.854V85.45
						C76.311,83.932,75.029,82.693,73.456,82.693z"/>
				</g>
				<g>
					<path fill="#A50F14" d="M73.456,80.065v0.257h2.603c-0.072,1.318-1.211,2.371-2.603,2.371v0.258
						c1.576,0,2.856-1.238,2.856-2.758v-0.128H73.456z"/>
				</g>
			</g>
			<g>
				<g>
					<path fill="#A50F14" d="M42.123,82.852v0.258c1.39,0,2.527,1.051,2.601,2.372h-2.601v0.256h2.854v-0.129
						C44.978,84.09,43.696,82.852,42.123,82.852z"/>
				</g>
				<g>
					<path fill="#A50F14" d="M42.123,80.224v0.256h2.601c-0.073,1.318-1.211,2.372-2.601,2.372v0.258
						c1.573,0,2.857-1.239,2.857-2.759v-0.127H42.123z"/>
				</g>
			</g>
			<g>
				<g>
					<path fill="#A50F14" d="M42.123,99.998v0.239c1.39,0,2.527,0.981,2.601,2.211h-2.601v0.238h2.857v-0.121
						C44.98,101.152,43.696,99.998,42.123,99.998z"/>
				</g>
				<g>
					<path fill="#A50F14" d="M42.123,97.548v0.24h2.601c-0.07,1.228-1.211,2.209-2.601,2.209v0.239c1.573,0,2.857-1.153,2.857-2.57
						v-0.119H42.123z"/>
				</g>
			</g>
			<g>
				<g>
					<path fill="#A50F14" d="M3.49,100.237v-0.239c-1.39,0-2.532-0.981-2.603-2.211H3.49v-0.239H0.634v0.122
						C0.634,99.084,1.914,100.237,3.49,100.237z"/>
				</g>
				<g>
					<path fill="#A50F14" d="M3.49,102.687v-0.24H0.885c0.073-1.228,1.214-2.209,2.605-2.209v-0.239
						c-1.578,0-2.859,1.154-2.859,2.57v0.119H3.49z"/>
				</g>
			</g>
			<g>
				<g>
					<path fill="#A50F14" d="M3.49,83.022v-0.24c-1.39,0-2.532-0.98-2.603-2.21H3.49v-0.238H0.634v0.121
						C0.634,81.868,1.914,83.022,3.49,83.022z"/>
				</g>
				<g>
					<path fill="#A50F14" d="M3.49,85.471v-0.24H0.885c0.073-1.228,1.214-2.209,2.605-2.209v-0.24c-1.578,0-2.859,1.154-2.859,2.57
						v0.119H3.49z"/>
				</g>
			</g>
			<g>
				<g>
					<path fill="#A50F14" d="M46.637,223.504h-0.243c0,1.39-0.978,2.53-2.208,2.6v-2.6h-0.239v2.856h0.121
						C45.481,226.361,46.637,225.078,46.637,223.504z"/>
				</g>
				<g>
					<path fill="#A50F14" d="M49.084,223.504h-0.24v2.603c-1.227-0.072-2.207-1.213-2.207-2.603h-0.243
						c0,1.576,1.155,2.856,2.572,2.856h0.118V223.504z"/>
				</g>
			</g>
			<g>
				<g>
					<path fill="#A50F14" d="M30.492,223.504H30.25c0,1.39-0.979,2.53-2.208,2.6v-2.6h-0.24v2.856h0.122
						C29.337,226.361,30.492,225.078,30.492,223.504z"/>
				</g>
				<g>
					<path fill="#A50F14" d="M32.939,223.504H32.7v2.603c-1.228-0.072-2.208-1.213-2.208-2.603H30.25
						c0,1.576,1.154,2.856,2.571,2.856h0.118V223.504z"/>
				</g>
			</g>
			<g>
				<g>
					<path fill="#A50F14" d="M46.637,229.785h-0.243c0,1.39-0.978,2.53-2.208,2.6v-2.6h-0.239v2.856h0.121
						C45.481,232.641,46.637,231.358,46.637,229.785z"/>
				</g>
				<g>
					<path fill="#A50F14" d="M49.084,229.785h-0.24v2.603c-1.227-0.072-2.207-1.213-2.207-2.603h-0.243
						c0,1.576,1.155,2.856,2.572,2.856h0.118V229.785z"/>
				</g>
			</g>
			<g>
				<g>
					<path fill="#A50F14" d="M63.11,229.785h-0.242c0,1.39-0.979,2.53-2.208,2.6v-2.6h-0.242v2.856h0.121
						C61.953,232.641,63.11,231.358,63.11,229.785z"/>
				</g>
				<g>
					<path fill="#A50F14" d="M65.556,229.785h-0.237v2.603c-1.229-0.072-2.208-1.213-2.208-2.603h-0.242
						c0,1.576,1.152,2.856,2.571,2.856h0.116V229.785z"/>
				</g>
			</g>
			<g>
				<g>
					<path fill="#A50F14" d="M30.492,229.785H30.25c0,1.39-0.979,2.53-2.208,2.6v-2.6h-0.24v2.856h0.122
						C29.337,232.641,30.492,231.358,30.492,229.785z"/>
				</g>
				<g>
					<path fill="#A50F14" d="M32.939,229.785H32.7v2.603c-1.228-0.072-2.208-1.213-2.208-2.603H30.25
						c0,1.576,1.154,2.856,2.571,2.856h0.118V229.785z"/>
				</g>
			</g>
			<g>
				<path fill="#A50F14" d="M86.905,17.239h0.2c0,1.107,0.826,2.014,1.863,2.069v-2.069h0.203v2.272H89.07
					C87.874,19.511,86.905,18.492,86.905,17.239z"/>
			</g>
			<g>
				<path fill="#A50F14" d="M79.129,17.239h0.228c0,1.243,0.93,2.262,2.092,2.325v-2.325h0.228v2.552H81.56
					C80.219,19.791,79.129,18.647,79.129,17.239z"/>
			</g>
			<g>
				<path fill="#A50F14" d="M82.475,23.117v-0.24c1.244,0,2.261-0.982,2.324-2.214h-2.324v-0.238h2.553v0.12
					C85.027,21.964,83.884,23.117,82.475,23.117z"/>
			</g>
			<g>
				<path fill="#A50F14" d="M82.475,34.415v-0.24c1.244,0,2.261-0.981,2.324-2.214h-2.324v-0.239h2.553v0.12
					C85.027,33.263,83.884,34.415,82.475,34.415z"/>
			</g>
			<g>
				<path fill="#A50F14" d="M86.774,42.144h-0.237c0,1.243-0.974,2.261-2.191,2.324v-2.324h-0.234v2.552h0.116
					C85.632,44.696,86.774,43.552,86.774,42.144z"/>
			</g>
			<line fill="#575756" x1="-12.62" y1="25.373" x2="-12.62" y2="26.077"/>
			<line fill="#575756" x1="5.824" y1="4.899" x2="5.824" y2="5.603"/>
			<rect x="-13.1" y="16.8" fill="#575756" width="0.78" height="0.703"/>
			<rect x="-10.034" y="16.8" fill="#575756" width="4.784" height="0.703"/>
			
				<rect x="-5.491" y="23.941" transform="matrix(0.9998 0.0194 -0.0194 0.9998 0.4716 0.0157)" fill="#575756" width="9.832" height="0.703"/>
			<rect x="-2.203" y="17.124" fill="#575756" width="7.582" height="0.352"/>
			<rect x="-5.404" y="17.124" fill="#575756" width="0.522" height="0.352"/>
			<line fill="#575756" x1="-9.942" y1="41.44" x2="-9.942" y2="42.144"/>
			<rect x="-7.265" y="41.44" fill="#575756" width="11.603" height="0.704"/>
			<rect x="-13.414" y="5.398" fill="#575756" width="0.702" height="20.38"/>
			<rect x="-5.83" y="5.398" fill="#575756" width="0.706" height="15.026"/>
			<rect x="-5.83" y="23.024" fill="#575756" width="0.706" height="8.707"/>
			<rect x="-5.83" y="34.524" fill="#575756" width="0.706" height="7.467"/>
			<g>
				<path fill="#A50F14" d="M-10.059,17.239h-0.198c0,1.107-0.828,2.014-1.864,2.069v-2.069h-0.203v2.272h0.102
					C-11.027,19.511-10.059,18.492-10.059,17.239z"/>
			</g>
			<g>
				<path fill="#A50F14" d="M-2.281,17.239H-2.51c0,1.243-0.93,2.262-2.092,2.325v-2.325h-0.228v2.552h0.116
					C-3.37,19.791-2.281,18.647-2.281,17.239z"/>
			</g>
			<g>
				<path fill="#A50F14" d="M-5.627,23.117v-0.24c-1.245,0-2.262-0.982-2.325-2.214h2.325v-0.238H-8.18v0.12
					C-8.18,21.964-7.037,23.117-5.627,23.117z"/>
			</g>
			<g>
				<path fill="#A50F14" d="M-5.627,34.415v-0.24c-1.245,0-2.262-0.981-2.325-2.214h2.325v-0.239H-8.18v0.12
					C-8.18,33.263-7.037,34.415-5.627,34.415z"/>
			</g>
			<g>
				<path fill="#A50F14" d="M-9.928,42.144h0.237c0,1.243,0.974,2.261,2.193,2.324v-2.324h0.232v2.552h-0.116
					C-8.785,44.696-9.928,43.552-9.928,42.144z"/>
			</g>
			<g>
				<path fill="#A50F14" d="M50.704,23.607v0.25c-1.177,0-2.141,1.029-2.199,2.317h2.199v0.25h-2.417v-0.126
					C48.287,24.813,49.372,23.607,50.704,23.607z"/>
			</g>
			<g>
				<path fill="#A50F14" d="M42.123,42.602v0.255c1.337,0,2.432,1.048,2.499,2.361h-2.499v0.255h2.746v-0.128
					C44.869,43.832,43.634,42.602,42.123,42.602z"/>
			</g>
			<g>
				<path fill="#A50F14" d="M62.34,40.771h-0.257c0,1.336-1.046,2.431-2.357,2.499v-2.499h-0.257v2.746h0.128
					C61.11,43.516,62.34,42.281,62.34,40.771z"/>
			</g>
			<g>
				<path fill="#A50F14" d="M42.123,48.636v0.239c1.247,0,2.27,0.979,2.332,2.202h-2.332v0.238h2.562v-0.12
					C44.685,49.783,43.532,48.636,42.123,48.636z"/>
			</g>
			<g>
				<path fill="#A50F14" d="M50.791,47.383v0.249c-1.182,0-2.15,1.024-2.208,2.312h2.208v0.248h-2.426v-0.125
					C48.365,48.583,49.454,47.383,50.791,47.383z"/>
			</g>
			<g>
				<path fill="#A50F14" d="M50.791,36.87v0.249c-1.182,0-2.15,1.023-2.208,2.312h2.208v0.249h-2.426v-0.126
					C48.365,38.071,49.454,36.87,50.791,36.87z"/>
			</g>
			<g>
				<path fill="#A50F14" d="M50.791,66.148v-0.242c-1.273,0-2.317-0.999-2.383-2.248h2.383v-0.243h-2.615v0.122
					C48.176,64.978,49.348,66.148,50.791,66.148z"/>
			</g>
			<g>
				<path fill="#A50F14" d="M50.791,98.922v-0.243c-1.273,0-2.317-0.999-2.383-2.248h2.383v-0.244h-2.615v0.122
					C48.176,97.751,49.348,98.922,50.791,98.922z"/>
			</g>
			<g>
				<path fill="#A50F14" d="M50.825,202.854v-0.242c-1.274,0-2.315-0.998-2.381-2.247h2.381v-0.243H48.21v0.122
					C48.21,201.684,49.385,202.854,50.825,202.854z"/>
			</g>
			<g>
				<path fill="#A50F14" d="M26.095,216.179v0.267c1.39,0,2.527,1.092,2.601,2.456h-2.601v0.264h2.852v-0.133
					C28.946,217.46,27.668,216.179,26.095,216.179z"/>
			</g>
			<g>
				<path fill="#A50F14" d="M13.362,181.392v-0.278c1.392,0,2.529-1.143,2.602-2.566h-2.602v-0.273h2.854v0.141
					C16.217,180.055,14.936,181.392,13.362,181.392z"/>
			</g>
			<g>
				<path fill="#A50F14" d="M42.123,34.25V34c1.177,0,2.141-1.029,2.199-2.317h-2.199v-0.25h2.414v0.126
					C44.537,33.043,43.455,34.25,42.123,34.25z"/>
			</g>
			<g>
				<path fill="#A50F14" d="M42.123,55.713v-0.221c1.177,0,2.141-0.907,2.199-2.043h-2.199v-0.22h2.414v0.111
					C44.537,54.65,43.455,55.713,42.123,55.713z"/>
			</g>
			<g>
				<path fill="#575756" d="M41.933,148.551h-7.281c-3.149,0-5.712-2.562-5.712-5.712v-10.393c0-3.15,2.563-5.711,5.712-5.711h7.281
					c3.151,0,5.714,2.561,5.714,5.711v10.393C47.646,145.99,45.084,148.551,41.933,148.551z M34.651,129.214
					c-1.784,0-3.233,1.45-3.233,3.232v10.393c0,1.782,1.449,3.232,3.233,3.232h7.281c1.781,0,3.233-1.45,3.233-3.232v-10.393
					c0-1.782-1.452-3.232-3.233-3.232H34.651z"/>
			</g>
			<g>
				<line fill="#575756" x1="5.206" y1="244.453" x2="5.206" y2="248.667"/>
			</g>
			<g>
				<line fill="#575756" x1="72.311" y1="248.667" x2="72.311" y2="244.453"/>
			</g>
			<g>
				<g>
					<path fill="#A50F14" d="M72.207,239.285v-0.301h-3.099c0.086-1.556,1.444-2.794,3.099-2.794v-0.307
						c-1.877,0-3.401,1.459-3.401,3.254v0.147H72.207z"/>
				</g>
			</g>
		</g>
		<g>
			
				<rect x="64.439" y="216.87" fill="none" stroke="#194383" stroke-width="0.05" stroke-miterlimit="10" width="4.164" height="0.896"/>
			
				<rect x="64.439" y="217.766" fill="none" stroke="#194383" stroke-width="0.05" stroke-miterlimit="10" width="4.164" height="0.891"/>
			
				<rect x="64.439" y="218.657" fill="none" stroke="#194383" stroke-width="0.05" stroke-miterlimit="10" width="4.164" height="0.896"/>
			
				<rect x="64.439" y="219.552" fill="none" stroke="#194383" stroke-width="0.05" stroke-miterlimit="10" width="4.164" height="0.892"/>
			
				<rect x="64.439" y="220.415" fill="none" stroke="#194383" stroke-width="0.05" stroke-miterlimit="10" width="4.164" height="0.892"/>
			
				<rect x="64.439" y="221.306" fill="none" stroke="#194383" stroke-width="0.05" stroke-miterlimit="10" width="4.164" height="0.896"/>
		</g>
		<g>
			
				<rect x="19.584" y="184.649" fill="none" stroke="#194383" stroke-width="0.05" stroke-miterlimit="10" width="5.134" height="0.896"/>
			
				<rect x="19.584" y="185.544" fill="none" stroke="#194383" stroke-width="0.05" stroke-miterlimit="10" width="5.134" height="0.892"/>
			
				<rect x="19.584" y="186.402" fill="none" stroke="#194383" stroke-width="0.05" stroke-miterlimit="10" width="5.134" height="0.896"/>
			
				<rect x="19.584" y="187.297" fill="none" stroke="#194383" stroke-width="0.05" stroke-miterlimit="10" width="5.134" height="0.891"/>
			
				<rect x="19.584" y="188.188" fill="none" stroke="#194383" stroke-width="0.05" stroke-miterlimit="10" width="5.134" height="0.896"/>
			
				<rect x="19.584" y="189.084" fill="none" stroke="#194383" stroke-width="0.05" stroke-miterlimit="10" width="5.134" height="0.891"/>
			
				<rect x="19.584" y="189.947" fill="none" stroke="#194383" stroke-width="0.05" stroke-miterlimit="10" width="5.134" height="0.89"/>
			
				<rect x="19.584" y="190.836" fill="none" stroke="#194383" stroke-width="0.05" stroke-miterlimit="10" width="5.134" height="0.896"/>
			
				<rect x="19.584" y="191.733" fill="none" stroke="#194383" stroke-width="0.05" stroke-miterlimit="10" width="5.134" height="0.891"/>
			
				<rect x="19.584" y="192.624" fill="none" stroke="#194383" stroke-width="0.05" stroke-miterlimit="10" width="5.134" height="0.896"/>
		</g>
		<g>
			
				<rect x="18.574" y="193.496" fill="none" stroke="#194383" stroke-width="0.05" stroke-miterlimit="10" width="0.894" height="5.133"/>
			
				<rect x="17.682" y="193.496" fill="none" stroke="#194383" stroke-width="0.05" stroke-miterlimit="10" width="0.893" height="5.133"/>
			
				<rect x="16.819" y="193.496" fill="none" stroke="#194383" stroke-width="0.05" stroke-miterlimit="10" width="0.896" height="5.133"/>
			
				<rect x="15.928" y="193.496" fill="none" stroke="#194383" stroke-width="0.05" stroke-miterlimit="10" width="0.892" height="5.133"/>
			
				<rect x="15.033" y="193.496" fill="none" stroke="#194383" stroke-width="0.05" stroke-miterlimit="10" width="0.895" height="5.133"/>
			
				<rect x="14.142" y="193.496" fill="none" stroke="#194383" stroke-width="0.05" stroke-miterlimit="10" width="0.892" height="5.133"/>
			
				<rect x="13.279" y="193.496" fill="none" stroke="#194383" stroke-width="0.05" stroke-miterlimit="10" width="0.894" height="5.133"/>
			
				<rect x="12.386" y="193.496" fill="none" stroke="#194383" stroke-width="0.05" stroke-miterlimit="10" width="0.894" height="5.133"/>
		</g>
		<g>
			<g>
				
					<rect x="66.333" y="23.994" fill="none" stroke="#194383" stroke-width="0.05" stroke-miterlimit="10" width="5.133" height="0.894"/>
				
					<rect x="66.333" y="24.888" fill="none" stroke="#194383" stroke-width="0.05" stroke-miterlimit="10" width="5.133" height="0.893"/>
				
					<rect x="66.333" y="25.747" fill="none" stroke="#194383" stroke-width="0.05" stroke-miterlimit="10" width="5.133" height="0.896"/>
				
					<rect x="66.333" y="26.643" fill="none" stroke="#194383" stroke-width="0.05" stroke-miterlimit="10" width="5.133" height="0.891"/>
				
					<rect x="66.333" y="27.534" fill="none" stroke="#194383" stroke-width="0.05" stroke-miterlimit="10" width="5.133" height="0.896"/>
				
					<rect x="66.333" y="28.43" fill="none" stroke="#194383" stroke-width="0.05" stroke-miterlimit="10" width="5.133" height="0.891"/>
				
					<rect x="66.333" y="29.29" fill="none" stroke="#194383" stroke-width="0.05" stroke-miterlimit="10" width="5.133" height="0.894"/>
				
					<rect x="66.333" y="30.183" fill="none" stroke="#194383" stroke-width="0.05" stroke-miterlimit="10" width="5.133" height="0.893"/>
				
					<rect x="66.333" y="31.076" fill="none" stroke="#194383" stroke-width="0.05" stroke-miterlimit="10" width="5.133" height="0.894"/>
				
					<rect x="66.333" y="31.97" fill="none" stroke="#194383" stroke-width="0.05" stroke-miterlimit="10" width="5.133" height="0.893"/>
				
					<rect x="66.333" y="32.832" fill="none" stroke="#194383" stroke-width="0.05" stroke-miterlimit="10" width="5.133" height="0.891"/>
				
					<rect x="66.333" y="33.723" fill="none" stroke="#194383" stroke-width="0.05" stroke-miterlimit="10" width="5.133" height="0.896"/>
			</g>
			<g>
				
					<rect x="57.408" y="23.994" fill="none" stroke="#194383" stroke-width="0.05" stroke-miterlimit="10" width="5.133" height="0.894"/>
				
					<rect x="57.408" y="24.888" fill="none" stroke="#194383" stroke-width="0.05" stroke-miterlimit="10" width="5.133" height="0.893"/>
				
					<rect x="57.408" y="25.747" fill="none" stroke="#194383" stroke-width="0.05" stroke-miterlimit="10" width="5.133" height="0.896"/>
				
					<rect x="57.408" y="26.643" fill="none" stroke="#194383" stroke-width="0.05" stroke-miterlimit="10" width="5.133" height="0.891"/>
				
					<rect x="57.408" y="27.534" fill="none" stroke="#194383" stroke-width="0.05" stroke-miterlimit="10" width="5.133" height="0.896"/>
				
					<rect x="57.408" y="28.43" fill="none" stroke="#194383" stroke-width="0.05" stroke-miterlimit="10" width="5.133" height="0.891"/>
			</g>
			
				<rect x="63.098" y="18.707" fill="none" stroke="#194383" stroke-width="0.05" stroke-miterlimit="10" width="0.893" height="5.133"/>
			
				<rect x="63.99" y="18.707" fill="none" stroke="#194383" stroke-width="0.05" stroke-miterlimit="10" width="0.895" height="5.133"/>
			
				<rect x="64.885" y="18.707" fill="none" stroke="#194383" stroke-width="0.05" stroke-miterlimit="10" width="0.894" height="5.133"/>
			
				<rect x="63.188" y="34.625" fill="none" stroke="#194383" stroke-width="0.05" stroke-miterlimit="10" width="0.894" height="5.133"/>
			
				<rect x="64.05" y="34.625" fill="none" stroke="#194383" stroke-width="0.05" stroke-miterlimit="10" width="0.891" height="5.133"/>
			
				<rect x="64.94" y="34.625" fill="none" stroke="#194383" stroke-width="0.05" stroke-miterlimit="10" width="0.896" height="5.133"/>
		</g>
		<g>
			<rect x="88.186" y="174.813" fill="#575756" width="3.119" height="3.686"/>
		</g>
		<g>
			<rect x="88.186" y="242.758" fill="#575756" width="3.119" height="3.686"/>
		</g>
		<g>
			<rect x="88.186" y="106.721" fill="#575756" width="3.119" height="3.686"/>
		</g>
	</g>
	<g>
		<g>
			<g>
				
					<line fill="none" stroke="#F39200" stroke-width="1.5" stroke-miterlimit="10" x1="29.592" y1="113.472" x2="8.353" y2="113.472"/>
				<g>
					<polygon fill="#F39200" points="9.228,110.497 4.047,113.488 9.228,116.48 					"/>
				</g>
			</g>
		</g>
		<g>
			<g>
				
					<line fill="none" stroke="#F39200" stroke-width="1.5" stroke-miterlimit="10" x1="46.646" y1="113.471" x2="67.886" y2="113.471"/>
				<g>
					<polygon fill="#F39200" points="67.011,116.446 72.191,113.455 67.011,110.463 					"/>
				</g>
			</g>
		</g>
		<g>
			<g>
				
					<line fill="none" stroke="#F39200" stroke-width="1.5" stroke-miterlimit="10" x1="29.592" y1="138.23" x2="8.353" y2="138.23"/>
				<g>
					<polygon fill="#F39200" points="9.228,135.256 4.047,138.247 9.228,141.239 					"/>
				</g>
			</g>
		</g>
		<g>
			<g>
				
					<line fill="none" stroke="#F39200" stroke-width="1.5" stroke-miterlimit="10" x1="46.646" y1="138.23" x2="67.886" y2="138.23"/>
				<g>
					<polygon fill="#F39200" points="67.011,141.205 72.191,138.213 67.011,135.222 					"/>
				</g>
			</g>
		</g>
	</g>
	<text transform="matrix(1 0 0 1 54.2959 80.6021)"><tspan x="0" y="0" fill="#8A0F0C" font-family="'Arial-BoldMT'" font-size="2">Конференц-зал</tspan><tspan x="5.438" y="2.4" fill="#8A0F0C" font-family="'Arial-BoldMT'" font-size="2">2111</tspan><tspan x="0.911" y="4.56" fill="#A50F14" font-family="'Arial-BoldMT'" font-size="1.8">Conference hall</tspan><tspan x="5.661" y="6.72" fill="#A50F14" font-family="'Arial-BoldMT'" font-size="1.8">2111</tspan></text>
	<text transform="matrix(1 0 0 1 16.0547 80.3325)"><tspan x="0" y="0" fill="#8A0F0C" font-family="'Arial-BoldMT'" font-size="2">Конференц-зал</tspan><tspan x="5.439" y="2.4" fill="#8A0F0C" font-family="'Arial-BoldMT'" font-size="2">2110</tspan><tspan x="0.912" y="4.56" fill="#A50F14" font-family="'Arial-BoldMT'" font-size="1.8">Conference hall</tspan><tspan x="5.662" y="6.72" fill="#A50F14" font-family="'Arial-BoldMT'" font-size="1.8">2110</tspan></text>
	<text transform="matrix(1 0 0 1 16.0547 97.1274)"><tspan x="0" y="0" fill="#8A0F0C" font-family="'Arial-BoldMT'" font-size="2">Конференц-зал</tspan><tspan x="5.439" y="2.4" fill="#8A0F0C" font-family="'Arial-BoldMT'" font-size="2">2109</tspan><tspan x="0.912" y="4.56" fill="#A50F14" font-family="'Arial-BoldMT'" font-size="1.8">Conference hall</tspan><tspan x="5.662" y="6.72" fill="#A50F14" font-family="'Arial-BoldMT'" font-size="1.8">2109</tspan></text>
	<line opacity="0.1" fill="#95C11F" x1="4.627" y1="248.667" x2="4.627" y2="262.841"/>
	<line opacity="0.1" fill="#95C11F" x1="71.796" y1="262.841" x2="71.796" y2="248.667"/>
</g>
<g id="ПК">
</g>
<g id="Экспозиция">
	<line fill="#00A4D9" stroke="#000000" stroke-width="0.2" stroke-miterlimit="10" x1="73.4" y1="148.154" x2="73.4" y2="244.563"/>
	
		<line fill="#00A4D9" stroke="#000000" stroke-width="0.2" stroke-miterlimit="10" x1="72.774" y1="46.122" x2="72.774" y2="134.044"/>
</g>
</svg>
